<?xml version="1.0" encoding="utf-8"?>
<!-- Generator: Adobe Illustrator 24.0.1, SVG Export Plug-In . SVG Version: 6.00 Build 0)  -->
<svg version="1.1" id="Layer_1" xmlns="http://www.w3.org/2000/svg" xmlns:xlink="http://www.w3.org/1999/xlink" x="0px" y="0px"
	 viewBox="0 0 100 100" style="enable-background:new 0 0 100 100;" xml:space="preserve">
<style type="text/css">
	.st0{fill:#4A7AFF;}
	.st1{fill:#0053BF;}
	.st2{fill:#FFFFFF;}
	.st3{fill:#DCE1EB;}
	.st4{fill:#65A2D9;}
	.st5{fill:#3A7CA5;}
	.st6{fill:#D1D1D1;}
	.st7{fill:#B7130F;}
	.st8{fill:#870A0A;}
	.st9{fill:#6C27B3;}
	.st10{fill:#501A96;}
	.st11{fill:#4376B1;}
	.st12{fill:#336699;}
	.st13{fill:#6DC02D;}
	.st14{fill:#559B18;}
	.st15{fill:#6FC32E;}
	.st16{fill:#9B8579;}
	.st17{clip-path:url(#SVGID_2_);fill:#897164;}
	.st18{fill:none;}
	.st19{fill:#DC4E41;}
	.st20{fill:#B72C25;}
</style>
<g>
	<circle class="st4" cx="50" cy="50" r="50"/>
	<path class="st5" d="M76.8,27.2c-5.2,4.5-10.4,8.5-14.6,14C51.7,53.8,39,71.7,21.6,69l31,30.9C78.9,98.6,99.8,77,100,50.4
		L76.8,27.2z"/>
	<path class="st2" d="M77.7,31.7c-1.3,0.6-2.6,1-3.9,1.3c1.5-1.4,2.6-3.2,3.2-5.2c0.2-0.6-0.4-1.1-0.9-0.8c-1.9,1.1-3.9,2-6,2.5
		c-0.1,0-0.2,0-0.4,0c-0.4,0-0.8-0.1-1.1-0.4c-2.3-2-5.2-3.1-8.2-3.1c-1.3,0-2.6,0.2-3.9,0.6c-4,1.2-7.1,4.5-8.1,8.6
		c-0.4,1.5-0.5,3.1-0.3,4.5c0,0.2-0.1,0.3-0.1,0.3c-0.1,0.1-0.2,0.2-0.3,0.2c0,0,0,0,0,0c-8.8-0.8-16.7-5-22.2-11.9
		c-0.3-0.3-0.8-0.3-1.1,0.1c-1.1,1.9-1.7,4-1.7,6.2c0,3.3,1.3,6.5,3.7,8.8c-1-0.2-1.9-0.6-2.8-1.1c-0.4-0.2-1,0.1-1,0.6
		c-0.1,5,2.8,9.4,7.2,11.4c-0.1,0-0.2,0-0.3,0c-0.7,0-1.4-0.1-2.1-0.2c-0.5-0.1-0.9,0.4-0.7,0.8c1.4,4.4,5.2,7.7,9.8,8.4
		c-3.8,2.5-8.2,3.9-12.8,3.9l-1.4,0c-0.4,0-0.8,0.3-0.9,0.7c-0.1,0.4,0.1,0.9,0.5,1.1c5.2,3,11,4.6,17,4.6c5.2,0,10.1-1,14.5-3.1
		c4.1-1.9,7.6-4.6,10.6-8c2.8-3.2,5-6.9,6.5-10.9c1.4-3.9,2.2-8,2.2-11.9v-0.2c0-0.6,0.3-1.2,0.8-1.6c1.9-1.5,3.5-3.4,4.9-5.4
		C78.9,32.1,78.3,31.5,77.7,31.7L77.7,31.7z"/>
	<path class="st6" d="M77.7,31.7c-1.3,0.6-2.6,1-3.9,1.3c1.5-1.4,2.6-3.2,3.2-5.2c0.2-0.6-0.4-1.1-0.9-0.8c-1.9,1.1-3.9,2-6,2.5
		c-0.1,0-0.2,0-0.4,0c-0.4,0-0.8-0.1-1.1-0.4c-2.3-2-5.2-3.1-8.2-3.1c-1.3,0-2.6,0.2-3.9,0.6c-2.8,0.9-5.1,2.7-6.6,5.2v40.1
		c1.2-0.4,2.4-0.9,3.6-1.4c4.1-1.9,7.6-4.6,10.6-8c2.8-3.2,5-6.9,6.5-10.9c1.4-3.9,2.2-8,2.2-11.9v-0.2c0-0.6,0.3-1.2,0.8-1.6
		c1.9-1.5,3.5-3.4,4.9-5.4C78.9,32.1,78.3,31.5,77.7,31.7z"/>
</g>
</svg>
