<?xml version="1.0" encoding="utf-8"?>
<!-- Generator: Adobe Illustrator 24.0.1, SVG Export Plug-In . SVG Version: 6.00 Build 0)  -->
<svg version="1.1" id="Layer_1" xmlns="http://www.w3.org/2000/svg" xmlns:xlink="http://www.w3.org/1999/xlink" x="0px" y="0px"
	 viewBox="0 0 100 100" style="enable-background:new 0 0 100 100;" xml:space="preserve">
<style type="text/css">
	.st0{fill:#4A7AFF;}
	.st1{fill:#0053BF;}
	.st2{fill:#FFFFFF;}
	.st3{fill:#DCE1EB;}
	.st4{fill:#65A2D9;}
	.st5{fill:#3A7CA5;}
	.st6{fill:#D1D1D1;}
	.st7{fill:#D22215;}
	.st8{fill:#A81411;}
	.st9{fill:#6C27B3;}
	.st10{fill:#501A96;}
	.st11{fill:#4376B1;}
	.st12{fill:#336699;}
	.st13{fill:#6DC02D;}
	.st14{fill:#559B18;}
	.st15{fill:#6FC32E;}
</style>
<g>
	<circle class="st13" cx="50" cy="50" r="50"/>
	<path class="st14" d="M72.1,31.3L28.5,60.7l36.9,36.9c17.5-5.6,30.8-20.7,33.9-39.2L72.1,31.3z"/>
	<path class="st2" d="M78.4,48.6c0.1-0.7,0.2-1.3,0.2-1.7c0-0.8,0-1.9,0-2.2C77.9,32.6,65.3,22.9,50,22.9
		c-15.8,0-28.6,10.2-28.6,22.8c0,11.6,10.8,21.1,24.8,22.6c0.9,0.1,1.5,0.9,1.4,1.7L47,75.3c-0.1,1.2,1.1,2.1,2.2,1.6
		c11.8-5.7,18.9-11.6,23.2-16.7c0.8-0.9,3.3-4.4,3.8-5.4C77.3,52.9,78,50.8,78.4,48.6z"/>
	<path class="st6" d="M78.6,44.6C77.9,32.6,65.3,22.9,50,22.9c0,0-0.1,0-0.1,0v53.7C61.3,71,68.2,65.2,72.4,60.2
		c0.8-0.9,3.3-4.4,3.8-5.4c1.1-2,1.8-4.1,2.2-6.3c0.1-0.7,0.2-1.3,0.2-1.7C78.6,46.1,78.6,45,78.6,44.6z"/>
	<g>
		<path class="st15" d="M34.3,50.3v-9.6c0-0.8-0.7-1.5-1.5-1.5l0,0c-0.8,0-1.5,0.7-1.5,1.5v11c0,0.8,0.7,1.5,1.5,1.5h5.9
			c0.8,0,1.5-0.7,1.5-1.5l0,0c0-0.8-0.7-1.5-1.5-1.5L34.3,50.3L34.3,50.3z"/>
		<path class="st15" d="M43.3,53.2h-0.6c-0.6,0-1.1-0.5-1.1-1.1V40.4c0-0.6,0.5-1.1,1.1-1.1h0.6c0.6,0,1.1,0.5,1.1,1.1v11.7
			C44.4,52.7,43.9,53.2,43.3,53.2z"/>
		<path class="st15" d="M55.1,40.7v6.8c0,0-5.8-7.6-5.9-7.7c-0.3-0.3-0.7-0.5-1.1-0.5c-0.8,0-1.4,0.7-1.4,1.5v11
			c0,0.8,0.7,1.5,1.5,1.5l0,0c0.8,0,1.5-0.7,1.5-1.5v-6.7c0,0,5.9,7.7,6,7.8c0.3,0.2,0.6,0.4,1,0.4c0.8,0,1.5-0.7,1.5-1.5v-11
			c0-0.8-0.7-1.5-1.5-1.5l0,0C55.8,39.2,55.1,39.9,55.1,40.7z"/>
		<path class="st15" d="M69,40.7L69,40.7c0-0.8-0.7-1.5-1.5-1.5h-5.9c-0.8,0-1.5,0.7-1.5,1.5v11c0,0.8,0.7,1.5,1.5,1.5h5.9
			c0.8,0,1.5-0.7,1.5-1.5l0,0c0-0.8-0.7-1.5-1.5-1.5h-4.4v-2.6h4.4c0.8,0,1.5-0.7,1.5-1.5l0,0c0-0.8-0.7-1.5-1.5-1.5h-4.4v-2.6h4.4
			C68.4,42.2,69,41.5,69,40.7z"/>
	</g>
</g>
</svg>
