<?xml version="1.0" encoding="utf-8"?>
<!-- Generator: Adobe Illustrator 24.0.1, SVG Export Plug-In . SVG Version: 6.00 Build 0)  -->
<svg version="1.1" id="Layer_1" xmlns="http://www.w3.org/2000/svg" xmlns:xlink="http://www.w3.org/1999/xlink" x="0px" y="0px"
	 viewBox="0 0 100 100" style="enable-background:new 0 0 100 100;" xml:space="preserve">
<style type="text/css">
	.st0{fill:#CC0000;}
	.st1{fill:#FFFFFF;}
</style>
<circle class="st0" cx="50" cy="50" r="45"/>
<g>
	<path class="st1" d="M54.1,28.9c0-0.3,0-0.6-0.1-0.8c-0.3-1.5-1.3-2.7-2.7-3.2c-1.4-0.5-3-0.3-4.1,0.6l6,6
		C53.8,30.8,54.1,29.9,54.1,28.9z"/>
	<path class="st1" d="M21.9,58.4c0.8,0.8,2.2,0.8,3,0l1.4-1.4l-4.4-4.4L20.5,54c-0.4,0.4-0.6,1-0.6,1.5s0.2,1.1,0.6,1.5L21.9,58.4z"
		/>
	<path class="st1" d="M39.1,26.5l-1.5-1.5c-0.2,6.6-6.3,14.5-8.3,17l7.5,7.5c2.5-2,10.4-8.1,17-8.3L39.1,26.5z"/>
	<path class="st1" d="M27.9,43.6l-5.2,5.2c-0.4,0.4-0.4,1.1,0,1.5l5.9,5.9c0.4,0.4,1.1,0.4,1.5,0l0.2-0.2l5-5L27.9,43.6z"/>
	<path class="st1" d="M30.9,58.2c-0.9,0.5-2,0.5-2.9,0.1l-1.6,1.6c-1.7,1.7-4.4,1.7-6.1,0l-0.5-0.5v2.9h18.3L30.9,58.2z"/>
	<path class="st1" d="M57.7,42.1c0.2,0.2,0.5,0.3,0.7,0.3h0c0.3,0,0.5-0.1,0.7-0.3l0,0c0.2-0.2,0.3-0.4,0.3-0.7
		c0-0.3-0.1-0.5-0.3-0.7L44.8,26.3c0,0-0.1-0.1-0.1-0.1l-6.4-6.4c-0.2-0.2-0.5-0.3-0.7-0.3c-0.3,0-0.5,0.1-0.7,0.3
		c-0.2,0.2-0.3,0.4-0.3,0.7c0,0.3,0.1,0.5,0.3,0.7L57.7,42.1z"/>
	<polygon class="st1" points="44.2,59.9 36.8,52.5 35,54.4 32.6,56.7 42.2,62 	"/>
	<path class="st1" d="M21.2,47.2l5.9-5.9c2-2.3,5.9-7.5,7.6-12.4H23.1c-1.8,0-3.2,1.4-3.2,3.2v19.4l0.7-0.7
		C20,49.6,20.3,48.2,21.2,47.2z"/>
	<path class="st1" d="M74.7,55.8h-14c-0.6,0-1.1,0.5-1.1,1.1c0,0.6,0.5,1.1,1.1,1.1h14c0.6,0,1.1-0.5,1.1-1.1
		C75.8,56.3,75.3,55.8,74.7,55.8z"/>
	<path class="st1" d="M19.9,67.7c0,1.8,1.4,3.2,3.2,3.2h18.3v5.4h-8.6v4.3h34.4v-4.3h-8.6v-5.4h18.3c1.8,0,3.2-1.4,3.2-3.2v-3.2
		H19.9V67.7z"/>
	<path class="st1" d="M76.9,28.9H56.2c0,1.5-0.5,3-1.5,4.2l6,6c0.9,0.9,1.2,2.3,0.7,3.5c-0.5,1.2-1.6,2-2.9,2h0
		c-0.7,0-1.4-0.3-2-0.7c-5.2-2-14,4-18,7.3l8.1,8.1c0.2,0.2,0.3,0.5,0.3,0.8c0,0.3-0.1,0.6-0.3,0.8L45,62.3h35.2V32.2
		C80.1,30.4,78.7,28.9,76.9,28.9z M66.1,45.1h3.2c0.6,0,1.1,0.5,1.1,1.1c0,0.6-0.5,1.1-1.1,1.1h-3.2c-0.6,0-1.1-0.5-1.1-1.1
		C65.1,45.5,65.5,45.1,66.1,45.1z M58.6,49.4h9.7c0.6,0,1.1,0.5,1.1,1.1c0,0.6-0.5,1.1-1.1,1.1h-9.7c-0.6,0-1.1-0.5-1.1-1.1
		C57.5,49.8,58,49.4,58.6,49.4z M74.7,60.1h-14c-1.8,0-3.2-1.4-3.2-3.2c0-1.8,1.4-3.2,3.2-3.2h14c1.8,0,3.2,1.4,3.2,3.2
		C78,58.7,76.5,60.1,74.7,60.1z M76.9,51.5h-4.3c-0.6,0-1.1-0.5-1.1-1.1c0-0.6,0.5-1.1,1.1-1.1h4.3c0.6,0,1.1,0.5,1.1,1.1
		C78,51,77.5,51.5,76.9,51.5z M76.9,47.2h-3.2c-0.6,0-1.1-0.5-1.1-1.1c0-0.6,0.5-1.1,1.1-1.1h3.2c0.6,0,1.1,0.5,1.1,1.1
		C78,46.7,77.5,47.2,76.9,47.2z"/>
</g>
</svg>
