<?xml version="1.0" encoding="utf-8"?>
<!-- Generator: Adobe Illustrator 24.0.1, SVG Export Plug-In . SVG Version: 6.00 Build 0)  -->
<svg version="1.1" id="Layer_1" xmlns="http://www.w3.org/2000/svg" xmlns:xlink="http://www.w3.org/1999/xlink" x="0px" y="0px"
	 viewBox="0 0 100 100" style="enable-background:new 0 0 100 100;" xml:space="preserve">
<style type="text/css">
	.st0{fill:#CC0000;}
	.st1{fill:#FFFFFF;}
</style>
<circle class="st0" cx="50" cy="50" r="45"/>
<g>
	<path class="st1" d="M81.4,28.6l-41.6-8.8c-1.8-0.4-3.5,0.8-3.9,2.5l-0.8,5.1l48.1,10.2l0.8-5.1C84.3,30.7,83.2,28.9,81.4,28.6
		L81.4,28.6z M81.4,28.6"/>
	<path class="st1" d="M63.9,38.6c-0.5-1.8-2.3-2.8-4.1-2.3l-7.9,2.2l-18.6-3.9l-2,9.7l-12.8,3.6c-1.8,0.5-2.8,2.3-2.3,4.1l7.2,26
		c0.5,1.8,2.3,2.8,4.1,2.3l41.4-11.5c1.8-0.5,2.8-2.3,2.3-4.1l-1.2-4.5l4.6,1c1.8,0.4,3.5-0.8,3.9-2.5l2.9-13.9l-16.7-3.5L63.9,38.6
		z M68.7,51.8l1-4.8c0.2-0.7,0.9-1.2,1.6-1l4.8,1c0.7,0.2,1.2,0.9,1,1.6l-1,4.8c-0.2,0.7-0.9,1.2-1.6,1l-4.8-1
		C69,53.3,68.5,52.6,68.7,51.8L68.7,51.8z M19.1,50.4l11.5-3.2l27-7.5l2.9-0.8c0.1,0,0.1,0,0.2,0c0.2,0,0.5,0.2,0.6,0.4l0.3,1.2
		l1.1,3.9L20.1,56.2l-1.4-5.1C18.6,50.8,18.8,50.5,19.1,50.4L19.1,50.4z M68.5,65.3c0.1,0.2,0,0.4-0.1,0.5c-0.1,0.1-0.2,0.2-0.4,0.3
		L26.7,77.6c-0.1,0-0.1,0-0.2,0c-0.2,0-0.5-0.2-0.6-0.4L21.7,62l42.6-11.8l2.6,9.4L68.5,65.3z M68.5,65.3"/>
	<path class="st1" d="M33.4,66.4c-0.2-0.7-0.9-1.1-1.7-0.9l-4.8,1.3c-0.7,0.2-1.1,0.9-0.9,1.7l1.3,4.8c0.2,0.7,0.9,1.1,1.7,0.9
		l4.8-1.3c0.7-0.2,1.1-0.9,0.9-1.7L33.4,66.4z M33.4,66.4"/>
</g>
</svg>
