<?xml version="1.0" encoding="utf-8"?>
<!-- Generator: Adobe Illustrator 24.0.1, SVG Export Plug-In . SVG Version: 6.00 Build 0)  -->
<svg version="1.1" id="Layer_1" xmlns="http://www.w3.org/2000/svg" xmlns:xlink="http://www.w3.org/1999/xlink" x="0px" y="0px"
	 viewBox="0 0 100 100" style="enable-background:new 0 0 100 100;" xml:space="preserve">
<style type="text/css">
	.st0{fill:#CC0000;}
	.st1{fill:#FFFFFF;}
</style>
<circle class="st0" cx="50" cy="50" r="45"/>
<g>
	<path class="st1" d="M65.9,51.6c-7.9,0-14.3,6.4-14.3,14.3c0,7.9,6.4,14.3,14.3,14.3s14.3-6.4,14.3-14.3
		C80.2,58,73.8,51.6,65.9,51.6z"/>
	<path class="st1" d="M55.4,51.2V21.5c0-0.9-0.8-1.7-1.7-1.7H30.8V29c0,1-0.8,1.9-1.9,1.9h-9.2v34.6c0,0.9,0.8,1.7,1.7,1.7h26.4
		c0-0.4-0.1-0.8-0.1-1.2C47.8,59.8,50.8,54.5,55.4,51.2z"/>
</g>
<path class="st0" d="M29.5,18.1l-9.9,9.9v40.9h26.3c0.8-6.9,4.2-13.3,9.5-17.9V18.1H29.5z"/>
<path class="st0" d="M65.9,80.2c-7.9,0-14.3-6.4-14.3-14.3S58,51.6,65.9,51.6S80.2,58,80.2,65.9S73.8,80.2,65.9,80.2z"/>
<path class="st1" d="M47.6,30.3H36.9c-1,0-1.9-0.8-1.9-1.9c0-1,0.8-1.9,1.9-1.9h10.7c1,0,1.9,0.8,1.9,1.9
	C49.5,29.4,48.7,30.3,47.6,30.3z"/>
<path class="st1" d="M47.6,40.3H27.5c-1,0-1.9-0.8-1.9-1.9c0-1,0.8-1.9,1.9-1.9h20.1c1,0,1.9,0.8,1.9,1.9
	C49.5,39.5,48.7,40.3,47.6,40.3z"/>
<path class="st1" d="M47.6,50.3H27.5c-1,0-1.9-0.8-1.9-1.9c0-1.1,0.8-1.9,1.9-1.9h20.1c1,0,1.9,0.8,1.9,1.9
	C49.5,49.4,48.7,50.3,47.6,50.3z"/>
<path class="st1" d="M42.7,60.2H27.5c-1,0-1.9-0.8-1.9-1.9c0-1,0.8-1.9,1.9-1.9h15.2c1,0,1.9,0.8,1.9,1.9
	C44.6,59.4,43.8,60.2,42.7,60.2z"/>
<path class="st1" d="M78.9,53.3l3.6-3.6c0.7-0.7,0.8-1.9,0-2.7c-0.7-0.7-1.9-0.8-2.7,0L76,50.9c-2.4-1.6-5.2-2.7-8.2-3v-2.6h0.8
	c1,0,1.9-0.8,1.9-1.9c0-1-0.8-1.9-1.9-1.9h-5.4c-1,0-1.9,0.8-1.9,1.9c0,1,0.8,1.9,1.9,1.9H64v2.5c-1.7,0.2-3.3,0.6-4.9,1.2V21.5
	c0-3-2.4-5.5-5.4-5.5H30.4c-1.4,0-2.8,0.6-3.9,1.6l-9,9c-1,1-1.6,2.4-1.6,3.9v35c0,3,2.5,5.5,5.5,5.5h27C50.7,78.4,57.6,84,65.9,84
	c10,0,18.1-8.1,18.1-18.1C84,61,82,56.6,78.9,53.3z M27,22.5v4.6h-4.6L27,22.5z M21.5,67.1c-0.9,0-1.7-0.8-1.7-1.7V30.8H29
	c1,0,1.9-0.8,1.9-1.9v-9.2h22.8c0.9,0,1.7,0.8,1.7,1.7v29.7c-4.6,3.3-7.6,8.6-7.6,14.7c0,0.4,0,0.8,0.1,1.2L21.5,67.1L21.5,67.1z
	 M65.9,80.2c-7.9,0-14.3-6.4-14.3-14.3c0-7.9,6.4-14.3,14.3-14.3S80.2,58,80.2,65.9C80.2,73.8,73.8,80.2,65.9,80.2z"/>
<polygon class="st0" points="22.4,27.1 27,27.1 27,22.5 "/>
<path class="st1" d="M65.9,53.7c-1,0-1.9,0.8-1.9,1.9v10.3c0,1,0.8,1.9,1.9,1.9c1,0,1.9-0.8,1.9-1.9V55.6
	C67.8,54.5,66.9,53.7,65.9,53.7z"/>
</svg>
