<?xml version="1.0" encoding="utf-8"?>
<!-- Generator: Adobe Illustrator 24.0.1, SVG Export Plug-In . SVG Version: 6.00 Build 0)  -->
<svg version="1.1" id="Layer_1" xmlns="http://www.w3.org/2000/svg" xmlns:xlink="http://www.w3.org/1999/xlink" x="0px" y="0px"
	 viewBox="0 0 100 100" style="enable-background:new 0 0 100 100;" xml:space="preserve">
<style type="text/css">
	.st0{fill:#CC0000;}
	.st1{fill:#FFFFFF;}
</style>
<circle class="st0" cx="50" cy="49.9" r="45"/>
<g>
	<path class="st1" d="M22.9,65.4v10.2c0,0.6,0.5,1.1,1.1,1.1h7.9c0.6,0,1.1-0.5,1.1-1.1V57.6l-5.7,5.7
		C26.1,64.5,24.5,65.2,22.9,65.4L22.9,65.4z M22.9,65.4"/>
	<path class="st1" d="M36.9,57.5v18c0,0.6,0.5,1.1,1.1,1.1h7.9c0.6,0,1.1-0.5,1.1-1.1V64.9c-1.8,0-3.5-0.7-4.7-2L36.9,57.5z
		 M36.9,57.5"/>
	<path class="st1" d="M51,63.8v11.7c0,0.6,0.5,1.1,1.1,1.1H60c0.6,0,1.1-0.5,1.1-1.1V53.9l-9,9C51.8,63.2,51.4,63.5,51,63.8L51,63.8
		z M51,63.8"/>
	<path class="st1" d="M74.4,40.6L65,49.9v25.6c0,0.6,0.5,1.1,1.1,1.1h7.9c0.6,0,1.1-0.5,1.1-1.1V41.3c-0.3-0.2-0.5-0.4-0.6-0.5
		L74.4,40.6z M74.4,40.6"/>
	<path class="st1" d="M80.9,23.9c-0.4-0.4-0.9-0.6-1.7-0.6H79c-3.7,0.2-7.3,0.3-11,0.5c-0.5,0-1.2,0.1-1.7,0.6
		c-0.2,0.2-0.3,0.4-0.4,0.6c-0.5,1.2,0.2,1.9,0.6,2.3l0.9,0.9c0.6,0.6,1.3,1.3,1.9,1.9L47.2,52.3l-9.9-9.9c-0.6-0.6-1.4-0.9-2.2-0.9
		c-0.9,0-1.6,0.3-2.2,0.9L19.5,55.6c-1.2,1.2-1.2,3.2,0,4.5l0.6,0.6c0.6,0.6,1.4,0.9,2.2,0.9c0.9,0,1.6-0.3,2.2-0.9L35,50.3l9.9,9.9
		c0.6,0.6,1.4,0.9,2.2,0.9c0.9,0,1.6-0.3,2.2-0.9l25-25l2.8,2.8c0.3,0.3,0.8,0.8,1.5,0.8c0.3,0,0.6-0.1,0.9-0.2
		c0.2-0.1,0.4-0.2,0.5-0.4c0.6-0.6,0.7-1.3,0.7-1.8c0.1-2.4,0.2-4.7,0.3-7.1l0.2-3.6C81.4,24.9,81.3,24.4,80.9,23.9L80.9,23.9z
		 M80.9,23.9"/>
</g>
</svg>
