<?xml version="1.0" encoding="utf-8"?>
<!-- Generator: Adobe Illustrator 24.0.1, SVG Export Plug-In . SVG Version: 6.00 Build 0)  -->
<svg version="1.1" id="Layer_1" xmlns="http://www.w3.org/2000/svg" xmlns:xlink="http://www.w3.org/1999/xlink" x="0px" y="0px"
	 viewBox="0 0 100 100" style="enable-background:new 0 0 100 100;" xml:space="preserve">
<style type="text/css">
	.st0{fill:#CC0000;}
	.st1{fill:#FFFFFF;}
</style>
<circle class="st0" cx="50" cy="50" r="45"/>
<g>
	<path class="st1" d="M38.2,36.2c-0.3,0-0.7-0.1-1-0.3c-0.7-0.5-0.8-1.5-0.2-2.1l5.4-6.7l-2-2.7c-0.5-0.7-0.4-1.6,0.3-2.1
		c0.7-0.5,1.6-0.4,2.1,0.3l2.8,3.7c0.4,0.6,0.4,1.3,0,1.9l-6.1,7.7C39.1,36,38.7,36.2,38.2,36.2z"/>
	<path class="st1" d="M39.8,25.5c-2.5,0-4.6-2.1-4.6-4.6s2.1-4.6,4.6-4.6c2.5,0,4.6,2.1,4.6,4.6C44.3,23.5,42.3,25.5,39.8,25.5z
		 M39.8,19.4c-0.8,0-1.5,0.7-1.5,1.5c0,0.8,0.7,1.5,1.5,1.5c0.8,0,1.5-0.7,1.5-1.5C41.3,20.1,40.6,19.4,39.8,19.4z"/>
	<rect x="36.7" y="54.6" class="st1" width="6.1" height="6.1"/>
	<path class="st1" d="M21.4,66.8v15.3h3.1V63.8C22.8,63.8,21.4,65.1,21.4,66.8z"/>
	<path class="st1" d="M58.1,42.3c0-1.9-1.2-3.7-3.1-4.3v8.7C56.9,46,58.1,44.3,58.1,42.3z"/>
	<path class="st1" d="M29,51.5h21.4c0.8,0,1.5-0.7,1.5-1.5V34.7c0-0.8-0.7-1.5-1.5-1.5H29c-0.8,0-1.5,0.7-1.5,1.5V50
		C27.5,50.8,28.2,51.5,29,51.5z M44.3,37.8c0-0.8,0.7-1.5,1.5-1.5c0.8,0,1.5,0.7,1.5,1.5v3.1c0,0.8-0.7,1.5-1.5,1.5
		c-0.8,0-1.5-0.7-1.5-1.5V37.8z M32.1,37.8c0-0.8,0.7-1.5,1.5-1.5s1.5,0.7,1.5,1.5v3.1c0,0.8-0.7,1.5-1.5,1.5s-1.5-0.7-1.5-1.5V37.8
		z M32.2,45.4h15c0.8,0,1.5,0.7,1.5,1.5s-0.7,1.5-1.5,1.5h-15c-0.8,0-1.5-0.7-1.5-1.5S31.4,45.4,32.2,45.4z"/>
	<path class="st1" d="M52,82.1L52,82.1V63.8H27.5v19.9h3.1V69.9c0-1.7,1.4-3.1,3.1-3.1h12.2c1.7,0,3.1,1.4,3.1,3.1v13.8H52L52,82.1
		L52,82.1z"/>
	<path class="st1" d="M55.1,63.8v16.8h3.1V66.8C58.1,65.1,56.7,63.8,55.1,63.8z"/>
	<path class="st1" d="M21.4,42.3c0,1.9,1.2,3.7,3.1,4.3V38C22.6,38.7,21.4,40.4,21.4,42.3z"/>
	<rect x="33.6" y="69.9" class="st1" width="12.2" height="13.8"/>
</g>
<g>
	<path id="SVGCleanerId_2_4_" class="st1" d="M61.7,43.2c-0.2,0-0.4-0.1-0.6-0.3l-1.2-1.2c-0.3-0.3-0.3-0.9,0-1.2
		c0.3-0.3,0.9-0.3,1.2,0l1.2,1.2c0.3,0.3,0.3,0.9,0,1.2C62.1,43.1,61.9,43.2,61.7,43.2z"/>
	<g>
		<path id="SVGCleanerId_0_4_" class="st1" d="M71.5,39.1c-0.5,0-0.9-0.4-0.9-0.9v-1.7c0-0.5,0.4-0.9,0.9-0.9c0.5,0,0.9,0.4,0.9,0.9
			v1.7C72.3,38.8,71.9,39.1,71.5,39.1z"/>
		<g>
			<path id="SVGCleanerId_0_1_" class="st1" d="M71.5,39.1c-0.5,0-0.9-0.4-0.9-0.9v-1.7c0-0.5,0.4-0.9,0.9-0.9
				c0.5,0,0.9,0.4,0.9,0.9v1.7C72.3,38.8,71.9,39.1,71.5,39.1z"/>
		</g>
		<path id="SVGCleanerId_1_4_" class="st1" d="M81.3,43.2c-0.2,0-0.4-0.1-0.6-0.3c-0.3-0.3-0.3-0.9,0-1.2l1.2-1.2
			c0.3-0.3,0.9-0.3,1.2,0c0.3,0.3,0.3,0.9,0,1.2l-1.2,1.2C81.7,43.1,81.5,43.2,81.3,43.2z"/>
		<g>
			<path id="SVGCleanerId_1_1_" class="st1" d="M81.3,43.2c-0.2,0-0.4-0.1-0.6-0.3c-0.3-0.3-0.3-0.9,0-1.2l1.2-1.2
				c0.3-0.3,0.9-0.3,1.2,0c0.3,0.3,0.3,0.9,0,1.2l-1.2,1.2C81.7,43.1,81.5,43.2,81.3,43.2z"/>
		</g>
		<g>
			<path id="SVGCleanerId_2_1_" class="st1" d="M61.7,43.2c-0.2,0-0.4-0.1-0.6-0.3l-1.2-1.2c-0.3-0.3-0.3-0.9,0-1.2
				c0.3-0.3,0.9-0.3,1.2,0l1.2,1.2c0.3,0.3,0.3,0.9,0,1.2C62.1,43.1,61.9,43.2,61.7,43.2z"/>
		</g>
		<path id="SVGCleanerId_3_4_" class="st1" d="M87,53h-1.7c-0.5,0-0.9-0.4-0.9-0.9c0-0.5,0.4-0.9,0.9-0.9H87c0.5,0,0.9,0.4,0.9,0.9
			C87.9,52.6,87.5,53,87,53z"/>
		<g>
			<path id="SVGCleanerId_3_1_" class="st1" d="M87,53h-1.7c-0.5,0-0.9-0.4-0.9-0.9c0-0.5,0.4-0.9,0.9-0.9H87c0.5,0,0.9,0.4,0.9,0.9
				C87.9,52.6,87.5,53,87,53z"/>
		</g>
		<g>
			<path id="SVGCleanerId_4_1_" class="st1" d="M57.6,53h-1.7c-0.5,0-0.9-0.4-0.9-0.9c0-0.5,0.4-0.9,0.9-0.9h1.7
				c0.5,0,0.9,0.4,0.9,0.9C58.5,52.6,58.1,53,57.6,53z"/>
		</g>
		<path class="st1" d="M71.9,42.6c-4.2-0.2-8,2.4-9.4,6.3c-1.4,3.9-0.1,8.3,3.3,10.8c1.4,1,2.2,2.6,2.2,4.3v1h6.9v-1.1
			c0-1.7,0.8-3.3,2.2-4.3c3.2-2.4,4.6-6.6,3.4-10.4C79.4,45.5,75.9,42.8,71.9,42.6z M64.7,53.9c0,0-0.1,0-0.1,0
			c-0.4,0-0.8-0.3-0.9-0.8c0-0.3-0.1-0.6-0.1-1c0-0.5,0.4-0.9,0.9-0.9c0.5,0,0.9,0.4,0.9,0.9c0,0.3,0,0.5,0,0.8
			C65.5,53.4,65.2,53.8,64.7,53.9z M71.5,46.1c-2.2,0-4.2,1.2-5.2,3c-0.2,0.4-0.8,0.6-1.2,0.3c-0.4-0.2-0.6-0.8-0.3-1.2
			c1.4-2.4,4-3.9,6.7-3.9c0.5,0,0.9,0.4,0.9,0.9C72.3,45.7,71.9,46.1,71.5,46.1z"/>
		<path class="st1" d="M75.8,66.8h-8.7c-0.5,0-0.9,0.4-0.9,0.9c0,0.5,0.4,0.9,0.9,0.9h8.7c0.5,0,0.9-0.4,0.9-0.9
			C76.7,67.2,76.3,66.8,75.8,66.8z"/>
		<path class="st1" d="M75.8,70.3h-8.7c-0.5,0-0.9,0.4-0.9,0.9c0,0.5,0.4,0.9,0.9,0.9h8.7c0.5,0,0.9-0.4,0.9-0.9
			C76.7,70.7,76.3,70.3,75.8,70.3z"/>
		<path class="st1" d="M71.5,75.5c1.1,0,2.1-0.7,2.4-1.7H69C69.4,74.8,70.4,75.5,71.5,75.5z"/>
	</g>
</g>
</svg>
