<?xml version="1.0" encoding="utf-8"?>
<!-- Generator: Adobe Illustrator 24.0.1, SVG Export Plug-In . SVG Version: 6.00 Build 0)  -->
<svg version="1.1" id="Layer_1" xmlns="http://www.w3.org/2000/svg" xmlns:xlink="http://www.w3.org/1999/xlink" x="0px" y="0px"
	 viewBox="0 0 100 100" style="enable-background:new 0 0 100 100;" xml:space="preserve">
<style type="text/css">
	.st0{fill:#CC0000;}
	.st1{fill:#FFFFFF;}
</style>
<circle class="st0" cx="50" cy="50" r="45"/>
<g>
	<path class="st1" d="M43.7,17h12.5v2.1h4.5v-2.4c0-2.3-1.9-4.2-4.2-4.2H43.4c-2.3,0-4.2,1.9-4.2,4.2v2.4h4.5V17z"/>
	<path class="st1" d="M71.2,37.1H28.8c-1.2,0-2.1,1-2,2.2l3.6,43.9c0.2,2.5,2.2,4.3,4.7,4.3h30c2.5,0,4.5-1.9,4.7-4.3l3.6-43.9
		C73.3,38.1,72.4,37.1,71.2,37.1z M39,82.8c0,0-0.1,0-0.1,0c-1.2,0-2.2-0.9-2.3-2.1l-2.2-36.1c-0.1-1.2,0.9-2.3,2.1-2.4
		c1.2-0.1,2.3,0.9,2.4,2.1l2.2,36.1C41.2,81.7,40.3,82.7,39,82.8z M52.3,80.6c0,1.2-1,2.3-2.3,2.3s-2.3-1-2.3-2.3V44.5
		c0-1.3,1-2.3,2.3-2.3c1.2,0,2.3,1,2.3,2.3V80.6z M65.6,44.6l-2.1,36.1c-0.1,1.2-1.1,2.1-2.3,2.1c0,0-0.1,0-0.1,0
		c-1.2-0.1-2.2-1.1-2.1-2.4l2.1-36.1c0.1-1.2,1.1-2.2,2.4-2.1C64.7,42.3,65.7,43.4,65.6,44.6z"/>
	<path class="st1" d="M79.1,30.1l-1.5-4.5c-0.4-1.2-1.5-2-2.7-2H25.1c-1.2,0-2.3,0.8-2.7,2l-1.5,4.5c-0.3,0.9,0.1,1.7,0.8,2.2
		c0.3,0.2,0.6,0.3,1,0.3h54.6c0.4,0,0.7-0.1,1-0.3C79,31.8,79.4,30.9,79.1,30.1z"/>
</g>
</svg>
