<?xml version="1.0" encoding="utf-8"?>
<!-- Generator: Adobe Illustrator 24.0.1, SVG Export Plug-In . SVG Version: 6.00 Build 0)  -->
<svg version="1.1" id="Layer_1" xmlns="http://www.w3.org/2000/svg" xmlns:xlink="http://www.w3.org/1999/xlink" x="0px" y="0px"
	 viewBox="0 0 100 100" style="enable-background:new 0 0 100 100;" xml:space="preserve">
<style type="text/css">
	.st0{fill:#CC0000;}
	.st1{fill:#FFFFFF;}
</style>
<circle class="st0" cx="50" cy="50" r="45"/>
<g>
	<path class="st1" d="M78.9,44.7c-9.4,19.9-12.5,19.9-14.3,19.9h-18c-6.3,0-11.1-3.7-12.3-9.4c0-0.2-3.6-17.6-4.5-22.5
		c-0.4-2.4-1.6-4-5.7-4c-1.9,0-3.4-1.5-3.4-3.4c0-1.9,1.5-3.4,3.4-3.4c6.8,0,11.2,3.4,12.3,9.5c0.9,4.8,4.5,22.2,4.5,22.4
		c0.7,3.5,3.9,4.1,5.7,4.1h17.1c1.8-2,6-9.6,9.1-16c0.8-1.7,2.8-2.4,4.5-1.6C79,41,79.7,43,78.9,44.7L78.9,44.7z M44.4,66.9
		c-3.1,0-5.6,2.5-5.6,5.6c0,3.1,2.5,5.6,5.6,5.6c3.1,0,5.6-2.5,5.6-5.6C50,69.4,47.5,66.9,44.4,66.9L44.4,66.9z M64.6,66.9
		c-3.1,0-5.6,2.5-5.6,5.6c0,3.1,2.5,5.6,5.6,5.6c3.1,0,5.6-2.5,5.6-5.6C70.2,69.4,67.7,66.9,64.6,66.9L64.6,66.9z M53.7,48.5
		c0.2,0.2,0.5,0.3,0.8,0.3c0.3,0,0.5-0.1,0.8-0.3c0.2-0.2,6.4-6.2,9.7-11.1c0.3-0.4,0.3-0.9,0.1-1.3c-0.2-0.4-0.6-0.7-1.1-0.7h-5
		c0,0-0.5-9.6-0.8-10.1c-0.5-0.7-2.4-1.1-3.6-1.1c-1.3,0-3.2,0.4-3.7,1.1c-0.3,0.4-0.7,10.1-0.7,10.1H45c-0.5,0-0.9,0.3-1.1,0.7
		c-0.2,0.4-0.2,0.9,0.1,1.3C47.3,42.4,53.5,48.3,53.7,48.5L53.7,48.5z M53.7,48.5"/>
</g>
</svg>
