<?xml version="1.0" encoding="utf-8"?>
<!-- Generator: Adobe Illustrator 24.0.1, SVG Export Plug-In . SVG Version: 6.00 Build 0)  -->
<svg version="1.1" id="Layer_1" xmlns="http://www.w3.org/2000/svg" xmlns:xlink="http://www.w3.org/1999/xlink" x="0px" y="0px"
	 viewBox="0 0 100 100" style="enable-background:new 0 0 100 100;" xml:space="preserve">
<style type="text/css">
	.st0{fill:#CC0000;}
	.st1{fill:#FFFFFF;}
</style>
<circle class="st0" cx="50" cy="50" r="45"/>
<g>
	<path class="st1" d="M72.3,37.4L72.3,37.4c0.4-0.8,0.6-1.7,0.6-2.6v-3.8c0-6.3-10.3-11.5-22.9-11.5s-22.9,5.1-22.9,11.5
		c0-0.3,0-0.6,0.1-0.9c-4.7,2.1-7.7,5.2-7.7,8.6v3.8c0,3.5,3.2,6.7,8.3,8.8c-0.4,0.9-0.6,1.7-0.6,2.6v3.8c0,1.3,0.5,2.6,1.3,3.8
		c-0.9,1.2-1.3,2.5-1.3,3.8v3.8c0,6.3,10.3,11.5,22.9,11.5s22.9-5.1,22.9-11.5v-3.8c0-1.4-0.5-2.7-1.4-3.9c0,0,0,0,0,0
		c0.6-0.9,1.1-1.9,1.3-2.9c4.7-2.1,7.7-5.2,7.7-8.6v-3.8C80.6,42.6,77.3,39.5,72.3,37.4L72.3,37.4z M50,21.4c12.4,0,21,5,21,9.5
		c0,4.5-8.6,9.5-21,9.5c-12.4,0-21-5-21-9.5C29,26.4,37.6,21.4,50,21.4L50,21.4z M21.4,38.5c0-2.2,2.1-4.6,5.7-6.4v2.6
		c0,6.3,10.3,11.5,22.9,11.5c1.9,0,3.7-0.1,5.5-0.3c-3.5,1.3-8,2.3-13.1,2.3C30,48.1,21.4,43.1,21.4,38.5L21.4,38.5z M71,65.3
		c0,4.5-8.6,9.5-21,9.5c-12.4,0-21-5-21-9.5c0-0.7,0.3-1.5,0.8-2.3c0,0,0,0,0,0c3.8,3.6,11.5,6.1,20.3,6.1c8.8,0,16.4-2.5,20.2-6.1
		l0,0C70.7,63.7,71,64.5,71,65.3L71,65.3z M63.1,61.1c-3.5,1.4-8,2.3-13.1,2.3c-12.4,0-21-5-21-9.5c0-0.6,0.2-1.3,0.6-2
		c1.9,0.6,3.9,1.1,6.2,1.5c2.8,4.7,11.6,8.1,21.9,8.1C59.5,61.5,61.4,61.3,63.1,61.1C63.1,61.1,63.1,61.1,63.1,61.1L63.1,61.1z
		 M57.6,55.7c-4.9,0-9.2-0.8-12.6-2c10.8-0.6,19.3-5,20.1-10.4c2.6-1.2,4.7-2.6,6-4.2h0c4.6,1.9,7.4,4.6,7.4,7.1
		C78.6,50.7,70,55.7,57.6,55.7L57.6,55.7z M54.1,33.7c0-0.4-0.3-0.7-1-0.9c-0.6-0.2-2.1-0.5-4.3-0.8c-2-0.3-3.5-0.6-4.7-0.8
		c-1.1-0.3-2-0.7-2.7-1.2c-0.7-0.5-1-1.1-1-1.7c0-0.9,0.6-1.6,1.9-2.3c1.2-0.7,3.2-1.1,5.9-1.3v-1.4h3.6v1.4c4,0.2,6.7,1.1,7.9,2.8
		l-5,0.8c-1-1.1-2.5-1.7-4.5-1.7c-1,0-1.8,0.1-2.5,0.4c-0.6,0.3-0.9,0.6-0.9,0.9c0,0.4,0.3,0.7,0.9,0.9c0.6,0.2,1.9,0.4,3.8,0.7
		c2.1,0.3,3.8,0.6,5.1,0.9c1.2,0.3,2.2,0.7,2.9,1.2c0.7,0.5,1.1,1.1,1.1,1.8c0,1-0.8,1.9-2.3,2.6c-1.5,0.7-3.7,1.1-6.5,1.2v1.8h-3.6
		v-1.8c-4.7-0.2-7.7-1.3-8.8-3.4l5.6-0.6c0.5,1.3,2.2,1.9,5.1,1.9c1.4,0,2.4-0.1,3-0.4C53.8,34.4,54.1,34.1,54.1,33.7L54.1,33.7z
		 M54.1,33.7"/>
</g>
</svg>
