<?xml version="1.0" encoding="utf-8"?>
<!-- Generator: Adobe Illustrator 24.0.1, SVG Export Plug-In . SVG Version: 6.00 Build 0)  -->
<svg version="1.1" id="Layer_1" xmlns="http://www.w3.org/2000/svg" xmlns:xlink="http://www.w3.org/1999/xlink" x="0px" y="0px"
	 viewBox="0 0 100 100" style="enable-background:new 0 0 100 100;" xml:space="preserve">
<style type="text/css">
	.st0{fill:#CC0000;}
	.st1{fill:#FFFFFF;}
</style>
<circle class="st0" cx="50" cy="50" r="45"/>
<g>
	<path class="st1" d="M44.6,26.3c-0.7,0-1.2,0.6-1.2,1.2s0.6,1.2,1.2,1.2h16.1c0.7,0,1.2-0.6,1.2-1.2s-0.6-1.2-1.2-1.2H44.6z"/>
	<path class="st1" d="M30.4,26.6c-0.2,0.2-0.4,0.5-0.4,0.9c0,0.3,0.1,0.6,0.4,0.9s0.5,0.4,0.9,0.4c0.3,0,0.6-0.1,0.9-0.4
		c0.2-0.2,0.4-0.5,0.4-0.9c0-0.3-0.1-0.6-0.4-0.9c-0.2-0.2-0.5-0.4-0.9-0.4C31,26.3,30.6,26.4,30.4,26.6z"/>
	<path class="st1" d="M25.9,26.6c-0.2,0.2-0.4,0.5-0.4,0.9c0,0.3,0.1,0.6,0.4,0.9c0.2,0.2,0.5,0.4,0.9,0.4c0.3,0,0.6-0.1,0.9-0.4
		c0.2-0.2,0.4-0.5,0.4-0.9c0-0.3-0.1-0.6-0.4-0.9c-0.2-0.2-0.5-0.4-0.9-0.4C26.4,26.3,26.1,26.4,25.9,26.6z"/>
	<path class="st1" d="M34.9,26.6c-0.2,0.2-0.4,0.5-0.4,0.9c0,0.3,0.1,0.6,0.4,0.9s0.5,0.4,0.9,0.4s0.6-0.1,0.9-0.4
		c0.2-0.2,0.4-0.5,0.4-0.9c0-0.3-0.1-0.6-0.4-0.9s-0.5-0.4-0.9-0.4S35.2,26.4,34.9,26.6z"/>
	<path class="st1" d="M64.1,42.4c-0.2,0.2-0.4,0.5-0.4,0.9s0.1,0.6,0.4,0.9c0.2,0.2,0.5,0.4,0.9,0.4c0.3,0,0.6-0.1,0.9-0.4
		c0.2-0.2,0.4-0.5,0.4-0.9s-0.1-0.6-0.4-0.9c-0.2-0.2-0.5-0.4-0.9-0.4C64.6,42,64.3,42.1,64.1,42.4z"/>
	<path class="st1" d="M59.7,42H42.5c-0.7,0-1.2,0.6-1.2,1.2c0,0.7,0.6,1.2,1.2,1.2h17.3c0.7,0,1.2-0.6,1.2-1.2
		C61,42.6,60.4,42,59.7,42z"/>
	<path class="st1" d="M61,50.1c0-0.7-0.6-1.2-1.2-1.2H42.5c-0.7,0-1.2,0.6-1.2,1.2c0,0.7,0.6,1.2,1.2,1.2h17.3
		C60.4,51.4,61,50.8,61,50.1z"/>
	<path class="st1" d="M35.7,50.1h-8.1V42c0-0.7-0.6-1.2-1.2-1.2c-0.7,0-1.2,0.6-1.2,1.2v9.3c0,0.7,0.6,1.2,1.2,1.2h9.3
		c0.7,0,1.2-0.6,1.2-1.2C37,50.7,36.4,50.1,35.7,50.1z"/>
	<path class="st1" d="M54.2,60.8h-6.8c-0.7,0-1.2,0.6-1.2,1.2c0,0.7,0.6,1.2,1.2,1.2h6.8c0.7,0,1.2-0.6,1.2-1.2
		C55.4,61.4,54.8,60.8,54.2,60.8z"/>
	<path class="st1" d="M42.5,63.3c0.3,0,0.6-0.1,0.9-0.4c0.2-0.2,0.4-0.5,0.4-0.9s-0.1-0.6-0.4-0.9s-0.5-0.4-0.9-0.4
		c-0.3,0-0.6,0.1-0.9,0.4c-0.2,0.2-0.4,0.5-0.4,0.9s0.1,0.6,0.4,0.9C41.8,63.2,42.1,63.3,42.5,63.3z"/>
	<path class="st1" d="M42.5,70.2h11.7c0.7,0,1.2-0.6,1.2-1.2s-0.6-1.2-1.2-1.2H42.5c-0.7,0-1.2,0.6-1.2,1.2S41.8,70.2,42.5,70.2z"/>
	<path class="st1" d="M35.7,59.6h-9.3c-0.7,0-1.2,0.6-1.2,1.2v9.3c0,0.7,0.6,1.2,1.2,1.2h9.3c0.7,0,1.2-0.6,1.2-1.2v-9.3
		C37,60.2,36.4,59.6,35.7,59.6z M34.5,68.9h-6.9v-6.9h6.9V68.9z"/>
	<path class="st1" d="M79.5,43.4l-3.9-2.2c-1.9-1.1-4.3-0.4-5.3,1.4L58.7,62.7c-0.1,0.2-0.2,0.4-0.2,0.7l0.5,9c0,0.4,0.3,0.8,0.6,1
		c0.2,0.1,0.4,0.2,0.6,0.2c0.2,0,0.4,0,0.6-0.1l8-4c0.2-0.1,0.4-0.3,0.5-0.5l11.6-20.2C82,46.8,81.4,44.4,79.5,43.4z M61.1,65.5
		l4.6,2.6l-4.3,2.2L61.1,65.5z M67.8,66.6l-6.4-3.7l8.3-14.4l6.4,3.7L67.8,66.6z M78.8,47.5l-1.5,2.6l-6.4-3.7l1.5-2.6
		c0.4-0.7,1.3-0.9,2-0.5l3.9,2.2C79,45.9,79.2,46.8,78.8,47.5z"/>
	<path class="st1" d="M37.4,41.6c-0.5-0.5-1.3-0.5-1.7,0l-3.2,3.2l-1.2-1.2c-0.5-0.5-1.3-0.5-1.7,0c-0.5,0.5-0.5,1.3,0,1.7l2,2
		c0.2,0.2,0.6,0.4,0.9,0.4c0.3,0,0.6-0.1,0.9-0.4l4.1-4.1C37.9,42.9,37.9,42.1,37.4,41.6z"/>
	<path class="st1" d="M75.3,67c-0.7,0-1.2,0.6-1.2,1.2v7.5H21V50.8c0,0,0,0,0,0s0,0,0,0V33.2h39.7c0.7,0,1.2-0.6,1.2-1.2
		s-0.6-1.2-1.2-1.2H21v-6.4h44.1v7.8c0,0.7,0.6,1.2,1.2,1.2h7.8v3.5c0,0.7,0.6,1.2,1.2,1.2c0.7,0,1.2-0.6,1.2-1.2v-4.7
		c0-0.3-0.1-0.6-0.4-0.9l-9-9c-0.2-0.2-0.5-0.4-0.9-0.4H19.8c-0.7,0-1.2,0.6-1.2,1.2v53.8c0,0.7,0.6,1.2,1.2,1.2h55.6
		c0.7,0,1.2-0.6,1.2-1.2v-8.7C76.5,67.6,76,67,75.3,67z M67.5,26.1l4.8,4.8h-4.8V26.1z"/>
</g>
</svg>
