<?xml version="1.0" encoding="utf-8"?>
<!-- Generator: Adobe Illustrator 24.0.1, SVG Export Plug-In . SVG Version: 6.00 Build 0)  -->
<svg version="1.1" id="Layer_1" xmlns="http://www.w3.org/2000/svg" xmlns:xlink="http://www.w3.org/1999/xlink" x="0px" y="0px"
	 viewBox="0 0 512 512" style="enable-background:new 0 0 512 512;" xml:space="preserve">
<style type="text/css">
	.st0{fill:#ACEBE2;}
	.st1{fill:#E2E0E0;}
	.st2{fill:#98D7CE;}
	.st3{fill:#CECCCC;}
	.st4{fill:#2BBDC4;}
	.st5{fill:#495D85;}
	.st6{fill:#E9EEF0;}
	.st7{fill:#ADF3FF;}
	.st8{fill:#FFC870;}
	.st9{fill:#FFDAA0;}
	.st10{fill:#FFFFFF;}
	.st11{fill:#BAEE83;}
	.st12{fill:#F4FBFF;}
	.st13{fill:#E4F6FF;}
	.st14{fill:#E28086;}
	.st15{fill:#EFC984;}
	.st16{fill:#4A80AA;}
	.st17{fill:#407093;}
	.st18{fill:#FFE07D;}
	.st19{fill:#FFDDCE;}
	.st20{fill:#EABC6B;}
	.st21{fill:#FFCBBE;}
	.st22{fill:#365E7D;}
	.st23{fill:#FFD064;}
	.st24{fill:#D12026;}
	.st25{fill:#A9DBF5;}
	.st26{fill:#88C3E0;}
	.st27{fill:#4380A0;}
	.st28{fill:#FFD54F;}
	.st29{fill:#FFC328;}
	.st30{fill:#F75632;}
	.st31{fill:#E33629;}
	.st32{fill:#BBF7FF;}
	.st33{fill:#8BF0FF;}
	.st34{fill:#7BE492;}
	.st35{fill:#45D987;}
	.st36{fill:#3B7191;}
	.st37{fill:#EBAD88;}
	.st38{fill:#F0BC5E;}
	.st39{fill:#8C95A4;}
	.st40{fill:#39C3FC;}
	.st41{fill:#148CE0;}
	.st42{fill:#ECECEC;}
	.st43{fill:#89B140;}
	.st44{fill:#AAC16B;}
	.st45{fill:#79A73A;}
	.st46{fill:#FBB540;}
	.st47{fill:#6C7175;}
	.st48{fill:#A79BA7;}
	.st49{fill:#918291;}
	.st50{fill:#F9F7F8;}
	.st51{fill:#E5E1E5;}
	.st52{fill:#B5ADB6;}
	.st53{fill:#78B9EB;}
	.st54{fill:#FFAF46;}
</style>
<g>
	<path class="st25" d="M490.5,431h-469c-7.7,0-14-6.3-14-14v-22c0-7.7,6.3-14,14-14h469c7.7,0,14,6.3,14,14v22
		C504.5,424.7,498.2,431,490.5,431z"/>
	<path class="st26" d="M490.5,381h-30c7.7,0,14,6.3,14,14v22c0,7.7-6.3,14-14,14h30c7.7,0,14-6.3,14-14v-22
		C504.5,387.3,498.2,381,490.5,381z"/>
	<path class="st27" d="M451,381l-390,0c-11,0-20-9-20-20l0-260c0-11,9-20,20-20l390,0c11,0,20,9,20,20l0,260
		C471,372,462,381,451,381z"/>
	<path class="st28" d="M71,111h185v120H71V111z"/>
	<path class="st29" d="M226,111h30v120h-30V111z"/>
	<path class="st30" d="M256,111h185v120H256V111z"/>
	<path class="st31" d="M411,111h30v120h-30V111z"/>
	<path class="st32" d="M71,231h185v120H71V231z"/>
	<path class="st33" d="M226,231h30v120h-30V231z"/>
	<path class="st34" d="M256,231h185v120H256V231z"/>
	<path class="st35" d="M411,231h30v120h-30V231z"/>
	<path class="st36" d="M471,361c0,11-9,20-20,20h-30c11,0,20-9,20-20l0-260c0-11-8.9-20-20-20h30c11,0,20,8.9,20,20L471,361z"/>
	<path class="st26" d="M287.8,405h-63.5c-6.2,0-11.2-5-11.2-11.2V381h86v12.8C299,400,294,405,287.8,405z"/>
	<circle class="st37" cx="163.5" cy="165.5" r="20"/>
	<path class="st30" d="M183.5,230.5h-40v-25c0-11,9-20,20-20s20,9,20,20V230.5z"/>
	<circle class="st37" cx="347.5" cy="165.5" r="20"/>
	<path class="st29" d="M367.5,230.5h-40v-25c0-11,9-20,20-20s20,9,20,20V230.5z"/>
	<circle class="st37" cx="163.5" cy="286" r="20"/>
	<path class="st29" d="M183.5,351h-40v-25c0-11,9-20,20-20s20,9,20,20V351z"/>
	<circle class="st37" cx="347.5" cy="286" r="20"/>
	<path class="st30" d="M367.5,351h-40v-25c0-11,9-20,20-20s20,9,20,20V351z"/>
	<g>
		<path d="M490.5,373.5h-15c1.9-3.8,3-8,3-12.5l0-260c0-15.2-12.3-27.5-27.5-27.5l-322.4,0c-4.1,0-7.5,3.4-7.5,7.5
			c0,4.1,3.4,7.5,7.5,7.5l322.4,0c6.9,0,12.5,5.6,12.5,12.5l0,260c0,6.9-5.6,12.5-12.5,12.5l-390,0c-6.9,0-12.5-5.6-12.5-12.5l0-260
			c0-6.9,5.6-12.5,12.5-12.5l34.5,0c4.1,0,7.5-3.4,7.5-7.5c0-4.1-3.4-7.5-7.5-7.5l-34.5,0c-15.2,0-27.5,12.3-27.5,27.5l0,260
			c0,4.5,1.1,8.7,3,12.5h-15C9.6,373.5,0,383.1,0,395v22c0,11.9,9.6,21.5,21.5,21.5h138.4c4.1,0,7.5-3.4,7.5-7.5s-3.4-7.5-7.5-7.5
			H21.5c-3.6,0-6.5-2.9-6.5-6.5v-22c0-3.6,2.9-6.5,6.5-6.5h184v5.3c0,10.3,8.4,18.7,18.7,18.7h63.5c10.3,0,18.7-8.4,18.7-18.7v-5.3
			h184c3.6,0,6.5,2.9,6.5,6.5v22c0,3.6-2.9,6.5-6.5,6.5H192.4c-4.1,0-7.5,3.4-7.5,7.5s3.4,7.5,7.5,7.5h298.1
			c11.9,0,21.5-9.6,21.5-21.5v-22C512,383.1,502.4,373.5,490.5,373.5z M291.5,393.8c0,2.1-1.7,3.7-3.7,3.7h-63.5
			c-2.1,0-3.7-1.7-3.7-3.7v-5.3h71V393.8z"/>
		<path d="M263.5,238.5h170l0,47.5c0,4.1,3.4,7.5,7.5,7.5c4.1,0,7.5-3.4,7.5-7.5l0-175c0-2-0.8-3.9-2.2-5.3
			c-1.4-1.4-3.3-2.2-5.3-2.2l-370,0c-4.1,0-7.5,3.4-7.5,7.5l0,240c0,2,0.8,3.9,2.2,5.3c1.4,1.4,3.3,2.2,5.3,2.2l72.4,0c0,0,0,0,0,0
			h40c0,0,0,0,0.1,0l143.8,0c0.1,0,0.1,0,0.2,0h40c0.1,0,0.1,0,0.2,0l73.3,0c4.1,0,7.5-3.4,7.5-7.5l0-31.5c0-4.1-3.4-7.5-7.5-7.5
			c-4.1,0-7.5,3.4-7.5,7.5l0,24l-58.5,0V326c0-7.9-3.3-15-8.7-20c5.3-5,8.7-12.1,8.7-20c0-15.2-12.3-27.5-27.5-27.5
			S320,270.8,320,286c0,7.9,3.3,15,8.7,20c-5.3,5-8.7,12.1-8.7,20v17.5l-56.5,0V238.5z M335,205.5c0-6.9,5.6-12.5,12.5-12.5
			s12.5,5.6,12.5,12.5V223h-25V205.5z M335,165.5c0-6.9,5.6-12.5,12.5-12.5s12.5,5.6,12.5,12.5s-5.6,12.5-12.5,12.5
			S335,172.4,335,165.5z M433.5,223.5H375v-18c0-7.9-3.3-15-8.7-20c5.3-5,8.7-12.1,8.7-20c0-15.2-12.3-27.5-27.5-27.5
			S320,150.4,320,165.5c0,7.9,3.3,15,8.7,20c-5.3,5-8.7,12.1-8.7,20v18h-56.5v-105l170,0L433.5,223.5z M248.5,118.5v105H191v-18
			c0-7.9-3.3-15-8.7-20c5.3-5,8.7-12.1,8.7-20c0-15.2-12.3-27.5-27.5-27.5S136,150.4,136,165.5c0,7.9,3.3,15,8.7,20
			c-5.3,5-8.7,12.1-8.7,20v18H78.5l0-105L248.5,118.5z M151,205.5c0-6.9,5.6-12.5,12.5-12.5s12.5,5.6,12.5,12.5V223h-25V205.5z
			 M151,165.5c0-6.9,5.6-12.5,12.5-12.5s12.5,5.6,12.5,12.5s-5.6,12.5-12.5,12.5S151,172.4,151,165.5z M78.5,238.5h170v105l-57.5,0
			V326c0-7.9-3.3-15-8.7-20c5.3-5,8.7-12.1,8.7-20c0-15.2-12.3-27.5-27.5-27.5S136,270.8,136,286c0,7.9,3.3,15,8.7,20
			c-5.3,5-8.7,12.1-8.7,20v17.5l-57.5,0L78.5,238.5z M151,343.5V326c0-6.9,5.6-12.5,12.5-12.5S176,319.1,176,326v17.5L151,343.5z
			 M151,286c0-6.9,5.6-12.5,12.5-12.5S176,279.1,176,286s-5.6,12.5-12.5,12.5S151,292.9,151,286z M335,286c0-6.9,5.6-12.5,12.5-12.5
			S360,279.1,360,286s-5.6,12.5-12.5,12.5S335,292.9,335,286z M335,326c0-6.9,5.6-12.5,12.5-12.5S360,319.1,360,326v17.5l-25,0V326z
			"/>
	</g>
</g>
</svg>
