<?xml version="1.0" encoding="utf-8"?>
<!-- Generator: Adobe Illustrator 24.0.1, SVG Export Plug-In . SVG Version: 6.00 Build 0)  -->
<svg version="1.1" id="Layer_1" xmlns="http://www.w3.org/2000/svg" xmlns:xlink="http://www.w3.org/1999/xlink" x="0px" y="0px"
	 viewBox="0 0 512 512" style="enable-background:new 0 0 512 512;" xml:space="preserve">
<style type="text/css">
	.st0{fill:#ACEBE2;}
	.st1{fill:#E2E0E0;}
	.st2{fill:#98D7CE;}
	.st3{fill:#CECCCC;}
	.st4{fill:#2BBDC4;}
	.st5{fill:#495D85;}
	.st6{fill:#E9EEF0;}
	.st7{fill:#ADF3FF;}
	.st8{fill:#FFC870;}
	.st9{fill:#FFDAA0;}
	.st10{fill:#FFFFFF;}
	.st11{fill:#BAEE83;}
	.st12{fill:#F4FBFF;}
	.st13{fill:#E4F6FF;}
	.st14{fill:#E28086;}
	.st15{fill:#EFC984;}
	.st16{fill:#4A80AA;}
	.st17{fill:#407093;}
	.st18{fill:#FFE07D;}
	.st19{fill:#FFDDCE;}
	.st20{fill:#EABC6B;}
	.st21{fill:#FFCBBE;}
	.st22{fill:#365E7D;}
	.st23{fill:#FFD064;}
	.st24{fill:#D12026;}
	.st25{fill:#A9DBF5;}
	.st26{fill:#88C3E0;}
	.st27{fill:#4380A0;}
	.st28{fill:#FFD54F;}
	.st29{fill:#FFC328;}
	.st30{fill:#F75632;}
	.st31{fill:#E33629;}
	.st32{fill:#BBF7FF;}
	.st33{fill:#8BF0FF;}
	.st34{fill:#7BE492;}
	.st35{fill:#45D987;}
	.st36{fill:#3B7191;}
	.st37{fill:#EBAD88;}
	.st38{fill:#F0BC5E;}
	.st39{fill:#8C95A4;}
	.st40{fill:#39C3FC;}
	.st41{fill:#148CE0;}
	.st42{fill:#ECECEC;}
	.st43{fill:#89B140;}
	.st44{fill:#AAC16B;}
	.st45{fill:#79A73A;}
	.st46{fill:#FBB540;}
	.st47{fill:#6C7175;}
	.st48{fill:#A79BA7;}
	.st49{fill:#918291;}
	.st50{fill:#F9F7F8;}
	.st51{fill:#E5E1E5;}
	.st52{fill:#B5ADB6;}
	.st53{fill:#78B9EB;}
	.st54{fill:#FFAF46;}
</style>
<g>
	<path d="M178.5,374.3l-10.9-9.3c-7.4-6.3-14.4-13.2-20.7-20.4l-9.5-11l32.6-32.6c-14.9-22.8-23-49.7-23-77
		c0-77.7,63.2-140.9,140.9-140.9c77.7,0,140.9,63.2,140.9,140.9c0,77.7-63.2,140.9-140.9,140.9c-27.3,0-54.2-8.1-77-23L178.5,374.3z
		 M253.3,299.6c10.8,5,22.5,7.6,34.6,7.6c45.8,0,83.1-37.3,83.1-83.1c0-45.8-37.3-83.1-83.1-83.1c-45.8,0-83.1,37.3-83.1,83.1
		c0,12.1,2.6,23.9,7.6,34.6l2-2c-4.6-10.2-6.9-21.3-6.9-32.6c0-44.4,36.1-80.4,80.4-80.4s80.4,36.1,80.4,80.4s-36.1,80.4-80.4,80.4
		c-11.3,0-22.4-2.4-32.6-6.9L253.3,299.6z"/>
	<path d="M464.3,282.6l-29.5-9.9l0.3-0.8l29.6,9.7l-0.1,0.3C464.5,282.2,464.4,282.4,464.3,282.6z"/>
	<path d="M465.3,279.6l-29.7-9.4c3.5-11,5.7-22.5,6.6-34l1.1-14.4h31.6l-1.4,16.9C472.3,252.6,469.5,266.4,465.3,279.6z"/>
	<path d="M287.9,277.8c-7.8,0-15.3-1.6-22.4-4.9l-16-7.3l-1.2,1.2l-1-2.2l-2.2-1l1.2-1.2l-7.3-16c-3.2-7.1-4.9-14.6-4.9-22.4
		c0-29.7,24.1-53.8,53.8-53.8c29.7,0,53.8,24.1,53.8,53.8C341.7,253.7,317.6,277.8,287.9,277.8z"/>
	<path d="M287.9,338.3c-25.2,0-49.1-8.1-69.1-23.3l-10.6-8l-0.4,0.4l-1.4-1.8l-1.8-1.4l0.4-0.4l-8-10.6
		c-15.3-20-23.3-43.9-23.3-69.1c0-63,51.2-114.2,114.2-114.2c63,0,114.2,51.2,114.2,114.2C402.2,287.1,350.9,338.3,287.9,338.3z
		 M253.3,299.6c10.8,5,22.5,7.6,34.6,7.6c45.8,0,83.1-37.3,83.1-83.1c0-45.8-37.3-83.1-83.1-83.1c-45.8,0-83.1,37.3-83.1,83.1
		c0,12.1,2.6,23.9,7.6,34.6l2-2c-4.6-10.2-6.9-21.3-6.9-32.6c0-44.4,36.1-80.4,80.4-80.4s80.4,36.1,80.4,80.4s-36.1,80.4-80.4,80.4
		c-11.3,0-22.4-2.4-32.6-6.9L253.3,299.6z M252.4,259.6l8.7,5.7c8,5.3,17.3,8,26.9,8c27.2,0,49.3-22.1,49.3-49.3
		c0-27.2-22.1-49.3-49.3-49.3c-27.2,0-49.3,22.1-49.3,49.3c0,9.6,2.8,18.9,8,26.9L252.4,259.6z"/>
	<path d="M157.7,357.5l-11-12.8c-8.7-10.1-16.3-21.2-22.6-32.9l27.4-14.8c5.3,9.7,11.7,18.9,18.9,27.3l9.5,11L157.7,357.5z"/>
	<path d="M287.9,433.1c-14.8,0-27-11.1-28.7-25.4c-34-5.3-65.5-19.8-92-42.4l-12.8-11l22.3-22.3l10.9,9.3
		c27.9,23.6,63.5,36.6,100.1,36.6c66.6,0,125.6-42.3,147-105.3l29.5,9.9c-11.4,34.4-32.6,64.6-61.2,87.2c-25.3,20-55,33-86.5,37.9
		C314.9,422,302.7,433.1,287.9,433.1z"/>
	<path d="M464.6,281.7l-29.6-9.8l0.2-0.5c0-0.1,0.1-0.3,0.1-0.4c0.1-0.2,0.2-0.5,0.2-0.7l0.1-0.2l29.7,9.4c-0.1,0.4-0.2,0.7-0.4,1.1
		C464.9,281,464.7,281.4,464.6,281.7z"/>
	<path d="M468.1,253H441l1.4-16.9c0.4-4.5,0.6-8.9,0.6-13.3c0-3.6-0.1-7.3-0.4-11l-1.2-16.7h26.7c15.9,0,28.9,13,28.9,28.9
		C497,240,484.1,253,468.1,253z"/>
	<path d="M134.7,253h-27c-15.9,0-28.9-13-28.9-28.9c0-15.9,13-28.9,28.9-28.9h26.5l-1.2,16.7c-0.3,3.7-0.4,7.4-0.4,11
		c0,4.3,0.2,8.8,0.6,13.3L134.7,253z"/>
	<path d="M316.8,69.5l-16.8-1.3c-8.1-0.6-16.2-0.6-24.3,0L259,69.4V43.9c0-15.9,13-28.9,28.9-28.9s28.9,13,28.9,28.9V69.5z"/>
	<path d="M287.8,409.1c-44,0-86.7-15.6-120.3-44l-9.5-8l-0.2,0.2l-1.5-1.7l-1.8-1.5l0.3-0.3l-8-9.2c-8.7-10.1-16.4-21.1-22.7-32.8
		l0-0.1c-10-18.5-16.6-38.2-19.8-58.8h-0.9l-1.2-14.3c-0.5-5.4-0.7-10.7-0.7-15.9c0-4.3,0.2-8.7,0.5-13.2l1-14.5h1.3
		c6.1-38.6,24.3-74.5,52.2-102.4c27.9-27.9,63.9-46.2,102.4-52.2v-2.3l14.4-1.1c9.6-0.7,19.4-0.7,29.1,0l14.4,1.1v2.3
		c38.6,6.1,74.5,24.3,102.5,52.2c27.9,27.9,46.2,63.9,52.2,102.4h1.1l1,14.5c0.3,4.5,0.5,8.9,0.5,13.2c0,5.2-0.2,10.5-0.7,15.9
		l-1.2,14.3h-0.7c-1.4,9-3.5,17.9-6.2,26.6l-0.1,0.3c-0.2,0.6-0.4,1.2-0.6,1.9l-0.3,1C438.7,358.3,367.8,409.1,287.8,409.1z
		 M201.3,351.6c25.5,17.1,55.6,26.4,86.5,26.4c66.5,0,125.6-42.3,146.9-105.2l0.3-0.8c0.2-0.5,0.3-1.1,0.5-1.6l0-0.1
		c3.4-11,5.6-22.4,6.5-34l0.8-10.1c0-1.1,0-2.2,0-3.2c0-0.1,0-0.2,0-0.3l-0.8-10.6c-5.8-75.2-66.9-136.2-142.1-142.1l-12.1-0.9
		l-12.1,0.9c-75.2,5.8-136.2,66.9-142.1,142.1l-0.9,12.1l0.9,12.1c1.7,21.4,7.7,41.9,17.8,60.8c2.6,4.8,5.5,9.5,8.6,14l9.9-9.9
		c-14.9-22.8-23-49.7-23-77c0-77.7,63.2-140.9,140.9-140.9c77.7,0,140.9,63.2,140.9,140.9c0,77.7-63.2,140.9-140.9,140.9
		c-27.3,0-54.2-8.1-77-23L201.3,351.6z M210,302l9.1,7.4c19.7,15.9,43.5,24.4,68.8,24.4c60.5,0,109.7-49.2,109.7-109.7
		c0-60.5-49.2-109.7-109.7-109.7c-60.5,0-109.7,49.2-109.7,109.7c0,25.3,8.4,49.1,24.4,68.8L210,302z"/>
	<path d="M71.7,443.5L32.2,426c-8.7-3.9-14.9-11.8-16.7-21.2c-1.7-9.4,1.2-19,8-25.7L75,327.6c8.4-8.4,21.3-10.8,32.2-6l59.9,26.6
		L71.7,443.5z M47.8,398.8l16.9,7.5l48.1-48.1l-16.9-7.5L47.8,398.8z M94.5,350.1C94.5,350.1,94.5,350.1,94.5,350.1L94.5,350.1z"/>
	<path d="M112.4,497c-1.8,0-3.5-0.2-5.3-0.5c-9.4-1.7-17.3-8-21.2-16.7l-17.5-39.5l95.3-95.3l26.6,59.9c4.8,10.9,2.4,23.8-6,32.2
		l-51.5,51.5C127.4,494,120,497,112.4,497z M105.6,447.3l7.5,16.9l48.1-48.1l-7.5-16.9L105.6,447.3z"/>
</g>
<g>
	<path class="st10" d="M287.9,349.4c69.1,0,125.3-56.2,125.3-125.3c0-69.1-56.2-125.3-125.3-125.3c-69.1,0-125.3,56.2-125.3,125.3
		c0,29.8,10.4,57.1,27.8,78.6l-31.8,31.8c5.8,6.7,12.2,13,19,18.7l31.6-31.6C230.8,338.9,258.2,349.4,287.9,349.4z M189.3,224.1
		c0-54.4,44.3-98.7,98.6-98.7c54.4,0,98.7,44.3,98.7,98.7c0,54.4-44.3,98.6-98.7,98.6c-22.4,0-43.1-7.5-59.7-20.1l24.2-24.2
		c10.2,6.7,22.4,10.6,35.4,10.6c35.8,0,64.9-29.1,64.9-64.9c0-35.8-29.1-64.9-64.9-64.9c-35.8,0-64.9,29.1-64.9,64.9
		c0,13.1,3.9,25.2,10.6,35.4l-24.2,24.2C196.8,267.1,189.3,246.5,189.3,224.1z M297.4,214.6c-5.2-5.2-13.6-5.2-18.8,0l-25.3,25.3
		c-2.2-4.8-3.5-10.2-3.5-15.9c0-21.1,17.1-38.2,38.2-38.2c21.1,0,38.2,17.1,38.2,38.2c0,21.1-17.1,38.2-38.2,38.2
		c-5.7,0-11-1.3-15.9-3.5l25.3-25.3C302.6,228.3,302.6,219.8,297.4,214.6z"/>
	<path class="st10" d="M449.8,276.8c-0.1,0.3-0.2,0.6-0.3,0.8C449.7,277.3,449.7,277.1,449.8,276.8z"/>
	<path class="st10" d="M450.5,274.9c3.8-12,6.4-24.5,7.5-37.5h-0.2C456.7,250.3,454.2,262.9,450.5,274.9z"/>
	<path class="st24" d="M272.1,258.8c4.8,2.2,10.2,3.5,15.9,3.5c21.1,0,38.2-17.1,38.2-38.2c0-21.1-17.1-38.2-38.2-38.2
		c-21.1,0-38.2,17.1-38.2,38.2c0,5.7,1.3,11,3.5,15.9l25.3-25.3c5.2-5.2,13.6-5.2,18.8,0c5.2,5.2,5.2,13.6,0,18.8L272.1,258.8z"/>
	<path class="st24" d="M233.7,259.5c-6.7-10.2-10.6-22.4-10.6-35.4c0-35.8,29.1-64.9,64.9-64.9c35.8,0,64.9,29.1,64.9,64.9
		c0,35.8-29.1,64.9-64.9,64.9c-13.1,0-25.2-3.9-35.4-10.6l-24.2,24.2c16.6,12.6,37.3,20.1,59.7,20.1c54.4,0,98.7-44.2,98.7-98.6
		c0-54.4-44.3-98.7-98.7-98.7c-54.4,0-98.6,44.3-98.6,98.7c0,22.4,7.5,43.1,20.1,59.7L233.7,259.5z"/>
	<path class="st24" d="M158.5,334.6l0.2-0.2c-8-9.2-15-19.3-20.8-30C143.7,315.2,150.6,325.3,158.5,334.6z"/>
	<path class="st24" d="M287.8,393.5c-42,0-80.4-15.2-110.2-40.3l-0.3,0.3c26.6,22.8,60.3,37.5,97.2,40.4v10.4
		c0,7.4,6,13.3,13.3,13.3c7.4,0,13.3-6,13.3-13.3v-10.4c69.3-5.4,127.1-52.5,148.3-116.2C426.7,345,362.9,393.5,287.8,393.5z"/>
	<path class="st24" d="M450.5,274.9c-0.2,0.6-0.4,1.3-0.6,1.9C450,276.1,450.3,275.5,450.5,274.9z"/>
	<path class="st24" d="M468.1,210.7h-10c0.3,4,0.4,8,0.4,12.1c0,4.9-0.2,9.8-0.6,14.6h10.2c7.4,0,13.3-6,13.3-13.3
		C481.4,216.7,475.5,210.7,468.1,210.7z"/>
	<path class="st24" d="M117.6,210.7h-9.8c-7.4,0-13.3,6-13.3,13.3c0,7.4,6,13.3,13.3,13.3h10c-0.4-4.8-0.6-9.7-0.6-14.6
		C117.1,218.7,117.3,214.7,117.6,210.7z"/>
	<path class="st24" d="M301.3,52.6v-8.7c0-7.4-6-13.3-13.3-13.3c-7.4,0-13.3,6-13.3,13.3v8.7c4.4-0.3,8.8-0.5,13.2-0.5
		C292.4,52.1,296.8,52.3,301.3,52.6z"/>
	<path class="st24" d="M458.1,210.7h-0.4c-6.5-83.3-73.1-149.9-156.4-156.4v-1.7c-4.4-0.3-8.9-0.5-13.4-0.5c-4.5,0-8.9,0.2-13.2,0.5
		v1.7c-83.3,6.5-149.9,73.1-156.4,156.4h-0.6c-0.3,4-0.4,8-0.4,12.1c0,4.9,0.2,9.8,0.6,14.6h0.4c1.9,24.1,8.8,46.8,19.7,67
		c5.9,10.8,12.9,20.8,20.8,30l31.8-31.8c-17.4-21.5-27.8-48.9-27.8-78.6c0-69.1,56.2-125.3,125.3-125.3
		c69.1,0,125.3,56.2,125.3,125.3c0,69.1-56.2,125.3-125.3,125.3c-29.8,0-57.1-10.4-78.6-27.8l-31.6,31.6
		c29.7,25.2,68.2,40.3,110.2,40.3c75.1,0,138.9-48.5,161.7-115.9c0.1-0.3,0.2-0.6,0.3-0.8c0.2-0.6,0.4-1.3,0.6-1.9
		c3.8-12,6.2-24.5,7.2-37.5h0.2c0.4-4.8,0.6-9.7,0.6-14.6C458.6,218.7,458.4,214.7,458.1,210.7z"/>
	<path class="st24" d="M100.8,335.9c-5-2.2-10.9-1.1-14.8,2.8l-51.5,51.5c-6.6,6.6-4.5,17.8,4,21.6l29.7,13.2l71.7-71.7L100.8,335.9
		z"/>
	<path class="st24" d="M158.8,372.1L87,443.8l13.2,29.7c3.8,8.6,15,10.6,21.6,4l51.5-51.5c3.9-3.9,5-9.8,2.8-14.8L158.8,372.1z"/>
</g>
</svg>
