<?xml version="1.0" encoding="utf-8"?>
<!-- Generator: Adobe Illustrator 24.0.1, SVG Export Plug-In . SVG Version: 6.00 Build 0)  -->
<svg version="1.1" id="Layer_1" xmlns="http://www.w3.org/2000/svg" xmlns:xlink="http://www.w3.org/1999/xlink" x="0px" y="0px"
	 viewBox="0 0 512 512" style="enable-background:new 0 0 512 512;" xml:space="preserve">
<style type="text/css">
	.st0{fill:#ACEBE2;}
	.st1{fill:#E2E0E0;}
	.st2{fill:#98D7CE;}
	.st3{fill:#CECCCC;}
	.st4{fill:#2BBDC4;}
	.st5{fill:#495D85;}
	.st6{fill:#E9EEF0;}
	.st7{fill:#ADF3FF;}
	.st8{fill:#FFC870;}
	.st9{fill:#FFDAA0;}
	.st10{fill:#FFFFFF;}
	.st11{fill:#BAEE83;}
	.st12{fill:#F4FBFF;}
	.st13{fill:#E4F6FF;}
	.st14{fill:#E28086;}
	.st15{fill:#EFC984;}
	.st16{fill:#4A80AA;}
	.st17{fill:#407093;}
	.st18{fill:#FFE07D;}
	.st19{fill:#FFDDCE;}
	.st20{fill:#EABC6B;}
	.st21{fill:#FFCBBE;}
	.st22{fill:#365E7D;}
	.st23{fill:#FFD064;}
	.st24{fill:#D12026;}
	.st25{fill:#A9DBF5;}
	.st26{fill:#88C3E0;}
	.st27{fill:#4380A0;}
	.st28{fill:#FFD54F;}
	.st29{fill:#FFC328;}
	.st30{fill:#F75632;}
	.st31{fill:#E33629;}
	.st32{fill:#BBF7FF;}
	.st33{fill:#8BF0FF;}
	.st34{fill:#7BE492;}
	.st35{fill:#45D987;}
	.st36{fill:#3B7191;}
	.st37{fill:#EBAD88;}
	.st38{fill:#F0BC5E;}
	.st39{fill:#8C95A4;}
	.st40{fill:#39C3FC;}
	.st41{fill:#148CE0;}
	.st42{fill:#ECECEC;}
	.st43{fill:#89B140;}
	.st44{fill:#AAC16B;}
	.st45{fill:#79A73A;}
	.st46{fill:#FBB540;}
	.st47{fill:#6C7175;}
	.st48{fill:#A79BA7;}
	.st49{fill:#918291;}
	.st50{fill:#F9F7F8;}
	.st51{fill:#E5E1E5;}
	.st52{fill:#B5ADB6;}
	.st53{fill:#78B9EB;}
	.st54{fill:#FFAF46;}
</style>
<g>
	<path class="st43" d="M438.4,256l22.9-9.3c21.8-8.8,32.5-33.5,24.1-55.5L431.8,51.7c-8.6-22.3-33.6-33.3-55.9-24.7
		c-0.3,0.1-0.6,0.2-0.9,0.4L106.7,138.5c-21.5,8.9-32,33.2-23.9,55l10.8,28.8l18.1,49.7h272L438.4,256z"/>
	<path class="st44" d="M153,222.3l-17-42.4l67.8-33.9l17,42.4L153,222.3z"/>
	<g>
		<g transform="matrix(1 -0.00017 0.00017 1 -0.004 0.009)">
			<path id="SVGCleanerId_0_3_" class="st45" d="M353.2,181.1l76.3-33.9l6.5,14.6l-76.3,33.9L353.2,181.1z"/>
		</g>
		<g>
			<path id="SVGCleanerId_1_3_" class="st45" d="M302.3,164.2l110.2-50.9l6.7,14.5L309,178.7L302.3,164.2z"/>
		</g>
		<path class="st45" d="M461.4,246.7c0.7-0.3,1.3-0.7,2-1c-2.1-21.4-20.1-37.7-41.6-37.7H88.2l5.4,14.3l18.2,49.7h272l54.7-16
			L461.4,246.7z"/>
	</g>
	<path class="st46" d="M65.8,224h340c23.2,0,42,18.8,42,42v180c0,23.2-18.8,42-42,42h-340c-23.2,0-42-18.8-42-42V266
		C23.8,242.8,42.6,224,65.8,224z"/>
	<g>
		<path class="st47" d="M327.8,464c-26.5,0-48-21.5-48-48s21.5-48,48-48s48,21.5,48,48C375.7,442.5,354.3,464,327.8,464z M327.8,384
			c-17.7,0-32,14.3-32,32s14.3,32,32,32s32-14.3,32-32S345.4,384,327.8,384z"/>
		<path class="st47" d="M375.8,464c-26.5,0-48-21.5-48-48s21.5-48,48-48s48,21.5,48,48C423.7,442.5,402.3,464,375.8,464z M375.8,384
			c-17.7,0-32,14.3-32,32s14.3,32,32,32s32-14.3,32-32S393.4,384,375.8,384z"/>
		<path class="st47" d="M23.8,272h424v64h-424V272z"/>
	</g>
	<path d="M65.8,496h340c27.6,0,50-22.4,50-50V266c0-2.7-0.3-5.4-0.7-8.1l9.3-3.8c25.8-10.6,38.4-39.7,28.6-65.8L439.2,48.8
		C429,22.4,399.4,9.3,373,19.4c-0.4,0.1-0.8,0.3-1.1,0.5L103.6,131.1c-25.5,10.5-38.1,39.4-28.3,65.2l7.4,19.7H65.8
		c-27.6,0-50,22.4-50,50v180C15.8,473.6,38.2,496,65.8,496z M405.8,480h-340c-18.8,0-34-15.2-34-34V344h408v102
		C439.7,464.8,424.5,480,405.8,480z M31.8,280h408v48h-408V280z M90.3,190.7c-6.7-17.7,1.9-37.6,19.5-44.8L378,34.7
		c17.9-7.4,38.5,1.1,45.9,19c0.1,0.3,0.2,0.6,0.3,0.8l53.7,139.6c6.8,17.9-1.9,37.9-19.6,45.2l-8.4,3.4
		c-8.6-16.4-25.7-26.7-44.2-26.7H183.5l40.8-20.4c3.7-1.9,5.4-6.3,3.9-10.1l-17-42.4c-1.6-4.1-6.3-6.1-10.4-4.5
		c-0.2,0.1-0.4,0.2-0.6,0.3l-67.8,33.9c-3.7,1.9-5.4,6.3-3.8,10.1l13.2,33.1h-42L90.3,190.7z M146.2,183.8l53.5-26.7l11,27.5
		l-53.5,26.7L146.2,183.8z M65.8,232h340c18,0.1,32.8,14.1,33.8,32H32C33,246.1,47.8,232,65.8,232L65.8,232z"/>
	<path d="M375.8,368c-8.4,0-16.7,2.2-24,6.5c-22.9-13.3-52.3-5.5-65.6,17.4c-13.3,22.9-5.5,52.3,17.4,65.6c14.9,8.7,33.3,8.7,48.2,0
		c22.9,13.3,52.3,5.5,65.6-17.4c13.3-22.9,5.5-52.3-17.4-65.6C392.6,370.2,384.3,368,375.8,368z M351.8,436.9
		c-10.7-11.9-10.7-30,0-41.9C362.4,407,362.4,425,351.8,436.9z M295.8,416c0-17.7,14.3-32,32-32c3.6,0,7.2,0.7,10.6,2
		c-14.2,17.5-14.2,42.6,0,60.1c-3.4,1.3-7,1.9-10.6,2C310.1,448,295.8,433.7,295.8,416z M375.8,448c-3.6,0-7.2-0.7-10.6-2
		c14.2-17.5,14.2-42.6,0-60.1c3.4-1.3,7-1.9,10.6-2c17.7,0,32,14.3,32,32S393.4,448,375.8,448z"/>
	<path id="SVGCleanerId_0_2_" d="M353.2,181.1l76.3-33.9l6.5,14.6l-76.3,33.9L353.2,181.1z"/>
	<path id="SVGCleanerId_1_2_" d="M302.3,164.2l110.2-50.9l6.7,14.5L309,178.7L302.3,164.2z"/>
</g>
</svg>
