<?xml version="1.0" encoding="utf-8"?>
<!-- Generator: Adobe Illustrator 24.0.1, SVG Export Plug-In . SVG Version: 6.00 Build 0)  -->
<svg version="1.1" id="Layer_1" xmlns="http://www.w3.org/2000/svg" xmlns:xlink="http://www.w3.org/1999/xlink" x="0px" y="0px"
	 viewBox="0 0 512 512" style="enable-background:new 0 0 512 512;" xml:space="preserve">
<style type="text/css">
	.st0{fill:#ACEBE2;}
	.st1{fill:#E2E0E0;}
	.st2{fill:#98D7CE;}
	.st3{fill:#CECCCC;}
	.st4{fill:#2BBDC4;}
	.st5{fill:#495D85;}
	.st6{fill:#E9EEF0;}
	.st7{fill:#ADF3FF;}
	.st8{fill:#FFC870;}
	.st9{fill:#FFDAA0;}
	.st10{fill:#FFFFFF;}
	.st11{fill:#BAEE83;}
	.st12{fill:#F4FBFF;}
	.st13{fill:#E4F6FF;}
	.st14{fill:#E28086;}
	.st15{fill:#EFC984;}
	.st16{fill:#4A80AA;}
	.st17{fill:#407093;}
	.st18{fill:#FFE07D;}
	.st19{fill:#FFDDCE;}
	.st20{fill:#EABC6B;}
	.st21{fill:#FFCBBE;}
	.st22{fill:#365E7D;}
	.st23{fill:#FFD064;}
	.st24{fill:#D12026;}
	.st25{fill:#A9DBF5;}
	.st26{fill:#88C3E0;}
	.st27{fill:#4380A0;}
	.st28{fill:#FFD54F;}
	.st29{fill:#FFC328;}
	.st30{fill:#F75632;}
	.st31{fill:#E33629;}
	.st32{fill:#BBF7FF;}
	.st33{fill:#8BF0FF;}
	.st34{fill:#7BE492;}
	.st35{fill:#45D987;}
	.st36{fill:#3B7191;}
	.st37{fill:#EBAD88;}
	.st38{fill:#F0BC5E;}
	.st39{fill:#8C95A4;}
	.st40{fill:#39C3FC;}
	.st41{fill:#148CE0;}
	.st42{fill:#ECECEC;}
	.st43{fill:#89B140;}
	.st44{fill:#AAC16B;}
	.st45{fill:#79A73A;}
	.st46{fill:#FBB540;}
	.st47{fill:#6C7175;}
	.st48{fill:#A79BA7;}
	.st49{fill:#918291;}
	.st50{fill:#F9F7F8;}
	.st51{fill:#E5E1E5;}
	.st52{fill:#B5ADB6;}
	.st53{fill:#78B9EB;}
	.st54{fill:#FFAF46;}
</style>
<g>
	<g>
		<g>
			<g>
				<g>
					<path class="st12" d="M430.9,82.8H255.6c-11.3,0-20.4,9.1-20.4,20.4v301.5c0,11.3,9.1,20.4,20.4,20.4h228.5
						c11.3,0,20.4-9.1,20.4-20.4V156.5c0-5.4-2.1-10.6-6-14.4l-53.3-53.3C441.5,85,436.3,82.8,430.9,82.8L430.9,82.8z"/>
				</g>
			</g>
			<g>
				<path class="st13" d="M498.5,142.1l-53.3-53.3c-1.2-1.2-2.6-2.3-4.1-3.1v319.1c0,11.3-9.1,20.4-20.4,20.4h63.3
					c11.3,0,20.4-9.1,20.4-20.4V156.5C504.5,151.1,502.4,145.9,498.5,142.1L498.5,142.1z"/>
			</g>
			<path class="st14" d="M498.5,142.1l-53.3-53.3c-2.6-2.6-5.8-4.4-9.2-5.3v55.1c0,7,5.7,12.6,12.6,12.6h55.1
				C502.9,147.8,501.1,144.6,498.5,142.1L498.5,142.1z"/>
		</g>
		<g>
			<g>
				<path class="st15" d="M258.5,55.6c0-13.1-10.7-23.8-23.8-23.8h-82c-30.3,0-54.8,24.5-54.8,54.8v60.8h193.3v-60
					c0-13.1-10.7-23.8-23.8-23.8h-0.8C262.1,63.6,258.5,60,258.5,55.6z"/>
				<path class="st16" d="M271.3,296.4l-76.8-2.7l-76.8,2.7l-70.3,22.3c-23.8,7.5-39.9,29.6-39.9,54.5v86.1c0,11.6,9.4,21,21,21h332
					c11.6,0,21-9.4,21-21v-86.1c0-24.9-16.2-47-39.9-54.5L271.3,296.4z"/>
				<path class="st17" d="M341.6,318.7l-70.3-22.3l-63.9-2.2l0.6,20.6l70.3,22.3c23.8,7.5,39.9,29.6,39.9,54.5v86.1
					c0,0.9-0.1,1.8-0.2,2.7h42.5c11.6,0,21-9.4,21-21v-86.1C381.5,348.2,365.3,326.2,341.6,318.7L341.6,318.7z"/>
				<g>
					<path class="st13" d="M271.3,296.4l-76.8-2.7l-76.8,2.7c-3.2,56.5,57.1,145.5,80.1,183.8C220.9,441.9,274.5,352.9,271.3,296.4
						L271.3,296.4z"/>
				</g>
				<path class="st18" d="M230.5,452.1l-23.8-90h-24.3l-20.2,90.8l35.7,27.3L230.5,452.1z"/>
				<g>
					<g>
						<g>
							<g>
								<g>
									<path class="st19" d="M237.5,292.2v-54.3h-86.1v54.3c0,23.8,43,49.7,43,49.7S237.5,316,237.5,292.2z"/>
								</g>
							</g>
						</g>
					</g>
					<path class="st19" d="M291.1,139.4h-16.4c-9.1,0-16.6-7.4-16.6-16.6v-9.1c0-11.9-11.7-20.3-23-16.6c-26.4,8.7-54.9,8.7-81.3,0
						l0,0c-11.3-3.7-23,4.7-23,16.6v9.1c0,9.1-7.4,16.6-16.6,16.6H97.8v27.1c0,6.9,5.6,12.5,12.5,12.5c2.2,0,4,1.7,4.1,3.9
						c2.6,41.9,37.4,75.1,80,75.1c42.6,0,77.4-33.2,80-75.1c0.1-2.2,1.9-3.9,4.1-3.9c6.9,0,12.5-5.6,12.5-12.5L291.1,139.4
						L291.1,139.4z"/>
					<path class="st20" d="M267.3,63.6h-0.8c-4.4,0-8-3.6-8-8c0-13.1-10.7-23.8-23.8-23.8h-6.9v115.6h63.3v-60
						C291.1,74.3,280.5,63.6,267.3,63.6L267.3,63.6z"/>
					<path class="st21" d="M274.7,139.4c-9.1,0-16.6-7.4-16.6-16.6v-9.1c0-11.9-11.7-20.3-23-16.6c-2.4,0.8-4.9,1.5-7.3,2.2V179
						c-0.5,35.6-24.3,65.6-56.7,75.5c7.4,2.3,15.3,3.5,23.4,3.5c42.6,0,77.4-33.2,80-75.1c0.1-2.2,1.9-3.9,4.1-3.9
						c6.9,0,12.5-5.6,12.5-12.5v-27.1L274.7,139.4z"/>
				</g>
				<g>
					<g>
						<g>
							<g>
								<g>
									<path class="st12" d="M194.5,325.4l-22.9,19.8c-5.7,4.9-14.3,4-18.8-2l-35.1-46.8l12.7-11c6.2-5.4,15.5-5.2,21.5,0.4
										L194.5,325.4z"/>
								</g>
							</g>
						</g>
					</g>
				</g>
				<g>
					<g>
						<g>
							<g>
								<g>
									<g>
										<path class="st12" d="M194.5,325.4l22.9,19.8c5.7,4.9,14.3,4,18.8-2l35.1-46.8l-12.7-11c-6.2-5.4-15.5-5.2-21.5,0.4
											L194.5,325.4z"/>
									</g>
								</g>
							</g>
						</g>
					</g>
				</g>
			</g>
			<g>
				<path class="st22" d="M117.7,296.4l-5.6,1c-12.4,2.3-23.1,10-29.1,21.1c-2.6,4.9-4.5,10.3-4.5,15.8c0,8.2,12.7,18.4,20.4,23.8
					c2.6,1.9,3.1,5.9,0.8,8.4c-4.4,4.7-9.8,12.7-8.2,22.3c4.8,27.7,54.5,68.4,85.5,91.5h20.7C174.8,441.9,114.5,352.9,117.7,296.4
					L117.7,296.4z"/>
				<path class="st22" d="M218.5,480.2c31-23,80.7-63.8,85.5-91.5c1.6-9.6-3.8-17.6-8.2-22.3c-2.2-2.4-1.8-6.5,0.8-8.4
					c7.7-5.4,20.4-15.6,20.4-23.8c0-4.3-1.2-8.6-2.9-12.6c-5.7-13-18.1-21.9-32.1-23.8l-10.8-1.5c3.2,56.5-50.4,145.5-73.5,183.8
					L218.5,480.2z"/>
			</g>
		</g>
		<path class="st23" d="M169.1,346.9l13.3,15.2h24.3l13-15.3l-25.1-21.4L169.1,346.9z"/>
	</g>
	<g>
		<path d="M336.1,209.5c5.6,0,11.1,1.7,15.7,4.8c3.4,2.3,8.1,1.4,10.4-2c2.3-3.4,1.4-8.1-2-10.4c-7.1-4.8-15.5-7.4-24.1-7.4
			c-23.8,0-43.1,19.4-43.1,43.1c0,23.8,19.4,43.1,43.1,43.1c11,0,21-4.2,28.2-12.7c2.7-3.2,2.3-7.9-0.9-10.6
			c-3.2-2.7-7.9-2.3-10.6,0.9c-4.3,5.1-10.1,7.4-16.7,7.4c-15.5,0-28.1-12.6-28.1-28.1S320.6,209.5,336.1,209.5L336.1,209.5z"/>
		<path d="M414,281.3c3.2,0,6-2,7.1-5l25.3-72.3c1.4-3.9-0.7-8.2-4.6-9.6c-3.9-1.4-8.2,0.7-9.6,4.6L414,250.9l-17.8-51.8
			c-1.3-3.9-5.6-6-9.5-4.7c-3.9,1.3-6,5.6-4.7,9.5l24.8,72.2C407.9,279.2,410.7,281.2,414,281.3C413.9,281.3,414,281.3,414,281.3
			L414,281.3z"/>
		<path d="M343.8,311.5l-38.9-12.3c-13.3-9.4-25.4-8.8-30.4-9.9l-11-9.6c-5.3-4.6-12.1-6.4-18.5-5.6v-24.8
			c20.2-14.3,34.2-37,36.7-63.1c9.6-1.5,16.9-9.8,16.9-19.8c0-16.4,0-63.9,0-79.1c0-17.3-14-31.3-31.3-31.3h-0.8
			c-0.3,0-0.5-0.2-0.5-0.5c0-17.3-14-31.3-31.3-31.3h-82c-34.3,0-62.3,27.9-62.3,62.3v79.9c0,10,7.3,18.3,16.9,19.8
			c2.5,26.1,16.5,48.8,36.7,63.1v24.8c-6.5-0.8-13.2,1-18.5,5.6l-11.1,9.7c-2.1,0.5-9.8,1.1-18.8,6.2l-50.3,15.9
			C18.2,320.1,0,344.8,0,373.2v86.1c0,15.7,12.8,28.5,28.5,28.5h332c15.7,0,28.5-12.8,28.5-28.5v-86.1
			C389,344.8,370.8,320.1,343.8,311.5L343.8,311.5z M253.7,291l7.4,6.5c-32,41.7-31.4,45.4-37.3,43l-18-15.3l36.3-33.8
			c0.1-0.1,0.2-0.2,0.3-0.3c0,0,0.1-0.1,0.1-0.1C245.7,288.2,250.5,288.2,253.7,291L253.7,291z M262.1,321.2
			c-5,28.4-19.2,61.5-34.4,91.1L214.9,364l7.2-8.5c7.9,1.5,15.6-1.8,20.1-7.8L262.1,321.2z M194.5,335.3l14.5,12.5l-5.7,6.8h-17.4
			l-5.8-6.7L194.5,335.3z M194.5,315.2L159,282.1v-24.2c10.9,4.9,22.9,7.5,35.5,7.5s24.6-2.7,35.5-7.5v24.2L194.5,315.2z
			 M105.3,86.5c0-26.1,21.2-47.3,47.3-47.3h82c9,0,16.3,7.3,16.3,16.3c0,8.6,7,15.5,15.5,15.5h0.8c9,0,16.3,7.3,16.3,16.3v44.5h-8.9
			c-5,0-9.1-4.1-9.1-9.1v-9.1c0-17-16.6-29.1-32.8-23.7c-24.7,8.2-51.9,8.2-76.5,0c0,0-0.1,0-0.1,0c-16.2-5.3-32.8,6.7-32.8,23.7
			v9.1c0,5-4.1,9.1-9.1,9.1h-8.9L105.3,86.5z M122,182.4c-0.4-6.1-5.5-10.9-11.6-10.9c-2.8,0-5-2.3-5-5v-19.6h8.9
			c13.3,0,24.1-10.8,24.1-24.1v-9.1c0-6.9,6.8-11.6,13-9.5c0,0,0.1,0,0.1,0c27.7,9.2,58.3,9.2,86,0c6.5-2.1,13.1,2.7,13.1,9.5v9.1
			c0,13.3,10.8,24.1,24.1,24.1h8.9v19.6c0,2.8-2.3,5-5,5c-6.1,0-11.2,4.8-11.6,10.9c-2.4,38.2-34.3,68-72.5,68
			S124.4,220.6,122,182.4L122,182.4z M135.3,291c3.2-2.8,7.9-2.8,11.1-0.1c0,0,0.1,0.1,0.1,0.1c0.1,0.1,0.2,0.2,0.3,0.3l36.3,33.8
			L165,340.5c-2.1,0.8-4.7,0.2-6.2-1.8l-30.9-41.2L135.3,291z M146.8,347.7c4.5,5.9,12.1,9.2,19.9,7.8l7.5,8.6l-10.1,45.3
			c-15.8-28.4-30.9-60.2-36.6-87.5L146.8,347.7z M179.6,472.8c-16.1-12-30.2-23.6-42.1-34.6c-3.1-2.8-7.8-2.6-10.6,0.5
			c-2.8,3.1-2.6,7.8,0.5,10.6c8.2,7.6,17.5,15.4,27.7,23.5H77.2v-41.6c0-4.1-3.4-7.5-7.5-7.5s-7.5,3.4-7.5,7.5v41.6H28.5
			c-7.4,0-13.5-6.1-13.5-13.5v-86.1c0-21.8,13.9-40.8,34.7-47.4l25.4-8c-2.7,5.7-4,11.3-4,16.5c0,12.2,14.8,23.6,21.8,28.7
			c-7.1,8.4-10.2,18-8.6,27.1c1.7,9.6,7.5,20.5,18,33.2c2.6,3.2,7.4,3.7,10.6,1c3.2-2.6,3.7-7.4,1-10.6
			c-10.7-13.1-14-21.5-14.8-26.2c-1.1-6.4,2.8-12.2,6.3-16c2.5-2.8,3.8-6.5,3.4-10.3c-0.4-3.8-2.4-7.1-5.4-9.3
			C90.7,343.2,86,336.5,86,334.3c0-3.6,1.2-7.7,3.6-12.3c4.5-8.4,12.1-14,20.5-16.5c2.5,51.5,45.4,120.7,71.7,163.1
			c0.9,1.4,1.7,2.7,2.5,4.1L179.6,472.8L179.6,472.8z M194.7,460.8c-5.7-9.1-12.4-20-19.5-32l13.2-59.2h12.5l16.4,62.1
			c-7,12.8-13.8,24.4-19.6,34C196.8,464.2,195.7,462.5,194.7,460.8L194.7,460.8z M211.1,472.8c26.6-44.6,65.9-115.8,67.8-167.7
			c0.3,0.1,20.3,1.3,28.4,19.7c1.5,3.5,2.3,6.7,2.3,9.5c0,2.2-4.7,8.9-17.2,17.7c-3,2.1-5,5.5-5.4,9.3c-0.4,3.8,0.8,7.6,3.4,10.3
			c3.5,3.7,7.4,9.6,6.3,16c-3.1,18.2-32.5,49.2-80.6,85.2L211.1,472.8L211.1,472.8z M374,459.2c0,7.4-6.1,13.5-13.5,13.5h-33.7
			v-41.6c0-4.1-3.4-7.5-7.5-7.5s-7.5,3.4-7.5,7.5v41.6h-71.2c22.5-17.9,65.9-54.4,70.8-82.7c1.6-9.1-1.5-18.7-8.6-27.1
			c7-5,21.8-16.5,21.8-28.7c0-4.5-1-9.2-3-14.1l17.6,5.6c20.8,6.6,34.7,25.6,34.7,47.4L374,459.2L374,459.2z"/>
		<path d="M503.8,136.8l-53.3-53.3c-5.3-5.3-12.3-8.2-19.7-8.2H326c-4.1,0-7.5,3.4-7.5,7.5s3.4,7.5,7.5,7.5h102.6v48.3
			c0,11.1,9,20.1,20.1,20.1H497v245.9c0,7.1-5.8,12.9-12.9,12.9h-67.6c-4.1,0-7.5,3.4-7.5,7.5s3.4,7.5,7.5,7.5h67.6
			c15.4,0,27.9-12.5,27.9-27.9V156.5C512,149,509.1,142,503.8,136.8L503.8,136.8z M448.7,143.8c-2.8,0-5.1-2.3-5.1-5.1V97.7
			l46.1,46.1H448.7z"/>
	</g>
</g>
</svg>
