<?xml version="1.0" encoding="utf-8"?>
<!-- Generator: Adobe Illustrator 24.0.1, SVG Export Plug-In . SVG Version: 6.00 Build 0)  -->
<svg version="1.1" id="Layer_1" xmlns="http://www.w3.org/2000/svg" xmlns:xlink="http://www.w3.org/1999/xlink" x="0px" y="0px"
	 viewBox="0 0 512 512" style="enable-background:new 0 0 512 512;" xml:space="preserve">
<style type="text/css">
	.st0{fill:#ACEBE2;}
	.st1{fill:#E2E0E0;}
	.st2{fill:#98D7CE;}
	.st3{fill:#CECCCC;}
	.st4{fill:#2BBDC4;}
	.st5{fill:#495D85;}
	.st6{fill:#E9EEF0;}
	.st7{fill:#ADF3FF;}
	.st8{fill:#FFC870;}
	.st9{fill:#FFDAA0;}
	.st10{fill:#FFFFFF;}
	.st11{fill:#BAEE83;}
	.st12{fill:#F4FBFF;}
	.st13{fill:#E4F6FF;}
	.st14{fill:#E28086;}
	.st15{fill:#EFC984;}
	.st16{fill:#4A80AA;}
	.st17{fill:#407093;}
	.st18{fill:#FFE07D;}
	.st19{fill:#FFDDCE;}
	.st20{fill:#EABC6B;}
	.st21{fill:#FFCBBE;}
	.st22{fill:#365E7D;}
	.st23{fill:#FFD064;}
	.st24{fill:#D12026;}
	.st25{fill:#A9DBF5;}
	.st26{fill:#88C3E0;}
	.st27{fill:#4380A0;}
	.st28{fill:#FFD54F;}
	.st29{fill:#FFC328;}
	.st30{fill:#F75632;}
	.st31{fill:#E33629;}
	.st32{fill:#BBF7FF;}
	.st33{fill:#8BF0FF;}
	.st34{fill:#7BE492;}
	.st35{fill:#45D987;}
	.st36{fill:#3B7191;}
	.st37{fill:#EBAD88;}
	.st38{fill:#F0BC5E;}
	.st39{fill:#8C95A4;}
	.st40{fill:#39C3FC;}
	.st41{fill:#148CE0;}
	.st42{fill:#ECECEC;}
	.st43{fill:#89B140;}
	.st44{fill:#AAC16B;}
	.st45{fill:#79A73A;}
	.st46{fill:#FBB540;}
	.st47{fill:#6C7175;}
	.st48{fill:#A79BA7;}
	.st49{fill:#918291;}
	.st50{fill:#F9F7F8;}
	.st51{fill:#E5E1E5;}
	.st52{fill:#B5ADB6;}
	.st53{fill:#78B9EB;}
	.st54{fill:#FFAF46;}
</style>
<g>
	<path class="st8" d="M443,502.1H149c-11,0-20-9-20-20v-372c0-11,9-20,20-20h294c11,0,20,9,20,20v372C463,493.1,454,502.1,443,502.1
		z"/>
	<path class="st9" d="M403,462.1H109c-11,0-20-9-20-20v-372c0-11,9-20,20-20h294c11,0,20,9,20,20v372C423,453.1,414,462.1,403,462.1
		z"/>
	<path class="st10" d="M362.9,422h-294c-11,0-20-9-20-20V30c0-11,9-20,20-20h294c11,0,20,9,20,20v372C382.9,413,374,422,362.9,422z"
		/>
	<rect x="104.9" y="84" class="st11" width="96" height="96"/>
	<path d="M362.9,432h-294c-16.5,0-30-13.5-30-30V216.3c0-5.5,4.5-10,10-10c5.5,0,10,4.5,10,10V402c0,5.5,4.5,10,10,10h294
		c5.5,0,10-4.5,10-10V30c0-5.5-4.5-10-10-10h-294c-5.5,0-10,4.5-10,10v102c0,5.5-4.5,10-10,10c-5.5,0-10-4.5-10-10V30
		c0-16.5,13.5-30,30-30h294c16.5,0,30,13.5,30,30v372C392.9,418.5,379.5,432,362.9,432z"/>
	<path d="M48.9,186.8c-2.6,0-5.2-1.1-7.1-2.9c-1.9-1.9-2.9-4.4-2.9-7.1c0-2.6,1.1-5.2,2.9-7.1c1.9-1.9,4.4-2.9,7.1-2.9
		c2.6,0,5.2,1.1,7.1,2.9c1.9,1.9,2.9,4.4,2.9,7.1c0,2.6-1.1,5.2-2.9,7.1C54.1,185.7,51.6,186.8,48.9,186.8z"/>
	<path d="M89,472.1c-2.6,0-5.2-1.1-7.1-2.9c-1.9-1.9-2.9-4.4-2.9-7.1c0-2.6,1.1-5.2,2.9-7.1c1.9-1.9,4.4-2.9,7.1-2.9
		c2.6,0,5.2,1.1,7.1,2.9s2.9,4.4,2.9,7.1c0,2.6-1.1,5.2-2.9,7.1C94.2,471,91.6,472.1,89,472.1z"/>
	<path d="M403,472.1H129c-5.5,0-10-4.5-10-10s4.5-10,10-10h274c5.5,0,10-4.5,10-10v-392c0-5.5,4.5-10,10-10s10,4.5,10,10v392
		C433,458.6,419.5,472.1,403,472.1z"/>
	<path d="M443.1,512h-314c-5.5,0-10-4.5-10-10s4.5-10,10-10h314c5.5,0,10-4.5,10-10V90c0-5.5,4.5-10,10-10s10,4.5,10,10v392
		C473.1,498.5,459.6,512,443.1,512z"/>
	<path d="M200.9,190h-96c-5.5,0-10-4.5-10-10V84c0-5.5,4.5-10,10-10h96c5.5,0,10,4.5,10,10v96C210.9,185.5,206.5,190,200.9,190z
		 M114.9,170h76V94h-76V170z"/>
	<path d="M128,286.1L128,286.1c-2.7,0-5.2-1.1-7.1-2.9l-19.4-19.4c-3.9-3.9-3.9-10.2,0-14.1c3.9-3.9,10.2-3.9,14.1,0L128,262
		l26.6-26.6c3.9-3.9,10.2-3.9,14.1,0c3.9,3.9,3.9,10.2,0,14.1l-33.7,33.7C133.2,285.1,130.7,286.1,128,286.1z"/>
	<path d="M332.6,269H215.9c-5.5,0-10-4.5-10-10s4.5-10,10-10h116.7c5.5,0,10,4.5,10,10C342.6,264.5,338.1,269,332.6,269z"/>
	<path d="M326.9,94h-70c-5.5,0-10-4.5-10-10s4.5-10,10-10h70c5.5,0,10,4.5,10,10S332.5,94,326.9,94z"/>
	<path d="M326.9,142h-70c-5.5,0-10-4.5-10-10s4.5-10,10-10h70c5.5,0,10,4.5,10,10C336.9,137.5,332.5,142,326.9,142z"/>
	<path d="M326.9,190h-70c-5.5,0-10-4.5-10-10s4.5-10,10-10h70c5.5,0,10,4.5,10,10S332.5,190,326.9,190z"/>
	<path d="M128,362.5L128,362.5c-2.7,0-5.2-1.1-7.1-2.9l-19.4-19.4c-3.9-3.9-3.9-10.2,0-14.1c3.9-3.9,10.2-3.9,14.1,0l12.4,12.4
		l26.6-26.6c3.9-3.9,10.2-3.9,14.1,0c3.9,3.9,3.9,10.2,0,14.1l-33.7,33.7C133.2,361.4,130.7,362.5,128,362.5z"/>
	<path d="M332.6,345H215.9c-5.5,0-10-4.5-10-10s4.5-10,10-10h116.7c5.5,0,10,4.5,10,10S338.1,345,332.6,345z"/>
</g>
</svg>
