<?xml version="1.0" encoding="utf-8"?>
<!-- Generator: Adobe Illustrator 24.0.1, SVG Export Plug-In . SVG Version: 6.00 Build 0)  -->
<svg version="1.1" id="Layer_1" xmlns="http://www.w3.org/2000/svg" xmlns:xlink="http://www.w3.org/1999/xlink" x="0px" y="0px"
	 viewBox="0 0 512 512" style="enable-background:new 0 0 512 512;" xml:space="preserve">
<style type="text/css">
	.st0{fill:#ACEBE2;}
	.st1{fill:#E2E0E0;}
	.st2{fill:#98D7CE;}
	.st3{fill:#CECCCC;}
	.st4{fill:#2BBDC4;}
	.st5{fill:#495D85;}
	.st6{fill:#E9EEF0;}
	.st7{fill:#ADF3FF;}
	.st8{fill:#FFC870;}
	.st9{fill:#FFDAA0;}
	.st10{fill:#FFFFFF;}
	.st11{fill:#BAEE83;}
	.st12{fill:#F4FBFF;}
	.st13{fill:#E4F6FF;}
	.st14{fill:#E28086;}
	.st15{fill:#EFC984;}
	.st16{fill:#4A80AA;}
	.st17{fill:#407093;}
	.st18{fill:#FFE07D;}
	.st19{fill:#FFDDCE;}
	.st20{fill:#EABC6B;}
	.st21{fill:#FFCBBE;}
	.st22{fill:#365E7D;}
	.st23{fill:#FFD064;}
	.st24{fill:#D12026;}
	.st25{fill:#A9DBF5;}
	.st26{fill:#88C3E0;}
	.st27{fill:#4380A0;}
	.st28{fill:#FFD54F;}
	.st29{fill:#FFC328;}
	.st30{fill:#F75632;}
	.st31{fill:#E33629;}
	.st32{fill:#BBF7FF;}
	.st33{fill:#8BF0FF;}
	.st34{fill:#7BE492;}
	.st35{fill:#45D987;}
	.st36{fill:#3B7191;}
	.st37{fill:#EBAD88;}
	.st38{fill:#F0BC5E;}
	.st39{fill:#8C95A4;}
	.st40{fill:#39C3FC;}
	.st41{fill:#148CE0;}
	.st42{fill:#ECECEC;}
	.st43{fill:#89B140;}
	.st44{fill:#AAC16B;}
	.st45{fill:#79A73A;}
	.st46{fill:#FBB540;}
	.st47{fill:#6C7175;}
	.st48{fill:#A79BA7;}
	.st49{fill:#918291;}
	.st50{fill:#F9F7F8;}
	.st51{fill:#E5E1E5;}
	.st52{fill:#B5ADB6;}
	.st53{fill:#78B9EB;}
	.st54{fill:#FFAF46;}
</style>
<g>
	<g>
		<path class="st53" d="M224.5,299.5c0.5,0.6,1,1.3,1.5,1.9C225.5,300.7,225,300.1,224.5,299.5z"/>
		<path class="st53" d="M219.3,293.4c0.4,0.4,0.7,0.7,1,1.1C219.9,294.1,219.6,293.8,219.3,293.4z"/>
		<path class="st53" d="M229.4,306.7c0.3,0.5,0.6,1,0.9,1.6C230.1,307.7,229.7,307.2,229.4,306.7z"/>
		<path class="st53" d="M233.8,315.4c0.2,0.6,0.4,1.2,0.6,1.7C234.2,316.6,234,316,233.8,315.4z"/>
		<path class="st53" d="M211.7,286.9c0.5,0.4,1.1,0.8,1.6,1.2C212.8,287.7,212.3,287.3,211.7,286.9z"/>
		<path class="st53" d="M204.7,282.2c0.7,0.4,1.4,0.9,2,1.2C206,283,205.3,282.6,204.7,282.2z"/>
		<path class="st53" d="M209.2,397.7c5-3.2,9.8-6.8,14.1-10.9c1.2-1.1,2.3-2.4,3.1-3.8c4.7-7.5,8.1-15.8,10.2-24.4
			C232.5,374.5,222.8,388.4,209.2,397.7z"/>
		<path class="st53" d="M179.1,273.6c0.8,0.1,1.6,0.2,2.4,0.4C180.7,273.9,179.9,273.7,179.1,273.6z"/>
		<path class="st53" d="M197.5,278.5c0.3,0.1,0.6,0.3,0.9,0.4C198,278.8,197.8,278.7,197.5,278.5z"/>
		<path class="st53" d="M236.4,323.2c0.2,0.8,0.4,1.6,0.6,2.4C236.9,324.8,236.7,324,236.4,323.2z"/>
		<path class="st53" d="M170.4,409.6c-1.9,0-3.8-0.2-5.7-0.4C166.5,409.4,168.4,409.6,170.4,409.6z"/>
		<path class="st53" d="M187.9,407.3l-1,0.3L187.9,407.3z"/>
		<path class="st53" d="M238.3,332.4c0.1,0.5,0.2,1,0.2,1.5C238.5,333.4,238.4,332.9,238.3,332.4z"/>
		<path class="st53" d="M161.8,409c-2.8-0.4-5.5-0.9-8.2-1.6C156.3,408.1,159.1,408.7,161.8,409z"/>
		<path class="st53" d="M179.5,409c-0.4,0.1-0.8,0.1-1.2,0.2C178.7,409.1,179.1,409,179.5,409z"/>
		<path class="st53" d="M208.1,398.4c-1.2,0.8-2.5,1.5-3.7,2.3C205.7,400,206.8,399.2,208.1,398.4z"/>
		<path class="st53" d="M238.9,342.3c0,0.7-0.1,1.5-0.1,2.2C238.8,343.8,238.9,343,238.9,342.3z"/>
		<path class="st53" d="M238.2,351.1c-0.1,1-0.3,2-0.5,3C237.9,353.1,238,352.1,238.2,351.1z"/>
		<path class="st53" d="M187.6,275.3c0.7,0.2,1.5,0.4,2.2,0.6C189.1,275.6,188.4,275.5,187.6,275.3z"/>
	</g>
	<path class="st54" d="M25.6,375.5H35c7.1,0,13.4,4.4,15.9,11c1,2.6,2,5.1,3.1,7.6c3,6.5,1.6,14.1-3.4,19.1l-6.7,6.7
		c-6.6,6.7-6.6,17.5,0,24.1l24.1,24.1c6.7,6.6,17.5,6.6,24.1,0l6.7-6.7c5-5,12.6-6.4,19.1-3.4c2.5,1.1,5,2.2,7.6,3.1
		c6.6,2.5,11,8.8,11,15.9v9.4c0,9.4,7.6,17.1,17.1,17.1h34.1c9.4,0,17.1-7.6,17.1-17.1V477c0-7.1,4.4-13.4,11-15.9
		c2.6-1,5.1-2,7.6-3.1c6.5-3,14.1-1.6,19.1,3.4l6.7,6.7c6.7,6.6,17.5,6.6,24.1,0l24.1-24.1c6.6-6.7,6.6-17.5,0-24.1l-6.7-6.7
		c-5-5-6.4-12.6-3.4-19.1c1.1-2.5,2.2-5,3.1-7.6c2.5-6.6,8.8-11,15.9-11h9.4c9.4,0,17.1-7.6,17.1-17.1v-34.1
		c0-9.4-7.6-17.1-17.1-17.1h-9.4c-7.1,0-13.4-4.4-15.9-11c-1-2.6-2-5.1-3.1-7.6c-3-6.5-1.6-14.1,3.4-19.1l6.7-6.7
		c6.6-6.7,6.6-17.5,0-24.1l-24.1-24.1c-6.7-6.6-17.5-6.6-24.1,0l-6.7,6.7c-5,5-12.6,6.4-19.1,3.4c-2.5-1.1-5-2.2-7.6-3.1
		c-6.6-2.5-11-8.8-11-15.9v-9.4c0-9.4-7.6-17.1-17.1-17.1h-34.1c-9.4,0-17.1,7.6-17.1,17.1v9.4c0,7.1-4.4,13.4-11,15.9
		c-2.6,1-5.1,2-7.6,3.1c-6.5,3-14.1,1.6-19.1-3.4l-6.7-6.7c-6.7-6.6-17.5-6.6-24.1,0L44,238.7c-6.6,6.7-6.6,17.5,0,24.1l6.7,6.7
		c5,5,6.4,12.6,3.4,19.1c-1.1,2.5-2.2,5-3.1,7.6c-2.5,6.6-8.8,11-15.9,11h-9.4c-9.4,0-17.1,7.6-17.1,17.1v34.1
		C8.5,367.8,16.2,375.5,25.6,375.5z M153.6,275.2c5.6-1.4,11.3-2.1,17.1-2.1c2.8,0,5.6,0.2,8.5,0.6c0.8,0.1,1.6,0.2,2.4,0.4
		c2.1,0.3,4.1,0.8,6.1,1.3c0.7,0.2,1.5,0.4,2.2,0.6c2.6,0.7,5.1,1.6,7.6,2.7c0.3,0.1,0.6,0.3,0.9,0.4c2.2,1,4.3,2,6.3,3.2
		c0.7,0.4,1.4,0.9,2,1.2c1.7,1.1,3.4,2.2,5,3.5c0.5,0.4,1.1,0.8,1.6,1.2c2.1,1.7,4,3.4,5.9,5.3c0.4,0.4,0.7,0.7,1,1.1
		c1.5,1.6,2.9,3.2,4.3,5c0.5,0.6,1,1.3,1.5,1.9c1.2,1.7,2.4,3.4,3.4,5.3c0.3,0.5,0.6,1,0.9,1.6c1.3,2.3,2.4,4.7,3.5,7.2
		c0.2,0.6,0.4,1.2,0.6,1.7c0.8,2,1.4,4,2,6.1c0.2,0.8,0.4,1.6,0.6,2.4c0.5,2.2,0.9,4.5,1.2,6.8c0.1,0.5,0.2,1,0.2,1.5
		c0.3,2.5,0.4,5,0.4,7.5c0,0.3,0,0.7-0.1,1c0,0.7-0.1,1.5-0.1,2.2c-0.1,2.2-0.3,4.4-0.6,6.5c-0.1,1-0.3,2-0.5,3
		c-0.3,1.5-0.7,3-1.1,4.5c-2.1,8.6-5.6,16.9-10.2,24.4c-0.9,1.4-1.9,2.7-3.1,3.8c-4.3,4-9.1,7.7-14.1,10.8l-1.1,0.7
		c-1.2,0.8-2.5,1.6-3.7,2.3c-5.2,2.9-10.7,5.2-16.4,6.6l-1,0.3c-2.4,0.6-4.9,1.1-7.4,1.4c-0.4,0.1-0.8,0.1-1.2,0.2
		c-2.5,0.3-5.1,0.5-7.7,0.5h-0.3c-1.9,0-3.8-0.2-5.7-0.4c-0.9-0.1-1.9-0.1-2.8-0.2c-2.8-0.4-5.5-0.9-8.2-1.6
		c-36.5-9.4-58.5-46.7-49-83.2C110.8,300.2,129.6,281.4,153.6,275.2z"/>
	<g>
		<path class="st53" d="M230.3,308.2c1.3,2.3,2.4,4.7,3.5,7.2C232.8,313,231.6,310.5,230.3,308.2z"/>
		<path class="st53" d="M234.5,317.2c0.8,2,1.4,4,2,6.1C235.9,321.2,235.2,319.1,234.5,317.2z"/>
		<path class="st53" d="M238.9,341.3c0-2.5-0.1-5-0.4-7.4c0.3,2.8,0.4,5.6,0.4,8.5C238.9,342,238.9,341.7,238.9,341.3z"/>
		<path class="st53" d="M237.1,325.6c0.5,2.2,0.9,4.5,1.2,6.8C238,330.1,237.6,327.9,237.1,325.6z"/>
		<path class="st53" d="M181.5,274c2.1,0.3,4.1,0.8,6.1,1.3C185.6,274.8,183.6,274.3,181.5,274z"/>
		<path class="st53" d="M170.7,273.1c2.8,0,5.6,0.2,8.5,0.6C176.3,273.3,173.5,273.1,170.7,273.1z"/>
		<path class="st53" d="M198.3,278.9c2.2,1,4.3,2,6.3,3.2C202.6,281,200.5,279.9,198.3,278.9z"/>
		<path class="st53" d="M189.8,275.8c2.6,0.7,5.1,1.6,7.6,2.7C195,277.5,192.4,276.6,189.8,275.8z"/>
		<path class="st53" d="M226,301.4c1.2,1.7,2.4,3.4,3.4,5.3C228.3,304.8,227.2,303.1,226,301.4z"/>
		<path class="st53" d="M220.3,294.5c1.5,1.6,2.9,3.2,4.3,5C223.2,297.7,221.8,296.1,220.3,294.5z"/>
		<path class="st53" d="M206.7,283.4c1.7,1.1,3.4,2.2,5,3.5C210.1,285.7,208.4,284.5,206.7,283.4z"/>
		<path class="st53" d="M213.3,288.1c2.1,1.6,4,3.4,5.9,5.3C217.4,291.5,215.4,289.8,213.3,288.1z"/>
		<path class="st53" d="M204.4,400.7c-5.2,2.9-10.7,5.1-16.4,6.6C193.7,405.8,199.2,403.6,204.4,400.7z"/>
		<path class="st53" d="M186.9,407.6c-2.4,0.6-4.9,1.1-7.4,1.4C182,408.6,184.4,408.2,186.9,407.6z"/>
		<path class="st53" d="M170.7,409.6c2.6,0,5.1-0.2,7.7-0.5c-2.7,0.3-5.3,0.5-8,0.4L170.7,409.6z"/>
		<path class="st53" d="M164.6,409.2c-0.9-0.1-1.9-0.1-2.8-0.2C162.7,409.1,163.7,409.1,164.6,409.2z"/>
		<path class="st53" d="M238.8,344.5c-0.1,2.1-0.3,4.3-0.6,6.5C238.5,348.9,238.7,346.7,238.8,344.5z"/>
		<path class="st53" d="M209.2,397.7c-0.4,0.2-0.7,0.5-1.1,0.7L209.2,397.7z"/>
		<path class="st53" d="M237.7,354.1c-0.3,1.5-0.7,3-1.1,4.5C237,357.1,237.4,355.6,237.7,354.1z"/>
	</g>
	<g>
		<path d="M315.7,298.7h-9.4c-3.5,0-6.7-2.2-7.9-5.5c-1-2.7-2.2-5.4-3.4-8c-1.5-3.2-0.8-7,1.7-9.5l6.7-6.7c9.9-10,9.9-26.2,0-36.2
			l-24.1-24.1c-10-9.9-26.2-9.9-36.2,0l-6.7,6.7c-2.5,2.5-6.3,3.2-9.5,1.7c-2.6-1.2-5.3-2.3-8.1-3.4c-3.3-1.2-5.5-4.4-5.5-7.9v-9.4
			c0-14.1-11.5-25.6-25.6-25.6h-34.1c-14.1,0-25.6,11.5-25.6,25.6v9.4c0,3.5-2.2,6.7-5.5,7.9c-2.7,1-5.4,2.2-8,3.4
			c-3.2,1.5-7,0.8-9.5-1.7l-6.7-6.7c-10-9.9-26.2-9.9-36.2,0l-24.1,24.2c-10,10-10,26.2,0,36.2l6.7,6.7c2.5,2.5,3.2,6.3,1.7,9.5
			c-1.2,2.6-2.3,5.3-3.4,8.1c-1.2,3.3-4.4,5.5-8,5.5h-9.4C11.5,298.7,0,310.1,0,324.3v34.1C0,372.5,11.5,384,25.6,384H35
			c3.5,0,6.7,2.2,7.9,5.5c1,2.7,2.2,5.4,3.4,8c1.5,3.2,0.8,7-1.7,9.5l-6.7,6.7c-9.9,10-9.9,26.2,0,36.2L62,474.1
			c10,10,26.2,10,36.2,0l6.7-6.7c2.5-2.5,6.3-3.2,9.5-1.7c2.6,1.2,5.3,2.3,8.1,3.4c3.4,1.2,5.6,4.4,5.6,7.9v9.4
			c0,14.1,11.5,25.6,25.6,25.6h34.1c14.1,0,25.6-11.5,25.6-25.6V477c0-3.5,2.2-6.7,5.5-7.9c2.7-1,5.4-2.2,8-3.4
			c3.2-1.5,7-0.8,9.5,1.7l6.7,6.7c10,9.9,26.2,9.9,36.2,0l24.1-24.1c10-10,10-26.2,0-36.2l-6.7-6.7c-2.5-2.5-3.2-6.3-1.7-9.5
			c1.2-2.6,2.3-5.3,3.4-8.1c1.2-3.3,4.4-5.5,7.9-5.5h9.4c14.1,0,25.6-11.5,25.6-25.6v-34.1C341.3,310.1,329.9,298.7,315.7,298.7z
			 M324.3,358.4c0,4.7-3.8,8.5-8.5,8.5h-9.4c-10.6,0-20.1,6.6-23.9,16.5c-0.9,2.4-1.9,4.7-2.9,7.1c-4.4,9.7-2.4,21.1,5.1,28.6
			l6.7,6.7c3.3,3.3,3.3,8.7,0,12.1l0,0L267.2,462c-3.3,3.3-8.7,3.3-12.1,0l-6.7-6.7c-7.6-7.5-19-9.5-28.6-5.1c-2.3,1-4.7,2-7,2.9
			c-9.9,3.8-16.5,13.3-16.5,23.9v9.4c0,4.7-3.8,8.5-8.5,8.5h-34.1c-4.7,0-8.5-3.8-8.5-8.5V477c0-10.6-6.6-20.1-16.5-23.9
			c-2.4-0.9-4.7-1.9-7.1-2.9c-9.7-4.4-21.1-2.3-28.6,5.1l-6.7,6.7c-3.3,3.3-8.7,3.3-12.1,0l0,0L50,437.9c-3.3-3.3-3.3-8.7,0-12.1
			l6.7-6.7c7.5-7.6,9.5-19,5.1-28.6c-1-2.3-2-4.7-2.9-7c-3.8-9.9-13.3-16.5-23.9-16.5h-9.4c-4.7,0-8.5-3.8-8.5-8.5v-34.1
			c0-4.7,3.8-8.5,8.5-8.5H35c10.6,0,20.1-6.6,23.9-16.5c0.9-2.4,1.9-4.7,2.9-7.1c4.4-9.7,2.4-21.1-5.1-28.6l-6.7-6.7
			c-3.3-3.3-3.3-8.7,0-12.1l0,0l24.1-24.1c3.3-3.3,8.7-3.3,12.1,0l6.7,6.7c7.6,7.5,19,9.5,28.6,5.1c2.3-1.1,4.7-2,7-2.9
			c9.9-3.8,16.5-13.3,16.5-23.9v-9.4c0-4.7,3.8-8.5,8.5-8.5h34.1c4.7,0,8.5,3.8,8.5,8.5v9.4c0,10.6,6.6,20.1,16.5,23.9
			c2.4,0.9,4.7,1.9,7.1,2.9c9.7,4.4,21.1,2.4,28.6-5.1l6.7-6.7c3.3-3.3,8.7-3.3,12.1,0l24.1,24.1c3.3,3.3,3.3,8.7,0,12.1l-6.7,6.7
			c-7.5,7.6-9.5,19-5.1,28.6c1,2.3,2,4.7,2.9,7c3.8,9.9,13.3,16.5,23.9,16.5h9.4c4.7,0,8.5,3.8,8.5,8.5L324.3,358.4L324.3,358.4z"/>
		<path d="M247.3,337.9c-0.1-2-0.2-4.1-0.5-6.1c-0.3-2.2-0.6-4.4-1.1-6.5c-0.3-1.4-0.7-2.8-1.1-4.1c-0.5-1.8-1-3.5-1.6-5.2
			c-0.4-1.2-0.9-2.4-1.3-3.5c-1.1-2.7-2.4-5.4-3.8-8c-0.1-0.2-0.2-0.4-0.3-0.6c-2.2-4-4.8-7.7-7.7-11.2c-0.2-0.3-0.5-0.6-0.8-0.9
			c-1.2-1.4-2.4-2.7-3.7-4c-0.7-0.7-1.4-1.3-2.1-2c-0.9-0.8-1.7-1.6-2.6-2.3c-1-0.9-2.1-1.8-3.2-2.6l-1.4-1
			c-13.2-9.9-29.3-15.2-45.8-15.2c-0.9,0-1.7,0.1-2.6,0.2c-1.8,0.1-3.6,0.2-5.5,0.3c-1,0.1-1.9,0.2-2.9,0.4
			c-2.8,0.4-5.5,0.9-8.3,1.5c-41.1,10.6-65.8,52.5-55.2,93.6c7,27.1,28.2,48.2,55.2,55.2c0.1,0,0.3,0,0.4,0.1
			c2.9,0.7,5.9,1.3,8.9,1.7c2,0.2,4,0.3,6,0.4c1.3,0.1,2.6,0.3,4,0.3c2.4,0,5-0.2,7.5-0.4c0.3,0,0.5-0.1,0.9-0.1
			c2.1-0.2,4.2-0.5,6.3-1c0.9-0.2,1.6-0.4,2.5-0.6c1.5-0.4,3-0.7,4.5-1.2c1.2-0.4,2.4-0.8,3.5-1.2c1.2-0.4,2.4-0.9,3.6-1.3
			s2.2-1,3.3-1.5c1.4-0.7,2.9-1.3,4.3-2.1h0.1c8-4.3,15.3-9.6,21.9-15.8c1.8-1.7,3.3-3.5,4.6-5.6c6.7-10.7,11-22.6,12.9-35.1
			c0.2-1.6,0.5-3.3,0.6-5c0.1-1.5,0.2-3.1,0.2-4.6c0-0.5,0.1-0.9,0.1-1.4C247.5,340.2,247.3,339.1,247.3,337.9z M155.7,283.5
			c4.9-1.2,9.9-1.9,15-1.9c2.4,0,4.9,0.2,7.3,0.5c0.6,0.1,1.3,0.2,1.9,0.3c1.8,0.3,3.7,0.7,5.5,1.1c0.6,0.2,1.2,0.3,1.8,0.5
			c4.5,1.3,8.9,3.1,13,5.5c0.7,0.4,1.3,0.8,1.9,1.2c1.3,0.9,2.7,1.7,3.9,2.7c0.7,0.5,1.4,1,2.1,1.5c1.7,1.3,3.3,2.8,4.8,4.3
			c0.6,0.6,1.2,1.3,1.7,1.9c1,1.1,1.9,2.2,2.9,3.3c0.6,0.8,1.2,1.6,1.8,2.4c0.9,1.2,1.7,2.5,2.5,3.8c0.4,0.7,0.9,1.4,1.3,2.1
			c1.1,2,2.1,4.1,2.9,6.3c0.3,0.9,0.6,1.7,0.9,2.6c0.6,1.6,1,3.2,1.5,4.8c0.2,0.9,0.5,1.6,0.6,2.4c0.5,2.3,0.9,4.6,1.1,7
			c0.1,0.6,0.1,1.3,0.1,1.9c0.1,2,0.2,3.9,0.1,5.9c0,0.7-0.1,1.4-0.1,2.1c-0.2,2.1-0.4,4.1-0.8,6.2c-3.2,17.7-14.2,33.1-30,41.8
			c-1.1,0.6-2.1,1.1-3.1,1.6l-0.7,0.3c-5,2.3-10.2,3.8-15.6,4.7c-0.4,0.1-0.8,0.1-1.1,0.2c-1.1,0.2-2.1,0.3-3.2,0.4
			c-1.4,0.1-2.8,0.2-4.2,0.2c-0.6,0-1.2,0-1.8,0c-2,0-4-0.1-6-0.4l-1-0.1c-2.3-0.3-4.7-0.7-7-1.3c-32-8.2-51.2-40.7-43.1-72.7
			C118.1,305.4,134.6,288.9,155.7,283.5L155.7,283.5z"/>
		<path d="M486.4,179.2h-26.8c-3.6,0-6.8-2.2-8-5.6c-2.6-7.9-5.8-15.7-9.6-23.1c-1.6-3.2-0.9-7.1,1.6-9.6l19-19.1
			c10-10,10-26.2,0-36.2l-36.3-36.2c-10-10-26.2-10-36.2,0l-19,19c-2.5,2.6-6.4,3.2-9.6,1.6c-7.5-3.8-15.2-7-23.1-9.6
			c-3.4-1.2-5.7-4.4-5.6-8V25.6c0-14.1-11.5-25.6-25.6-25.6H256c-14.1,0-25.6,11.5-25.6,25.6v26.8c0,3.6-2.2,6.8-5.6,8
			c-7.9,2.7-15.7,5.9-23.1,9.6c-3.2,1.6-7.1,0.9-9.6-1.6l-19.1-19c-10-10-26.2-10-36.2,0l-36.2,36.2c-10,10-10,26.2,0,36.2l28,28
			c3.4,3.3,8.8,3.2,12.1-0.2c3.2-3.3,3.2-8.5,0-11.9l-28-28c-3.3-3.3-3.3-8.7,0-12.1l36.2-36.2c3.3-3.3,8.7-3.3,12.1,0l19.1,19
			c7.7,7.8,19.5,9.7,29.3,4.8c6.8-3.4,13.7-6.3,20.9-8.7c10.3-3.5,17.3-13.2,17.2-24.1V25.6c0-4.7,3.8-8.5,8.5-8.5h51.2
			c4.7,0,8.5,3.8,8.5,8.5v26.8c0,10.9,6.9,20.6,17.2,24.1c7.2,2.4,14.2,5.3,20.9,8.7c9.8,4.9,21.6,2.9,29.3-4.8l19.1-19
			c3.3-3.3,8.7-3.3,12.1,0l36.2,36.2c3.3,3.3,3.3,8.7,0,12.1l-19,19.1c-7.7,7.7-9.7,19.5-4.8,29.3c3.4,6.8,6.3,13.7,8.7,20.9
			c3.5,10.3,13.2,17.3,24.1,17.2h26.8c4.7,0,8.5,3.8,8.5,8.5V256c0,4.7-3.8,8.5-8.5,8.5h-26.8c-10.9,0-20.6,6.9-24.1,17.2
			c-2.4,7.2-5.3,14.2-8.7,20.9c-4.9,9.8-2.9,21.6,4.8,29.3l19,19.1c3.3,3.3,3.3,8.7,0,12.1l-36.2,36.2c-3.3,3.3-8.7,3.3-12.1,0
			l-28-28c-3.3-3.4-8.7-3.5-12.1-0.2c-3.4,3.3-3.5,8.7-0.2,12.1c0.1,0.1,0.1,0.1,0.2,0.2l28,28c10,10,26.2,10,36.2,0l36.2-36.2
			c10-10,10-26.2,0-36.2l-19-19c-2.6-2.5-3.2-6.4-1.6-9.6c3.8-7.5,7-15.2,9.6-23.1c1.2-3.4,4.4-5.7,8-5.6h26.8
			c14.1,0,25.6-11.5,25.6-25.6v-51.2C512,190.7,500.5,179.2,486.4,179.2z"/>
		<path d="M360,152c-43.3-43.3-113.5-43.3-156.9,0c-3.3,3.4-3.2,8.8,0.2,12.1c3.3,3.2,8.6,3.2,11.9,0c36.4-36.9,95.8-37.3,132.7-0.9
			s37.3,95.8,0.9,132.7c-0.3,0.3-0.6,0.6-0.9,0.9c-3.4,3.3-3.5,8.7-0.2,12.1s8.7,3.5,12.1,0.2c0.1-0.1,0.1-0.1,0.2-0.2
			C403.3,265.5,403.3,195.3,360,152z"/>
	</g>
</g>
</svg>
