<?xml version="1.0" encoding="utf-8"?>
<!-- Generator: Adobe Illustrator 24.0.1, SVG Export Plug-In . SVG Version: 6.00 Build 0)  -->
<svg version="1.1" id="Layer_1" xmlns="http://www.w3.org/2000/svg" xmlns:xlink="http://www.w3.org/1999/xlink" x="0px" y="0px"
	 viewBox="0 0 512 512" style="enable-background:new 0 0 512 512;" xml:space="preserve">
<style type="text/css">
	.st0{fill:#ACEBE2;}
	.st1{fill:#E2E0E0;}
	.st2{fill:#98D7CE;}
	.st3{fill:#CECCCC;}
	.st4{fill:#2BBDC4;}
	.st5{fill:#495D85;}
	.st6{fill:#E9EEF0;}
	.st7{fill:#ADF3FF;}
	.st8{fill:#FFC870;}
	.st9{fill:#FFDAA0;}
	.st10{fill:#FFFFFF;}
	.st11{fill:#BAEE83;}
	.st12{fill:#F4FBFF;}
	.st13{fill:#E4F6FF;}
	.st14{fill:#E28086;}
	.st15{fill:#EFC984;}
	.st16{fill:#4A80AA;}
	.st17{fill:#407093;}
	.st18{fill:#FFE07D;}
	.st19{fill:#FFDDCE;}
	.st20{fill:#EABC6B;}
	.st21{fill:#FFCBBE;}
	.st22{fill:#365E7D;}
	.st23{fill:#FFD064;}
	.st24{fill:#D12026;}
	.st25{fill:#A9DBF5;}
	.st26{fill:#88C3E0;}
	.st27{fill:#4380A0;}
	.st28{fill:#FFD54F;}
	.st29{fill:#FFC328;}
	.st30{fill:#F75632;}
	.st31{fill:#E33629;}
	.st32{fill:#BBF7FF;}
	.st33{fill:#8BF0FF;}
	.st34{fill:#7BE492;}
	.st35{fill:#45D987;}
	.st36{fill:#3B7191;}
	.st37{fill:#EBAD88;}
	.st38{fill:#F0BC5E;}
	.st39{fill:#8C95A4;}
	.st40{fill:#39C3FC;}
	.st41{fill:#148CE0;}
	.st42{fill:#ECECEC;}
	.st43{fill:#89B140;}
	.st44{fill:#AAC16B;}
	.st45{fill:#79A73A;}
	.st46{fill:#FBB540;}
	.st47{fill:#6C7175;}
	.st48{fill:#A79BA7;}
	.st49{fill:#918291;}
	.st50{fill:#F9F7F8;}
	.st51{fill:#E5E1E5;}
	.st52{fill:#B5ADB6;}
	.st53{fill:#78B9EB;}
	.st54{fill:#FFAF46;}
</style>
<g>
	<path class="st4" d="M126.6,224l60,103.9c-27.2,15.7-58.9,34-86.6,50c-28.7,16.6-65.4,6.7-82-22c-16.5-28.5-6.9-65.3,22-82
		L126.6,224z"/>
	<path class="st4" d="M409.5,257.6c7.6,13.1-1.7,29.6-16.8,30l-11.3,2.2l-0.3-1.3l-128.7-223l-0.8-0.7l7.2-9.2
		c7.9-13,26.8-12.7,34.4,0.4C492.9,402.1,240.9-34.4,409.5,257.6z"/>
	<path class="st5" d="M207,443.2c8.3,14.3,3.4,32.7-11,41c-14.3,8.3-32.7,3.4-41-11L100,378l52-30
		C152.4,348.8,206.9,443.1,207,443.2z"/>
	<path class="st6" d="M377.8,122.7l20,34.6l-24.6,37.3l-40-69.3L377.8,122.7z"/>
	<path class="st7" d="M381.1,288.5l0.3,1.3L186.6,328l-60-103.9L251.6,64.9l0.8,0.7L381.1,288.5z"/>
	<path d="M137,322c4.8-2.8,6.4-8.9,3.7-13.7c-2.8-4.8-8.9-6.4-13.7-3.7c-4.8,2.8-6.4,8.9-3.7,13.7C126.1,323.1,132.2,324.8,137,322z
		"/>
	<path d="M96,391l50.4,87.2c10.9,18.8,35.3,25.8,54.6,14.6c19.1-11.1,25.7-35.5,14.6-54.6l-30-52l26-15c4.8-2.8,6.4-8.9,3.7-13.7
		l-13-22.5c1.6-0.3,11.7-2.3,191.5-37.6c22.2-1.2,35.5-25.5,24.3-44.9L384.9,195l21.2-32.2c2.1-3.2,2.2-7.2,0.3-10.5l-20-34.6
		c-1.9-3.3-5.5-5.2-9.3-5l-38.5,2.3l-36.9-63.9c-5.3-9.3-14.9-14.9-25.6-15c-0.1,0-0.3,0-0.4,0c-10.3,0-19.7,5.1-25.3,13.8
		L119.9,216.4l-84.9,49C1.6,284.7-10,327.5,9.4,361C27.1,391.6,64.3,403.7,96,391z M198.3,448.2c5.5,9.6,2.3,21.8-7.3,27.3
		c-9.6,5.6-21.9,2.1-27.3-7.3l-50-86.6l34.6-20C206.2,461.9,197.4,446.6,198.3,448.2z M175.6,369l-10-17.3l17.3-10l10,17.3
		L175.6,369z M372.2,133L386,157l-12.3,18.7l-23.8-41.3L372.2,133z M267.3,60.9c2.7-4.4,6.9-4.8,8.7-4.8c1.7,0,6,0.6,8.5,5
		l116.3,201.5c3.8,6.6-0.8,14.8-8.4,15c-1.4,0-2,0.3-5.5,0.9l-123-213.1C266.4,62.1,266.8,61.7,267.3,60.9z M250.6,82.3l115.6,200.2
		l-174.5,34.2l-53-91.9L250.6,82.3z M26.7,351c-4.4-7.6-6.7-16.2-6.7-24.9c0-17.8,9.6-34.4,25-43.4l77.9-45l50,86.6l-77.9,45
		C71.1,383.1,40.5,374.9,26.7,351z"/>
	<path d="M106,328.3c-2.8-4.8-8.9-6.4-13.7-3.7l-17.3,10c-4.8,2.8-10.9,1.1-13.7-3.7c-2.8-4.8-8.9-6.4-13.7-3.7s-6.4,8.9-3.7,13.7
		c8.2,14.3,26.6,19.3,41,11l17.3-10C107.1,339.2,108.7,333.1,106,328.3z"/>
	<path d="M497.1,57.5l-55.7,31c-4.8,2.7-6.6,8.8-3.9,13.6c2.7,4.8,8.8,6.6,13.6,3.9l55.7-31c4.8-2.7,6.6-8.8,3.9-13.6
		C508.1,56.5,502,54.8,497.1,57.5z"/>
	<path d="M491.3,161.1l-38.6-10.4c-5.3-1.4-10.8,1.7-12.3,7.1s1.7,10.8,7.1,12.2l38.6,10.4c5.4,1.4,10.8-1.8,12.2-7.1
		C499.8,168,496.6,162.5,491.3,161.1z"/>
	<path d="M394.2,21.2l-10.4,38.6c-1.4,5.3,1.7,10.8,7.1,12.3c5.3,1.4,10.8-1.7,12.3-7.1l10.4-38.6c1.4-5.3-1.7-10.8-7.1-12.3
		C401.1,12.7,395.6,15.8,394.2,21.2z"/>
</g>
</svg>
