<?xml version="1.0" encoding="utf-8"?>
<!-- Generator: Adobe Illustrator 24.0.1, SVG Export Plug-In . SVG Version: 6.00 Build 0)  -->
<svg version="1.1" id="Layer_1" xmlns="http://www.w3.org/2000/svg" xmlns:xlink="http://www.w3.org/1999/xlink" x="0px" y="0px"
	 viewBox="0 0 512 512" style="enable-background:new 0 0 512 512;" xml:space="preserve">
<style type="text/css">
	.st0{fill:#ACEBE2;}
	.st1{fill:#E2E0E0;}
	.st2{fill:#98D7CE;}
	.st3{fill:#CECCCC;}
	.st4{fill:#2BBDC4;}
	.st5{fill:#495D85;}
	.st6{fill:#E9EEF0;}
	.st7{fill:#ADF3FF;}
	.st8{fill:#FFC870;}
	.st9{fill:#FFDAA0;}
	.st10{fill:#FFFFFF;}
	.st11{fill:#BAEE83;}
	.st12{fill:#F4FBFF;}
	.st13{fill:#E4F6FF;}
	.st14{fill:#E28086;}
	.st15{fill:#EFC984;}
	.st16{fill:#4A80AA;}
	.st17{fill:#407093;}
	.st18{fill:#FFE07D;}
	.st19{fill:#FFDDCE;}
	.st20{fill:#EABC6B;}
	.st21{fill:#FFCBBE;}
	.st22{fill:#365E7D;}
	.st23{fill:#FFD064;}
	.st24{fill:#D12026;}
	.st25{fill:#A9DBF5;}
	.st26{fill:#88C3E0;}
	.st27{fill:#4380A0;}
	.st28{fill:#FFD54F;}
	.st29{fill:#FFC328;}
	.st30{fill:#F75632;}
	.st31{fill:#E33629;}
	.st32{fill:#BBF7FF;}
	.st33{fill:#8BF0FF;}
	.st34{fill:#7BE492;}
	.st35{fill:#45D987;}
	.st36{fill:#3B7191;}
	.st37{fill:#EBAD88;}
	.st38{fill:#F0BC5E;}
	.st39{fill:#8C95A4;}
	.st40{fill:#39C3FC;}
	.st41{fill:#148CE0;}
	.st42{fill:#ECECEC;}
	.st43{fill:#89B140;}
	.st44{fill:#AAC16B;}
	.st45{fill:#79A73A;}
	.st46{fill:#FBB540;}
	.st47{fill:#6C7175;}
	.st48{fill:#A79BA7;}
	.st49{fill:#918291;}
	.st50{fill:#F9F7F8;}
	.st51{fill:#E5E1E5;}
	.st52{fill:#B5ADB6;}
	.st53{fill:#78B9EB;}
	.st54{fill:#FFAF46;}
</style>
<path class="st10" d="M413.5,381H464c0,0,34.9,7.6,34.9,30.1c0,22.5-31.1,39.5-31.1,39.5H416L413.5,381z"/>
<rect x="16.1" y="16.5" class="st10" width="399.9" height="480"/>
<g>
	<g>
		<polygon class="st38" points="184,344 40,344 40,472 184,472 184,440 184,392 		"/>
		<path class="st38" d="M480,360H336V232h144V360z"/>
	</g>
	<path d="M464,376h-40v-16h56V232.8l22.2-27.8l-12.5-10l-29.6,37H424V8H8v496h416v-48h40c22.1,0,40-17.9,40-40S486.1,376,464,376z
		 M168,390.5l-19.3,7.2c-7.6,2.8-12.7,10.2-12.7,18.3s5.1,15.4,12.7,18.3l19.3,7.2V456H56v-96h112V390.5z M154.3,419.3
		c-1.4-0.5-2.3-1.9-2.3-3.3s0.9-2.8,2.3-3.3l45.7-17.1v40.9L154.3,419.3z M216,424h144v-16H216v-16h176v16h-16v16h16v16H216V424z
		 M408,392h16v48h-16V392z M400.7,332l63.3-79.2V344H352v-96h95.4l-48,60l-17.7-17.7l-11.3,11.3L400.7,332z M408,488H24V24h384v208
		h-72v128h72v16H206.6l-22.6,8.5V344H40v128h144v-24.5l22.6,8.5H408V488z M464,440h-24v-48h24c13.2,0,24,10.8,24,24
		S477.2,440,464,440z"/>
	<path d="M287.7,289.9c-5.8-20.3-22.2-35.4-42.9-39.5l-44.9-9v-2.1c14.8-8.6,25.8-22.9,30-40c14.8-2.8,26-15.8,26-31.4V96
		c0-16.7-12.8-30.4-29.2-31.9l-9.2-6.9C202.8,46.1,184.5,40,166,40c-47.4,0-86,38.6-86,86v42c0,15.6,11.2,28.5,26,31.4
		c4.2,17,15.2,31.4,30,40v2.1l-44.9,9c-20.7,4.1-37.1,19.3-42.9,39.5l-10.9,38h261.2L287.7,289.9z M152,245.9
		c5.1,1.3,10.5,2.1,16,2.1s10.9-0.8,16-2.1v2.1c0,8.8-7.2,16-16,16s-16-7.2-16-16V245.9z M232,181.8v-27.6c4.8,2.8,8,7.9,8,13.8
		S236.8,179,232,181.8z M166,56c15,0,30,5,42,14l13.3,10h2.7c8.8,0,16,7.2,16,16v44.4c-4.7-2.8-10.1-4.4-16-4.4h-64
		c-8.8,0-16-7.2-16-16h-16c0,8.8-7.2,16-16,16c-5.9,0-11.3,1.7-16,4.4V126C96,87.4,127.4,56,166,56z M96,168c0-5.9,3.2-11,8-13.8
		v27.6C99.2,179,96,173.9,96,168z M120,184v-33.1c6.3-1.6,11.8-5,16-9.7c5.9,6.7,14.5,10.9,24,10.9h56v32c0,26.5-21.5,48-48,48
		S120,210.5,120,184z M238.2,312l-6.5-25.9l-15.5,3.9l5.5,22.1H114.2l5.5-22.1l-15.5-3.9L97.8,312H58.6l5-17.7
		c4.1-14.5,15.9-25.3,30.6-28.2l43.3-8.7c4.1,13,16.1,22.6,30.4,22.6s26.4-9.5,30.4-22.6l43.3,8.7c14.8,3,26.5,13.8,30.6,28.2
		l5,17.7H238.2z"/>
	<rect x="272" y="40" width="120" height="16"/>
	<rect x="272" y="72" width="120" height="16"/>
	<rect x="272" y="104" width="120" height="16"/>
	<rect x="272" y="136" width="120" height="16"/>
	<rect x="376" y="168" width="16" height="16"/>
	<rect x="272" y="168" width="88" height="16"/>
	<rect x="272" y="200" width="120" height="16"/>
</g>
</svg>
