<?xml version="1.0" encoding="utf-8"?>
<!-- Generator: Adobe Illustrator 24.0.1, SVG Export Plug-In . SVG Version: 6.00 Build 0)  -->
<svg version="1.1" id="Layer_1" xmlns="http://www.w3.org/2000/svg" xmlns:xlink="http://www.w3.org/1999/xlink" x="0px" y="0px"
	 viewBox="0 0 100 100" style="enable-background:new 0 0 100 100;" xml:space="preserve">
<style type="text/css">
	.st0{fill:#4A7AFF;}
	.st1{fill:#0053BF;}
	.st2{fill:#FFFFFF;}
	.st3{fill:#DCE1EB;}
	.st4{fill:#65A2D9;}
	.st5{fill:#3A7CA5;}
	.st6{fill:#D1D1D1;}
	.st7{fill:#B7130F;}
	.st8{fill:#870A0A;}
	.st9{fill:#6C27B3;}
	.st10{fill:#501A96;}
	.st11{fill:#4376B1;}
	.st12{fill:#336699;}
	.st13{fill:#6DC02D;}
	.st14{fill:#559B18;}
	.st15{fill:#6FC32E;}
	.st16{fill:#9B8579;}
	.st17{clip-path:url(#SVGID_2_);fill:#897164;}
	.st18{fill:none;}
	.st19{fill:#DC4E41;}
	.st20{fill:#B72C25;}
</style>
<g>
	<path class="st19" d="M15.1,38.2l15.3-9.6l20.6,4l24.1,21.1V39.2h7.2l17.2,17.4c0.3-2.2,0.5-4.4,0.5-6.6c0-27.6-22.4-50-50-50
		S0,22.4,0,50c0,27.6,22.4,50,50,50c0.1,0,0.2,0,0.2,0L15.1,60.8V38.2z"/>
	<path class="st20" d="M99.5,56.6L82.3,39.2h-7.2v14.4L51.1,32.6l-20.6-4l-15.3,9.6v22.7L50.2,100C75.5,99.9,96.3,81,99.5,56.6z"/>
</g>
<g>
	<path class="st2" d="M10.5,50C10,37.1,21.4,25.1,34.3,25c6.6-0.6,13,2,18,6.2c-2.1,2.3-4.1,4.5-6.4,6.6c-4.4-2.7-9.7-4.7-14.8-2.9
		C22.8,37.2,17.8,47,20.9,55.1c2.5,8.5,12.8,13.1,20.9,9.6c4.2-1.5,6.9-5.4,8.2-9.5c-4.8-0.1-9.6,0-14.4-0.2c0-2.9,0-5.7,0-8.5
		c8,0,16,0,24,0c0.5,7-0.5,14.5-5.1,20.1c-6.2,8-17.7,10.4-27.1,7.2C17.5,70.5,10.3,60.5,10.5,50L10.5,50z M10.5,50"/>
	<path class="st2" d="M75.2,39.2h7.1c0,2.4,0,4.8,0,7.2c2.4,0,4.8,0,7.2,0v7.1c-2.4,0-4.8,0-7.2,0c0,2.4,0,4.8,0,7.2
		c-2.4,0-4.8,0-7.1,0c0-2.4,0-4.8,0-7.2c-2.4,0-4.8,0-7.2,0v-7.1c2.4,0,4.8,0,7.2,0C75.1,44,75.1,41.6,75.2,39.2L75.2,39.2z
		 M75.2,39.2"/>
</g>
<g>
	<path class="st18" d="M46,37.7c-4.4-2.7-9.7-4.7-14.8-2.9C22.8,37.2,17.8,47,20.9,55.1c2.5,8.5,12.8,13.1,20.9,9.6
		c4.2-1.5,6.9-5.4,8.2-9.5c-4.8-0.1-9.6,0-14.4-0.2c0-2.9,0-5.7,0-8.5c4.8,0,9.6,0,14.4,0V33.7C48.7,35.1,47.4,36.4,46,37.7z"/>
	<path class="st2" d="M35.6,46.4c0,2.9,0,5.7,0,8.5c4.8,0.1,9.6,0.1,14.4,0.2c-1.2,4.2-4,8-8.2,9.5c-8.1,3.6-18.4-1.1-20.9-9.6
		c-3.1-8.1,2-17.9,10.2-20.3C36.3,33,41.6,35,46,37.7c1.4-1.3,2.7-2.7,4-4.1v-4.3c-4.6-3.1-10.1-4.9-15.7-4.4
		C21.4,25.1,10,37.1,10.5,50c-0.2,10.5,7,20.5,16.9,23.7c7.4,2.5,16.2,1.5,22.6-3V46.4C45.2,46.4,40.4,46.4,35.6,46.4z"/>
	<path class="st6" d="M52.3,31.2c-0.7-0.6-1.5-1.2-2.3-1.8v4.3C50.8,32.8,51.6,32,52.3,31.2z"/>
	<path class="st6" d="M54.5,66.6c4.5-5.6,5.6-13.1,5.1-20.1c-3.2,0-6.4,0-9.6,0v24.4C51.7,69.6,53.2,68.2,54.5,66.6z"/>
	<path class="st6" d="M82.3,39.2h-7.1c0,2.4,0,4.8-0.1,7.2c-2.4,0-4.8,0-7.2,0v7.1c2.4,0,4.8,0,7.2,0c0,2.4,0,4.8,0,7.2
		c2.4,0,4.8,0,7.1,0c0-2.4,0-4.8,0-7.2c2.4,0,4.8,0,7.2,0v-7.1c-2.4,0-4.8,0-7.2,0C82.3,44,82.3,41.6,82.3,39.2z"/>
</g>
</svg>
