<?xml version="1.0" encoding="utf-8"?>
<!-- Generator: Adobe Illustrator 24.0.1, SVG Export Plug-In . SVG Version: 6.00 Build 0)  -->
<svg version="1.1" id="Layer_1" xmlns="http://www.w3.org/2000/svg" xmlns:xlink="http://www.w3.org/1999/xlink" x="0px" y="0px"
	 viewBox="0 0 100 100" style="enable-background:new 0 0 100 100;" xml:space="preserve">
<style type="text/css">
	.st0{fill:#9B8579;}
	.st1{fill:#4A7AFF;}
	.st2{fill:#0053BF;}
	.st3{fill:#FFFFFF;}
	.st4{fill:#DCE1EB;}
	.st5{fill:#65A2D9;}
	.st6{fill:#3A7CA5;}
	.st7{fill:#D1D1D1;}
	.st8{fill:#B7130F;}
	.st9{fill:#870A0A;}
	.st10{fill:#6C27B3;}
	.st11{fill:#501A96;}
	.st12{fill:#4376B1;}
	.st13{fill:#336699;}
	.st14{fill:#6DC02D;}
	.st15{fill:#559B18;}
	.st16{fill:#6FC32E;}
	.st17{clip-path:url(#SVGID_2_);fill:#897164;}
	.st18{fill:none;}
</style>
<circle class="st0" cx="50" cy="50" r="50"/>
<g>
	<defs>
		<circle id="SVGID_1_" cx="50" cy="50" r="50"/>
	</defs>
	<clipPath id="SVGID_2_">
		<use xlink:href="#SVGID_1_"  style="overflow:visible;"/>
	</clipPath>
	<polygon class="st17" points="35.31,45.19 54.9,25.6 74.55,23.87 106.06,56.06 106.06,102.29 63.47,107.82 25.24,76.06 
		23.94,60.88 29.02,51.49 	"/>
</g>
<g>
	<g>
		<g>
			<path class="st3" d="M75.37,24.63c-5.38-5.38-14.11-5.38-19.5,0L44.35,36.15c-5.57,5.57-5.05,14.44,0,19.5
				c0.85,0.85,1.78,1.54,2.77,2.1l2.1-2.1c1.38-1.38,0.89-2.99,0.87-4.16c-0.3-0.21-0.6-0.45-0.87-0.72c-2.59-2.59-2.71-7.04,0-9.75
				c0.4-0.4,11.28-11.28,11.52-11.52c2.69-2.69,7.06-2.69,9.75,0c2.69,2.69,2.69,7.06,0,9.75l-7.62,7.62
				c0.22,1.22,1.54,4.11,0.86,8.87c0.03-0.03,0.07-0.05,0.11-0.09l11.52-11.52C80.76,38.74,80.76,30.01,75.37,24.63z"/>
		</g>
	</g>
	<g>
		<g>
			<path class="st3" d="M56.54,43.46c-0.85-0.85-1.78-1.54-2.77-2.1l-2.1,2.1c-1.38,1.38-0.89,2.99-0.87,4.16
				c0.3,0.21,0.6,0.45,0.87,0.72c2.59,2.59,2.71,7.04,0,9.75c-0.4,0.4-12.18,12.18-12.42,12.42c-2.69,2.69-7.06,2.69-9.75,0
				c-2.69-2.69-2.69-7.06,0-9.75l8.51-8.51c-0.22-1.22-1.54-4.11-0.86-8.87c-0.03,0.03-0.07,0.05-0.11,0.09L24.63,55.88
				c-5.38,5.38-5.38,14.11,0,19.5c5.38,5.38,14.11,5.38,19.5,0l12.42-12.42C62.01,57.49,61.71,48.63,56.54,43.46z"/>
		</g>
	</g>
</g>
<g>
	<path class="st18" d="M44.35,36.15c-5.57,5.57-5.05,14.44,0,19.5c0.85,0.85,1.78,1.54,2.77,2.1l2.1-2.1
		c1.38-1.38,0.89-2.99,0.87-4.16c-0.3-0.21-0.6-0.45-0.87-0.72c-2.59-2.59-2.71-7.04,0-9.75c0.2-0.2,2.92-2.92,5.67-5.67V25.6
		L44.35,36.15z"/>
	<path class="st18" d="M55.88,24.63L54.9,25.6l1.8-1.72C56.42,24.12,56.14,24.36,55.88,24.63z"/>
	<path class="st7" d="M60.75,29.5c2.69-2.69,7.06-2.69,9.75,0c2.69,2.69,2.69,7.06,0,9.75l-7.62,7.62c0.22,1.22,1.54,4.11,0.86,8.87
		c0.03-0.03,0.07-0.05,0.11-0.09l11.52-11.52c5.38-5.38,5.38-14.11,0-19.5c-5.12-5.12-13.26-5.36-18.68-0.74l-1.8,1.72v9.75
		C57.75,32.5,60.63,29.63,60.75,29.5z"/>
	<path class="st18" d="M53.77,41.36l-2.1,2.1c-1.38,1.38-0.89,2.99-0.87,4.16c0.3,0.21,0.6,0.45,0.87,0.72
		c2.59,2.59,2.71,7.04,0,9.75c-0.4,0.4-12.18,12.18-12.42,12.42c-2.69,2.69-7.06,2.69-9.75,0c-2.69-2.69-2.69-7.06,0-9.75l8.51-8.51
		c-0.22-1.22-1.54-4.11-0.86-8.87c-0.03,0.03-0.07,0.05-0.11,0.09L24.63,55.88c-5.38,5.38-5.38,14.11,0,19.5
		c5.38,5.38,14.11,5.38,19.5,0L54.9,64.6V42.09C54.53,41.83,54.15,41.58,53.77,41.36z"/>
	<path class="st7" d="M56.54,43.46c-0.52-0.52-1.07-0.97-1.64-1.37V64.6l1.64-1.64C62.01,57.49,61.71,48.63,56.54,43.46z"/>
</g>
</svg>
