<?xml version="1.0" encoding="utf-8"?>
<!-- Generator: Adobe Illustrator 24.0.1, SVG Export Plug-In . SVG Version: 6.00 Build 0)  -->
<svg version="1.1" id="Capa_1" xmlns="http://www.w3.org/2000/svg" xmlns:xlink="http://www.w3.org/1999/xlink" x="0px" y="0px"
	 viewBox="0 0 512 512" style="enable-background:new 0 0 512 512;" xml:space="preserve">
<style type="text/css">
	.st0{fill:#FCB1B1;}
	.st1{fill:#B2DBF9;}
	.st2{fill:#DDB7A0;}
	.st3{fill:#D6A889;}
	.st4{fill:#CC9675;}
	.st5{fill:#333333;}
	.st6{fill:#F4FBFF;}
	.st7{fill:#E4F6FF;}
	.st8{fill:#E28086;}
	.st9{fill:#8FDDC1;}
	.st10{fill:#FFE07D;}
</style>
<circle class="st0" cx="256" cy="256" r="254.5"/>
<g>
	<g>
		<path class="st2" d="M336.3,108.3h-220c-10.8,0-19.6,8.8-19.6,19.6v290.3c0,10.8,8.8,19.6,19.6,19.6h220
			c10.8,0,19.6-8.8,19.6-19.6V128C355.9,117.1,347.1,108.3,336.3,108.3L336.3,108.3z"/>
	</g>
	<path class="st3" d="M336.3,108.3h-46.4c10.8,0,19.6,8.8,19.6,19.6v290.3c0,10.8-8.8,19.6-19.6,19.6h46.4
		c10.8,0,19.6-8.8,19.6-19.6V128C355.9,117.1,347.1,108.3,336.3,108.3L336.3,108.3z"/>
	<path class="st4" d="M355.9,128c0-10.8-8.8-19.6-19.6-19.6h-220c-10.8,0-19.6,8.8-19.6,19.6v52.7c0,7.7,3.4,15.1,9.2,20.2l9.6,8.3
		c6.1,5.3,14,8.2,22.1,8.2H315c8.1,0,15.9-2.9,22.1-8.2l9.6-8.3c5.9-5.1,9.2-12.4,9.2-20.2V128z"/>
	<path class="st5" d="M315,220.6H137.6c-8.9,0-17.5-3.2-24.2-9l-9.6-8.3c-6.6-5.7-10.4-13.9-10.4-22.6V128
		c0-12.6,10.3-22.9,22.9-22.9h220c12.6,0,22.9,10.3,22.9,22.9v52.7c0,8.7-3.8,17-10.4,22.6l-9.6,8.3
		C332.5,217.4,323.9,220.6,315,220.6z M116.2,111.6c-9,0-16.3,7.3-16.3,16.3v52.7c0,6.8,3,13.2,8.1,17.7l9.6,8.3
		c5.5,4.8,12.6,7.4,19.9,7.4H315c7.3,0,14.4-2.6,19.9-7.4l9.6-8.3c5.1-4.4,8.1-10.9,8.1-17.7V128c0-9-7.3-16.3-16.3-16.3H116.2z"/>
	<g>
		<path class="st5" d="M336.3,441.2h-220c-12.6,0-22.9-10.3-22.9-22.9V128c0-12.6,10.3-22.9,22.9-22.9h220
			c12.6,0,22.9,10.3,22.9,22.9v290.3C359.2,430.9,348.9,441.2,336.3,441.2z M116.2,111.6c-9,0-16.3,7.3-16.3,16.3v290.3
			c0,9,7.3,16.3,16.3,16.3h220c9,0,16.3-7.3,16.3-16.3V128c0-9-7.3-16.3-16.3-16.3v0H116.2z"/>
	</g>
	<path class="st6" d="M344.5,74.1H175.7c-10.8,0-19.6,8.8-19.6,19.6V384c0,10.8,8.8,19.6,19.6,19.6h220c10.8,0,19.6-8.8,19.6-19.6
		V145c0-5.2-2.1-10.2-5.8-13.9l-51.3-51.3C354.7,76.1,349.7,74.1,344.5,74.1L344.5,74.1z"/>
	<g>
		<path class="st7" d="M409.6,131.1L369,90.5V384c0,10.8-8.8,19.6-19.6,19.6h46.4c10.8,0,19.6-8.8,19.6-19.6V145
			C415.4,139.8,413.3,134.8,409.6,131.1L409.6,131.1z"/>
	</g>
	<path class="st8" d="M409.6,131.1l-51.3-51.3c-1.7-1.7-3.6-3-5.8-4v48.8c0,6.7,5.5,12.2,12.2,12.2h48.8
		C412.7,134.7,411.3,132.8,409.6,131.1z"/>
	<path class="st5" d="M413.6,140.1h-48.8c-8.5,0-15.5-6.9-15.5-15.5V75.8c0-1.1,0.6-2.2,1.5-2.8c0.9-0.6,2.1-0.7,3.1-0.2
		c2.5,1.1,4.8,2.7,6.7,4.7l51.3,51.3c1.9,1.9,3.5,4.2,4.7,6.7c0.5,1,0.4,2.2-0.2,3.1C415.8,139.6,414.7,140.1,413.6,140.1z
		 M355.9,82v42.7c0,4.9,4,8.9,8.9,8.9h42.7c0,0-0.1-0.1-0.1-0.1L356,82.1C356,82.1,355.9,82.1,355.9,82z"/>
	<circle class="st8" cx="237.6" cy="164.4" r="48.2"/>
	<path class="st6" d="M237.6,175.8c-15.3,0-28.3,10.2-32.4,24.2c8.6,7.8,19.9,12.6,32.4,12.6c12.5,0,23.9-4.8,32.4-12.6
		C265.9,186,252.9,175.8,237.6,175.8L237.6,175.8z"/>
	<circle class="st6" cx="237.6" cy="163" r="17"/>
	<path class="st5" d="M382.4,172.7h-68c-1.4,0-2.6-1.1-2.6-2.6s1.1-2.6,2.6-2.6h68c1.4,0,2.6,1.1,2.6,2.6S383.8,172.7,382.4,172.7z"
		/>
	<path class="st5" d="M382.4,196.7h-68c-1.4,0-2.6-1.1-2.6-2.6s1.1-2.6,2.6-2.6h68c1.4,0,2.6,1.1,2.6,2.6S383.8,196.7,382.4,196.7z"
		/>
	<path class="st5" d="M382.4,264.1h-199c-1.4,0-2.6-1.1-2.6-2.6s1.1-2.6,2.6-2.6h199c1.4,0,2.6,1.1,2.6,2.6S383.8,264.1,382.4,264.1
		z"/>
	<path class="st5" d="M382.4,289.6h-199c-1.4,0-2.6-1.1-2.6-2.6s1.1-2.6,2.6-2.6h199c1.4,0,2.6,1.1,2.6,2.6S383.8,289.6,382.4,289.6
		z"/>
	<path class="st5" d="M382.4,315.1h-199c-1.4,0-2.6-1.1-2.6-2.6c0-1.4,1.1-2.6,2.6-2.6h199c1.4,0,2.6,1.1,2.6,2.6
		C384.9,313.9,383.8,315.1,382.4,315.1z"/>
	<path class="st5" d="M285.7,340.6H183.4c-1.4,0-2.6-1.1-2.6-2.6c0-1.4,1.1-2.6,2.6-2.6h102.3c1.4,0,2.6,1.1,2.6,2.6
		C288.3,339.4,287.2,340.6,285.7,340.6z"/>
	<path class="st5" d="M395.8,407h-220c-12.6,0-22.9-10.3-22.9-22.9V93.7c0-12.6,10.3-22.9,22.9-22.9h168.7c6.1,0,11.9,2.4,16.2,6.7
		l51.3,51.3c4.3,4.3,6.7,10.1,6.7,16.2V384C418.7,396.7,408.4,407,395.8,407z M175.7,77.4c-9,0-16.3,7.3-16.3,16.3V384
		c0,9,7.3,16.3,16.3,16.3h220c9,0,16.3-7.3,16.3-16.3V145c0-4.4-1.7-8.5-4.8-11.6L356,82.1c-3.1-3.1-7.2-4.8-11.6-4.8H175.7z"/>
	<path class="st5" d="M237.6,215.9c-28.4,0-51.4-23.1-51.4-51.4s23.1-51.4,51.4-51.4s51.4,23.1,51.4,51.4S266,215.9,237.6,215.9z
		 M237.6,119.6c-24.7,0-44.9,20.1-44.9,44.9s20.1,44.9,44.9,44.9s44.9-20.1,44.9-44.9S262.3,119.6,237.6,119.6z"/>
</g>
</svg>
