<?xml version="1.0" encoding="utf-8"?>
<!-- Generator: Adobe Illustrator 24.0.1, SVG Export Plug-In . SVG Version: 6.00 Build 0)  -->
<svg version="1.1" id="Capa_1" xmlns="http://www.w3.org/2000/svg" xmlns:xlink="http://www.w3.org/1999/xlink" x="0px" y="0px"
	 viewBox="0 0 512 512" style="enable-background:new 0 0 512 512;" xml:space="preserve">
<style type="text/css">
	.st0{fill:#FCB1B1;}
	.st1{fill:#B2DBF9;}
	.st2{fill:#DDB7A0;}
	.st3{fill:#D6A889;}
	.st4{fill:#CC9675;}
	.st5{fill:#333333;}
	.st6{fill:#F4FBFF;}
	.st7{fill:#E4F6FF;}
	.st8{fill:#E28086;}
	.st9{fill:#8FDDC1;}
	.st10{fill:#FFE07D;}
</style>
<circle class="st1" cx="256" cy="256" r="254.5"/>
<g>
	<g>
		<path class="st6" d="M388.7,445.9H123.3c-8.9,0-16.2-7.3-16.2-16.2V82.3c0-8.9,7.3-16.2,16.2-16.2h265.4c8.9,0,16.2,7.3,16.2,16.2
			v347.3C404.9,438.6,397.7,445.9,388.7,445.9L388.7,445.9z"/>
	</g>
	<path class="st7" d="M388.7,66.1h-48.4c8.9,0,16.2,7.3,16.2,16.2v347.3c0,8.9-7.3,16.2-16.2,16.2h48.4c8.9,0,16.2-7.3,16.2-16.2
		V82.3C404.9,73.4,397.7,66.1,388.7,66.1L388.7,66.1z"/>
	<path class="st9" d="M236.9,66.1H123.3c-8.9,0-16.2,7.3-16.2,16.2v347.3c0,8.9,7.3,16.2,16.2,16.2h113.6V66.1z"/>
	<path class="st5" d="M236.9,449.3H123.3c-10.8,0-19.6-8.8-19.6-19.6V82.3c0-10.8,8.8-19.6,19.6-19.6h113.6c1.9,0,3.4,1.5,3.4,3.4
		v379.7C240.3,447.8,238.8,449.3,236.9,449.3z M123.3,69.6c-7,0-12.8,5.7-12.8,12.8v347.3c0,7,5.7,12.8,12.8,12.8h110.2V69.6H123.3z
		"/>
	<circle class="st8" cx="172.1" cy="149.1" r="39.7"/>
	<path class="st6" d="M172.1,158.5c-12.7,0-23.3,8.4-26.8,20c7.1,6.4,16.4,10.4,26.8,10.4c10.3,0,19.7-3.9,26.8-10.4
		C195.4,166.9,184.7,158.5,172.1,158.5z"/>
	<circle class="st6" cx="172.1" cy="148" r="14.1"/>
	<path class="st10" d="M205.3,272.6h-66.4c-3.7,0-6.6-3-6.6-6.6v-16.4c0-3.7,3-6.6,6.6-6.6h66.4c3.7,0,6.6,3,6.6,6.6v16.4
		C211.9,269.6,208.9,272.6,205.3,272.6z"/>
	<path class="st10" d="M205.3,333.3h-66.4c-3.7,0-6.6-3-6.6-6.6v-16.4c0-3.7,3-6.6,6.6-6.6h66.4c3.7,0,6.6,3,6.6,6.6v16.4
		C211.9,330.4,208.9,333.3,205.3,333.3z"/>
	<path class="st10" d="M205.3,394.1h-66.4c-3.7,0-6.6-3-6.6-6.6v-16.4c0-3.7,3-6.6,6.6-6.6h66.4c3.7,0,6.6,3,6.6,6.6v16.4
		C211.9,391.1,208.9,394.1,205.3,394.1z"/>
	<path class="st5" d="M297.4,132c3.4,0,6.7,1,9.6,2.9c2.6,1.8,6.2,1.1,8-1.5c1.8-2.6,1.1-6.2-1.5-8c-4.7-3.2-10.3-4.9-16-4.9
		c-15.8,0-28.6,12.8-28.6,28.6s12.8,28.6,28.6,28.6c6.3,0,12-2.1,16.4-6c0.9-0.8,1.7-1.6,2.4-2.5c2-2.4,1.7-6-0.7-8.1
		c-2.4-2-6-1.7-8.1,0.7c-0.4,0.5-0.8,0.9-1.3,1.3c-2.3,2-5.2,3.1-8.7,3.1c-9.5,0-17.1-7.7-17.1-17.1C280.3,139.7,288,132,297.4,132z
		"/>
	<path class="st5" d="M354.5,177.7L354.5,177.7c2.9,0,5.5-1.9,6.4-4.6l14.9-45c1-3-0.6-6.2-3.6-7.2c-3-1-6.2,0.6-7.2,3.6l-10.6,31.8
		l-11.1-32c-1-3-4.3-4.6-7.3-3.5c-3,1-4.6,4.3-3.5,7.3l15.7,45.1C349.1,175.9,351.6,177.7,354.5,177.7L354.5,177.7z"/>
	<g>
		<path class="st5" d="M388.7,449.3H123.3c-10.8,0-19.6-8.8-19.6-19.6V82.3c0-10.8,8.8-19.6,19.6-19.6h265.4
			c10.8,0,19.6,8.8,19.6,19.6v347.3C408.4,440.5,399.5,449.3,388.7,449.3z M123.3,69.6c-7,0-12.8,5.7-12.8,12.8v347.3
			c0,7,5.7,12.8,12.8,12.8h265.4c7,0,12.8-5.7,12.8-12.8V82.3c0-7-5.7-12.8-12.8-12.8H123.3z"/>
	</g>
	<path class="st5" d="M172.1,192.3c-23.8,0-43.2-19.4-43.2-43.2s19.4-43.2,43.2-43.2s43.2,19.4,43.2,43.2S195.9,192.3,172.1,192.3z
		 M172.1,112.8c-20,0-36.3,16.3-36.3,36.3c0,20,16.3,36.3,36.3,36.3c20,0,36.3-16.3,36.3-36.3C208.3,129.1,192.1,112.8,172.1,112.8z
		"/>
	<path class="st5" d="M205.3,276h-66.4c-5.6,0-10.1-4.5-10.1-10.1v-16.4c0-5.6,4.5-10.1,10.1-10.1h66.4c5.6,0,10.1,4.5,10.1,10.1
		v16.4c0,2.7-1,5.2-3,7.1C210.5,275,208,276,205.3,276z M138.8,246.4c-1.8,0-3.2,1.4-3.2,3.2v16.4c0,1.8,1.4,3.2,3.2,3.2h66.4
		c0.9,0,1.7-0.3,2.3-0.9c0.6-0.6,0.9-1.4,0.9-2.3v-16.4c0-1.8-1.4-3.2-3.2-3.2H138.8z"/>
	<path class="st5" d="M205.3,336.8h-66.4c-5.6,0-10.1-4.5-10.1-10.1v-16.4c0-5.6,4.5-10.1,10.1-10.1h66.4c5.6,0,10.1,4.5,10.1,10.1
		v16.4c0,2.7-1,5.2-3,7.1C210.5,335.7,208,336.8,205.3,336.8z M138.8,307.1c-1.8,0-3.2,1.4-3.2,3.2v16.4c0,1.8,1.4,3.2,3.2,3.2h66.4
		c0.9,0,1.7-0.3,2.3-0.9c0.6-0.6,0.9-1.4,0.9-2.3v-16.4c0-1.8-1.4-3.2-3.2-3.2H138.8z"/>
	<path class="st5" d="M205.3,397.5h-66.4c-5.6,0-10.1-4.5-10.1-10.1v-16.4c0-5.6,4.5-10.1,10.1-10.1h66.4c5.6,0,10.1,4.5,10.1,10.1
		v16.4c0,2.7-1,5.2-3,7.1C210.5,396.5,208,397.5,205.3,397.5z M138.8,367.9c-1.8,0-3.2,1.4-3.2,3.2v16.4c0,1.8,1.4,3.2,3.2,3.2h66.4
		c0.9,0,1.7-0.3,2.3-0.9c0.6-0.6,0.9-1.4,0.9-2.3v-16.4c0-1.8-1.4-3.2-3.2-3.2H138.8z"/>
	<path class="st5" d="M376.1,224.5h-115c-1.9,0-3.4-1.5-3.4-3.4c0-1.9,1.5-3.4,3.4-3.4h115c1.9,0,3.4,1.5,3.4,3.4
		C379.6,223,378,224.5,376.1,224.5z"/>
	<path class="st5" d="M376.1,259.4h-115c-1.9,0-3.4-1.5-3.4-3.4c0-1.9,1.5-3.4,3.4-3.4h115c1.9,0,3.4,1.5,3.4,3.4
		C379.6,257.9,378,259.4,376.1,259.4z"/>
	<path class="st5" d="M326.3,294.3h-65.2c-1.9,0-3.4-1.5-3.4-3.4s1.5-3.4,3.4-3.4h65.2c1.9,0,3.4,1.5,3.4,3.4
		S328.2,294.3,326.3,294.3z"/>
	<path class="st5" d="M376.1,329.2h-115c-1.9,0-3.4-1.5-3.4-3.4c0-1.9,1.5-3.4,3.4-3.4h115c1.9,0,3.4,1.5,3.4,3.4
		C379.6,327.7,378,329.2,376.1,329.2z"/>
	<path class="st5" d="M376.1,364.1h-115c-1.9,0-3.4-1.5-3.4-3.4s1.5-3.4,3.4-3.4h115c1.9,0,3.4,1.5,3.4,3.4S378,364.1,376.1,364.1z"
		/>
	<path class="st5" d="M326.3,399h-65.2c-1.9,0-3.4-1.5-3.4-3.4c0-1.9,1.5-3.4,3.4-3.4h65.2c1.9,0,3.4,1.5,3.4,3.4
		C329.8,397.5,328.2,399,326.3,399z"/>
</g>
</svg>
