<?xml version="1.0" encoding="utf-8"?>
<!-- Generator: Adobe Illustrator 24.0.1, SVG Export Plug-In . SVG Version: 6.00 Build 0)  -->
<svg version="1.1" id="Layer_1" xmlns="http://www.w3.org/2000/svg" xmlns:xlink="http://www.w3.org/1999/xlink" x="0px" y="0px"
	 viewBox="0 0 512 512" style="enable-background:new 0 0 512 512;" xml:space="preserve">
<style type="text/css">
	.st0{fill:#EFE0DA;}
	.st1{fill:#ACEBE2;}
	.st2{fill:#E2E0E0;}
	.st3{fill:#98D7CE;}
	.st4{fill:#CECCCC;}
	.st5{fill:#F8EC7D;}
	.st6{fill:#E48E66;}
	.st7{fill:#A9DBF5;}
	.st8{fill:#88C3E0;}
	.st9{fill:#4380A0;}
	.st10{fill:#3B7191;}
	.st11{fill:#F3F3F3;}
	.st12{fill:#E4E4E4;}
	.st13{fill:#F78E36;}
	.st14{fill:#FFC328;}
	.st15{fill:#FBE1CA;}
	.st16{fill:#F0AE42;}
	.st17{fill:#F6B940;}
	.st18{fill:#F2F2F2;}
	.st19{fill:#474747;}
	.st20{fill:#686868;}
	.st21{fill:#B52F28;}
	.st22{fill:#D23F34;}
	.st23{fill:#4C6CB5;}
	.st24{fill:#5E87CA;}
	.st25{fill:#C7EAFF;}
	.st26{fill:#FFBC53;}
	.st27{fill:#AA7E54;}
	.st28{fill:#E2A76F;}
	.st29{fill:#EAEAF0;}
	.st30{fill:#78B9EB;}
	.st31{fill:#FFAF46;}
</style>
<g>
	<path class="st1" d="M456,208v242c0,16.6-13.4,30-30,30H86c-16.6,0-30-13.4-30-30V208l0,0L176,88l39-39c22.6-22.6,59.4-22.6,82,0
		l39,39L456,208L456,208z"/>
	<path class="st2" d="M226,304h60c18.8,0,34,15.2,34,34v142H192V338C192,319.2,207.2,304,226,304z"/>
	<path class="st3" d="M456,208v242c0,16.6-13.4,30-30,30h-13.5c2.2-4.2,3.5-8.9,3.5-14V224L257,65c-11.3-11.3-26.2-17-41-17
		c22.7-21.7,58.7-21.3,81,1L456,208z"/>
	<path class="st4" d="M320,338v142h-40V338c0-18.8-15.2-34-34-34h40C304.8,304,320,319.2,320,338z"/>
	<path d="M507.3,236.6l-199-199c-28.9-28.9-75.8-28.9-104.6,0l-199,199c-6.2,6.2-6.2,16.4,0,22.6c6.2,6.2,16.4,6.2,22.6,0L40,246.6
		V450c0,25.4,20.6,46,46,46h106h128h106c25.4,0,46-20.6,46-46V246.6l12.7,12.7c3.1,3.1,7.2,4.7,11.3,4.7s8.2-1.6,11.3-4.7
		C513.6,253,513.6,242.9,507.3,236.6z M208,464V338c0-9.9,8.1-18,18-18h60c9.9,0,18,8.1,18,18v126H208z M440,450c0,7.7-6.3,14-14,14
		h-90V338c0-27.6-22.4-50-50-50h-60c-27.6,0-50,22.4-50,50v126H86c-7.7,0-14-6.3-14-14V214.6L226.3,60.3c16.4-16.4,43-16.4,59.4,0
		L440,214.6V450z"/>
</g>
</svg>
