<?xml version="1.0" encoding="utf-8"?>
<!-- Generator: Adobe Illustrator 24.0.1, SVG Export Plug-In . SVG Version: 6.00 Build 0)  -->
<svg version="1.1" id="Layer_1" xmlns="http://www.w3.org/2000/svg" xmlns:xlink="http://www.w3.org/1999/xlink" x="0px" y="0px"
	 viewBox="0 0 512 512" style="enable-background:new 0 0 512 512;" xml:space="preserve">
<style type="text/css">
	.st0{fill:#EFE0DA;}
	.st1{fill:#ACEBE2;}
	.st2{fill:#E2E0E0;}
	.st3{fill:#98D7CE;}
	.st4{fill:#CECCCC;}
	.st5{fill:#F8EC7D;}
	.st6{fill:#E48E66;}
	.st7{fill:#A9DBF5;}
	.st8{fill:#88C3E0;}
	.st9{fill:#4380A0;}
	.st10{fill:#3B7191;}
	.st11{fill:#F3F3F3;}
	.st12{fill:#E4E4E4;}
	.st13{fill:#F78E36;}
	.st14{fill:#FFC328;}
	.st15{fill:#FBE1CA;}
	.st16{fill:#F0AE42;}
	.st17{fill:#F6B940;}
	.st18{fill:#F2F2F2;}
	.st19{fill:#474747;}
	.st20{fill:#686868;}
	.st21{fill:#B52F28;}
	.st22{fill:#D23F34;}
	.st23{fill:#4C6CB5;}
	.st24{fill:#5E87CA;}
	.st25{fill:#C7EAFF;}
	.st26{fill:#FFBC53;}
	.st27{fill:#AA7E54;}
	.st28{fill:#E2A76F;}
	.st29{fill:#EAEAF0;}
	.st30{fill:#78B9EB;}
	.st31{fill:#FFAF46;}
</style>
<g>
	<g>
		<path class="st15" d="M248.3,372.1h15.5V434h-15.5V372.1z"/>
		<path class="st15" d="M62.6,449.5h31V465h-31V449.5z"/>
		<path class="st15" d="M201.9,449.5h31V465h-31V449.5z"/>
		<path class="st15" d="M170.9,449.5h15.5V465h-15.5V449.5z"/>
		<path class="st15" d="M140,449.5h15.5V465H140V449.5z"/>
		<path class="st15" d="M109,449.5h15.5V465H109V449.5z"/>
		<path class="st15" d="M279.3,449.5h31V465h-31V449.5z"/>
		<path class="st15" d="M418.6,449.5h31V465h-31V449.5z"/>
		<path class="st15" d="M387.6,449.5h15.5V465h-15.5V449.5z"/>
		<path class="st15" d="M356.7,449.5h15.5V465h-15.5V449.5z"/>
		<path class="st15" d="M325.7,449.5h15.5V465h-15.5V449.5z"/>
	</g>
	<ellipse class="st16" cx="256.1" cy="201.8" rx="232.2" ry="178"/>
	<path class="st17" d="M457.3,186.3c0-57.5-35.6-108.6-90.7-141.1c-35.1-14.3-72.6-21.6-110.5-21.4c-128.2,0-232.2,79.7-232.2,178
		c0,57.5,35.6,108.6,90.7,141.1c35.1,14.3,72.6,21.6,110.5,21.4C353.3,364.3,457.3,284.6,457.3,186.3L457.3,186.3z"/>
	<path class="st18" d="M418.6,225l-27.9,25.3c-36.9,33.5-84.9,52.1-134.7,52.1c-49.8,0-97.8-18.6-134.7-52.1L93.5,225l27.9-25.3
		c36.9-33.5,84.9-52.1,134.7-52.1c49.8,0,97.8,18.6,134.7,52.1L418.6,225z"/>
	<circle class="st19" cx="256.1" cy="225" r="54.2"/>
	<path class="st20" d="M244.8,278c-21-4.5-37.3-20.8-41.8-41.8c15.1-7.9,33.9-2.1,41.8,13C249.5,258.3,249.5,269,244.8,278z"/>
	<path class="st20" d="M310.2,225c-17.1,12.8-41.4,9.4-54.2-7.7c-10.3-13.8-10.3-32.7,0-46.4C286,170.8,310.2,195.1,310.2,225
		L310.2,225z"/>
	<path class="st20" d="M248.3,70.2h15.5v46.4h-15.5V70.2z"/>
	<path class="st20" d="M302.9,121.6l15.5-38.7l14.4,5.7l-15.5,38.7L302.9,121.6z"/>
	<path class="st20" d="M365.9,142.9l23.2-31l12.4,9.3l-23.2,31L365.9,142.9z"/>
	<path class="st20" d="M179.1,88.6l14.4-5.7l15.5,38.7l-14.4,5.7L179.1,88.6z"/>
	<path class="st20" d="M110.5,121.3l12.4-9.3l23.2,31l-12.4,9.3L110.5,121.3z"/>
	<circle class="st21" cx="256.1" cy="457.2" r="31"/>
	<path class="st22" d="M256.1,426.3c-17-0.1-30.9,13.7-31,30.7c0,5.8,1.6,11.5,4.7,16.5c14,9.7,33.2,6.3,43-7.7
		c7-10.1,7.4-23.5,0.8-34C268.4,428.2,262.3,426.3,256.1,426.3z"/>
	<circle class="st23" cx="465" cy="457.2" r="23.2"/>
	<circle class="st23" cx="47.1" cy="457.2" r="23.2"/>
	<path class="st24" d="M23.9,457.2c0,4.3,1.2,8.4,3.5,12c3.6,2.2,7.8,3.4,12,3.5c12.8,0,23.2-10.4,23.2-23.2c0-4.3-1.2-8.4-3.5-12
		c-3.6-2.2-7.8-3.4-12-3.5C34.3,434,23.9,444.4,23.9,457.2z"/>
	<path class="st24" d="M441.8,457.2c0,4.3,1.2,8.4,3.5,12c3.6,2.2,7.8,3.4,12,3.5c12.8,0,23.2-10.4,23.2-23.2c0-4.3-1.2-8.4-3.5-12
		c-3.6-2.2-7.8-3.4-12-3.5C452.2,434,441.8,444.4,441.8,457.2z"/>
	<path class="st15" d="M421.7,192.5l-31-23.2c-79.8-59.9-189.5-59.9-269.4,0l-31,23.2l-9.3-12.4l31-23.2c85.3-64,202.6-64,287.9,0
		l31,23.2L421.7,192.5z"/>
	<path d="M395.9,256.1l27.9-25.3c3.2-2.9,3.4-7.8,0.5-10.9c-0.2-0.2-0.3-0.4-0.5-0.5L395.9,194c-79.3-72.1-200.4-72.1-279.8,0
		l-27.9,25.3c-3.2,2.9-3.4,7.8-0.5,10.9c0.2,0.2,0.3,0.4,0.5,0.5l27.9,25.3C195.5,328.2,316.6,328.2,395.9,256.1z M105,225
		l21.6-19.6c73.4-66.7,185.5-66.7,258.9,0l21.6,19.6l-21.6,19.6c-73.4,66.7-185.5,66.7-258.9,0L105,225z"/>
	<path d="M318,225c0-34.2-27.7-61.9-61.9-61.9s-61.9,27.7-61.9,61.9s27.7,61.9,61.9,61.9C290.2,286.9,317.9,259.2,318,225z
		 M302.3,220.9c-4.6,2.7-9.9,4.1-15.3,4.1c-17.1,0-31-13.9-31-31c0-5.4,1.4-10.6,4.1-15.3C282.5,180.8,300.3,198.5,302.3,220.9z
		 M242.6,180.6c-7.6,24.4,6.1,50.3,30.5,57.9c8.9,2.8,18.4,2.8,27.4,0c-5.9,19.6-24,33-44.5,33c-0.3,0-0.6,0-0.8,0
		c4.4-20.8-8.9-41.2-29.6-45.6c-5.3-1.1-10.7-1.1-15.9,0c0-0.3,0-0.6,0-0.8C209.7,204.6,223.1,186.5,242.6,180.6L242.6,180.6z
		 M212.5,241.1c12.4-2.8,24.7,4.9,27.5,17.3c0.8,3.4,0.8,6.8,0,10.2C227.3,263.8,217.3,253.8,212.5,241.1L212.5,241.1z"/>
	<path d="M81.1,180.1l9.3,12.4l31-23.2c79.8-59.9,189.5-59.9,269.4,0l31,23.2l9.3-12.4l-31-23.2c-5.4-4-10.9-7.8-16.6-11.4
		l18.2-24.2l-12.4-9.3l-19.4,25.8c-15.5-8.3-31.8-14.8-48.8-19.6l11.8-29.6l-14.4-5.8l-12.6,31.6c-13.9-3-27.9-4.7-42.1-5.2v-39
		h-15.5v39c-14.2,0.5-28.2,2.2-42.1,5.2l-12.6-31.6l-14.4,5.8l11.8,29.6c-16.9,4.7-33.3,11.3-48.8,19.6L122.9,112l-12.4,9.3
		l18.2,24.2c-5.7,3.6-11.3,7.3-16.6,11.4L81.1,180.1z"/>
	<path d="M263.8,419.3v-31.9C392.5,384.2,496,302.2,496,201.8C496,99.4,388.4,16,256.1,16S16.1,99.4,16.1,201.8
		c0,100.4,103.5,182.4,232.2,185.6v31.9c-15.2,3.1-27.1,15-30.2,30.2h-16.3V465h16.3c4.3,20.9,24.7,34.5,45.6,30.2
		c15.2-3.1,27.1-15,30.2-30.2h16.3v-15.5H294C290.9,434.3,279,422.4,263.8,419.3z M31.6,201.8c0-93.9,100.7-170.3,224.5-170.3
		s224.5,76.4,224.5,170.3S379.8,372.1,256.1,372.1S31.6,295.7,31.6,201.8L31.6,201.8z M256.1,480.4c-12.8,0-23.2-10.4-23.2-23.2
		s10.4-23.2,23.2-23.2s23.2,10.4,23.2,23.2S268.9,480.4,256.1,480.4L256.1,480.4z"/>
	<path d="M465,426.3c-14.1,0.1-26.3,9.6-29.9,23.2h-16.6V465h16.6c4.3,16.5,21.2,26.4,37.7,22.1c16.5-4.3,26.4-21.2,22.1-37.7
		C491.4,435.7,479.1,426.2,465,426.3z M465,472.7c-8.5,0-15.5-6.9-15.5-15.5s6.9-15.5,15.5-15.5s15.5,6.9,15.5,15.5
		S473.6,472.7,465,472.7z"/>
	<path d="M47.1,426.3C30,426.2,16.1,440,16,457.1c-0.1,17.1,13.7,31,30.8,31.1c14.2,0.1,26.6-9.5,30.1-23.2h16.6v-15.5H76.9
		C73.4,435.9,61.2,426.3,47.1,426.3z M47.1,472.7c-8.5,0-15.5-6.9-15.5-15.5s6.9-15.5,15.5-15.5s15.5,6.9,15.5,15.5
		S55.6,472.7,47.1,472.7z"/>
	<path d="M170.9,449.5h15.5V465h-15.5V449.5z"/>
	<path d="M140,449.5h15.5V465H140V449.5z"/>
	<path d="M109,449.5h15.5V465H109V449.5z"/>
	<path d="M387.6,449.5h15.5V465h-15.5V449.5z"/>
	<path d="M356.7,449.5h15.5V465h-15.5V449.5z"/>
	<path d="M325.7,449.5h15.5V465h-15.5V449.5z"/>
</g>
</svg>
