<?xml version="1.0" encoding="utf-8"?>
<!-- Generator: Adobe Illustrator 24.0.1, SVG Export Plug-In . SVG Version: 6.00 Build 0)  -->
<svg version="1.1" id="Layer_1" xmlns="http://www.w3.org/2000/svg" xmlns:xlink="http://www.w3.org/1999/xlink" x="0px" y="0px"
	 viewBox="0 0 100 100" style="enable-background:new 0 0 100 100;" xml:space="preserve">
<style type="text/css">
	.st0{fill:#D40101;}
	.st1{fill:#F0D0B4;}
	.st2{fill:#FFFFFF;}
	.st3{fill:#FF826E;}
	.st4{fill:#726658;}
	.st5{fill:none;stroke:#000000;stroke-linecap:round;stroke-miterlimit:10;}
	.st6{fill:#EBEBEB;}
	.st7{fill:#3CD3DE;}
	.st8{fill:#D9D9D9;}
	.st9{fill:#99D8AA;}
</style>
<g>
	<circle class="st0" cx="50" cy="50" r="50"/>
	<circle class="st1" cx="50.47" cy="18.3" r="7.25"/>
	<polygon class="st2" points="46.09,25.85 52.16,29.76 53.26,32.03 57.64,42.38 69.83,39.42 70.8,44.09 55.49,48.19 50.47,41.68 
		47.99,51.93 36.86,49.83 41.47,33.21 32.66,35.89 31,49.21 26.73,48.77 26.95,30.99 	"/>
	<polygon class="st3" points="48.86,52.31 60.02,63.37 60.02,81.66 52.22,81.66 52.22,66.1 42.39,57.46 28.75,68.84 27.61,70.26 
		12.25,57.05 16.84,52.06 27.89,62.23 36.86,49.83 	"/>
	<path class="st1" d="M26.29,48.97l0.74,5.59c0,0,0.62,1.29,1.32,1.29c0.7,0,1.8-2.29,1.8-2.29v-4.01L26.29,48.97z"/>
	<polygon class="st4" points="15.23,51.38 11.47,47.38 3.48,55.35 4.85,56.8 8.65,54.97 12.25,55.35 	"/>
	<g>
		<g>
			<g>
				<path class="st5" d="M64.88,89.08l-8.38-0.34l-0.41-0.3l-0.04,0.3l-3.55-0.09l-0.06-5.39l6.16,0.04l2.58,2.29l3.7,0.83
					L64.88,89.08z M56.82,87.82l7.12,0.29l0-0.94l-3.21-0.72l-2.5-2.22l-4.86-0.03l0.04,3.54l1.81,0.05l0.14-1.02L56.82,87.82z"/>
			</g>
		</g>
		<g>
			<g>
				<path class="st5" d="M4.93,57.65L3,55.82l6.01-5.84l0.5-0.09l-0.19-0.24l2.51-2.51l3.96,3.67l-4.26,4.44l-3.44,0.29L4.93,57.65z
					 M4.35,55.81l0.68,0.65l2.73-1.83l3.33-0.28l3.36-3.5l-2.6-2.41l-1.28,1.28l0.65,0.8l-1.76,0.33L4.35,55.81z"/>
			</g>
		</g>
		<g>
			<path class="st5" d="M49.55,26.21c-4.17-0.78-6.92-4.81-6.14-8.98c0.78-4.17,4.81-6.92,8.98-6.14c4.17,0.78,6.92,4.81,6.14,8.98
				C57.74,24.24,53.71,26.99,49.55,26.21z M52.25,11.86c-3.74-0.7-7.36,1.77-8.07,5.51c-0.71,3.74,1.77,7.36,5.51,8.07
				c3.74,0.7,7.36-1.77,8.07-5.51C58.46,16.18,55.99,12.56,52.25,11.86z"/>
		</g>
		<path class="st5" d="M95.04,48.92l-8.49-11.51c-0.98-1.33-2.85-1.61-4.18-0.63l-5.46,4.03c0.01-0.07,0.02-0.14,0.02-0.21
			c0-0.33-0.12-0.83-0.75-1.3c-0.94-0.7-2.21-0.99-3.38-0.77c-0.65,0.12-1.15,0.45-1.63,0.77c-0.22,0.14-0.44,0.27-0.65,0.38
			l-0.12-0.4l-12.76,3.1l-4.78-11.29l0.35-1.87l-7.12-3.38l-19.14,5.14l-1.22,18.65l0.37,0.03c0.04,1.21,0.19,4.39,0.62,5.28
			c0.14,0.3,0.35,0.68,0.7,0.96c0.29,0.24,0.64,0.37,0.98,0.37c0.13,0,0.25-0.02,0.37-0.05c0.55-0.16,0.95-0.68,1.1-1.43
			c0.03-0.14,0.05-0.29,0.07-0.44c0.04-0.27,0.09-0.55,0.21-0.8c0.12-0.25,0.3-0.46,0.38-0.73c0.1-0.32,0.07-0.63,0.03-0.92
			c-0.08-0.55-0.36-1.32-0.59-1.91l1.17,0.1l1.52-14.21l7.95-1.8l-4.77,15.9L28.1,61.15c-0.17,0.25-0.51,0.31-0.8-0.07L16.8,50.72
			l-5.9,6.42l14.78,12.2c0.48,0.58,1.18,0.91,1.93,0.91c0.69,0,1.33-0.28,1.79-0.76l12.98-12.04l9.83,8.64v16.49h7.8V63.37
			L48.86,52.31l1.91-10.14l4.3,7.14l16.46-5.66l0.54,0.73l-5.67,4.18c-1.33,0.98-1.61,2.85-0.63,4.18l8.49,11.51
			c0.98,1.33,2.85,1.61,4.18,0.63L94.41,53.1C95.73,52.12,96.01,50.25,95.04,48.92z M29.65,52.56c-0.07,0.21-0.23,0.38-0.33,0.58
			c-0.19,0.36-0.25,0.75-0.3,1.09c-0.05,0.34-0.11,0.98-0.52,1.11c-0.14,0.04-0.34-0.02-0.5-0.14c-0.16-0.13-0.3-0.33-0.45-0.64
			c-0.28-0.59-0.46-3.06-0.52-4.8l1.9,0.16c0.25,0.61,0.62,1.58,0.71,2.14C29.67,52.24,29.69,52.42,29.65,52.56z M59.09,81.66h-5.94
			V65.68L42.37,56.2L28.75,68.84c-0.62,0.65-1.71,0.67-2.41-0.15L12.25,57.05l4.58-4.99l9.76,9.61c0.51,0.75,1.75,0.75,2.27,0.01
			l7.61-10.97l11.66,2.19l10.95,10.86V81.66z M47.99,51.93l-11.13-2.09l5.11-17.01L31.8,35.13L30.31,49.1l-3.59-0.33l1.11-17.05
			L46,26.84l6.16,2.92L47.99,51.93z M55.49,48.19l-4.45-7.39l1.52-8.06l4.54,10.73l12.67-3.08l0.8,2.61L55.49,48.19z M71.14,41.68
			L70.8,40.6c0.32-0.15,0.61-0.33,0.88-0.52c0.42-0.28,0.82-0.54,1.29-0.63c0.91-0.17,1.92,0.05,2.64,0.6
			c0.24,0.18,0.38,0.38,0.38,0.54c0,0.24-0.31,0.49-0.74,0.59c-1.08,0.26-2.22,0.35-3.32,0.43C71.67,41.64,71.4,41.66,71.14,41.68z
			 M71.91,42.56c0.03,0,0.07-0.01,0.1-0.01c1-0.08,2.03-0.16,3.04-0.37l-2.24,1.65L71.91,42.56z M66.52,52.19
			c-0.67-0.91-0.48-2.2,0.43-2.88l15.97-11.78c0.91-0.67,2.2-0.48,2.88,0.43l2.76,3.74l-5.17,3.82l-0.42-0.57l-0.75,0.55l0.42,0.57
			l-7.43,5.49l-0.42-0.57l-0.75,0.55l0.42,0.57l-5.17,3.82L66.52,52.19z M93.85,52.35L77.88,64.13c-0.91,0.67-2.2,0.48-2.88-0.43
			l-5.18-7.02L75,52.86l0.42,0.57l0.75-0.55l-0.42-0.57l7.43-5.49l0.42,0.57l0.75-0.55l-0.42-0.57l5.17-3.82l5.18,7.02
			C94.96,50.39,94.76,51.68,93.85,52.35z"/>
	</g>
</g>
</svg>
