<?xml version="1.0" encoding="utf-8"?>
<!-- Generator: Adobe Illustrator 24.0.1, SVG Export Plug-In . SVG Version: 6.00 Build 0)  -->
<svg version="1.1" id="Layer_1" xmlns="http://www.w3.org/2000/svg" xmlns:xlink="http://www.w3.org/1999/xlink" x="0px" y="0px"
	 viewBox="0 0 512 512" style="enable-background:new 0 0 512 512;" xml:space="preserve">
<style type="text/css">
	.st0{fill:#EFE0DA;}
	.st1{fill:#ACEBE2;}
	.st2{fill:#E2E0E0;}
	.st3{fill:#98D7CE;}
	.st4{fill:#CECCCC;}
	.st5{fill:#F8EC7D;}
	.st6{fill:#E48E66;}
	.st7{fill:#A9DBF5;}
	.st8{fill:#88C3E0;}
	.st9{fill:#4380A0;}
	.st10{fill:#3B7191;}
	.st11{fill:#F3F3F3;}
	.st12{fill:#E4E4E4;}
	.st13{fill:#F78E36;}
	.st14{fill:#FFC328;}
	.st15{fill:#FBE1CA;}
	.st16{fill:#F0AE42;}
	.st17{fill:#F6B940;}
	.st18{fill:#F2F2F2;}
	.st19{fill:#474747;}
	.st20{fill:#686868;}
	.st21{fill:#B52F28;}
	.st22{fill:#D23F34;}
	.st23{fill:#4C6CB5;}
	.st24{fill:#5E87CA;}
	.st25{fill:#C7EAFF;}
	.st26{fill:#FFBC53;}
	.st27{fill:#AA7E54;}
	.st28{fill:#E2A76F;}
	.st29{fill:#EAEAF0;}
	.st30{fill:#78B9EB;}
	.st31{fill:#FFAF46;}
</style>
<g>
	<g>
		<path class="st27" d="M368.7,468.6l-102-202.7L256,244.6l-10.7,21.3l-102,202.7c-3,5.9-0.6,13.1,5.3,16.1c1.7,0.8,3.5,1.3,5.4,1.3
			c4.5,0,8.7-2.6,10.7-6.6L256,298l91.2,181.3c2,4.1,6.2,6.6,10.7,6.6c6.6,0,12-5.4,12-12C370,472.1,369.5,470.3,368.7,468.6z"/>
		<path class="st28" d="M244,26h24v82h-24V26z"/>
		<path class="st29" d="M46.5,56h419v286h-419V56z"/>
		<path class="st28" d="M26,324h460v36H26V324z"/>
	</g>
	<g>
		<path d="M465.5,100.7c-3.9,0-7,3.1-7,7l0,0v13.7c0,3.9,3.1,7,7,7s7-3.1,7-7v-13.7C472.5,103.8,469.4,100.7,465.5,100.7
			L465.5,100.7z"/>
		<path d="M434.5,180.3V230c0,3.9,3.1,7,7,7s7-3.1,7-7v-49.7c0-3.9-3.1-7-7-7S434.5,176.5,434.5,180.3z"/>
		<path d="M486,317h-13.5V146c0-3.9-3.1-7-7-7s-7,3.1-7,7v171H125.4c-3.9,0-7,3.1-7,7s3.1,7,7,7H479v22H33v-22h58c3.9,0,7-3.1,7-7
			s-3.1-7-7-7H53.5V63h405v21c0,3.9,3.1,7,7,7s7-3.1,7-7V56c0-3.9-3.1-7-7-7l0,0H275V26c0-3.9-3.1-7-7-7h-24c-3.9,0-7,3.1-7,7v23
			H46.5c-3.9,0-7,3.1-7,7l0,0v261H26c-3.9,0-7,3.1-7,7v36c0,3.9,3.1,7,7,7h160.6l-9.4,18.8c-1.8,3.4-0.5,7.7,2.9,9.5
			c3.4,1.8,7.7,0.5,9.5-2.9c0-0.1,0.1-0.1,0.1-0.2l12.6-25h11.2l-55,109.2c-1.2,2.5-4.2,3.5-6.7,2.2s-3.5-4.2-2.2-6.7l27.3-54.3
			c1.7-3.5,0.3-7.7-3.2-9.4c-3.4-1.7-7.6-0.3-9.3,3.1l-27.3,54.3c-4.7,9.4-0.9,20.8,8.4,25.5c9.4,4.7,20.8,0.9,25.5-8.4L229.2,367
			h53.7L341,482.5c4.7,9.4,16.1,13.1,25.5,8.4c9.4-4.7,13.1-16.1,8.4-25.5L325.4,367H486c3.9,0,7-3.1,7-7v-36
			C493,320.1,489.9,317,486,317L486,317z M251,33h10v16h-10V33z M362.4,471.8c1.2,2.5,0.3,5.5-2.2,6.7c-0.7,0.4-1.5,0.5-2.3,0.5
			c-1.9,0-3.6-1.1-4.5-2.7l-55-109.3h11.2L362.4,471.8z"/>
	</g>
</g>
</svg>
