<?xml version="1.0" encoding="utf-8"?>
<!-- Generator: Adobe Illustrator 24.0.1, SVG Export Plug-In . SVG Version: 6.00 Build 0)  -->
<svg version="1.1" id="Layer_1" xmlns="http://www.w3.org/2000/svg" xmlns:xlink="http://www.w3.org/1999/xlink" x="0px" y="0px"
	 viewBox="0 0 100 100" style="enable-background:new 0 0 100 100;" xml:space="preserve">
<style type="text/css">
	.st0{fill:#D40101;}
	.st1{fill:#F0D0B4;}
	.st2{fill:#FFFFFF;}
	.st3{fill:#FF826E;}
	.st4{fill:#726658;}
	.st5{fill:none;stroke:#000000;stroke-linecap:round;stroke-miterlimit:10;}
	.st6{fill:#EBEBEB;}
	.st7{fill:#3CD3DE;}
	.st8{fill:#D9D9D9;}
	.st9{fill:#99D8AA;}
</style>
<g>
	<circle class="st0" cx="50" cy="50" r="50"/>
	<g>
		<path class="st6" d="M35.07,10.64h29.86c3,0,5.43,2.43,5.43,5.43v67.86c0,3-2.43,5.43-5.43,5.43H35.07c-3,0-5.43-2.43-5.43-5.43
			V16.07C29.64,13.07,32.07,10.64,35.07,10.64L35.07,10.64z M35.07,10.64"/>
		<rect x="29.64" y="18.78" class="st7" width="40.72" height="59.72"/>
		<path class="st8" d="M52.71,85.29h-5.43c-0.75,0-1.36-0.61-1.36-1.36c0-0.75,0.61-1.36,1.36-1.36h5.43c0.75,0,1.36,0.61,1.36,1.36
			C54.07,84.68,53.46,85.29,52.71,85.29L52.71,85.29z M52.71,85.29"/>
		<path class="st9" d="M78.4,61.08c-0.6,0-1.13-0.39-1.3-0.97c-0.17-0.58,0.06-1.2,0.56-1.52c2.99-1.8,4.84-5,4.91-8.48
			c-0.03-2.59-1.09-5.06-2.93-6.88c-0.36-0.34-0.51-0.85-0.38-1.33c0.13-0.48,0.51-0.85,0.99-0.97c0.48-0.12,0.99,0.04,1.33,0.41
			c2.35,2.32,3.68,5.48,3.71,8.78c-0.09,4.39-2.41,8.44-6.15,10.75C78.92,61,78.67,61.08,78.4,61.08L78.4,61.08z M78.4,61.08"/>
		<path class="st9" d="M81.62,64.93c-0.6,0-1.13-0.39-1.3-0.97c-0.17-0.58,0.06-1.2,0.56-1.52c4.34-2.61,7.02-7.27,7.12-12.33
			c-0.04-3.77-1.58-7.37-4.27-10.01c-0.49-0.54-0.46-1.37,0.06-1.88c0.52-0.51,1.35-0.52,1.88-0.02c3.19,3.15,5,7.43,5.04,11.91
			c-0.13,5.97-3.28,11.47-8.36,14.61C82.14,64.85,81.88,64.93,81.62,64.93L81.62,64.93z M81.62,64.93"/>
		<path class="st9" d="M78.4,61.08c-0.6,0-1.13-0.39-1.3-0.97c-0.17-0.58,0.06-1.2,0.56-1.52c2.99-1.8,4.84-5,4.91-8.48
			c-0.03-2.59-1.09-5.06-2.93-6.88c-0.36-0.34-0.51-0.85-0.38-1.33c0.13-0.48,0.51-0.85,0.99-0.97c0.48-0.12,0.99,0.04,1.33,0.41
			c2.35,2.32,3.68,5.48,3.71,8.78c-0.09,4.39-2.41,8.44-6.15,10.75C78.92,61,78.67,61.08,78.4,61.08L78.4,61.08z M78.4,61.08"/>
		<path class="st9" d="M75.79,56.8c-0.58,0-1.09-0.36-1.28-0.91c-0.19-0.55-0.01-1.15,0.44-1.51c1.36-1,2.17-2.58,2.2-4.27
			c-0.02-1.41-0.6-2.76-1.61-3.75c-0.49-0.54-0.46-1.37,0.06-1.88c0.52-0.51,1.35-0.52,1.88-0.02c1.51,1.49,2.37,3.52,2.38,5.65
			c-0.03,2.52-1.23,4.88-3.23,6.4C76.39,56.7,76.09,56.8,75.79,56.8L75.79,56.8z M75.79,56.8"/>
		<path class="st9" d="M75.79,56.8c-0.58,0-1.09-0.36-1.28-0.91c-0.19-0.55-0.01-1.15,0.44-1.51c1.36-1,2.17-2.58,2.2-4.27
			c-0.02-1.41-0.6-2.76-1.61-3.75c-0.49-0.54-0.46-1.37,0.06-1.88c0.52-0.51,1.35-0.52,1.88-0.02c1.51,1.49,2.37,3.52,2.38,5.65
			c-0.03,2.52-1.23,4.88-3.23,6.4C76.39,56.7,76.09,56.8,75.79,56.8L75.79,56.8z M75.79,56.8"/>
		<path class="st9" d="M21.6,61.08c-0.26,0-0.52-0.08-0.74-0.22c-3.74-2.31-6.05-6.36-6.15-10.75c0.03-3.3,1.37-6.46,3.71-8.78
			c0.53-0.5,1.36-0.49,1.88,0.02c0.52,0.51,0.54,1.34,0.06,1.88c-1.85,1.82-2.9,4.29-2.94,6.88c0.07,3.48,1.93,6.69,4.91,8.48
			c0.5,0.33,0.73,0.95,0.56,1.52C22.73,60.69,22.2,61.08,21.6,61.08L21.6,61.08z M21.6,61.08"/>
		<path class="st9" d="M18.38,64.93c-0.26,0-0.52-0.08-0.74-0.22c-5.08-3.14-8.23-8.64-8.35-14.61c0.04-4.48,1.86-8.76,5.04-11.91
			c0.53-0.5,1.36-0.49,1.88,0.02c0.52,0.51,0.54,1.34,0.06,1.88c-2.69,2.64-4.22,6.24-4.27,10.01c0.1,5.06,2.79,9.72,7.12,12.33
			c0.5,0.33,0.73,0.95,0.56,1.53C19.51,64.54,18.98,64.93,18.38,64.93L18.38,64.93z M18.38,64.93"/>
		<path class="st9" d="M21.6,61.08c-0.26,0-0.52-0.08-0.74-0.22c-3.74-2.31-6.05-6.36-6.15-10.75c0.03-3.3,1.37-6.46,3.71-8.78
			c0.53-0.5,1.36-0.49,1.88,0.02c0.52,0.51,0.54,1.34,0.06,1.88c-1.85,1.82-2.9,4.29-2.94,6.88c0.07,3.48,1.93,6.69,4.91,8.48
			c0.5,0.33,0.73,0.95,0.56,1.52C22.73,60.69,22.2,61.08,21.6,61.08L21.6,61.08z M21.6,61.08"/>
		<path class="st9" d="M24.21,56.8c-0.3,0-0.6-0.1-0.84-0.29c-2-1.52-3.2-3.89-3.23-6.4c0.02-2.12,0.88-4.16,2.38-5.65
			c0.53-0.5,1.36-0.49,1.88,0.02c0.52,0.51,0.54,1.34,0.06,1.88c-1.01,0.99-1.59,2.34-1.61,3.75c0.03,1.69,0.84,3.27,2.2,4.27
			c0.45,0.36,0.63,0.96,0.44,1.51C25.31,56.43,24.79,56.8,24.21,56.8L24.21,56.8z M24.21,56.8"/>
		<path class="st9" d="M24.21,56.8c-0.3,0-0.6-0.1-0.84-0.29c-2-1.52-3.2-3.89-3.23-6.4c0.02-2.12,0.88-4.16,2.38-5.65
			c0.53-0.5,1.36-0.49,1.88,0.02c0.52,0.51,0.54,1.34,0.06,1.88c-1.01,0.99-1.59,2.34-1.61,3.75c0.03,1.69,0.84,3.27,2.2,4.27
			c0.45,0.36,0.63,0.96,0.44,1.51C25.31,56.43,24.79,56.8,24.21,56.8L24.21,56.8z M24.21,56.8"/>
		<path d="M35.07,90.72h29.86c3.75,0,6.78-3.04,6.79-6.79V16.07c0-3.75-3.04-6.78-6.79-6.79H35.07c-3.75,0-6.78,3.04-6.79,6.79
			v67.86C28.29,87.68,31.32,90.71,35.07,90.72L35.07,90.72z M64.93,88H35.07C32.82,88,31,86.18,31,83.93v-4.07h38v4.07
			C69,86.18,67.18,88,64.93,88L64.93,88z M31,20.14h38v57H31V20.14z M35.07,12h29.86c2.25,0,4.07,1.82,4.07,4.07v1.36H31v-1.36
			C31,13.82,32.82,12,35.07,12L35.07,12z M35.07,12"/>
		<path d="M52.71,82.57h-5.43c-0.75,0-1.36,0.61-1.36,1.36c0,0.75,0.61,1.36,1.36,1.36h5.43c0.75,0,1.36-0.61,1.36-1.36
			C54.07,83.18,53.46,82.57,52.71,82.57L52.71,82.57z M52.71,82.57"/>
		<path d="M83.75,38.17c-0.26,0.25-0.4,0.6-0.41,0.96c0,0.36,0.14,0.71,0.39,0.96c2.69,2.64,4.22,6.24,4.27,10.01
			c-0.1,5.06-2.79,9.72-7.12,12.33c-0.42,0.26-0.67,0.72-0.65,1.22c0.02,0.49,0.31,0.94,0.75,1.16c0.44,0.22,0.97,0.18,1.37-0.1
			c5.08-3.14,8.23-8.64,8.36-14.61c-0.04-4.48-1.86-8.76-5.04-11.91C85.15,37.66,84.29,37.65,83.75,38.17L83.75,38.17z M83.75,38.17
			"/>
		<path d="M82.57,50.1c-0.07,3.48-1.93,6.69-4.91,8.48c-0.43,0.25-0.69,0.72-0.67,1.22c0.02,0.5,0.31,0.95,0.76,1.17
			c0.45,0.22,0.98,0.17,1.39-0.12c3.74-2.31,6.05-6.36,6.15-10.75c-0.03-3.3-1.37-6.46-3.71-8.78c-0.33-0.37-0.84-0.53-1.33-0.41
			c-0.48,0.12-0.86,0.49-0.99,0.97c-0.13,0.48,0.02,0.99,0.38,1.33C81.49,45.04,82.54,47.51,82.57,50.1L82.57,50.1z M82.57,50.1"/>
		<path d="M75.79,56.8c0.3,0,0.6-0.1,0.84-0.29c2-1.52,3.2-3.89,3.23-6.4c-0.02-2.12-0.88-4.16-2.38-5.65
			c-0.53-0.5-1.36-0.49-1.88,0.02c-0.52,0.51-0.54,1.34-0.06,1.88c1.01,0.99,1.59,2.34,1.61,3.75c-0.03,1.69-0.84,3.27-2.2,4.27
			c-0.45,0.36-0.63,0.96-0.44,1.51C74.69,56.43,75.21,56.8,75.79,56.8L75.79,56.8z M75.79,56.8"/>
		<path d="M17.64,64.71c0.41,0.28,0.93,0.32,1.37,0.1c0.44-0.22,0.73-0.66,0.75-1.16c0.02-0.49-0.23-0.96-0.65-1.22
			c-4.34-2.61-7.03-7.27-7.12-12.33c0.04-3.77,1.58-7.37,4.27-10.01c0.49-0.54,0.46-1.37-0.06-1.88c-0.52-0.51-1.35-0.52-1.88-0.02
			c-3.19,3.15-5,7.43-5.04,11.91C9.41,56.07,12.56,61.57,17.64,64.71L17.64,64.71z M17.64,64.71"/>
		<path d="M20.86,60.86c0.41,0.28,0.93,0.31,1.37,0.09c0.44-0.22,0.73-0.66,0.75-1.15c0.02-0.49-0.22-0.96-0.64-1.22
			c-2.99-1.8-4.84-5-4.91-8.48c0.03-2.59,1.09-5.06,2.94-6.88c0.49-0.54,0.46-1.37-0.06-1.88c-0.52-0.51-1.35-0.52-1.88-0.02
			c-2.35,2.32-3.68,5.48-3.71,8.78C14.81,54.5,17.12,58.55,20.86,60.86L20.86,60.86z M20.86,60.86"/>
		<path d="M23.37,56.51c0.38,0.31,0.9,0.39,1.35,0.21c0.46-0.18,0.78-0.59,0.85-1.07c0.07-0.48-0.13-0.97-0.52-1.27
			c-1.36-1-2.17-2.58-2.2-4.27c0.02-1.41,0.6-2.76,1.61-3.75c0.49-0.54,0.46-1.37-0.06-1.88c-0.52-0.51-1.35-0.52-1.88-0.02
			c-1.51,1.49-2.37,3.52-2.38,5.65C20.17,52.62,21.37,54.98,23.37,56.51L23.37,56.51z M23.37,56.51"/>
		<g>
			<path d="M46.4,49.44c0,4.63-2.81,7.09-6.25,7.09c-3.55,0-6.05-2.75-6.05-6.83c0-4.27,2.65-7.07,6.25-7.07
				C44.02,42.63,46.4,45.44,46.4,49.44z M35.96,49.65c0,2.87,1.56,5.45,4.29,5.45c2.75,0,4.31-2.53,4.31-5.59
				c0-2.67-1.4-5.47-4.29-5.47C37.4,44.05,35.96,46.7,35.96,49.65z"/>
			<path d="M50.71,44.33h-4.09v-1.48h9.96v1.48h-4.11V56.3h-1.76V44.33z"/>
			<path d="M58.07,43.01c0.84-0.14,1.94-0.26,3.33-0.26c1.72,0,2.97,0.4,3.77,1.12c0.74,0.64,1.18,1.62,1.18,2.81
				c0,1.22-0.36,2.18-1.04,2.87c-0.92,0.98-2.42,1.48-4.11,1.48c-0.52,0-1-0.02-1.4-0.12v5.39h-1.74V43.01z M59.81,49.5
				c0.38,0.1,0.86,0.14,1.44,0.14c2.1,0,3.37-1.02,3.37-2.87c0-1.78-1.26-2.63-3.17-2.63c-0.76,0-1.34,0.06-1.64,0.14V49.5z"/>
		</g>
	</g>
</g>
</svg>
