<?xml version="1.0" encoding="utf-8"?>
<!-- Generator: Adobe Illustrator 24.0.1, SVG Export Plug-In . SVG Version: 6.00 Build 0)  -->
<svg version="1.1" id="Layer_1" xmlns="http://www.w3.org/2000/svg" xmlns:xlink="http://www.w3.org/1999/xlink" x="0px" y="0px"
	 viewBox="0 0 512 512" style="enable-background:new 0 0 512 512;" xml:space="preserve">
<style type="text/css">
	.st0{fill:#EFE0DA;}
	.st1{fill:#ACEBE2;}
	.st2{fill:#E2E0E0;}
	.st3{fill:#98D7CE;}
	.st4{fill:#CECCCC;}
	.st5{fill:#F8EC7D;}
	.st6{fill:#E48E66;}
	.st7{fill:#A9DBF5;}
	.st8{fill:#88C3E0;}
	.st9{fill:#4380A0;}
	.st10{fill:#3B7191;}
	.st11{fill:#F3F3F3;}
	.st12{fill:#E4E4E4;}
	.st13{fill:#F78E36;}
	.st14{fill:#FFC328;}
	.st15{fill:#FBE1CA;}
	.st16{fill:#F0AE42;}
	.st17{fill:#F6B940;}
	.st18{fill:#F2F2F2;}
	.st19{fill:#474747;}
	.st20{fill:#686868;}
	.st21{fill:#B52F28;}
	.st22{fill:#D23F34;}
	.st23{fill:#4C6CB5;}
	.st24{fill:#5E87CA;}
	.st25{fill:#C7EAFF;}
	.st26{fill:#FFBC53;}
	.st27{fill:#AA7E54;}
	.st28{fill:#E2A76F;}
	.st29{fill:#EAEAF0;}
	.st30{fill:#78B9EB;}
	.st31{fill:#FFAF46;}
</style>
<polygon class="st0" points="67,103 377,103 407,103 407,445 389,480 67,480 26,456 26,134.6 "/>
<g>
	<path class="st5" d="M326.4,242.2l-84.9,28.2l28.2-84.9L326.4,242.2z"/>
	<path class="st6" d="M485,83.6L326.4,242.2l-56.7-56.7L428.3,27.1L485,83.6z"/>
	<g>
		<path d="M436.2,19.2c-2.1-2.1-4.9-3.2-7.9-3.2c-2.9,0-5.7,1.2-7.9,3.2L262,177.7l-0.4,0.4l-0.2,0.2c-0.3,0.3-0.6,0.6-0.8,1
			c-0.2,0.3-0.4,0.8-0.7,1.1c0,0.1-0.1,0.2-0.1,0.2c-0.1,0.3-0.3,0.7-0.4,1c0,0.1,0,0.1-0.1,0.2L231,267c-1.4,4-0.3,8.3,2.7,11.3
			c2.1,2.1,4.9,3.2,7.9,3.2c1.2,0,2.4-0.2,3.5-0.6l84.9-28.3c0.1,0,0.1,0,0.2-0.1c0.4-0.1,0.7-0.3,1-0.4c0.1,0,0.2-0.1,0.3-0.1
			c0.3-0.2,0.8-0.4,1.1-0.7c0.4-0.2,0.7-0.5,1-0.8c0.1-0.1,0.2-0.1,0.2-0.2c0.1-0.1,0.3-0.2,0.4-0.4L492.8,91.4
			c2.1-2.1,3.2-4.9,3.2-7.9c0-2.9-1.2-5.7-3.2-7.9L436.2,19.2z M259,252.9l15.6-46.9l31.3,31.3L259,252.9z M326.4,226.5l-40.9-40.9
			L428.3,42.7l40.9,40.9L326.4,226.5z"/>
		<path d="M410.1,222.8c-6.1,0-11,5-11.1,11.1v206.8c-0.1,18.3-14.9,33.1-33.2,33.2H71.3C53,473.8,38.1,459,38.1,440.7V146.1
			c0.1-18.3,14.9-33.1,33.2-33.2h206.8c6.1,0,11.1-5,11.1-11.1s-5-11.1-11.1-11.1H71.3c-30.5,0-55.3,24.8-55.3,55.3v294.5
			c0,30.5,24.8,55.3,55.3,55.3h294.5c30.5,0,55.3-24.8,55.3-55.3V233.9C421.1,227.8,416.2,222.8,410.1,222.8z"/>
	</g>
</g>
</svg>
