<?xml version="1.0" encoding="utf-8"?>
<!-- Generator: Adobe Illustrator 24.0.1, SVG Export Plug-In . SVG Version: 6.00 Build 0)  -->
<svg version="1.1" id="Layer_1" xmlns="http://www.w3.org/2000/svg" xmlns:xlink="http://www.w3.org/1999/xlink" x="0px" y="0px"
	 viewBox="0 0 512 512" style="enable-background:new 0 0 512 512;" xml:space="preserve">
<style type="text/css">
	.st0{fill:#EFE0DA;}
	.st1{fill:#ACEBE2;}
	.st2{fill:#E2E0E0;}
	.st3{fill:#98D7CE;}
	.st4{fill:#CECCCC;}
	.st5{fill:#F8EC7D;}
	.st6{fill:#E48E66;}
	.st7{fill:#A9DBF5;}
	.st8{fill:#88C3E0;}
	.st9{fill:#4380A0;}
	.st10{fill:#3B7191;}
	.st11{fill:#F3F3F3;}
	.st12{fill:#E4E4E4;}
	.st13{fill:#F78E36;}
	.st14{fill:#FFC328;}
	.st15{fill:#FBE1CA;}
	.st16{fill:#F0AE42;}
	.st17{fill:#F6B940;}
	.st18{fill:#F2F2F2;}
	.st19{fill:#474747;}
	.st20{fill:#686868;}
	.st21{fill:#B52F28;}
	.st22{fill:#D23F34;}
	.st23{fill:#4C6CB5;}
	.st24{fill:#5E87CA;}
	.st25{fill:#C7EAFF;}
	.st26{fill:#FFBC53;}
	.st27{fill:#AA7E54;}
	.st28{fill:#E2A76F;}
	.st29{fill:#EAEAF0;}
	.st30{fill:#78B9EB;}
	.st31{fill:#FFAF46;}
</style>
<g>
	<g>
		<path class="st30" d="M226.6,296.6c0.5,0.6,0.9,1.2,1.4,1.8C227.6,297.7,227.1,297.2,226.6,296.6z"/>
		<path class="st30" d="M221.8,290.9c0.4,0.4,0.7,0.7,0.9,1C222.3,291.6,222.1,291.3,221.8,290.9z"/>
		<path class="st30" d="M231.2,303.3c0.3,0.5,0.6,0.9,0.8,1.5C231.9,304.3,231.5,303.8,231.2,303.3z"/>
		<path class="st30" d="M235.3,311.5c0.2,0.6,0.4,1.1,0.6,1.6C235.7,312.6,235.5,312,235.3,311.5z"/>
		<path class="st30" d="M214.7,284.9c0.5,0.4,1,0.7,1.5,1.1C215.7,285.6,215.2,285.2,214.7,284.9z"/>
		<path class="st30" d="M208.1,280.5c0.7,0.4,1.3,0.8,1.9,1.1C209.4,281.2,208.7,280.8,208.1,280.5z"/>
		<path class="st30" d="M212.3,388.3c4.7-3,9.2-6.3,13.2-10.2c1.1-1,2.1-2.2,2.9-3.5c4.4-7,7.6-14.8,9.5-22.8
			C234.1,366.7,225,379.6,212.3,388.3z"/>
		<path class="st30" d="M184.2,272.4c0.7,0.1,1.5,0.2,2.2,0.4C185.7,272.7,185,272.5,184.2,272.4z"/>
		<path class="st30" d="M201.4,277c0.3,0.1,0.6,0.3,0.8,0.4C201.9,277.3,201.7,277.2,201.4,277z"/>
		<path class="st30" d="M237.7,318.7c0.2,0.7,0.4,1.5,0.6,2.2C238.2,320.2,238,319.5,237.7,318.7z"/>
		<path class="st30" d="M176.1,399.4c-1.8,0-3.5-0.2-5.3-0.4C172.5,399.2,174.2,399.4,176.1,399.4z"/>
		<path class="st30" d="M192.5,397.3l-0.9,0.3L192.5,397.3z"/>
		<path class="st30" d="M239.5,327.3c0.1,0.5,0.2,0.9,0.2,1.4C239.7,328.3,239.6,327.8,239.5,327.3z"/>
		<path class="st30" d="M168.1,398.9c-2.6-0.4-5.1-0.8-7.7-1.5C162.9,398,165.6,398.6,168.1,398.9z"/>
		<path class="st30" d="M184.6,398.9c-0.4,0.1-0.7,0.1-1.1,0.2C183.9,399,184.2,398.9,184.6,398.9z"/>
		<path class="st30" d="M211.3,389c-1.1,0.7-2.3,1.4-3.5,2.1C209.1,390.5,210.1,389.7,211.3,389z"/>
		<path class="st30" d="M240.1,336.6c0,0.7-0.1,1.4-0.1,2.1C240,338,240.1,337.2,240.1,336.6z"/>
		<path class="st30" d="M239.4,344.8c-0.1,0.9-0.3,1.9-0.5,2.8C239.1,346.7,239.2,345.7,239.4,344.8z"/>
		<path class="st30" d="M192.2,274c0.7,0.2,1.4,0.4,2.1,0.6C193.6,274.3,192.9,274.2,192.2,274z"/>
	</g>
	<path class="st31" d="M40.9,367.6h8.8c6.6,0,12.5,4.1,14.8,10.3c0.9,2.4,1.9,4.8,2.9,7.1c2.8,6.1,1.5,13.2-3.2,17.8L58,409
		c-6.2,6.3-6.2,16.3,0,22.5l22.5,22.5c6.3,6.2,16.3,6.2,22.5,0l6.3-6.3c4.7-4.7,11.8-6,17.8-3.2c2.3,1,4.7,2.1,7.1,2.9
		c6.2,2.3,10.3,8.2,10.3,14.8v8.8c0,8.8,7.1,16,16,16h31.8c8.8,0,16-7.1,16-16v-8.8c0-6.6,4.1-12.5,10.3-14.8
		c2.4-0.9,4.8-1.9,7.1-2.9c6.1-2.8,13.2-1.5,17.8,3.2l6.3,6.3c6.3,6.2,16.3,6.2,22.5,0l22.5-22.5c6.2-6.3,6.2-16.3,0-22.5l-6.3-6.3
		c-4.7-4.7-6-11.8-3.2-17.8c1-2.3,2.1-4.7,2.9-7.1c2.3-6.2,8.2-10.3,14.8-10.3h8.8c8.8,0,16-7.1,16-16v-31.8c0-8.8-7.1-16-16-16H303
		c-6.6,0-12.5-4.1-14.8-10.3c-0.9-2.4-1.9-4.8-2.9-7.1c-2.8-6.1-1.5-13.2,3.2-17.8l6.3-6.3c6.2-6.3,6.2-16.3,0-22.5l-22.5-22.5
		c-6.3-6.2-16.3-6.2-22.5,0l-6.3,6.3c-4.7,4.7-11.8,6-17.8,3.2c-2.3-1-4.7-2.1-7.1-2.9c-6.2-2.3-10.3-8.2-10.3-14.8v-8.8
		c0-8.8-7.1-16-16-16h-31.8c-8.8,0-16,7.1-16,16v8.8c0,6.6-4.1,12.5-10.3,14.8c-2.4,0.9-4.8,1.9-7.1,2.9c-6.1,2.8-13.2,1.5-17.8-3.2
		l-6.3-6.3c-6.3-6.2-16.3-6.2-22.5,0l-22.4,22.5c-6.2,6.3-6.2,16.3,0,22.5l6.3,6.3c4.7,4.7,6,11.8,3.2,17.8c-1,2.3-2.1,4.7-2.9,7.1
		c-2.3,6.2-8.2,10.3-14.8,10.3H41c-8.8,0-16,7.1-16,16v31.8C24.9,360.4,32.1,367.6,40.9,367.6z M160.4,273.9c5.2-1.3,10.6-2,16-2
		c2.6,0,5.2,0.2,7.9,0.6c0.7,0.1,1.5,0.2,2.2,0.4c2,0.3,3.8,0.7,5.7,1.2c0.7,0.2,1.4,0.4,2.1,0.6c2.4,0.7,4.8,1.5,7.1,2.5
		c0.3,0.1,0.6,0.3,0.8,0.4c2.1,0.9,4,1.9,5.9,3c0.7,0.4,1.3,0.8,1.9,1.1c1.6,1,3.2,2.1,4.7,3.3c0.5,0.4,1,0.7,1.5,1.1
		c2,1.6,3.7,3.2,5.5,4.9c0.4,0.4,0.7,0.7,0.9,1c1.4,1.5,2.7,3,4,4.7c0.5,0.6,0.9,1.2,1.4,1.8c1.1,1.6,2.2,3.2,3.2,4.9
		c0.3,0.5,0.6,0.9,0.8,1.5c1.2,2.1,2.2,4.4,3.3,6.7c0.2,0.6,0.4,1.1,0.6,1.6c0.7,1.9,1.3,3.7,1.9,5.7c0.2,0.7,0.4,1.5,0.6,2.2
		c0.5,2.1,0.8,4.2,1.1,6.3c0.1,0.5,0.2,0.9,0.2,1.4c0.3,2.3,0.4,4.7,0.4,7c0,0.3,0,0.7-0.1,0.9c0,0.7-0.1,1.4-0.1,2.1
		c-0.1,2.1-0.3,4.1-0.6,6.1c-0.1,0.9-0.3,1.9-0.5,2.8c-0.3,1.4-0.7,2.8-1,4.2c-2,8-5.2,15.8-9.5,22.8c-0.8,1.3-1.8,2.5-2.9,3.5
		c-4,3.7-8.5,7.2-13.2,10.1l-1,0.7c-1.1,0.7-2.3,1.5-3.5,2.1c-4.9,2.7-10,4.9-15.3,6.2l-0.9,0.3c-2.2,0.6-4.6,1-6.9,1.3
		c-0.4,0.1-0.7,0.1-1.1,0.2c-2.3,0.3-4.8,0.5-7.2,0.5h-0.3c-1.8,0-3.5-0.2-5.3-0.4c-0.8-0.1-1.8-0.1-2.6-0.2
		c-2.6-0.4-5.1-0.8-7.7-1.5c-34.1-8.8-54.6-43.6-45.8-77.7C120.5,297.3,138,279.7,160.4,273.9z"/>
	<g>
		<path class="st30" d="M232,304.7c1.2,2.1,2.2,4.4,3.3,6.7C234.4,309.2,233.3,306.9,232,304.7z"/>
		<path class="st30" d="M236,313.1c0.7,1.9,1.3,3.7,1.9,5.7C237.3,316.9,236.6,314.9,236,313.1z"/>
		<path class="st30" d="M240.1,335.7c0-2.3-0.1-4.7-0.4-6.9c0.3,2.6,0.4,5.2,0.4,7.9C240.1,336.3,240.1,336,240.1,335.7z"/>
		<path class="st30" d="M238.4,321c0.5,2.1,0.8,4.2,1.1,6.3C239.2,325.2,238.9,323.1,238.4,321z"/>
		<path class="st30" d="M186.5,272.8c2,0.3,3.8,0.7,5.7,1.2C190.3,273.6,188.4,273.1,186.5,272.8z"/>
		<path class="st30" d="M176.4,272c2.6,0,5.2,0.2,7.9,0.6C181.6,272.2,179,272,176.4,272z"/>
		<path class="st30" d="M202.2,277.4c2.1,0.9,4,1.9,5.9,3C206.2,279.3,204.2,278.3,202.2,277.4z"/>
		<path class="st30" d="M194.2,274.5c2.4,0.7,4.8,1.5,7.1,2.5C199.1,276.1,196.7,275.2,194.2,274.5z"/>
		<path class="st30" d="M228,298.4c1.1,1.6,2.2,3.2,3.2,4.9C230.2,301.6,229.2,300,228,298.4z"/>
		<path class="st30" d="M222.7,292c1.4,1.5,2.7,3,4,4.7C225.4,294.9,224.1,293.4,222.7,292z"/>
		<path class="st30" d="M210,281.6c1.6,1,3.2,2.1,4.7,3.3C213.2,283.7,211.6,282.6,210,281.6z"/>
		<path class="st30" d="M216.2,286c2,1.5,3.7,3.2,5.5,4.9C220,289.1,218.1,287.6,216.2,286z"/>
		<path class="st30" d="M207.9,391.1c-4.9,2.7-10,4.8-15.3,6.2C197.9,395.9,203,393.8,207.9,391.1z"/>
		<path class="st30" d="M191.5,397.6c-2.2,0.6-4.6,1-6.9,1.3C186.9,398.5,189.2,398.1,191.5,397.6z"/>
		<path class="st30" d="M176.4,399.4c2.4,0,4.8-0.2,7.2-0.5c-2.5,0.3-4.9,0.5-7.5,0.4L176.4,399.4z"/>
		<path class="st30" d="M170.7,399.1c-0.8-0.1-1.8-0.1-2.6-0.2C168.9,399,169.9,399,170.7,399.1z"/>
		<path class="st30" d="M240,338.6c-0.1,2-0.3,4-0.6,6.1C239.7,342.7,239.9,340.7,240,338.6z"/>
		<path class="st30" d="M212.3,388.3c-0.4,0.2-0.7,0.5-1,0.7L212.3,388.3z"/>
		<path class="st30" d="M239,347.6c-0.3,1.4-0.7,2.8-1,4.2C238.3,350.4,238.7,349,239,347.6z"/>
	</g>
	<g>
		<path d="M311.8,295.9H303c-3.3,0-6.3-2.1-7.4-5.1c-0.9-2.5-2.1-5-3.2-7.5c-1.4-3-0.7-6.5,1.6-8.9l6.3-6.3c9.2-9.3,9.2-24.5,0-33.8
			l-22.5-22.5c-9.3-9.2-24.5-9.2-33.8,0l-6.3,6.3c-2.3,2.3-5.9,3-8.9,1.6c-2.4-1.1-4.9-2.1-7.6-3.2c-3.1-1.1-5.1-4.1-5.1-7.4v-8.8
			c0-13.2-10.7-23.9-23.9-23.9h-31.8c-13.2,0-23.9,10.7-23.9,23.9v8.8c0,3.3-2.1,6.3-5.1,7.4c-2.5,0.9-5,2.1-7.5,3.2
			c-3,1.4-6.5,0.7-8.9-1.6l-6.3-6.3c-9.3-9.2-24.5-9.2-33.8,0l-22.5,22.6c-9.3,9.3-9.3,24.5,0,33.8l6.3,6.3c2.3,2.3,3,5.9,1.6,8.9
			c-1.1,2.4-2.1,4.9-3.2,7.6c-1.1,3.1-4.1,5.1-7.5,5.1h-8.8C27.7,295.9,17,306.5,17,319.8v31.8c0,13.2,10.7,23.9,23.9,23.9h8.8
			c3.3,0,6.3,2.1,7.4,5.1c0.9,2.5,2.1,5,3.2,7.5c1.4,3,0.7,6.5-1.6,8.9l-6.3,6.3c-9.2,9.3-9.2,24.5,0,33.8l22.5,22.6
			c9.3,9.3,24.5,9.3,33.8,0l6.3-6.3c2.3-2.3,5.9-3,8.9-1.6c2.4,1.1,4.9,2.1,7.6,3.2c3.2,1.1,5.2,4.1,5.2,7.4v8.8
			c0,13.2,10.7,23.9,23.9,23.9h31.8c13.2,0,23.9-10.7,23.9-23.9v-8.8c0-3.3,2.1-6.3,5.1-7.4c2.5-0.9,5-2.1,7.5-3.2
			c3-1.4,6.5-0.7,8.9,1.6l6.3,6.3c9.3,9.2,24.5,9.2,33.8,0l22.5-22.5c9.3-9.3,9.3-24.5,0-33.8l-6.3-6.3c-2.3-2.3-3-5.9-1.6-8.9
			c1.1-2.4,2.1-4.9,3.2-7.6c1.1-3.1,4.1-5.1,7.4-5.1h8.8c13.2,0,23.9-10.7,23.9-23.9v-31.8C335.7,306.5,325.1,295.9,311.8,295.9z
			 M319.8,351.6c0,4.4-3.5,7.9-7.9,7.9h-8.8c-9.9,0-18.8,6.2-22.3,15.4c-0.8,2.2-1.8,4.4-2.7,6.6c-4.1,9.1-2.2,19.7,4.8,26.7
			l6.3,6.3c3.1,3.1,3.1,8.1,0,11.3l0,0l-22.6,22.5c-3.1,3.1-8.1,3.1-11.3,0l-6.3-6.3c-7.1-7-17.7-8.9-26.7-4.8
			c-2.1,0.9-4.4,1.9-6.5,2.7c-9.2,3.5-15.4,12.4-15.4,22.3v8.8c0,4.4-3.5,7.9-7.9,7.9h-31.8c-4.4,0-7.9-3.5-7.9-7.9v-8.8
			c0-9.9-6.2-18.8-15.4-22.3c-2.2-0.8-4.4-1.8-6.6-2.7c-9.1-4.1-19.7-2.1-26.7,4.8l-6.3,6.3c-3.1,3.1-8.1,3.1-11.3,0l0,0l-22.6-22.5
			c-3.1-3.1-3.1-8.1,0-11.3l6.3-6.3c7-7.1,8.9-17.7,4.8-26.7c-0.9-2.1-1.9-4.4-2.7-6.5c-3.5-9.2-12.4-15.4-22.3-15.4h-8.8
			c-4.4,0-7.9-3.5-7.9-7.9v-31.8c0-4.4,3.5-7.9,7.9-7.9h8.8c9.9,0,18.8-6.2,22.3-15.4c0.8-2.2,1.8-4.4,2.7-6.6
			c4.1-9.1,2.2-19.7-4.8-26.7l-6.3-6.3c-3.1-3.1-3.1-8.1,0-11.3l0,0l22.5-22.5c3.1-3.1,8.1-3.1,11.3,0l6.3,6.3
			c7.1,7,17.7,8.9,26.7,4.8c2.1-1,4.4-1.9,6.5-2.7c9.2-3.5,15.4-12.4,15.4-22.3v-8.8c0-4.4,3.5-7.9,7.9-7.9h31.8
			c4.4,0,7.9,3.5,7.9,7.9v8.8c0,9.9,6.2,18.8,15.4,22.3c2.2,0.8,4.4,1.8,6.6,2.7c9.1,4.1,19.7,2.2,26.7-4.8l6.3-6.3
			c3.1-3.1,8.1-3.1,11.3,0l22.5,22.5c3.1,3.1,3.1,8.1,0,11.3l-6.3,6.3c-7,7.1-8.9,17.7-4.8,26.7c0.9,2.1,1.9,4.4,2.7,6.5
			c3.5,9.2,12.4,15.4,22.3,15.4h8.8c4.4,0,7.9,3.5,7.9,7.9L319.8,351.6L319.8,351.6z"/>
		<path d="M247.9,332.5c-0.1-1.9-0.2-3.8-0.5-5.7c-0.3-2.1-0.6-4.1-1-6.1c-0.3-1.3-0.7-2.6-1-3.8c-0.5-1.7-0.9-3.3-1.5-4.9
			c-0.4-1.1-0.8-2.2-1.2-3.3c-1-2.5-2.2-5-3.5-7.5c-0.1-0.2-0.2-0.4-0.3-0.6c-2.1-3.7-4.5-7.2-7.2-10.5c-0.2-0.3-0.5-0.6-0.7-0.8
			c-1.1-1.3-2.2-2.5-3.5-3.7c-0.7-0.7-1.3-1.2-2-1.9c-0.8-0.7-1.6-1.5-2.4-2.1c-0.9-0.8-2-1.7-3-2.4l-1.3-0.9
			c-12.3-9.2-27.4-14.2-42.8-14.2c-0.8,0-1.6,0.1-2.4,0.2c-1.7,0.1-3.4,0.2-5.1,0.3c-0.9,0.1-1.8,0.2-2.7,0.4
			c-2.6,0.4-5.1,0.8-7.8,1.4c-38.4,9.9-61.4,49-51.5,87.4c6.5,25.3,26.3,45,51.5,51.5c0.1,0,0.3,0,0.4,0.1c2.7,0.7,5.5,1.2,8.3,1.6
			c1.9,0.2,3.7,0.3,5.6,0.4c1.2,0.1,2.4,0.3,3.7,0.3c2.2,0,4.7-0.2,7-0.4c0.3,0,0.5-0.1,0.8-0.1c2-0.2,3.9-0.5,5.9-0.9
			c0.8-0.2,1.5-0.4,2.3-0.6c1.4-0.4,2.8-0.7,4.2-1.1c1.1-0.4,2.2-0.7,3.3-1.1c1.1-0.4,2.2-0.8,3.4-1.2c1.1-0.4,2.1-0.9,3.1-1.4
			c1.3-0.7,2.7-1.2,4-2h0.1c7.5-4,14.3-9,20.4-14.8c1.7-1.6,3.1-3.3,4.3-5.2c6.3-10,10.3-21.1,12-32.8c0.2-1.5,0.5-3.1,0.6-4.7
			c0.1-1.4,0.2-2.9,0.2-4.3c0-0.5,0.1-0.8,0.1-1.3C248.1,334.6,247.9,333.6,247.9,332.5z M162.4,281.7c4.6-1.1,9.2-1.8,14-1.8
			c2.2,0,4.6,0.2,6.8,0.5c0.6,0.1,1.2,0.2,1.8,0.3c1.7,0.3,3.5,0.7,5.1,1c0.6,0.2,1.1,0.3,1.7,0.5c4.2,1.2,8.3,2.9,12.1,5.1
			c0.7,0.4,1.2,0.7,1.8,1.1c1.2,0.8,2.5,1.6,3.6,2.5c0.7,0.5,1.3,0.9,2,1.4c1.6,1.2,3.1,2.6,4.5,4c0.6,0.6,1.1,1.2,1.6,1.8
			c0.9,1,1.8,2.1,2.7,3.1c0.6,0.7,1.1,1.5,1.7,2.2c0.8,1.1,1.6,2.3,2.3,3.5c0.4,0.7,0.8,1.3,1.2,2c1,1.9,2,3.8,2.7,5.9
			c0.3,0.8,0.6,1.6,0.8,2.4c0.6,1.5,0.9,3,1.4,4.5c0.2,0.8,0.5,1.5,0.6,2.2c0.5,2.1,0.8,4.3,1,6.5c0.1,0.6,0.1,1.2,0.1,1.8
			c0.1,1.9,0.2,3.6,0.1,5.5c0,0.7-0.1,1.3-0.1,2c-0.2,2-0.4,3.8-0.7,5.8c-3,16.5-13.3,30.9-28,39c-1,0.6-2,1-2.9,1.5l-0.7,0.3
			c-4.7,2.1-9.5,3.5-14.6,4.4c-0.4,0.1-0.7,0.1-1,0.2c-1,0.2-2,0.3-3,0.4c-1.3,0.1-2.6,0.2-3.9,0.2c-0.6,0-1.1,0-1.7,0
			c-1.9,0-3.7-0.1-5.6-0.4l-0.9-0.1c-2.1-0.3-4.4-0.7-6.5-1.2c-29.9-7.7-47.8-38-40.2-67.9C127.3,302.1,142.7,286.7,162.4,281.7
			L162.4,281.7z"/>
		<path d="M471.2,184.3h-25c-3.4,0-6.3-2.1-7.5-5.2c-2.4-7.4-5.4-14.7-9-21.6c-1.5-3-0.8-6.6,1.5-9l17.7-17.8
			c9.3-9.3,9.3-24.5,0-33.8l-33.9-33.8c-9.3-9.3-24.5-9.3-33.8,0l-17.7,17.7c-2.3,2.4-6,3-9,1.5c-7-3.5-14.2-6.5-21.6-9
			c-3.2-1.1-5.3-4.1-5.2-7.5v-25c0-13.2-10.7-23.9-23.9-23.9H256c-13.2,0-23.9,10.7-23.9,23.9v25c0,3.4-2.1,6.3-5.2,7.5
			c-7.4,2.5-14.7,5.5-21.6,9c-3,1.5-6.6,0.8-9-1.5l-17.8-17.7c-9.3-9.3-24.5-9.3-33.8,0l-33.8,33.8c-9.3,9.3-9.3,24.5,0,33.8
			l26.1,26.1c3.2,3.1,8.2,3,11.3-0.2c3-3.1,3-7.9,0-11.1l-26.1-26.1c-3.1-3.1-3.1-8.1,0-11.3L156,74.3c3.1-3.1,8.1-3.1,11.3,0
			L185.2,92c7.2,7.3,18.2,9.1,27.4,4.5c6.3-3.2,12.8-5.9,19.5-8.1c9.6-3.3,16.2-12.3,16.1-22.5v-25c0-4.4,3.5-7.9,7.9-7.9h47.8
			c4.4,0,7.9,3.5,7.9,7.9v25c0,10.2,6.4,19.2,16.1,22.5c6.7,2.2,13.3,4.9,19.5,8.1c9.2,4.6,20.2,2.7,27.4-4.5l17.8-17.7
			c3.1-3.1,8.1-3.1,11.3,0l33.8,33.8c3.1,3.1,3.1,8.1,0,11.3l-17.7,17.8c-7.2,7.2-9.1,18.2-4.5,27.4c3.2,6.3,5.9,12.8,8.1,19.5
			c3.3,9.6,12.3,16.2,22.5,16.1h25c4.4,0,7.9,3.5,7.9,7.9V256c0,4.4-3.5,7.9-7.9,7.9h-25c-10.2,0-19.2,6.4-22.5,16.1
			c-2.2,6.7-4.9,13.3-8.1,19.5c-4.6,9.2-2.7,20.2,4.5,27.4l17.7,17.8c3.1,3.1,3.1,8.1,0,11.3l-33.8,33.8c-3.1,3.1-8.1,3.1-11.3,0
			l-26.1-26.1c-3.1-3.2-8.1-3.3-11.3-0.2c-3.2,3.1-3.3,8.1-0.2,11.3c0.1,0.1,0.1,0.1,0.2,0.2l26.1,26.1c9.3,9.3,24.5,9.3,33.8,0
			l33.8-33.8c9.3-9.3,9.3-24.5,0-33.8l-17.7-17.7c-2.4-2.3-3-6-1.5-9c3.5-7,6.5-14.2,9-21.6c1.1-3.2,4.1-5.3,7.5-5.2h25
			c13.2,0,23.9-10.7,23.9-23.9v-47.8C495.1,195,484.4,184.3,471.2,184.3z"/>
		<path d="M353.2,158.9c-40.4-40.4-106-40.4-146.5,0c-3.1,3.2-3,8.2,0.2,11.3c3.1,3,8,3,11.1,0c34-34.5,89.5-34.8,123.9-0.8
			s34.8,89.5,0.8,123.9c-0.3,0.3-0.6,0.6-0.8,0.8c-3.2,3.1-3.3,8.1-0.2,11.3c3.1,3.2,8.1,3.3,11.3,0.2c0.1-0.1,0.1-0.1,0.2-0.2
			C393.6,264.9,393.6,199.3,353.2,158.9z"/>
	</g>
</g>
</svg>
