<?xml version="1.0" encoding="utf-8"?>
<!-- Generator: Adobe Illustrator 24.0.1, SVG Export Plug-In . SVG Version: 6.00 Build 0)  -->
<svg version="1.1" id="Layer_1" xmlns="http://www.w3.org/2000/svg" xmlns:xlink="http://www.w3.org/1999/xlink" x="0px" y="0px"
	 viewBox="0 0 512 512" style="enable-background:new 0 0 512 512;" xml:space="preserve">
<style type="text/css">
	.st0{fill:#EFE0DA;}
	.st1{fill:#ACEBE2;}
	.st2{fill:#E2E0E0;}
	.st3{fill:#98D7CE;}
	.st4{fill:#CECCCC;}
	.st5{fill:#F8EC7D;}
	.st6{fill:#E48E66;}
	.st7{fill:#A9DBF5;}
	.st8{fill:#88C3E0;}
	.st9{fill:#4380A0;}
	.st10{fill:#3B7191;}
	.st11{fill:#F3F3F3;}
	.st12{fill:#E4E4E4;}
	.st13{fill:#F78E36;}
	.st14{fill:#FFC328;}
	.st15{fill:#FBE1CA;}
	.st16{fill:#F0AE42;}
	.st17{fill:#F6B940;}
	.st18{fill:#F2F2F2;}
	.st19{fill:#474747;}
	.st20{fill:#686868;}
	.st21{fill:#B52F28;}
	.st22{fill:#D23F34;}
	.st23{fill:#4C6CB5;}
	.st24{fill:#5E87CA;}
	.st25{fill:#C7EAFF;}
	.st26{fill:#FFBC53;}
	.st27{fill:#AA7E54;}
	.st28{fill:#E2A76F;}
	.st29{fill:#EAEAF0;}
	.st30{fill:#78B9EB;}
	.st31{fill:#FFAF46;}
</style>
<g>
	<path class="st7" d="M465.5,467.8H46.5c-13.5,0-24.5-11-24.5-24.5v-18.8c0-2.1,1.7-3.8,3.8-3.8h460.3c2.1,0,3.8,1.7,3.8,3.8v18.8
		C489.9,456.9,479,467.8,465.5,467.8z"/>
	<path class="st8" d="M486.2,420.7h-28.2c2.1,0,3.8,1.7,3.8,3.8v18.8c0,13.5-11,24.5-24.5,24.5h28.2c13.5,0,24.5-11,24.5-24.5v-18.8
		C489.9,422.4,488.3,420.7,486.2,420.7z"/>
	<path class="st9" d="M439.6,420.7l-367.1,0c-10.4,0-18.8-8.4-18.8-18.8l0-244.8c0-10.4,8.4-18.8,18.8-18.8l367.1,0
		c10.4,0,18.8,8.4,18.8,18.8l0,244.8C458.4,412.3,450,420.7,439.6,420.7z"/>
	<path class="st10" d="M458.4,401.9c0,10.4-8.4,18.8-18.8,18.8h-28.2c10.4,0,18.8-8.4,18.8-18.8l0-244.8c0-10.4-8.4-18.8-18.8-18.8
		h28.2c10.4,0,18.8,8.4,18.8,18.8L458.4,401.9z"/>
	<path class="st11" d="M430.2,392.5h-28.2l-320.1,0l0-225.9l320.1,0h28.2L430.2,392.5z"/>
	<path class="st12" d="M401.9,166.6h28.2v225.9h-28.2V166.6z"/>
	<path class="st8" d="M288,443.3h-64c-6.2,0-11.3-5.1-11.3-11.3v-11.3h86.6V432C299.3,438.3,294.2,443.3,288,443.3z"/>
	<path class="st13" d="M356.3,182.9c-0.5,3.7-1.8,9-2.9,13.4c-1,4-4.7,6.9-8.9,6.9h-12.8c-4.2,0-7.8-2.8-8.9-6.9
		c-1.1-4.3-2.4-9.6-2.9-13.4c-0.4-2.8-2.1-5.2-4.5-6.6l-11.8-6.8c-2.4-1.4-5.3-1.6-7.9-0.6c-3.5,1.4-8.8,3-13.1,4.2
		c-4,1.1-8.3-0.6-10.4-4.2l-6.4-11c-2.1-3.6-1.5-8.2,1.5-11.1c3.2-3.1,7.2-6.9,10.2-9.2c2.2-1.7,3.5-4.4,3.5-7.2v-13.6
		c0-2.8-1.3-5.4-3.5-7.2c-3-2.3-7-6.1-10.2-9.2c-3-2.9-3.6-7.5-1.5-11.1l6.4-11c2.1-3.6,6.3-5.3,10.4-4.2c4.3,1.2,9.6,2.8,13.1,4.2
		c2.6,1,5.5,0.8,7.9-0.6l11.8-6.8c2.4-1.4,4.1-3.8,4.5-6.6c0.5-3.7,1.8-9,2.9-13.4c1-4,4.7-6.9,8.9-6.9h12.8c4.2,0,7.8,2.8,8.9,6.9
		c1.1,4.3,2.4,9.6,2.9,13.4c0.4,2.8,2.1,5.2,4.5,6.6l11.8,6.8c2.4,1.4,5.3,1.6,7.9,0.6c3.5-1.4,8.8-3,13.1-4.2
		c4-1.1,8.3,0.6,10.4,4.2l6.4,11c2.1,3.6,1.5,8.2-1.5,11.1c-3.2,3.1-7.2,6.9-10.2,9.2c-2.2,1.7-3.5,4.4-3.5,7.2v13.6
		c0,2.8,1.3,5.4,3.5,7.2c3,2.3,7,6.1,10.2,9.2c3,2.9,3.6,7.5,1.5,11.1l-6.4,11c-2.1,3.6-6.3,5.3-10.4,4.2c-4.3-1.2-9.6-2.8-13.1-4.2
		c-2.6-1-5.5-0.8-7.9,0.6l-11.8,6.8C358.3,177.7,356.7,180.2,356.3,182.9z M369.6,123.7c0-17.3-14.1-31.4-31.5-31.4
		c-17.4,0-31.5,14.1-31.5,31.4s14.1,31.4,31.5,31.4C355.5,155.1,369.6,141,369.6,123.7z"/>
	<path class="st14" d="M245.6,305.3c-0.5,3.7-1.8,9-2.9,13.4c-1,4-4.7,6.9-8.9,6.9H221c-4.2,0-7.8-2.8-8.9-6.9
		c-1.1-4.3-2.4-9.6-2.9-13.4c-0.4-2.8-2.1-5.2-4.5-6.6l-11.8-6.8c-2.4-1.4-5.3-1.6-7.9-0.6c-3.5,1.4-8.8,3-13.1,4.2
		c-4,1.1-8.3-0.6-10.4-4.2l-6.4-11c-2.1-3.6-1.5-8.2,1.5-11.1c3.2-3.1,7.2-6.9,10.2-9.2c2.2-1.7,3.5-4.4,3.5-7.2v-13.6
		c0-2.8-1.3-5.4-3.5-7.2c-3-2.3-7-6.1-10.2-9.2c-3-2.9-3.6-7.5-1.5-11.1l6.4-11c2.1-3.6,6.3-5.3,10.4-4.2c4.3,1.2,9.6,2.8,13.1,4.2
		c2.6,1,5.5,0.8,7.9-0.6l11.8-6.8c2.4-1.4,4.1-3.8,4.5-6.6c0.5-3.7,1.8-9,2.9-13.4c1-4,4.7-6.9,8.9-6.9h12.8c4.2,0,7.8,2.8,8.9,6.9
		c1.1,4.3,2.4,9.6,2.9,13.4c0.4,2.8,2.1,5.2,4.5,6.6l11.8,6.8c2.4,1.4,5.3,1.6,7.9,0.6c3.5-1.4,8.8-3,13.1-4.2
		c4-1.1,8.3,0.6,10.4,4.2l6.4,11c2.1,3.6,1.5,8.2-1.5,11.1c-3.2,3.1-7.2,6.9-10.2,9.2c-2.2,1.7-3.5,4.4-3.5,7.2v13.6
		c0,2.8,1.3,5.4,3.5,7.2c3,2.3,7,6.1,10.2,9.2c3,2.9,3.6,7.5,1.5,11.1l-6.4,11c-2.1,3.6-6.3,5.3-10.4,4.2c-4.3-1.2-9.6-2.8-13.1-4.2
		c-2.6-1-5.5-0.8-7.9,0.6l-11.8,6.8C247.6,300.1,246,302.6,245.6,305.3L245.6,305.3z M258.9,246.1c0-17.3-14.1-31.4-31.5-31.4
		S196,228.7,196,246.1s14.1,31.4,31.5,31.4S258.9,263.4,258.9,246.1z"/>
	<g>
		<path d="M486.2,413.7h-23.6c1.8-3.5,2.8-7.5,2.8-11.8l0-191.6c0-3.9-3.2-7.1-7.1-7.1c-3.9,0-7.1,3.2-7.1,7.1l0,191.6
			c0,6.5-5.3,11.8-11.8,11.8l-367.1,0c-6.5,0-11.8-5.3-11.8-11.8l0-244.8c0-6.5,5.3-11.8,11.8-11.8l187.3,0
			c-2.4,4.3-2.8,9.5-0.9,14.1l-25,0c0,0,0,0,0,0H221c0,0,0,0-0.1,0l-139.1,0c-3.9,0-7.1,3.2-7.1,7.1l0,149.1c0,3.9,3.2,7.1,7.1,7.1
			c3.9,0,7.1-3.2,7.1-7.1l0-142.1l116,0c-1,3.8-2,8.6-2.6,12.2c-0.1,0.6-0.5,1.1-1,1.5l-11.8,6.8c-0.5,0.3-1.2,0.4-1.8,0.1
			c-4-1.6-9.7-3.3-13.8-4.5c-7.1-2-14.7,1.1-18.4,7.5l-6.4,11c-3.7,6.4-2.6,14.5,2.7,19.7c3,3,7.4,7.1,10.8,9.7
			c0.5,0.4,0.8,1,0.8,1.6v13.6c0,0.6-0.3,1.2-0.8,1.6c-3.4,2.7-7.7,6.7-10.8,9.7c-5.3,5.2-6.4,13.3-2.7,19.7l6.4,11
			c3.7,6.4,11.2,9.5,18.4,7.5c4.1-1.1,9.8-2.8,13.8-4.5c0.6-0.2,1.2-0.2,1.8,0.1l11.8,6.8c0.5,0.3,0.9,0.9,1,1.5
			c0.6,4.3,2,10.1,3.1,14.1c1.9,7.2,8.3,12.2,15.7,12.2h12.8c7.4,0,13.8-5,15.7-12.2c1.1-4.1,2.4-9.9,3.1-14.1
			c0.1-0.6,0.5-1.1,1-1.5l11.8-6.8c0.5-0.3,1.2-0.4,1.8-0.1c4,1.6,9.7,3.3,13.8,4.5c7.1,2,14.7-1.1,18.4-7.5l6.4-11
			c3.7-6.4,2.6-14.5-2.7-19.7c-3-3-7.4-7.1-10.8-9.7c-0.5-0.4-0.8-1-0.8-1.6v-13.6c0-0.6,0.3-1.2,0.8-1.6c3.4-2.7,7.7-6.7,10.8-9.7
			c5.3-5.2,6.4-13.3,2.7-19.7l-6.4-11c-3.7-6.4-11.2-9.5-18.4-7.5c-4.1,1.1-9.8,2.8-13.8,4.5c-0.6,0.2-1.2,0.2-1.8-0.1l-11.8-6.8
			c-0.5-0.3-0.9-0.9-1-1.5c-0.5-3.6-1.6-8.3-2.6-12.2l16.9,0c3.9,5.6,11,8.2,17.6,6.3c4.1-1.1,9.8-2.8,13.8-4.5
			c0.6-0.2,1.2-0.2,1.8,0.1l11.8,6.8c0.5,0.3,0.9,0.9,1,1.5c0.6,4.3,2,10.1,3.1,14.1c1.9,7.2,8.3,12.2,15.7,12.2h12.8
			c7.4,0,13.8-5,15.7-12.2c1.1-4.1,2.4-9.9,3.1-14.1c0.1-0.6,0.5-1.1,1-1.5l11.8-6.8c0.6-0.3,1.2-0.4,1.8-0.1
			c4,1.6,9.7,3.3,13.8,4.5c6.7,1.8,13.7-0.7,17.6-6.3h13.7l0,211.8l-334.2,0l0-39.3c0-3.9-3.2-7.1-7.1-7.1c-3.9,0-7.1,3.2-7.1,7.1
			l0,46.3c0,3.9,3.2,7.1,7.1,7.1l348.3,0c1.9,0,3.7-0.7,5-2.1c1.3-1.3,2.1-3.1,2.1-5l0-225.9c0-3.9-3.2-7.1-7.1-7.1h-12.7
			c1.9-4.6,1.5-9.8-0.9-14.1h23c6.5,0,11.8,5.3,11.8,11.8l0,23.2c0,3.9,3.2,7.1,7.1,7.1c3.9,0,7.1-3.2,7.1-7.1l0-23.2
			c0-14.3-11.6-25.9-25.9-25.9h-37.1c-0.1-0.2-0.2-0.5-0.2-0.8v-13.6c0-0.6,0.3-1.2,0.8-1.6c3.4-2.7,7.7-6.8,10.8-9.7
			c5.3-5.2,6.4-13.3,2.7-19.7l-6.4-11c-3.7-6.4-11.2-9.5-18.4-7.5c-4.1,1.1-9.8,2.8-13.8,4.5c-0.6,0.2-1.2,0.2-1.8-0.1l-11.8-6.8
			c-0.5-0.3-0.9-0.9-1-1.5c-0.6-4.3-2-10.1-3.1-14.1c-1.9-7.2-8.3-12.2-15.7-12.2h-12.8c-7.4,0-13.8,5-15.7,12.2
			c-1.1,4.1-2.4,9.9-3.1,14.1c-0.1,0.6-0.5,1.1-1,1.5l-11.8,6.8c-0.6,0.3-1.2,0.4-1.8,0.1c-4-1.6-9.7-3.3-13.8-4.5
			c-7.1-2-14.7,1.1-18.4,7.5l-6.4,11c-3.7,6.4-2.6,14.5,2.7,19.7c3,3,7.4,7.1,10.8,9.7c0.5,0.4,0.8,1,0.8,1.6v13.6
			c0,0.3-0.1,0.5-0.2,0.8l-201.5,0c-14.3,0-25.9,11.6-25.9,25.9l0,244.8c0,4.2,1,8.2,2.8,11.8H25.8c-6,0-10.8,4.9-10.8,10.8v18.8
			c0,17.4,14.1,31.5,31.5,31.5h329.8c3.9,0,7.1-3.2,7.1-7.1c0-3.9-3.2-7.1-7.1-7.1H46.5c-9.6,0-17.4-7.8-17.4-17.4v-15.5h176.5v4.2
			c0,10.1,8.2,18.4,18.4,18.4h64c10.1,0,18.4-8.2,18.4-18.4v-4.2h176.5v15.5c0,9.6-7.8,17.4-17.4,17.4h-58.6c-3.9,0-7.1,3.2-7.1,7.1
			c0,3.9,3.2,7.1,7.1,7.1h58.6c17.4,0,31.5-14.1,31.5-31.5v-18.8C497,418.5,492.1,413.7,486.2,413.7L486.2,413.7z M235.8,175.2
			c1.4,5.3,2.3,9.8,2.7,12.6c0.7,4.9,3.6,9.2,7.9,11.7l11.8,6.8c4.3,2.5,9.5,2.9,14.1,1c2.7-1.1,7-2.5,12.3-3.9
			c0.9-0.3,1.9,0.1,2.4,1l6.4,11c0.5,0.8,0.3,1.8-0.4,2.5c-3.9,3.8-7.3,6.9-9.6,8.7c-3.9,3.1-6.2,7.7-6.2,12.7v13.6
			c0,5,2.3,9.7,6.2,12.7c2.3,1.8,5.7,4.8,9.6,8.7c0.7,0.7,0.8,1.7,0.4,2.5l-6.4,11c-0.5,0.8-1.5,1.2-2.4,1
			c-5.3-1.5-9.7-2.9-12.3-3.9c-4.6-1.9-9.8-1.5-14.1,1l-11.8,6.8c-4.4,2.5-7.2,6.8-7.9,11.7v0c-0.4,2.8-1.4,7.3-2.7,12.6
			c-0.2,0.9-1.1,1.6-2,1.6H221c-0.9,0-1.8-0.6-2-1.6c-1.4-5.3-2.3-9.8-2.7-12.6c-0.7-4.9-3.6-9.2-7.9-11.7l-11.8-6.8
			c-2.5-1.4-5.3-2.2-8.1-2.2c-2,0-4.1,0.4-6,1.2c-2.7,1.1-7,2.5-12.3,3.9c-0.9,0.3-1.9-0.1-2.4-1l-6.4-11c-0.5-0.8-0.3-1.8,0.4-2.5
			c3.9-3.8,7.3-6.9,9.6-8.7c3.9-3.1,6.2-7.7,6.2-12.7v-13.6c0-5-2.3-9.7-6.2-12.7c-2.3-1.8-5.7-4.8-9.6-8.7
			c-0.7-0.7-0.8-1.7-0.4-2.5l6.4-11c0.5-0.8,1.5-1.2,2.4-1c5.3,1.5,9.7,2.9,12.3,3.9c4.6,1.9,9.8,1.5,14.1-1l11.8-6.8
			c4.4-2.5,7.2-6.8,7.9-11.7c0.4-2.8,1.4-7.3,2.7-12.6c0.2-0.9,1.1-1.6,2-1.6l12.8,0C234.8,173.6,235.6,174.3,235.8,175.2
			L235.8,175.2z M272.4,95.5c-0.7-0.7-0.8-1.7-0.4-2.5l6.4-11c0.5-0.8,1.5-1.2,2.4-1c5.3,1.5,9.7,2.9,12.3,3.9
			c4.6,1.9,9.8,1.5,14.1-1l11.8-6.8c4.4-2.5,7.2-6.8,7.9-11.7c0.4-2.8,1.4-7.3,2.7-12.6c0.2-0.9,1.1-1.6,2-1.6h12.8
			c0.9,0,1.8,0.6,2,1.6c1.4,5.3,2.3,9.8,2.7,12.6c0.7,4.9,3.6,9.2,7.9,11.7l11.8,6.8c4.3,2.5,9.5,2.9,14.1,1c2.6-1.1,7-2.5,12.3-3.9
			c0.9-0.3,1.9,0.1,2.4,1l6.4,11c0.5,0.8,0.3,1.8-0.4,2.5c-3.9,3.8-7.3,6.9-9.6,8.7c-3.9,3.1-6.2,7.7-6.2,12.7v13.6
			c0,5,2.3,9.7,6.2,12.7c2.3,1.8,5.7,4.8,9.6,8.7c0.7,0.7,0.8,1.7,0.4,2.5l-6.4,11c-0.5,0.8-1.5,1.2-2.4,1
			c-5.3-1.5-9.7-2.9-12.3-3.9c-4.6-1.9-9.8-1.5-14.1,1l-11.8,6.8c-4.4,2.5-7.2,6.8-7.9,11.7v0c-0.4,2.8-1.4,7.3-2.7,12.6
			c-0.2,0.9-1.1,1.6-2,1.6h-12.8c-0.9,0-1.8-0.6-2-1.6c-1.4-5.3-2.3-9.8-2.7-12.6c-0.7-4.9-3.6-9.2-7.9-11.7l-11.8-6.8
			c-2.5-1.4-5.3-2.2-8.1-2.2c-2,0-4.1,0.4-6,1.2c-2.6,1.1-7,2.5-12.3,3.9c-0.9,0.3-1.9-0.1-2.4-1l-1.3-2.2c0-0.1-0.1-0.1-0.1-0.2
			l-5-8.6c-0.5-0.8-0.3-1.8,0.4-2.5c3.9-3.8,7.3-6.9,9.6-8.7c3.9-3.1,6.2-7.7,6.2-12.7v-13.6c0-5-2.3-9.7-6.2-12.7
			C279.7,102.4,276.3,99.3,272.4,95.5L272.4,95.5z M292.2,432c0,2.3-1.9,4.2-4.2,4.2h-64c-2.3,0-4.2-1.9-4.2-4.2v-4.2h72.5V432z"/>
		<path d="M338.2,162.1c21.2,0,38.5-17.2,38.5-38.4c0-21.2-17.3-38.4-38.5-38.4c-21.2,0-38.5,17.2-38.5,38.4
			C299.6,144.9,316.9,162.1,338.2,162.1z M327.2,145.4h22c-3.3,1.7-7,2.6-11,2.6C334.2,148,330.5,147.1,327.2,145.4L327.2,145.4z
			 M338.2,99.4c13.5,0,24.4,10.9,24.4,24.3c0,2.6-0.4,5.2-1.2,7.6H315c-0.8-2.4-1.2-4.9-1.2-7.6C313.7,110.3,324.7,99.4,338.2,99.4
			L338.2,99.4z"/>
		<path d="M188.9,246.1c0,21.2,17.3,38.4,38.5,38.4s38.5-17.2,38.5-38.4c0-21.2-17.3-38.4-38.5-38.4S188.9,224.9,188.9,246.1
			L188.9,246.1z M251.8,246.1c0,13.4-10.9,24.3-24.4,24.3c-13.5,0-24.4-10.9-24.4-24.3s10.9-24.3,24.4-24.3
			C240.9,221.7,251.8,232.6,251.8,246.1L251.8,246.1z"/>
	</g>
</g>
</svg>
