<?xml version="1.0" encoding="utf-8"?>
<!-- Generator: Adobe Illustrator 24.0.1, SVG Export Plug-In . SVG Version: 6.00 Build 0)  -->
<svg version="1.1" id="Layer_1" xmlns="http://www.w3.org/2000/svg" xmlns:xlink="http://www.w3.org/1999/xlink" x="0px" y="0px"
	 viewBox="0 0 512 512" style="enable-background:new 0 0 512 512;" xml:space="preserve">
<style type="text/css">
	.st0{fill:#EFE0DA;}
	.st1{fill:#ACEBE2;}
	.st2{fill:#E2E0E0;}
	.st3{fill:#98D7CE;}
	.st4{fill:#CECCCC;}
	.st5{fill:#F8EC7D;}
	.st6{fill:#E48E66;}
	.st7{fill:#A9DBF5;}
	.st8{fill:#88C3E0;}
	.st9{fill:#4380A0;}
	.st10{fill:#3B7191;}
	.st11{fill:#F3F3F3;}
	.st12{fill:#E4E4E4;}
	.st13{fill:#F78E36;}
	.st14{fill:#FFC328;}
	.st15{fill:#FBE1CA;}
	.st16{fill:#F0AE42;}
	.st17{fill:#F6B940;}
	.st18{fill:#F2F2F2;}
	.st19{fill:#474747;}
	.st20{fill:#686868;}
	.st21{fill:#B52F28;}
	.st22{fill:#D23F34;}
	.st23{fill:#4C6CB5;}
	.st24{fill:#5E87CA;}
	.st25{fill:#C7EAFF;}
	.st26{fill:#FFBC53;}
	.st27{fill:#AA7E54;}
	.st28{fill:#E2A76F;}
	.st29{fill:#EAEAF0;}
	.st30{fill:#78B9EB;}
	.st31{fill:#FFAF46;}
	.st32{fill:#FFD782;}
	.st33{opacity:0.1;enable-background:new    ;}
	.st34{fill:#515262;}
</style>
<g>
	<circle class="st32" cx="256" cy="256" r="231"/>
	<path class="st33" d="M89.4,256c0-116.6,86.5-213.1,198.8-228.7C277.7,25.8,266.9,25,256,25C128.4,25,25,128.4,25,256
		c0,127.6,103.4,231,231,231c10.9,0,21.7-0.8,32.2-2.2C175.9,469.1,89.4,372.6,89.4,256z"/>
	<g>
		<rect x="224.8" y="201.6" class="st34" width="62.3" height="210.8"/>
		<circle class="st34" cx="256" cy="135.2" r="36.7"/>
	</g>
	<path d="M427.7,418.5c-1.9,0-3.8-0.7-5.4-2.1c-3.3-3-3.6-8.1-0.6-11.4c36.9-41,57.2-93.9,57.2-149.1c0-122.9-100-222.9-222.9-222.9
		c-51.6,0-102,18.1-141.7,50.9c-3.4,2.8-8.5,2.3-11.3-1.1c-2.8-3.4-2.3-8.5,1.1-11.3C146.7,36.4,200.6,17,256,17
		c63.8,0,123.9,24.9,169,70s70,105.2,70,169c0,59.2-21.8,115.9-61.4,159.9C432,417.6,429.9,418.5,427.7,418.5z"/>
	<path d="M256,495c-63.8,0-123.9-24.9-169-70S17,319.8,17,256c0-60,22.3-117.4,62.9-161.5c3-3.3,8.1-3.5,11.4-0.5
		c3.3,3,3.5,8.1,0.5,11.4C53.9,146.5,33.1,200,33.1,256c0,122.9,100,222.9,222.9,222.9c52.4,0,103.3-18.5,143.3-52.2
		c3.4-2.9,8.5-2.4,11.3,1c2.9,3.4,2.4,8.5-1,11.3C366.7,475.1,312.2,495,256,495z"/>
	<path d="M287.2,420.4h-62.3c-4.4,0-8-3.6-8-8V201.6c0-4.4,3.6-8,8-8h62.3c4.4,0,8,3.6,8,8v210.8
		C295.2,416.8,291.6,420.4,287.2,420.4z M232.9,404.3h46.2V209.6h-46.2V404.3z"/>
	<path d="M256,180c-24.7,0-44.7-20.1-44.7-44.7s20.1-44.7,44.7-44.7s44.7,20.1,44.7,44.7S280.7,180,256,180z M256,106.6
		c-15.8,0-28.7,12.9-28.7,28.7s12.9,28.7,28.7,28.7c15.8,0,28.7-12.9,28.7-28.7S271.8,106.6,256,106.6z"/>
</g>
</svg>
