<?xml version="1.0" encoding="utf-8"?>
<!-- Generator: Adobe Illustrator 24.0.1, SVG Export Plug-In . SVG Version: 6.00 Build 0)  -->
<svg version="1.1" id="Layer_1" xmlns="http://www.w3.org/2000/svg" xmlns:xlink="http://www.w3.org/1999/xlink" x="0px" y="0px"
	 viewBox="0 0 512 512" style="enable-background:new 0 0 512 512;" xml:space="preserve">
<style type="text/css">
	.st0{fill:#EFE0DA;}
	.st1{fill:#ACEBE2;}
	.st2{fill:#E2E0E0;}
	.st3{fill:#98D7CE;}
	.st4{fill:#CECCCC;}
	.st5{fill:#F8EC7D;}
	.st6{fill:#E48E66;}
	.st7{fill:#A9DBF5;}
	.st8{fill:#88C3E0;}
	.st9{fill:#4380A0;}
	.st10{fill:#3B7191;}
	.st11{fill:#F3F3F3;}
	.st12{fill:#E4E4E4;}
	.st13{fill:#F78E36;}
	.st14{fill:#FFC328;}
	.st15{fill:#FBE1CA;}
	.st16{fill:#F0AE42;}
	.st17{fill:#F6B940;}
	.st18{fill:#F2F2F2;}
	.st19{fill:#474747;}
	.st20{fill:#686868;}
	.st21{fill:#B52F28;}
	.st22{fill:#D23F34;}
	.st23{fill:#4C6CB5;}
	.st24{fill:#5E87CA;}
	.st25{fill:#C7EAFF;}
	.st26{fill:#FFBC53;}
	.st27{fill:#AA7E54;}
	.st28{fill:#E2A76F;}
	.st29{fill:#EAEAF0;}
	.st30{fill:#78B9EB;}
	.st31{fill:#FFAF46;}
</style>
<g>
	<path class="st25" d="M283,191.3H88.9c-29.8,0-53.9,24.1-53.9,53.9v138.4c0,29.8,24.1,53.9,53.9,53.9h58.4l-0.8,0.1l39.5,39.5
		l0-39.5h97c29.8,0,53.9-24.1,53.9-53.9V245.2C336.9,215.4,312.7,191.3,283,191.3z"/>
	<path d="M185.9,486c-2.3,0-4.6-0.9-6.4-2.6l-36.9-36.9H88.9c-34.7,0-62.9-28.2-62.9-62.9V245.2c0-34.7,28.2-62.9,62.9-62.9h90.7
		c5,0,9,4,9,9s-4,9-9,9H88.9c-24.8,0-44.9,20.2-44.9,44.9v138.4c0,24.8,20.2,44.9,44.9,44.9h58.4c3.7,0,6.9,2.2,8.2,5.4l21.4,21.4
		l0-17.9c0-5,4-9,9-9h97c24.8,0,44.9-20.2,44.9-44.9v-62c0-5,4-9,9-9s9,4,9,9v62c0,34.7-28.2,62.9-62.9,62.9h-88l0,30.6
		c0,3.6-2.2,6.9-5.5,8.3C188.2,485.8,187.1,486,185.9,486z"/>
	<path class="st26" d="M355.4,35h-22.7c-67.2,0-121.6,54.4-121.6,121.6l0,0c0,67.2,54.4,121.6,121.6,121.6h22.7
		c12.4,0,24.5-1.9,35.8-5.3l37.3,37.3v-56.4c29.5-22.2,48.5-57.5,48.5-97.2l0,0C477,89.4,422.6,35,355.4,35z"/>
	<path d="M428.5,319.1c-2.3,0-4.6-0.9-6.4-2.6l-33.6-33.6c-10.8,2.8-21.9,4.2-33.1,4.2h-22.7c-72,0-130.6-58.6-130.6-130.6
		S260.7,26,332.7,26h22.7c72,0,130.6,58.6,130.6,130.6c0,20.9-4.8,40.8-14.2,59.3c-8.3,16.3-20.1,30.8-34.3,42.3v52
		c0,3.6-2.2,6.9-5.5,8.3C430.8,318.9,429.7,319.1,428.5,319.1z M391.2,263.9c2.3,0,4.6,0.9,6.4,2.6l22,22v-34.7
		c0-2.8,1.3-5.5,3.6-7.2c28.6-21.5,44.9-54.3,44.9-90C468,94.5,417.5,44,355.4,44h-22.7c-62.1,0-112.6,50.5-112.6,112.6
		s50.5,112.6,112.6,112.6h22.7c11.3,0,22.4-1.7,33.1-5C389.4,264,390.3,263.9,391.2,263.9z"/>
	<path d="M346.6,193.8c-5,0-9-4-9-9v-21.6c0-8,5.5-14.9,13.4-16.7c9.7-2.2,16.3-11,15.6-21c-0.7-9.9-8.7-17.9-18.6-18.6
		c-5.7-0.4-11,1.5-15.1,5.3c-4.1,3.8-6.4,9.1-6.4,14.7c0,5-4,9-9,9c-5,0-9-4-9-9c0-10.5,4.4-20.6,12.1-27.8
		c7.8-7.3,18-10.9,28.6-10.1c18.8,1.3,34,16.5,35.3,35.3c1.3,18.7-10.9,35.3-29,39.6v20.9C355.5,189.8,351.5,193.8,346.6,193.8z"/>
	<path d="M346.6,229.3c-2.4,0-4.7-1-6.4-2.6c-1.7-1.7-2.6-4-2.6-6.4c0-2.4,1-4.7,2.6-6.4c1.7-1.7,4-2.6,6.4-2.6c2.4,0,4.7,1,6.4,2.6
		c1.7,1.7,2.6,4,2.6,6.4c0,2.4-1,4.7-2.6,6.4C351.2,228.4,348.9,229.3,346.6,229.3z"/>
	<path d="M273.1,322.5H83.5c-5,0-9-4-9-9s4-9,9-9h189.6c5,0,9,4,9,9S278,322.5,273.1,322.5z"/>
	<path d="M273.1,372.8c-2.4,0-4.7-1-6.4-2.6s-2.6-4-2.6-6.4s1-4.7,2.6-6.4c1.7-1.7,4-2.6,6.4-2.6s4.7,1,6.4,2.6
		c1.7,1.7,2.6,4,2.6,6.4c0,2.4-1,4.7-2.6,6.4C277.8,371.8,275.4,372.8,273.1,372.8z"/>
	<path d="M237.7,372.8H83.5c-5,0-9-4-9-9s4-9,9-9h154.2c5,0,9,4,9,9S242.7,372.8,237.7,372.8z"/>
	<path d="M214.7,272.2H83.5c-5,0-9-4-9-9s4-9,9-9h131.2c5,0,9,4,9,9S219.6,272.2,214.7,272.2z"/>
</g>
</svg>
