<?xml version="1.0" encoding="utf-8"?>
<!-- Generator: Adobe Illustrator 24.0.1, SVG Export Plug-In . SVG Version: 6.00 Build 0)  -->
<svg version="1.1" id="Layer_1" xmlns="http://www.w3.org/2000/svg" xmlns:xlink="http://www.w3.org/1999/xlink" x="0px" y="0px"
	 viewBox="0 0 768 768" style="enable-background:new 0 0 768 768;" xml:space="preserve">
<style type="text/css">
	.st0{fill:#00AEEF;}
	.st1{fill:#2BB673;}
	.st2{fill:#FDCC9B;}
	.st3{fill:#FCBC85;}
	.st4{fill:#3B2519;}
	.st5{fill:#FFFFFF;}
	.st6{fill:#51362A;}
	.st7{fill:#F7945E;}
	.st8{fill:#F7941E;}
	.st9{fill:#F36C21;}
	.st10{clip-path:url(#SVGID_2_);fill:#330C00;}
	.st11{fill:#00B497;}
	.st12{fill:#684B37;}
	.st13{fill:#F9AA8D;}
	.st14{fill:#8FD6E7;}
	.st15{fill:#F6B1CF;}
	.st16{fill:#F283B4;}
	.st17{fill:#3ABDAA;}
	.st18{fill:#401900;}
	.st19{fill:#E6E9ED;}
	.st20{fill:#B4DD7F;}
	.st21{fill:#CCD1D9;}
	.st22{fill:#FCD770;}
	.st23{fill:#B27946;}
	.st24{fill:#8CC152;}
	.st25{fill:#F0D0B4;}
	.st26{fill:#FF826E;}
	.st27{fill:#FE6663;}
	.st28{fill:#FFCDAC;}
	.st29{fill:#A5DDFF;}
	.st30{fill:#333333;}
	.st31{fill:#F9BA48;}
	.st32{fill:#FFBC53;}
	.st33{fill:#9AD8FF;}
	.st34{fill:#EFDAD0;}
	.st35{fill:#D1AFA1;}
	.st36{fill:#D1D3D4;}
	.st37{opacity:0.2;fill:#414042;}
	.st38{fill:#455F78;}
	.st39{fill:#F1F2F2;}
	.st40{fill:#603913;}
	.st41{fill:#EACFC2;}
	.st42{fill:#513939;}
	.st43{opacity:0.2;fill:#231F20;}
	.st44{fill:#D40101;}
</style>
<g>
	<path class="st1" d="M384,34.1L384,34.1C384,34.1,384,34.1,384,34.1z"/>
	<path class="st44" d="M691.9,506.2V367.7V247.3c0-29.9-16-57.5-41.8-72.5l-49.3-28.4L442.4,54.9l208.2,523.3
		C676.2,563.2,691.9,535.8,691.9,506.2z"/>
	<path class="st44" d="M159.3,150.9L118,174.8c-25.9,15-41.8,42.6-41.8,72.5v155.7v103.2c0,29.5,15.5,56.7,40.8,71.8
		c0.4,0.2,0.7,0.4,1.1,0.6l0,0l212-526.2L159.3,150.9z"/>
	<path class="st44" d="M262.9,565.7l-31.5,78.4l54.8,31.6l55.9,32.3c25.9,15,57.8,15,83.7,0l49.7-28.7l61.7-35.6l-30.5-78H262.9z"/>
	<polygon class="st44" points="313.1,439.2 456.6,439.2 385.7,257.7 	"/>
	<path class="st5" d="M384,34.1h-46.7l-7.4,18.3l12.2-7C355.1,37.9,369.5,34.1,384,34.1z"/>
	<path class="st5" d="M442.4,54.9l-8.3-20.8H384c14.4,0,28.9,3.7,41.8,11.2L442.4,54.9z"/>
	<path class="st5" d="M650,578.6c0.2-0.1,0.4-0.2,0.6-0.4L442.4,54.9l-16.6-9.6c-12.9-7.5-27.4-11.2-41.8-11.2h0
		c-14.4,0-28.9,3.7-41.8,11.2l-12.2,7L118,578.6l113.5,65.5l31.5-78.4h243.8l30.5,78L642,583.3L650,578.6z M313.1,439.2l72.6-181.6
		l70.9,181.6H313.1z"/>
</g>
</svg>
