<?xml version="1.0" encoding="utf-8"?>
<!-- Generator: Adobe Illustrator 24.0.1, SVG Export Plug-In . SVG Version: 6.00 Build 0)  -->
<svg version="1.1" id="Capa_1" xmlns="http://www.w3.org/2000/svg" xmlns:xlink="http://www.w3.org/1999/xlink" x="0px" y="0px"
	 viewBox="0 0 512 512" style="enable-background:new 0 0 512 512;" xml:space="preserve">
<style type="text/css">
	.st0{fill:#DDB7A0;}
	.st1{fill:#D6A889;}
	.st2{fill:#CC9675;}
	.st3{fill:#333333;}
	.st4{fill:#F4FBFF;}
	.st5{fill:#E4F6FF;}
	.st6{fill:#E28086;}
	.st7{fill:#8FDDC1;}
	.st8{fill:#FFE07D;}
</style>
<g>
	<g>
		<path class="st0" d="M365.6,54.3H65.1c-14.8,0-26.8,12-26.8,26.8v396.6c0,14.8,12,26.8,26.8,26.8h300.5c14.8,0,26.8-12,26.8-26.8
			V81.1C392.5,66.3,380.5,54.3,365.6,54.3L365.6,54.3z"/>
	</g>
	<path class="st1" d="M365.6,54.3h-63.3c14.8,0,26.8,12,26.8,26.8v396.6c0,14.8-12,26.8-26.8,26.8h63.3c14.8,0,26.8-12,26.8-26.8
		V81.1C392.5,66.3,380.5,54.3,365.6,54.3L365.6,54.3z"/>
	<path class="st2" d="M392.5,81.1c0-14.8-12-26.8-26.8-26.8H65.1c-14.8,0-26.8,12-26.8,26.8V153c0,10.6,4.6,20.6,12.6,27.5
		l13.2,11.3c8.4,7.2,19.1,11.2,30.2,11.2h242.3c11.1,0,21.8-4,30.2-11.2l13.2-11.3c8-6.9,12.6-16.9,12.6-27.5V81.1z"/>
	<path class="st3" d="M336.5,207.6H94.2c-12.1,0-23.9-4.4-33.1-12.3L48,184c-9-7.8-14.2-19-14.2-30.9V81.1c0-17.3,14-31.3,31.3-31.3
		h300.5c17.3,0,31.3,14,31.3,31.3V153c0,11.9-5.2,23.2-14.2,30.9l-13.2,11.3C360.4,203.2,348.7,207.6,336.5,207.6z M65.1,58.8
		c-12.3,0-22.3,10-22.3,22.3V153c0,9.3,4,18.1,11.1,24.1L67,188.5c7.6,6.5,17.2,10.1,27.2,10.1h242.3c10,0,19.7-3.6,27.2-10.1
		l13.2-11.3c7-6.1,11.1-14.8,11.1-24.1V81.1c0-12.3-10-22.3-22.3-22.3H65.1z"/>
	<g>
		<path class="st3" d="M365.6,509H65.1c-17.3,0-31.3-14-31.3-31.3V81.1c0-17.3,14-31.3,31.3-31.3h300.5c17.3,0,31.3,14,31.3,31.3
			v396.6C397,495,382.9,509,365.6,509z M65.1,58.8c-12.3,0-22.3,10-22.3,22.3v396.6c0,12.3,10,22.3,22.3,22.3h300.5
			c12.3,0,22.3-10,22.3-22.3V81.1c0-12.3-10-22.3-22.3-22.3v0H65.1z"/>
	</g>
	<path class="st4" d="M376.8,7.5H146.4c-14.8,0-26.8,12-26.8,26.8v396.6c0,14.8,12,26.8,26.8,26.8h300.5c14.8,0,26.8-12,26.8-26.8
		V104.4c0-7.1-2.8-13.9-7.9-19l-70-70C390.8,10.3,383.9,7.5,376.8,7.5L376.8,7.5z"/>
	<g>
		<path class="st5" d="M465.8,85.4l-55.5-55.5v401c0,14.8-12,26.8-26.8,26.8h63.3c14.8,0,26.8-12,26.8-26.8V104.4
			C473.7,97.2,470.9,90.4,465.8,85.4L465.8,85.4z"/>
	</g>
	<path class="st6" d="M465.8,85.4l-70-70c-2.3-2.3-5-4.1-7.9-5.4v66.7c0,9.2,7.4,16.6,16.6,16.6h66.7
		C470,90.4,468.1,87.7,465.8,85.4z"/>
	<path class="st3" d="M471.3,97.8h-66.7c-11.6,0-21.1-9.5-21.1-21.1V9.9c0-1.5,0.8-3,2.1-3.8c1.3-0.8,2.9-0.9,4.3-0.3
		c3.4,1.6,6.5,3.7,9.2,6.4l70,70c2.7,2.7,4.8,5.7,6.4,9.2c0.6,1.4,0.5,3-0.3,4.3S472.8,97.8,471.3,97.8z M392.4,18.4v58.3
		c0,6.7,5.4,12.1,12.1,12.1h58.3c-0.1-0.1-0.1-0.1-0.2-0.2l-70-70C392.6,18.5,392.5,18.4,392.4,18.4z"/>
	<circle class="st6" cx="230.8" cy="130.9" r="65.8"/>
	<path class="st4" d="M230.8,146.4c-21,0-38.7,14-44.3,33.1c11.7,10.7,27.2,17.2,44.3,17.2s32.6-6.5,44.3-17.2
		C269.5,160.4,251.8,146.4,230.8,146.4L230.8,146.4z"/>
	<circle class="st4" cx="230.8" cy="129" r="23.3"/>
	<path class="st3" d="M428.6,142.2h-92.9c-1.9,0-3.5-1.6-3.5-3.5s1.6-3.5,3.5-3.5h92.9c1.9,0,3.5,1.6,3.5,3.5
		S430.5,142.2,428.6,142.2z"/>
	<path class="st3" d="M428.6,175.1h-92.9c-1.9,0-3.5-1.6-3.5-3.5s1.6-3.5,3.5-3.5h92.9c1.9,0,3.5,1.6,3.5,3.5
		S430.5,175.1,428.6,175.1z"/>
	<path class="st3" d="M428.6,267.1H156.8c-1.9,0-3.5-1.6-3.5-3.5s1.6-3.5,3.5-3.5h271.8c1.9,0,3.5,1.6,3.5,3.5
		S430.5,267.1,428.6,267.1z"/>
	<path class="st3" d="M428.6,301.9H156.8c-1.9,0-3.5-1.6-3.5-3.5s1.6-3.5,3.5-3.5h271.8c1.9,0,3.5,1.6,3.5,3.5
		S430.5,301.9,428.6,301.9z"/>
	<path class="st3" d="M428.6,336.7H156.8c-1.9,0-3.5-1.6-3.5-3.5s1.6-3.5,3.5-3.5h271.8c1.9,0,3.5,1.6,3.5,3.5
		S430.5,336.7,428.6,336.7z"/>
	<path class="st3" d="M296.6,371.5H156.8c-1.9,0-3.5-1.6-3.5-3.5s1.6-3.5,3.5-3.5h139.8c1.9,0,3.5,1.6,3.5,3.5
		S298.5,371.5,296.6,371.5z"/>
	<path class="st3" d="M446.9,462.2H146.4c-17.3,0-31.3-14-31.3-31.3V34.3C115,17,129.1,3,146.4,3h230.5c8.4,0,16.2,3.3,22.1,9.2
		l70,70c5.9,5.9,9.2,13.8,9.2,22.1v326.5C478.2,448.2,464.1,462.2,446.9,462.2z M146.4,12C134,12,124,22,124,34.3v396.6
		c0,12.3,10,22.3,22.3,22.3h300.5c12.3,0,22.3-10,22.3-22.3V104.4c0-6-2.3-11.6-6.5-15.8l-70-70c-4.2-4.2-9.8-6.5-15.8-6.5H146.4z"
		/>
	<path class="st3" d="M230.8,201.2c-38.7,0-70.3-31.5-70.3-70.3s31.5-70.3,70.3-70.3s70.3,31.5,70.3,70.3S269.6,201.2,230.8,201.2z
		 M230.8,69.7c-33.8,0-61.3,27.5-61.3,61.3s27.5,61.3,61.3,61.3s61.3-27.5,61.3-61.3S264.6,69.7,230.8,69.7z"/>
</g>
</svg>
