<?xml version="1.0" encoding="utf-8"?>
<!-- Generator: Adobe Illustrator 24.0.1, SVG Export Plug-In . SVG Version: 6.00 Build 0)  -->
<svg version="1.1" id="Capa_1" xmlns="http://www.w3.org/2000/svg" xmlns:xlink="http://www.w3.org/1999/xlink" x="0px" y="0px"
	 viewBox="0 0 512 512" style="enable-background:new 0 0 512 512;" xml:space="preserve">
<style type="text/css">
	.st0{fill:#DDB7A0;}
	.st1{fill:#D6A889;}
	.st2{fill:#CC9675;}
	.st3{fill:#333333;}
	.st4{fill:#F4FBFF;}
	.st5{fill:#E4F6FF;}
	.st6{fill:#E28086;}
	.st7{fill:#8FDDC1;}
	.st8{fill:#FFE07D;}
</style>
<g>
	<g>
		<path class="st4" d="M429.7,504.5H82.3c-11.7,0-21.2-9.5-21.2-21.2V28.7c0-11.7,9.5-21.2,21.2-21.2h347.4
			c11.7,0,21.2,9.5,21.2,21.2v454.6C450.9,495,441.4,504.5,429.7,504.5L429.7,504.5z"/>
	</g>
	<path class="st5" d="M429.7,7.5h-63.3c11.7,0,21.2,9.5,21.2,21.2v454.6c0,11.7-9.5,21.2-21.2,21.2h63.3c11.7,0,21.2-9.5,21.2-21.2
		V28.7C450.9,17,441.4,7.5,429.7,7.5L429.7,7.5z"/>
	<path class="st7" d="M231,7.5H82.3c-11.7,0-21.2,9.5-21.2,21.2v454.6c0,11.7,9.5,21.2,21.2,21.2H231V7.5z"/>
	<path class="st3" d="M231,509H82.3c-14.2,0-25.7-11.5-25.7-25.7V28.7C56.6,14.5,68.1,3,82.3,3H231c2.5,0,4.5,2,4.5,4.5v497
		C235.5,507,233.5,509,231,509z M82.3,12c-9.2,0-16.7,7.5-16.7,16.7v454.6c0,9.2,7.5,16.7,16.7,16.7h144.2V12H82.3z"/>
	<circle class="st6" cx="146.1" cy="116.1" r="52"/>
	<path class="st4" d="M146.1,128.4c-16.6,0-30.5,11-35,26.2c9.2,8.4,21.5,13.6,35,13.6c13.5,0,25.8-5.1,35-13.6
		C176.7,139.4,162.7,128.4,146.1,128.4z"/>
	<circle class="st4" cx="146.1" cy="114.6" r="18.4"/>
	<path class="st8" d="M189.6,277.7h-86.9c-4.8,0-8.7-3.9-8.7-8.7v-21.4c0-4.8,3.9-8.7,8.7-8.7h86.9c4.8,0,8.7,3.9,8.7,8.7V269
		C198.3,273.8,194.4,277.7,189.6,277.7z"/>
	<path class="st8" d="M189.6,357.2h-86.9c-4.8,0-8.7-3.9-8.7-8.7v-21.4c0-4.8,3.9-8.7,8.7-8.7h86.9c4.8,0,8.7,3.9,8.7,8.7v21.4
		C198.3,353.3,194.4,357.2,189.6,357.2z"/>
	<path class="st8" d="M189.6,436.7h-86.9c-4.8,0-8.7-3.9-8.7-8.7v-21.4c0-4.8,3.9-8.7,8.7-8.7h86.9c4.8,0,8.7,3.9,8.7,8.7V428
		C198.3,432.8,194.4,436.7,189.6,436.7z"/>
	<path class="st3" d="M310.2,93.7c4.5,0,8.8,1.3,12.5,3.8c3.4,2.3,8.1,1.4,10.4-2c2.3-3.4,1.4-8.1-2-10.4
		c-6.2-4.2-13.4-6.4-20.9-6.4c-20.6,0-37.4,16.8-37.4,37.4s16.8,37.4,37.4,37.4c8.3,0,15.7-2.7,21.4-7.8c1.1-1,2.2-2.1,3.2-3.3
		c2.7-3.2,2.2-7.9-0.9-10.6c-3.2-2.7-7.9-2.2-10.6,0.9c-0.5,0.6-1.1,1.2-1.7,1.7c-3,2.7-6.9,4-11.4,4c-12.4,0-22.4-10.1-22.4-22.4
		C287.8,103.7,297.8,93.7,310.2,93.7z"/>
	<path class="st3" d="M384.9,153.5L384.9,153.5c3.8,0,7.2-2.4,8.4-6.1l19.5-58.8c1.3-3.9-0.8-8.2-4.8-9.5c-3.9-1.3-8.2,0.8-9.5,4.8
		l-13.8,41.6l-14.5-41.9c-1.4-3.9-5.6-6-9.5-4.6c-3.9,1.4-6,5.6-4.6,9.5l20.5,59C377.8,151.2,381.2,153.5,384.9,153.5L384.9,153.5z"
		/>
	<g>
		<path class="st3" d="M429.7,509H82.3c-14.2,0-25.7-11.5-25.7-25.7V28.7C56.6,14.5,68.1,3,82.3,3h347.4c14.2,0,25.7,11.5,25.7,25.7
			v454.6C455.4,497.5,443.9,509,429.7,509z M82.3,12c-9.2,0-16.7,7.5-16.7,16.7v454.6c0,9.2,7.5,16.7,16.7,16.7h347.4
			c9.2,0,16.7-7.5,16.7-16.7V28.7c0-9.2-7.5-16.7-16.7-16.7H82.3z"/>
	</g>
	<path class="st3" d="M146.1,172.6c-31.1,0-56.5-25.3-56.5-56.5s25.3-56.5,56.5-56.5s56.5,25.3,56.5,56.5S177.3,172.6,146.1,172.6z
		 M146.1,68.6c-26.2,0-47.5,21.3-47.5,47.5c0,26.2,21.3,47.5,47.5,47.5c26.2,0,47.5-21.3,47.5-47.5
		C193.6,89.9,172.3,68.6,146.1,68.6z"/>
	<path class="st3" d="M189.6,282.2h-86.9c-7.3,0-13.2-5.9-13.2-13.2v-21.4c0-7.3,5.9-13.2,13.2-13.2h86.9c7.3,0,13.2,5.9,13.2,13.2
		V269c0,3.5-1.4,6.8-3.9,9.3C196.4,280.8,193.1,282.2,189.6,282.2z M102.7,243.4c-2.3,0-4.2,1.9-4.2,4.2V269c0,2.3,1.9,4.2,4.2,4.2
		h86.9c1.1,0,2.2-0.4,3-1.2c0.8-0.8,1.2-1.8,1.2-3v-21.4c0-2.3-1.9-4.2-4.2-4.2H102.7z"/>
	<path class="st3" d="M189.6,361.7h-86.9c-7.3,0-13.2-5.9-13.2-13.2v-21.4c0-7.3,5.9-13.2,13.2-13.2h86.9c7.3,0,13.2,5.9,13.2,13.2
		v21.4c0,3.5-1.4,6.8-3.9,9.3C196.4,360.4,193.1,361.7,189.6,361.7z M102.7,322.9c-2.3,0-4.2,1.9-4.2,4.2v21.4
		c0,2.3,1.9,4.2,4.2,4.2h86.9c1.1,0,2.2-0.4,3-1.2c0.8-0.8,1.2-1.8,1.2-3v-21.4c0-2.3-1.9-4.2-4.2-4.2H102.7z"/>
	<path class="st3" d="M189.6,441.2h-86.9c-7.3,0-13.2-5.9-13.2-13.2v-21.4c0-7.3,5.9-13.2,13.2-13.2h86.9c7.3,0,13.2,5.9,13.2,13.2
		V428c0,3.5-1.4,6.8-3.9,9.3C196.4,439.9,193.1,441.2,189.6,441.2z M102.7,402.4c-2.3,0-4.2,1.9-4.2,4.2V428c0,2.3,1.9,4.2,4.2,4.2
		h86.9c1.1,0,2.2-0.4,3-1.2c0.8-0.8,1.2-1.8,1.2-3v-21.4c0-2.3-1.9-4.2-4.2-4.2H102.7z"/>
	<path class="st3" d="M413.2,214.8H262.7c-2.5,0-4.5-2-4.5-4.5s2-4.5,4.5-4.5h150.5c2.5,0,4.5,2,4.5,4.5S415.7,214.8,413.2,214.8z"
		/>
	<path class="st3" d="M413.2,260.5H262.7c-2.5,0-4.5-2-4.5-4.5s2-4.5,4.5-4.5h150.5c2.5,0,4.5,2,4.5,4.5S415.7,260.5,413.2,260.5z"
		/>
	<path class="st3" d="M348.1,306.2h-85.4c-2.5,0-4.5-2-4.5-4.5s2-4.5,4.5-4.5h85.4c2.5,0,4.5,2,4.5,4.5S350.6,306.2,348.1,306.2z"/>
	<path class="st3" d="M413.2,351.9H262.7c-2.5,0-4.5-2-4.5-4.5s2-4.5,4.5-4.5h150.5c2.5,0,4.5,2,4.5,4.5S415.7,351.9,413.2,351.9z"
		/>
	<path class="st3" d="M413.2,397.5H262.7c-2.5,0-4.5-2-4.5-4.5s2-4.5,4.5-4.5h150.5c2.5,0,4.5,2,4.5,4.5S415.7,397.5,413.2,397.5z"
		/>
	<path class="st3" d="M348.1,443.2h-85.4c-2.5,0-4.5-2-4.5-4.5s2-4.5,4.5-4.5h85.4c2.5,0,4.5,2,4.5,4.5S350.6,443.2,348.1,443.2z"/>
</g>
</svg>
