<?xml version="1.0" encoding="utf-8"?>
<!-- Generator: Adobe Illustrator 24.0.1, SVG Export Plug-In . SVG Version: 6.00 Build 0)  -->
<svg version="1.1" id="Layer_1" xmlns="http://www.w3.org/2000/svg" xmlns:xlink="http://www.w3.org/1999/xlink" x="0px" y="0px"
	 viewBox="0 0 100 100" style="enable-background:new 0 0 100 100;" xml:space="preserve">
<style type="text/css">
	.st0{fill:#D40101;}
	.st1{fill:#FFFFFF;}
</style>
<circle class="st0" cx="50" cy="50" r="50"/>
<g>
	<path class="st1" d="M23.9,69.6v13.1c0,2.1,1.7,3.7,3.7,3.7h0.6c2.1,0,3.7-1.7,3.7-3.7V69.6h3.2v13.1c0,2.1,1.7,3.7,3.7,3.7h0.6
		c2.1,0,3.7-1.7,3.7-3.7V69.6h1.7c2.1,0,3.7-1.7,3.7-3.7l-0.7-3.2c2.5-0.7,1.8-1.9,1.8-1.9s-5.6-23.5-6-25.5c-0.4-2-2.4-2.4-2.4-2.4
		v0c-2.1,2-4.9,3.1-8,3.1c-3.1,0-5.9-1.2-8-3.1l0,0.2l0-0.2c0,0-2,0.4-2.4,2.4c-0.5,2-6.7,25.4-6.7,25.4s-0.9,1.4,2.5,2.1l-0.7,3.2
		c0,2.1,1.7,3.7,3.7,3.7H23.9z M23.9,69.6"/>
	<path class="st1" d="M25.4,31.3c1.9,2.1,4.7,3.4,7.8,3.4c3.1,0,5.8-1.3,7.8-3.4c1.8-1.9,2.8-4.4,2.8-7.2c0-5.8-4.7-10.6-10.6-10.6
		c-5.8,0-10.6,4.7-10.6,10.6C22.6,26.9,23.7,29.5,25.4,31.3L25.4,31.3z M25.4,31.3"/>
	<path class="st1" d="M77.5,32.7C77.5,32.7,77.5,32.7,77.5,32.7c-0.7,0.6-1.4,1.2-2.2,1.6c-1.8,1.1-3.8,1.7-6.1,1.7
		c-2.4,0-4.7-0.7-6.6-2c-0.6-0.4-1.1-0.8-1.6-1.3c0,0,0,0,0,0c0,0-0.1,0-0.1,0c-2.4,0-6.9,3.7-6.9,7.3v21.9c0,2,2,3.6,4.4,3.6
		c0.1,0,0.2,0,0.4,0c0,0.2,0,0.4,0.1,0.6c0,0.2-0.1,0.4-0.1,0.6v15.1c0,2.1,1.9,3.7,4.3,3.7h0.6c2.4,0,4.3-1.7,4.3-3.7V69.1h2.4V82
		c0,2.1,1.9,3.7,4.3,3.7h0.6c2.4,0,4.3-1.7,4.3-3.7V67c0-0.2,0-0.3-0.1-0.5c0.1-0.3,0.2-0.7,0.2-1c2.4,0,4.3-1.6,4.3-3.6V40
		C84,36.5,79.9,33,77.5,32.7L77.5,32.7z M77.5,32.7"/>
	<path class="st1" d="M62.7,32.4c1.8,1.5,4.1,2.3,6.6,2.3c2.5,0,4.8-0.9,6.6-2.3c2.4-1.9,4-4.9,4-8.2c0-5.8-4.7-10.6-10.6-10.6
		s-10.6,4.7-10.6,10.6C58.7,27.5,60.2,30.5,62.7,32.4L62.7,32.4z M62.7,32.4"/>
</g>
</svg>
