<?xml version="1.0" encoding="utf-8"?>
<!-- Generator: Adobe Illustrator 24.0.1, SVG Export Plug-In . SVG Version: 6.00 Build 0)  -->
<svg version="1.1" id="Layer_1" xmlns="http://www.w3.org/2000/svg" xmlns:xlink="http://www.w3.org/1999/xlink" x="0px" y="0px"
	 viewBox="0 0 100 100" style="enable-background:new 0 0 100 100;" xml:space="preserve">
<style type="text/css">
	.st0{fill:#D40101;}
	.st1{fill:#FFFFFF;}
</style>
<circle class="st0" cx="50" cy="50" r="50"/>
<g>
	<path class="st1" d="M41.4,52.7v-2.8c-1.6-1.1-3.1-2.3-4.4-3.9c-4,3.8-7.8,6.3-8.2,6.5l-0.4,0.2l-2.2-3.5l0.3-0.2
		c0,0,3.9-2.5,7.8-6.3c-3.6-5.2-5-10.5-5-10.7l-0.1-0.4l4-1l0.1,0.4c0,0,1.1,4.3,3.9,8.6c2.7-3.3,4.4-6.5,4.8-9.6H25.3v-4.5h9.3V23
		h4.3v2.5h9.3V30h-1.9c-0.4,4.2-2.6,8.5-6.3,13c0.5,0.6,1,1.1,1.5,1.6v-2.1c0-1.5,1.2-2.7,2.7-2.7h12.1V18.4c0-0.4-0.3-0.7-0.7-0.7
		H16.5c-0.4,0-0.7,0.3-0.7,0.7v39.1c0,0.4,0.3,0.7,0.7,0.7h24.9V52.7z M41.4,52.7"/>
	<path class="st1" d="M63.7,53.9L63.7,53.9c-0.4,1.5-0.8,3.4-1.2,4.8L61,64h5.5L65,58.7C64.6,57.2,64.1,55.3,63.7,53.9L63.7,53.9z
		 M63.7,53.9"/>
	<path class="st1" d="M83.5,41.9h-39c-0.4,0-0.7,0.3-0.7,0.7v39.1c0,0.4,0.3,0.7,0.7,0.7h39c0.4,0,0.7-0.3,0.7-0.7V42.6
		C84.2,42.2,83.9,41.9,83.5,41.9L83.5,41.9z M69.3,74.6l-1.9-6.4h-7.1l-1.8,6.4h-5.9l7.6-25h7.4l7.7,25H69.3z M69.3,74.6"/>
	<path class="st1" d="M33.4,59.8H28v9l4.5,4.4h10.1v-5.4h-9.1V59.8z M33.4,59.8"/>
</g>
</svg>
