<?xml version="1.0" encoding="utf-8"?>
<!-- Generator: Adobe Illustrator 24.0.1, SVG Export Plug-In . SVG Version: 6.00 Build 0)  -->
<svg version="1.1" id="Layer_1" xmlns="http://www.w3.org/2000/svg" xmlns:xlink="http://www.w3.org/1999/xlink" x="0px" y="0px"
	 viewBox="0 0 100 100" style="enable-background:new 0 0 100 100;" xml:space="preserve">
<style type="text/css">
	.st0{fill:#D40101;}
	.st1{fill:#FFFFFF;}
</style>
<circle class="st0" cx="50" cy="50" r="50"/>
<g>
	<path class="st1" d="M74.1,81.5h-7.2v-5.1h3.2c1.3,0,2.4-1.1,2.4-2.4c0-1.3-1.1-2.4-2.4-2.4h-3.2v-4.8h6.4c1.3,0,2.4-1.1,2.4-2.4
		c0-1.3-1.1-2.4-2.4-2.4h-6.4v-4.8h3.2c1.3,0,2.4-1.1,2.4-2.4c0-1.3-1.1-2.4-2.4-2.4h-3.2v-4.8h6.4c1.3,0,2.4-1.1,2.4-2.4
		c0-1.3-1.1-2.4-2.4-2.4h-6.4v-4.8h3.2c1.3,0,2.4-1.1,2.4-2.4c0-1.3-1.1-2.4-2.4-2.4h-3.2v-4.8h6.4c1.3,0,2.4-1.1,2.4-2.4
		s-1.1-2.4-2.4-2.4h-6.4v-4.8h3.2c1.3,0,2.4-1.1,2.4-2.4c0-1.3-1.1-2.4-2.4-2.4h-3.2v-2.4c0-1.3-1.1-2.4-2.4-2.4
		c-1.3,0-2.4,1.1-2.4,2.4v70.2h-8.7l1-16.4H36l1,16.4H25.9c-1.3,0-2.4,1.1-2.4,2.4v4.8c0,1.3,1.1,2.4,2.4,2.4c1.3,0,2.4-1.1,2.4-2.4
		v-2.4h43.4v2.4c0,1.3,1.1,2.4,2.4,2.4s2.4-1.1,2.4-2.4v-4.8C76.5,82.6,75.4,81.5,74.1,81.5z"/>
	<circle class="st1" cx="45.2" cy="24.1" r="7.2"/>
	<path class="st1" d="M35.6,60.3h19.3c1.3,0,2.4-1.1,2.4-2.4V41.8c0-3.5-1.5-6.6-3.9-8.8c-4.6,4.3-11.7,4.3-16.4,0
		c-2.4,2.2-3.9,5.3-3.9,8.8v16.1C33.2,59.2,34.2,60.3,35.6,60.3L35.6,60.3z"/>
</g>
</svg>
