<?xml version="1.0" encoding="utf-8"?>
<!-- Generator: Adobe Illustrator 24.0.1, SVG Export Plug-In . SVG Version: 6.00 Build 0)  -->
<svg version="1.1" id="Layer_1" xmlns="http://www.w3.org/2000/svg" xmlns:xlink="http://www.w3.org/1999/xlink" x="0px" y="0px"
	 viewBox="0 0 100 100" style="enable-background:new 0 0 100 100;" xml:space="preserve">
<style type="text/css">
	.st0{fill:#D40101;}
	.st1{fill:#FFFFFF;}
</style>
<circle class="st0" cx="50" cy="50" r="50"/>
<g>
	<g>
		<path class="st1" d="M75.1,14.9c-3.5-2.1-7.1-3.1-11.3-3.1c-4.9,0-9.8,1.5-14.5,2.9c-4.6,1.4-8.9,2.7-13.2,2.7c0,0,0,0,0,0
			c-2.9,0-5.5-0.6-7.9-1.8v-1.4c0-1.2-1-2.2-2.2-2.2c-1.2,0-2.2,1-2.2,2.2v2.8v30.4v38.7c0,1.2,1,2.2,2.2,2.2c1.2,0,2.2-1,2.2-2.2
			V50.8c2.5,1,5.1,1.4,7.9,1.4c4.9,0,9.8-1.5,14.5-2.9c4.6-1.4,8.9-2.7,13.2-2.7c3.3,0,6.2,0.8,9,2.4c0.7,0.4,1.6,0.4,2.3,0
			c0.7-0.4,1.1-1.1,1.1-1.9V16.9C76.2,16.1,75.8,15.3,75.1,14.9z M49.4,45.1c-4.6,1.4-8.9,2.7-13.2,2.7c-2.9,0-5.5-0.6-7.9-1.8V20.4
			c2.5,1,5.1,1.4,7.9,1.4c0,0,0,0,0,0c4.9,0,9.8-1.5,14.5-2.9c4.6-1.4,8.9-2.7,13.2-2.7c2.9,0,5.5,0.6,7.9,1.8v25.5
			c-2.5-1-5.1-1.4-7.9-1.4C58.9,42.2,54,43.7,49.4,45.1z"/>
	</g>
</g>
</svg>
