<?xml version="1.0" encoding="utf-8"?>
<!-- Generator: Adobe Illustrator 24.0.1, SVG Export Plug-In . SVG Version: 6.00 Build 0)  -->
<svg version="1.1" id="Layer_1" xmlns="http://www.w3.org/2000/svg" xmlns:xlink="http://www.w3.org/1999/xlink" x="0px" y="0px"
	 viewBox="0 0 100 100" style="enable-background:new 0 0 100 100;" xml:space="preserve">
<style type="text/css">
	.st0{fill:#D40101;}
	.st1{fill:#FFFFFF;}
</style>
<circle class="st0" cx="50" cy="50" r="50"/>
<g>
	<g>
		<g>
			<path class="st1" d="M50,9.2c-11.9,0-21.6,9.7-21.6,21.6S38.1,52.5,50,52.5s21.6-9.7,21.6-21.6S61.9,9.2,50,9.2z"/>
		</g>
	</g>
	<g>
		<g>
			<path class="st1" d="M87.2,69.8c-0.6-1.4-1.3-2.7-2.2-4c-4.3-6.4-11.1-10.7-18.6-11.7c-0.9-0.1-2,0.1-2.7,0.7
				c-4,2.9-8.7,4.4-13.6,4.4s-9.6-1.5-13.6-4.4c-0.8-0.6-1.8-0.9-2.7-0.7c-7.6,1-14.4,5.3-18.6,11.7c-0.9,1.2-1.6,2.6-2.2,4
				c-0.3,0.6-0.2,1.2,0.1,1.8c0.8,1.3,1.7,2.6,2.6,3.8c1.3,1.8,2.7,3.4,4.3,4.9c1.3,1.3,2.8,2.6,4.3,3.8c7.5,5.6,16.4,8.5,25.7,8.5
				s18.2-2.9,25.7-8.5c1.5-1.1,3-2.5,4.3-3.8c1.5-1.5,3-3.1,4.3-4.9c0.9-1.2,1.8-2.5,2.6-3.8C87.3,71,87.4,70.3,87.2,69.8z"/>
		</g>
	</g>
</g>
</svg>
