<?xml version="1.0" encoding="utf-8"?>
<!-- Generator: Adobe Illustrator 24.0.1, SVG Export Plug-In . SVG Version: 6.00 Build 0)  -->
<svg version="1.1" id="Layer_1" xmlns="http://www.w3.org/2000/svg" xmlns:xlink="http://www.w3.org/1999/xlink" x="0px" y="0px"
	 viewBox="0 0 100 100" style="enable-background:new 0 0 100 100;" xml:space="preserve">
<style type="text/css">
	.st0{fill:#D40101;}
	.st1{fill:#FFFFFF;}
</style>
<circle class="st0" cx="50" cy="50" r="50"/>
<g>
	<circle class="st0" cx="49.5" cy="39.8" r="10.2"/>
	<g>
		<path class="st1" d="M62.1,63c-0.6-0.1-1,0.3-1.1,0.9c-0.1,0.6,0.3,1,0.9,1.1C72.4,66.2,78,69.6,78,71.5c0,2.7-10.6,6.5-28,6.5
			c-17.3,0-28-3.8-28-6.5c0-1.9,5.6-5.3,16.1-6.5c0.6-0.1,0.9-0.6,0.9-1.1c-0.1-0.5-0.6-0.9-1.1-0.9C27.4,64.2,20,67.7,20,71.5
			c0,4.2,10.3,8.5,30,8.5s30-4.3,30-8.5C80,67.7,72.6,64.2,62.1,63L62.1,63z M62.1,63"/>
		<path class="st1" d="M49.8,74.8l15.3-22.2c5.8-7.7,4.9-20.3-1.8-27C59.8,22,54.9,20,49.8,20c-5.1,0-9.9,2-13.6,5.6
			c-6.7,6.7-7.5,19.3-1.8,27L49.8,74.8z M50,32c3.9,0,7,3.1,7,7c0,3.9-3.1,7-7,7s-7-3.1-7-7C43,35.1,46.1,32,50,32L50,32z M50,32"/>
	</g>
</g>
</svg>
