<?xml version="1.0" encoding="utf-8"?>
<!-- Generator: Adobe Illustrator 24.0.1, SVG Export Plug-In . SVG Version: 6.00 Build 0)  -->
<svg version="1.1" id="Layer_1" xmlns="http://www.w3.org/2000/svg" xmlns:xlink="http://www.w3.org/1999/xlink" x="0px" y="0px"
	 viewBox="0 0 100 100" style="enable-background:new 0 0 100 100;" xml:space="preserve">
<style type="text/css">
	.st0{fill:#D40101;}
	.st1{fill:#FFFFFF;}
</style>
<circle class="st0" cx="50" cy="50" r="50"/>
<g>
	<rect x="44.3" y="51.9" class="st1" width="11.3" height="3.8"/>
	<path class="st1" d="M70.1,55.7H59.5v1.9c0,1-0.8,1.9-1.9,1.9H42.4c-1,0-1.9-0.8-1.9-1.9v-1.9H29.9c-2.4,0-4.6-1.6-5.4-3.9
		l-6.8-20.4v41.3c0,3.1,2.5,5.7,5.7,5.7h53.2c3.1,0,5.7-2.5,5.7-5.7V31.4l-6.8,20.4C74.7,54.1,72.5,55.7,70.1,55.7L70.1,55.7z
		 M70.1,55.7"/>
	<path class="st1" d="M57.6,21.6H42.4c-3.1,0-5.7,2.5-5.7,5.7v1.9H21l7.1,21.4c0.3,0.8,1,1.3,1.8,1.3h10.6V50c0-1,0.8-1.9,1.9-1.9
		h15.1c1,0,1.9,0.8,1.9,1.9v1.9h10.6c0.8,0,1.5-0.5,1.8-1.3L79,29.2H63.2v-1.9C63.2,24.2,60.7,21.6,57.6,21.6L57.6,21.6z M40.5,29.2
		v-1.9c0-1,0.8-1.9,1.9-1.9h15.1c1,0,1.9,0.8,1.9,1.9v1.9H40.5z M40.5,29.2"/>
</g>
</svg>
