<?xml version="1.0" encoding="utf-8"?>
<!-- Generator: Adobe Illustrator 24.0.1, SVG Export Plug-In . SVG Version: 6.00 Build 0)  -->
<svg version="1.1" id="Layer_1" xmlns="http://www.w3.org/2000/svg" xmlns:xlink="http://www.w3.org/1999/xlink" x="0px" y="0px"
	 viewBox="0 0 100 100" style="enable-background:new 0 0 100 100;" xml:space="preserve">
<style type="text/css">
	.st0{fill:#D40101;}
	.st1{fill:#FFFFFF;}
</style>
<circle class="st0" cx="50" cy="50" r="50"/>
<g>
	<path class="st1" d="M46,39.3v-1.3c0-0.7-0.6-1.3-1.3-1.3c-0.7,0-1.3,0.6-1.3,1.3v1.3c0,0.7,0.6,1.3,1.3,1.3
		C45.4,40.6,46,40,46,39.3L46,39.3z M46,39.3"/>
	<path class="st1" d="M55.4,40.6c0.7,0,1.3-0.6,1.3-1.3v-1.3c0-0.7-0.6-1.3-1.3-1.3c-0.7,0-1.3,0.6-1.3,1.3v1.3
		C54,40,54.6,40.6,55.4,40.6L55.4,40.6z M55.4,40.6"/>
	<path class="st1" d="M50,50.6c1.5,0,3-0.2,4.4-0.7c0.7-0.2,1.1-1,0.8-1.7c-0.2-0.7-1-1.1-1.7-0.8c-2.3,0.8-4.9,0.8-7.2,0
		c-0.7-0.2-1.5,0.1-1.7,0.8c-0.2,0.7,0.1,1.5,0.8,1.7C47,50.4,48.5,50.6,50,50.6L50,50.6z M50,50.6"/>
	<path class="st1" d="M49.1,45.6c0.5,0.5,1.4,0.5,1.9,0c0.5-0.5,0.5-1.4,0-1.9l-0.8-0.8l1.1-3.2c0.2-0.7-0.1-1.5-0.8-1.7
		c-0.7-0.2-1.5,0.1-1.7,0.8l-1.3,4c-0.2,0.5,0,1,0.3,1.4L49.1,45.6z M49.1,45.6"/>
	<path class="st1" d="M23.2,88.8h53.6c0.7,0,1.3-0.6,1.3-1.3V70.1c0-5.2-4.2-9.4-9.4-9.4H56.7v-4.3c4.9-2.5,8-7.6,8-13.1v-0.1
		c3.1-0.6,5.4-3.4,5.4-6.6v-4.2c0-1.1-0.4-2.1-1.2-2.8L67.4,28c0-0.1,0-0.3,0-0.4c0-0.1,0-0.2,0-0.3c0,0,0,0,0,0
		c-0.2-2.7-1-5.3-2.4-7.6l0-0.1c-0.3-0.5-0.6-0.9-0.9-1.4c0,0-0.1-0.1-0.1-0.1c-0.3-0.4-0.6-0.8-1-1.2c-0.1-0.1-0.1-0.1-0.2-0.2
		c-0.3-0.3-0.7-0.7-1-1c-0.1-0.1-0.2-0.2-0.3-0.2c-0.3-0.3-0.7-0.6-1.1-0.8c-0.1-0.1-0.2-0.2-0.3-0.2c-0.4-0.3-0.7-0.5-1.1-0.7
		c-0.1-0.1-0.2-0.1-0.4-0.2c-0.4-0.2-0.8-0.4-1.2-0.6c-0.1,0-0.2-0.1-0.2-0.1c0,0,0,0,0,0C51.5,10.2,45,10.8,40,14.4c0,0,0,0-0.1,0
		c-0.1,0-0.1,0.1-0.2,0.2c-0.4,0.3-0.8,0.6-1.2,1c-0.1,0.1-0.2,0.2-0.3,0.3c-0.4,0.4-0.8,0.8-1.2,1.3c0,0,0,0-0.1,0.1
		c-0.9,1-1.6,2-2.2,3.2c0,0.1-0.1,0.1-0.1,0.2c-0.3,0.5-0.5,1-0.7,1.5c0,0.1-0.1,0.2-0.1,0.3c-0.2,0.5-0.4,1-0.5,1.5
		c0,0.1-0.1,0.3-0.1,0.4c-0.1,0.5-0.2,1-0.3,1.5c0,0.1-0.1,0.3-0.1,0.4c-0.1,0.6-0.2,1.3-0.2,1.9l-1.5,1.5c-0.8,0.8-1.2,1.8-1.2,2.8
		v4.2c0,3.2,2.2,5.9,5.4,6.6v0.1c0,5.5,3.1,10.6,8,13.1v4.3H31.3c-0.9,0-1.9,0.1-2.8,0.4l0,0c-0.4,0.1-0.8,0.3-1.2,0.5
		c-0.1,0.1-0.2,0.1-0.3,0.2c-0.3,0.2-0.6,0.4-1,0.6c-0.2,0.1-0.3,0.2-0.5,0.3c-0.2,0.1-0.3,0.3-0.5,0.4c-0.2,0.2-0.5,0.5-0.7,0.7
		c-0.1,0.1-0.3,0.3-0.4,0.4c-0.1,0.2-0.3,0.3-0.4,0.5c-0.2,0.3-0.3,0.5-0.5,0.8c-0.1,0.2-0.2,0.3-0.3,0.5c-0.1,0.2-0.2,0.5-0.3,0.8
		c0,0.1-0.1,0.3-0.1,0.4c-0.1,0.4-0.2,0.8-0.3,1.2c0,0.1,0,0.2,0,0.3c-0.1,0.4-0.1,0.9-0.1,1.3v17.4C21.9,88.2,22.5,88.8,23.2,88.8
		L23.2,88.8z M43.3,86.2h-8v-6.7h2.6c0.8,0,1.4,0.6,1.4,1.4c0,1.4,1.2,2.6,2.6,2.6h0.7c0.4,0,0.7,0.3,0.7,0.7V86.2z M53.2,63.4
		L50,69.8l-3.2-6.4H53.2z M46,60.7v-3.3c2.6,0.8,5.4,0.8,8,0v3.3H46z M64.7,76.8v5.4h-2.7c0-1.5-1.2-2.7-2.7-2.7h-2
		c-0.4,0-0.7-0.3-0.7-0.7c0-0.4,0.3-0.7,0.7-0.7c1.8,0,3.3-1.5,3.3-3.3c0-0.4,0.3-0.7,0.7-0.7h3.3V76.8z M75.4,86.2h-8v-2.7h8V86.2z
		 M75.4,80.8h-8v-2.7h8V80.8z M68.7,63.4c0.4,0,0.9,0,1.3,0.1c0.1,0,0.3,0.1,0.4,0.1c0.3,0.1,0.5,0.1,0.8,0.2
		c0.1,0.1,0.3,0.1,0.4,0.2c0.2,0.1,0.5,0.2,0.7,0.4c0.1,0.1,0.3,0.2,0.4,0.3c0.2,0.1,0.4,0.3,0.6,0.5c0.1,0.1,0.2,0.2,0.3,0.3
		c0.2,0.2,0.3,0.4,0.5,0.6c0.1,0.1,0.2,0.2,0.3,0.4c0.1,0.2,0.3,0.5,0.4,0.7c0.1,0.1,0.1,0.2,0.2,0.4c0.1,0.4,0.3,0.7,0.3,1.1
		c0,0,0,0,0,0.1h-2.6c0-1.5-1.2-2.7-2.7-2.7h-1.3c-0.7,0-1.3-0.6-1.3-1.3C67.4,64,68,63.4,68.7,63.4L68.7,63.4z M65,63.4
		c-0.2,0.4-0.2,0.9-0.2,1.3c0,2.2,1.8,4,4,4h1.3c0,1.5,1.2,2.7,2.7,2.7h2.7v4h-8v-4h-6c-1.8,0-3.3,1.5-3.3,3.3
		c0,0.4-0.3,0.7-0.7,0.7c-1.8,0-3.3,1.5-3.3,3.3c0,1.8,1.5,3.3,3.3,3.3h2c0,1.5,1.2,2.7,2.7,2.7h2.7v1.3H51.3V73.6l10-5
		c0.4-0.2,0.7-0.6,0.7-1c0.1-0.4-0.1-0.9-0.4-1.2l-3.1-3.1H65z M58.5,67L53,69.8l2.7-5.5L58.5,67z M67.4,36.6c0,1.7-1.1,3.2-2.7,3.8
		v-4.5l2.7,0.6V36.6z M64.8,28.9c0,0.1,0,0.1,0,0.2c0.1,0.2,0.2,0.3,0.3,0.4l1.9,1.9c0.3,0.3,0.4,0.6,0.4,0.9v1.3l-5.7-1.2
		c-0.7-0.2-1.4-0.3-2.1-0.4l0.8-0.4c0.9-0.4,1.5-1.1,2-2c0.3-0.6,0.9-1,1.6-1l0.8,0C64.7,28.8,64.8,28.9,64.8,28.9L64.8,28.9z
		 M54,16.5h0.7c0.9,0,1.7-0.3,2.3-0.9c0.6,0.3,1.2,0.7,1.8,1.1c0.1,0,0.1,0.1,0.2,0.1c1.1,0.9,2.2,1.9,3,3.1l0,0
		c0.4,0.6,0.8,1.2,1.1,1.9H58c0-1.5-1.2-2.7-2.7-2.7H54c-0.7,0-1.3-0.6-1.3-1.3C52.7,17.1,53.3,16.5,54,16.5L54,16.5z M35.3,27.8
		c0-0.3,0-0.6,0.1-0.9c0-0.2,0.1-0.4,0.1-0.5c0.1-0.3,0.1-0.7,0.2-1c0-0.1,0.1-0.3,0.1-0.4c0.1-0.4,0.2-0.7,0.3-1.1
		c0-0.1,0.1-0.2,0.1-0.3c0.1-0.4,0.3-0.8,0.5-1.1c0-0.1,0.1-0.2,0.1-0.3c0.2-0.4,0.4-0.7,0.6-1.1c0-0.1,0.1-0.2,0.1-0.2
		c0.2-0.4,0.5-0.7,0.7-1c0.1-0.1,0.1-0.1,0.2-0.2c0.3-0.4,0.6-0.7,0.9-1c0,0,0.1-0.1,0.1-0.1c0.4-0.4,0.7-0.7,1.1-1.1
		c0,0.1,0.1,0.3,0.1,0.4c0,2.1,1.7,3.8,3.9,3.9h0.2c0.7,0,1.3,0.6,1.3,1.3c0,0.7-0.6,1.3-1.3,1.3H44c-1.8,0-3.3,1.5-3.3,3.3
		c0,0.4-0.3,0.7-0.7,0.7h-4.7C35.3,28.1,35.3,27.9,35.3,27.8L35.3,27.8z M32.6,32.4c0-0.4,0.1-0.7,0.4-0.9l0.5-0.5H40
		c1.8,0,3.3-1.5,3.3-3.3c0-0.4,0.3-0.7,0.7-0.7h0.7c2.2,0,4-1.8,4-4c0-2.2-1.8-4-4-4h-0.2c-0.6,0-1.2-0.5-1.2-1.2
		c0-0.7-0.2-1.4-0.5-1.9c3-1.7,6.5-2.3,9.9-1.7c-1.8,0.7-2.9,2.5-2.6,4.5c0.3,1.9,2,3.3,4,3.3h1.3c0,1.5,1.2,2.7,2.7,2.7h6.1
		c0.1,0.5,0.2,0.9,0.3,1.4l-0.4,0c-1.7-0.1-3.3,0.9-4.1,2.4c-0.2,0.3-0.4,0.6-0.8,0.8l-4.4,2.2c-1.6-0.1-3.2-0.2-4.8-0.2
		c-3.9,0-7.9,0.4-11.7,1.2l-5.7,1.2V32.4z M35.3,40.4c-1.6-0.6-2.7-2.1-2.7-3.8v-0.1l2.7-0.6V40.4z M37.9,43.3v-8l0.9-0.2
		c7.3-1.6,14.9-1.6,22.3,0l0.9,0.2v8c0,6.7-5.4,12.1-12.1,12.1C43.3,55.4,37.9,50,37.9,43.3L37.9,43.3z M44.3,64.3l2.7,5.5L41.5,67
		L44.3,64.3z M24.7,68.9c0-0.1,0-0.2,0.1-0.3c0.1-0.3,0.2-0.7,0.3-1c0,0,0-0.1,0.1-0.1c0.3-0.8,0.8-1.5,1.4-2l0.1-0.1
		c0.3-0.3,0.6-0.5,0.9-0.8l0,0c0.3-0.2,0.6-0.4,1-0.5c0.6,0.5,1.3,0.7,2.1,0.7h0.7c0.7,0,1.3,0.6,1.3,1.3c0,0.7-0.6,1.3-1.3,1.3
		h-1.3c-1.5,0-2.7,1.2-2.7,2.7h-2.7C24.6,69.7,24.6,69.3,24.7,68.9L24.7,68.9z M24.6,72.8h2.7c1.5,0,2.7-1.2,2.7-2.7h1.3
		c1.6,0,3-0.9,3.7-2.4c0.6-1.5,0.4-3.1-0.7-4.3h7.2l-3.1,3.1c-0.3,0.3-0.4,0.7-0.4,1.2c0.1,0.4,0.3,0.8,0.7,1l10,5v12.6H46v-2
		c0-1.8-1.5-3.3-3.3-3.3L42,80.9c0-2.3-1.8-4.1-4.1-4.1h-2.6v-5.4h-2.7v4h-8V72.8z M24.6,78.1h8v2.7h-8V78.1z M24.6,83.5h8v2.7h-8
		V83.5z M24.6,83.5"/>
	<rect x="42" y="74.1" class="st1" width="2.7" height="2.7"/>
</g>
</svg>
