<?xml version="1.0" encoding="utf-8"?>
<!-- Generator: Adobe Illustrator 24.0.1, SVG Export Plug-In . SVG Version: 6.00 Build 0)  -->
<svg version="1.1" id="Layer_1" xmlns="http://www.w3.org/2000/svg" xmlns:xlink="http://www.w3.org/1999/xlink" x="0px" y="0px"
	 viewBox="0 0 100 100" style="enable-background:new 0 0 100 100;" xml:space="preserve">
<style type="text/css">
	.st0{fill:#D40101;}
	.st1{fill:#FFFFFF;}
</style>
<circle class="st0" cx="50" cy="50" r="50"/>
<g>
	<g>
		<g>
			<path class="st1" d="M50,33.6c3.6,0,6.6-2.9,6.6-6.6c0-1.2-0.3-2.4-0.9-3.4L50,13.8l-5.6,9.8c-0.6,1-0.9,2.2-0.9,3.4
				C43.4,30.6,46.3,33.6,50,33.6z"/>
			<path class="st1" d="M69.7,43.4L69.7,43.4H53.3v-6.6h-6.6v6.6H30.2c-5.4,0-9.9,4.4-9.9,9.9v5.1c0,3.6,2.9,6.4,6.4,6.4
				c1.7,0,3.3-0.7,4.6-1.9l7-7l7,7c2.4,2.4,6.7,2.4,9.1,0l7-7l7,7c1.2,1.2,2.8,1.9,4.6,1.9c3.6,0,6.4-2.9,6.4-6.4v-5
				C79.6,47.8,75.2,43.4,69.7,43.4z"/>
			<path class="st1" d="M65.1,66.4L65.1,66.4l-3.5-3.5L58,66.4c-4.3,4.3-11.8,4.3-16.1,0l-3.5-3.5l-3.6,3.5c-2.1,2.2-5,3.3-8,3.3
				c-2.4,0-4.6-0.8-6.4-2v15.2c0,1.8,1.5,3.3,3.3,3.3h52.6c1.8,0,3.3-1.5,3.3-3.3V67.7c-1.8,1.3-4,2-6.4,2
				C70.1,69.7,67.3,68.6,65.1,66.4z"/>
		</g>
	</g>
</g>
</svg>
