<?xml version="1.0" encoding="utf-8"?>
<!-- Generator: Adobe Illustrator 24.0.1, SVG Export Plug-In . SVG Version: 6.00 Build 0)  -->
<svg version="1.1" id="Layer_1" xmlns="http://www.w3.org/2000/svg" xmlns:xlink="http://www.w3.org/1999/xlink" x="0px" y="0px"
	 viewBox="0 0 100 100" style="enable-background:new 0 0 100 100;" xml:space="preserve">
<style type="text/css">
	.st0{fill:#D40101;}
	.st1{fill:#FFFFFF;}
</style>
<circle class="st0" cx="50" cy="50" r="50"/>
<path class="st1" d="M79.4,80.2l-6.6-19.6c-1.6-4.8-6.1-8-11.1-8h-0.9c1.3-1.3,2-3,2-4.9c0-3.8-3.1-7-7-7H51v-4.9
	c0-2.3-0.8-4.5-2.3-6.2c2.8-1.6,4.7-4.6,4.7-8.1c0-5.2-4.2-9.4-9.4-9.4s-9.4,4.2-9.4,9.4c0,2.4,0.9,4.5,2.3,6.2
	c-2.3,1.3-4,3.5-4.5,6.2c-2-1.7-4.6-2.7-7.5-2.7h0c-1.2,0-2.2,1-2.2,2.2c0,1.2,1,2.2,2.2,2.2c4,0,7.3,3.3,7.3,7.3v4.7
	c-4.7,2.3-11.9,8.5-11.9,19.1c0,11.7,9.5,21.2,21.2,21.2c8.7,0,16.2-5.3,19.5-12.8l2.2,6.5c0.3,0.9,1.2,1.5,2.1,1.5h11.9
	c0.7,0,1.4-0.3,1.8-0.9C79.6,81.6,79.7,80.9,79.4,80.2L79.4,80.2z M44.1,16.6c2.7,0,4.9,2.2,4.9,4.9s-2.2,4.9-4.9,4.9
	c-2.7,0-4.9-2.2-4.9-4.9S41.3,16.6,44.1,16.6z M41.7,83.4c-9.3,0-16.8-7.5-16.8-16.8c0-7.2,4.3-12.4,8.9-14.8
	c1.3,1.7,3.3,2.8,5.6,2.8h14.1c3.2,3.2,5.1,7.5,5.1,12C58.5,75.9,50.9,83.4,41.7,83.4L41.7,83.4z M55.9,50.2H39.3
	c-1.4,0-2.5-1.1-2.5-2.5V35.7c0-2.7,2.2-4.9,4.9-4.9c2.7,0,4.9,2.2,4.9,4.9v4.9h-2.5c-1.2,0-2.2,1-2.2,2.2s1,2.2,2.2,2.2h11.9
	c1.4,0,2.5,1.1,2.5,2.5C58.5,49,57.3,50.2,55.9,50.2z M67.1,78.7l-4.1-12.4C62.9,63,62,59.8,60.6,57h1.2c3.1,0,5.9,2,6.9,5l5.6,16.7
	L67.1,78.7L67.1,78.7z"/>
</svg>
