<?xml version="1.0" encoding="utf-8"?>
<!-- Generator: Adobe Illustrator 24.0.1, SVG Export Plug-In . SVG Version: 6.00 Build 0)  -->
<svg version="1.1" id="Layer_1" xmlns="http://www.w3.org/2000/svg" xmlns:xlink="http://www.w3.org/1999/xlink" x="0px" y="0px"
	 viewBox="0 0 100 100" style="enable-background:new 0 0 100 100;" xml:space="preserve">
<style type="text/css">
	.st0{fill:#D40101;}
	.st1{fill:#FFFFFF;}
</style>
<circle class="st0" cx="50" cy="50" r="50"/>
<g>
	<g>
		<path class="st1" d="M66.9,9.8H33.1c-3.2,0-5.9,2.6-5.9,5.9v68.7c0,3.2,2.6,5.9,5.9,5.9h33.8c3.2,0,5.9-2.6,5.9-5.9V15.7
			C72.8,12.4,70.1,9.8,66.9,9.8L66.9,9.8z M41.7,13.4h16.7c0.4,0,0.8,0.6,0.8,1.4c0,0.8-0.3,1.4-0.8,1.4H41.7
			c-0.4,0-0.8-0.6-0.8-1.4C40.9,14,41.2,13.4,41.7,13.4L41.7,13.4z M50,84.4c-2.1,0-3.7-1.7-3.7-3.7c0-2.1,1.7-3.7,3.7-3.7
			c2,0,3.7,1.7,3.7,3.7C53.7,82.7,52.1,84.4,50,84.4L50,84.4z M68.4,71.6H31.6V19.7h36.7V71.6z M68.4,71.6"/>
	</g>
</g>
</svg>
