<?xml version="1.0" encoding="utf-8"?>
<!-- Generator: Adobe Illustrator 24.0.1, SVG Export Plug-In . SVG Version: 6.00 Build 0)  -->
<svg version="1.1" id="Layer_1" xmlns="http://www.w3.org/2000/svg" xmlns:xlink="http://www.w3.org/1999/xlink" x="0px" y="0px"
	 viewBox="0 0 100 100" style="enable-background:new 0 0 100 100;" xml:space="preserve">
<style type="text/css">
	.st0{fill:#D40101;}
	.st1{fill:#FFFFFF;}
</style>
<circle class="st0" cx="50" cy="50" r="50"/>
<g>
	<g>
		<path class="st1" d="M41.6,37.3v-1.2c-0.7-0.5-1.3-1-1.9-1.7c-1.7,1.7-3.4,2.7-3.6,2.8L36,37.3l-1-1.5l0.1-0.1
			c0,0,1.7-1.1,3.4-2.8c-1.6-2.3-2.2-4.6-2.2-4.7l0-0.2l1.7-0.4l0,0.2c0,0,0.5,1.9,1.7,3.8c1.2-1.5,1.9-2.8,2.1-4.2h-7.3v-2h4v-1.1
			h1.9v1.1h4v2h-0.8c-0.2,1.8-1.1,3.7-2.8,5.7c0.2,0.2,0.4,0.5,0.7,0.7v-0.9c0-0.6,0.5-1.2,1.2-1.2h5.3v-9.3c0-0.2-0.1-0.3-0.3-0.3
			h-17c-0.2,0-0.3,0.1-0.3,0.3v17c0,0.2,0.1,0.3,0.3,0.3h10.9V37.3z M41.6,37.3"/>
		<path class="st1" d="M51.3,37.8L51.3,37.8c-0.2,0.6-0.4,1.5-0.5,2.1l-0.6,2.3h2.4l-0.7-2.3C51.7,39.3,51.5,38.5,51.3,37.8
			L51.3,37.8z M51.3,37.8"/>
		<path class="st1" d="M60,32.6h-17c-0.2,0-0.3,0.1-0.3,0.3v17c0,0.2,0.1,0.3,0.3,0.3h17c0.2,0,0.3-0.1,0.3-0.3v-17
			C60.3,32.8,60.1,32.6,60,32.6L60,32.6z M53.8,46.9l-0.8-2.8h-3.1L49,46.9h-2.6L49.8,36H53l3.4,10.9H53.8z M53.8,46.9"/>
		<path class="st1" d="M38.1,40.4h-2.4v3.9l2,1.9h4.4v-2.4h-4V40.4z M38.1,40.4"/>
	</g>
	<g>
		<g>
			<path class="st1" d="M63.7,14H22.3v72h56.3V28.9L63.7,14z M76.5,83.9H24.4V16.1h38.4l13.6,13.6L76.5,83.9L76.5,83.9z"/>
		</g>
	</g>
	<g>
		<g>
			<polygon class="st1" points="64.3,28.3 64.3,20.1 62.2,20.1 62.2,30.4 72.5,30.4 72.5,28.3 			"/>
		</g>
	</g>
	<g>
		<g>
			<rect x="30.5" y="56.2" class="st1" width="39.9" height="2.1"/>
		</g>
	</g>
	<g>
		<g>
			<rect x="30.5" y="62.6" class="st1" width="39.9" height="2.1"/>
		</g>
	</g>
	<g>
		<g>
			<rect x="30.5" y="69" class="st1" width="15.7" height="2.1"/>
		</g>
	</g>
	<g>
		<g>
			<rect x="48.3" y="69" class="st1" width="2.1" height="2.1"/>
		</g>
	</g>
	<g>
		<g>
			<rect x="56.8" y="69" class="st1" width="2.1" height="2.1"/>
		</g>
	</g>
	<g>
		<g>
			<rect x="52.6" y="69" class="st1" width="2.1" height="2.1"/>
		</g>
	</g>
</g>
</svg>
