<?xml version="1.0" encoding="utf-8"?>
<!-- Generator: Adobe Illustrator 24.0.1, SVG Export Plug-In . SVG Version: 6.00 Build 0)  -->
<svg version="1.1" id="Layer_1" xmlns="http://www.w3.org/2000/svg" xmlns:xlink="http://www.w3.org/1999/xlink" x="0px" y="0px"
	 viewBox="0 0 100 100" style="enable-background:new 0 0 100 100;" xml:space="preserve">
<style type="text/css">
	.st0{fill:#D40101;}
	.st1{fill:#FFFFFF;}
</style>
<circle class="st0" cx="50" cy="50" r="50"/>
<g>
	<path class="st1" d="M74.9,41.1c-4.9,0-8.9,4-8.9,8.9c0,4.9,4,8.9,8.9,8.9c4.9,0,8.9-4,8.9-8.9C83.8,45.1,79.8,41.1,74.9,41.1
		L74.9,41.1z M77.9,51.5c0.4,0.4,0.4,1.1,0,1.5c-0.4,0.4-1.1,0.4-1.5,0l-1.5-1.5L73.4,53c-0.4,0.4-1.1,0.4-1.5,0
		c-0.4-0.4-0.4-1.1,0-1.5l1.5-1.5l-1.5-1.5c-0.4-0.4-0.4-1.1,0-1.5c0.4-0.4,1.1-0.4,1.5,0l1.5,1.5l1.5-1.5c0.4-0.4,1.1-0.4,1.5,0
		c0.4,0.4,0.4,1.1,0,1.5L76.4,50L77.9,51.5z M77.9,51.5"/>
	<path class="st1" d="M74.9,16.7c-4.9,0-8.9,4-8.9,8.9c0,4.9,4,8.9,8.9,8.9c4.9,0,8.9-4,8.9-8.9C83.8,20.7,79.8,16.7,74.9,16.7
		L74.9,16.7z M79.4,24.1l-4.9,4.5c-0.4,0.4-1.1,0.4-1.5-0.1l-2.6-2.8c-0.4-0.4-0.4-1.1,0.1-1.5c0.4-0.4,1.1-0.4,1.5,0l1.9,2l4.1-3.7
		c0.4-0.4,1.1-0.4,1.5,0.1C79.8,23,79.8,23.7,79.4,24.1L79.4,24.1z M79.4,24.1"/>
	<path class="st1" d="M74.9,65.6c-4.9,0-8.9,4-8.9,8.9s4,8.9,8.9,8.9c4.9,0,8.9-4,8.9-8.9C83.8,69.6,79.8,65.6,74.9,65.6L74.9,65.6z
		 M79.4,73l-4.9,4.5c-0.4,0.4-1.1,0.4-1.5-0.1l-2.6-2.8c-0.4-0.4-0.4-1.1,0.1-1.5c0.4-0.4,1.1-0.4,1.5,0.1l1.9,2l4.1-3.7
		c0.4-0.4,1.1-0.4,1.5,0.1C79.8,71.9,79.8,72.6,79.4,73L79.4,73z M79.4,73"/>
	<path class="st1" d="M57.5,25.3v23.6h-7l2.8-2.8c0.4-0.4,0.4-1.1,0-1.5c-0.4-0.4-1.1-0.4-1.5,0l-4.6,4.6c-0.4,0.4-0.4,1.1,0,1.5
		l4.6,4.6c0.4,0.4,1.1,0.4,1.5,0c0.4-0.4,0.4-1.1,0-1.5l-2.8-2.8h7v23.6c0,0.6,0.5,1.1,1.1,1.1h6.7v-2.1h-5.6V51.1h5v-2.1h-5V26.4
		h5.6v-2.1h-6.7C57.9,24.2,57.5,24.7,57.5,25.3L57.5,25.3z M57.5,25.3"/>
	<path class="st1" d="M30.9,38.8C24.6,39,19.6,44,19.4,50.3c-0.1,3,1.1,6,3.2,8.2c1.4,1.5,2.2,3.5,2.2,5.6h-0.1
		c-0.6,0-1.1,0.5-1.1,1.1c0,0.6,0.5,1.1,1.1,1.1h12.9c0.6,0,1.1-0.5,1.1-1.1c0-0.6-0.5-1.1-1.1-1.1h-0.3c0-2,0.7-3.9,2.3-5.5
		c2-2.2,3.2-5,3.2-8c0-3.1-1.3-6.1-3.5-8.3C37,40,34,38.8,30.9,38.8L30.9,38.8z M30.9,38.8"/>
	<path class="st1" d="M35,68.6h-7.9c-0.6,0-1.1,0.5-1.1,1.1c0,0.6,0.5,1.1,1.1,1.1H35c0.6,0,1.1-0.5,1.1-1.1
		C36.1,69,35.6,68.6,35,68.6L35,68.6z M35,68.6"/>
	<path class="st1" d="M30.8,35.8c0.6,0,1.1-0.5,1.1-1.1v-4.4c0-0.6-0.5-1.1-1.1-1.1c-0.6,0-1.1,0.5-1.1,1.1v4.4
		C29.7,35.4,30.2,35.8,30.8,35.8L30.8,35.8z M30.8,35.8"/>
	<g>
		<path class="st1" d="M44.1,35.6l-3.2,3c-0.4,0.4-0.4,1.1,0,1.5c0.4,0.4,1.1,0.4,1.5,0l3.2-3c0.4-0.4,0.4-1.1,0-1.5
			C45.2,35.3,44.5,35.2,44.1,35.6L44.1,35.6z M44.1,35.6"/>
		<path class="st1" d="M20.4,40.1c0.4,0,0.8-0.3,1-0.7c0.2-0.4,0.1-0.9-0.2-1.2l-3.1-3.1c-0.3-0.3-0.7-0.4-1-0.3
			c-0.4,0.1-0.7,0.4-0.8,0.8c-0.1,0.4,0,0.8,0.3,1l3.1,3.1C19.8,40,20.1,40.1,20.4,40.1L20.4,40.1z M20.4,40.1"/>
	</g>
</g>
</svg>
