<?xml version="1.0" encoding="utf-8"?>
<!-- Generator: Adobe Illustrator 24.0.1, SVG Export Plug-In . SVG Version: 6.00 Build 0)  -->
<svg version="1.1" id="Layer_1" xmlns="http://www.w3.org/2000/svg" xmlns:xlink="http://www.w3.org/1999/xlink" x="0px" y="0px"
	 viewBox="0 0 100 100" style="enable-background:new 0 0 100 100;" xml:space="preserve">
<style type="text/css">
	.st0{fill:#D40101;}
	.st1{fill:#FFFFFF;}
</style>
<circle class="st0" cx="50" cy="50" r="50"/>
<g>
	<path class="st1" d="M85.9,67.9c0,1.6-0.4,3-1.2,4.3L62.1,46.9l22.4-19.6c0.9,1.4,1.4,3,1.4,4.8V67.9z M50,51.5l31.2-27.3
		c-1.3-0.7-2.7-1.1-4.3-1.1H23.1c-1.6,0-3,0.4-4.3,1.1L50,51.5z M58.7,49.9l-7.2,6.3c-0.4,0.4-0.9,0.6-1.5,0.6
		c-0.5,0-1.1-0.2-1.5-0.6l-7.2-6.3L18.4,75.5c1.4,0.9,3,1.4,4.7,1.4h53.8c1.7,0,3.4-0.5,4.7-1.4L58.7,49.9z M15.5,27.3
		c-0.9,1.4-1.4,3-1.4,4.8v35.9c0,1.6,0.4,3,1.2,4.3l22.7-25.4L15.5,27.3z M15.5,27.3"/>
</g>
</svg>
