<?xml version="1.0" encoding="utf-8"?>
<!-- Generator: Adobe Illustrator 24.0.1, SVG Export Plug-In . SVG Version: 6.00 Build 0)  -->
<svg version="1.1" id="Layer_1" xmlns="http://www.w3.org/2000/svg" xmlns:xlink="http://www.w3.org/1999/xlink" x="0px" y="0px"
	 viewBox="0 0 100 100" style="enable-background:new 0 0 100 100;" xml:space="preserve">
<style type="text/css">
	.st0{fill:#D40101;}
	.st1{fill:#FFFFFF;}
</style>
<circle class="st0" cx="50" cy="50" r="50"/>
<g>
	<path class="st1" d="M55,64.9c-1.4,0.8-3.1,1.3-5,1.3c-1.8,0-3.6-0.5-5-1.3L22.6,51.2c0,0-2-1.2-2,1.6v13.7c0,7.2,13.2,15,29.4,15
		s29.4-7.8,29.4-15V52c0-2.3-1.4-1.2-1.4-1.2L55,64.9z M55,64.9"/>
	<path class="st1" d="M87.3,40.2c1.7-1.1,1.7-2.8,0-3.8L53.1,19.3c-1.7-1.1-4.5-1.1-6.3,0L12.7,36.4c-1.7,1.1-1.7,2.8,0,3.8l34.2,21
		c1.7,1.1,4.5,1.1,6.3,0"/>
	<path class="st1" d="M85.9,71.3V48.1c0,0,0-1.1-0.6-0.7c-0.5,0.3-1.8,1-2.3,1.4c-0.5,0.5-0.4,1.5-0.4,1.5v21c0,0.3-0.3,0.4-0.4,0.5
		c-1.2,0.7-2,2-2,3.4c0,2.2,1.8,4,4,4c2.2,0,4-1.8,4-4c0-1.5-0.8-2.8-2-3.5C86.1,71.7,85.9,71.6,85.9,71.3L85.9,71.3z M85.9,71.3"/>
</g>
</svg>
