<?xml version="1.0" encoding="utf-8"?>
<!-- Generator: Adobe Illustrator 24.0.1, SVG Export Plug-In . SVG Version: 6.00 Build 0)  -->
<svg version="1.1" id="Layer_1" xmlns="http://www.w3.org/2000/svg" xmlns:xlink="http://www.w3.org/1999/xlink" x="0px" y="0px"
	 viewBox="0 0 100 100" style="enable-background:new 0 0 100 100;" xml:space="preserve">
<style type="text/css">
	.st0{fill:#D40101;}
	.st1{fill:#FFFFFF;}
</style>
<circle class="st0" cx="50" cy="50" r="50"/>
<g>
	<path class="st1" d="M78.2,73.1L78.2,73.1L78.2,73.1l-3.4-4c-0.1-0.2-0.2-0.4-0.2-0.6l-0.5-7.5c-0.1-0.7-0.6-1.2-1.3-1.2
		c-0.7,0-1.3,0.5-1.3,1.2V61l-0.5,8.2c0,0,0,0.1,0,0.2v0.1c0,0.5,0.2,1,0.6,1.4c0.1,0.1,0.2,0.1,0.3,0.2l4.6,3.9
		c0.5,0.5,1.3,0.4,1.8-0.1C78.6,74.4,78.6,73.6,78.2,73.1L78.2,73.1z M78.2,73.1"/>
	<g>
		<path class="st1" d="M27.7,43.4c0.6,4,3.7,9,8.7,10.7c2,0.7,4.3,0.7,6.4,0c4.9-1.8,8.1-6.8,8.7-10.7c0.7,0,1.5-1,2.5-4.3
			c1.3-4.5-0.1-5.2-1.2-5.1c0.2-0.6,0.4-1.3,0.5-1.9c2-11.8-3.8-12.2-3.8-12.2s-1-1.8-3.5-3.2c-1.7-1-4-1.8-7.2-1.5
			c-1,0-2,0.2-2.9,0.5c-1.1,0.4-2.2,1-3.1,1.6c-1.2,0.7-2.3,1.6-3.2,2.7c-1.5,1.6-2.9,3.6-3.5,6.1c-0.5,1.9-0.4,3.9,0,6
			c0.1,0.6,0.3,1.2,0.5,1.9c-1.2-0.1-2.5,0.6-1.2,5.1C26.1,42.4,27,43.3,27.7,43.4L27.7,43.4z M27.7,43.4"/>
		<path class="st1" d="M57.9,57.4C53,55.4,49.5,53,49.5,53L45,67.1l-0.8,2.7l0,0L43.4,72l-2.3-6.7c5.8-8.1-1.2-8-1.6-8
			c-0.4,0-7.4-0.1-1.6,8L35.6,72l-0.7-2.3l0,0L34,67.1L29.5,53c0,0-5.7,4-12.8,5.8c-5.3,1.3-5.5,7.4-5.3,10.4c0,0,0.3,4.1,0.6,5.9
			c0,0,10.3,6.7,27.4,6.7c7,0,12.8-1.1,17.3-2.4c-1.9-3-3-6.5-3-10.2C53.8,64.7,55.3,60.6,57.9,57.4L57.9,57.4z M57.9,57.4"/>
		<path class="st1" d="M72.8,53.4c-8.7,0-15.8,7.1-15.8,15.8c0,8.7,7.1,15.8,15.8,15.8c8.7,0,15.8-7.1,15.8-15.8
			C88.6,60.5,81.5,53.4,72.8,53.4L72.8,53.4z M72.8,80.8c-6.4,0-11.7-5.2-11.7-11.7c0-6.5,5.2-11.7,11.7-11.7
			c6.4,0,11.7,5.2,11.7,11.7C84.5,75.6,79.3,80.8,72.8,80.8L72.8,80.8z M72.8,80.8"/>
	</g>
</g>
</svg>
