<?xml version="1.0" encoding="utf-8"?>
<!-- Generator: Adobe Illustrator 24.0.1, SVG Export Plug-In . SVG Version: 6.00 Build 0)  -->
<svg version="1.1" id="Layer_1" xmlns="http://www.w3.org/2000/svg" xmlns:xlink="http://www.w3.org/1999/xlink" x="0px" y="0px"
	 viewBox="0 0 100 100" style="enable-background:new 0 0 100 100;" xml:space="preserve">
<style type="text/css">
	.st0{fill:#D40101;}
	.st1{fill:#FFFFFF;}
</style>
<circle class="st0" cx="50" cy="50" r="50"/>
<g>
	<path class="st1" d="M67,53.1v-4.8l6.8,4.3l2.1-3.3l-24-15.1v-9.2H56v-3.9h-4.2v-4.2H48v4.2h-4v3.9h4v9.4l-23.8,15l2.1,3.3l6.8-4.3
		v4.8l-16,9.5v20.5h66.2V62.6L67,53.1z M20.8,79.2V64.8l12.2-7.2v21.7H20.8z M48.1,79.2V66c0-1.1,0.9-1.9,1.9-1.9
		c1.1,0,1.9,0.9,1.9,1.9v13.3H48.1z M55.8,79.2V66c0-3.2-2.6-5.8-5.8-5.8c-3.2,0-5.8,2.6-5.8,5.8v13.3h-7.4V45.9L50,37.6l13.2,8.3
		v33.4H55.8z M79.2,79.2H67V57.6l12.2,7.2V79.2z"/>
	<path class="st1" d="M48.1,47h3.9v7.7h-3.9V47z"/>
	<path class="st1" d="M25,67.2h3.9v7.3H25L25,67.2z"/>
	<path class="st1" d="M71.1,67.2H75v7.3h-3.9V67.2z"/>
</g>
</svg>
