<?xml version="1.0" encoding="utf-8"?>
<!-- Generator: Adobe Illustrator 24.0.1, SVG Export Plug-In . SVG Version: 6.00 Build 0)  -->
<svg version="1.1" id="Layer_1" xmlns="http://www.w3.org/2000/svg" xmlns:xlink="http://www.w3.org/1999/xlink" x="0px" y="0px"
	 viewBox="0 0 100 100" style="enable-background:new 0 0 100 100;" xml:space="preserve">
<style type="text/css">
	.st0{fill:#D40101;}
	.st1{fill:#FFFFFF;}
</style>
<circle class="st0" cx="50" cy="50" r="50"/>
<path class="st1" d="M71,14.7v4.4h5l-9.8,9.3c-3.5-3.5-8.3-5.8-13.6-5.8c-7.2,0-13.4,4-16.7,9.9c-0.3,0-0.6,0-0.8,0
	C24.5,32.5,16,41.1,16,51.6c0,9.8,7.4,17.8,16.9,18.9v5.9h-6.7v4.4h6.7v6.5h4.4v-6.5h7v-4.4h-7v-5.9c6.2-0.7,11.6-4.5,14.5-9.7
	c0.3,0,0.6,0,0.8,0c10.5,0,19.1-8.6,19.1-19.1c0-3.6-1-6.9-2.7-9.8l10.6-10.1v5.5H84V14.7H71z M49,55.9C42.7,54.3,38,48.6,38,41.7
	c0-1.5,0.2-3,0.7-4.3C45,39,49.7,44.7,49.7,51.6C49.7,53.1,49.4,54.5,49,55.9z M35,66.2c-8.1,0-14.6-6.6-14.6-14.6
	c0-7.8,6.1-14.1,13.7-14.6c-0.4,1.5-0.6,3.1-0.6,4.7c0,8.6,5.7,15.9,13.5,18.2C44.4,63.7,40,66.2,35,66.2z M53.5,56.3
	c0.4-1.5,0.6-3.1,0.6-4.7c0-8.6-5.7-15.9-13.5-18.2c2.6-3.8,7-6.2,12-6.2c8.1,0,14.6,6.6,14.6,14.6C67.2,49.5,61.1,55.8,53.5,56.3z"
	/>
</svg>
