<?xml version="1.0" encoding="utf-8"?>
<!-- Generator: Adobe Illustrator 24.0.1, SVG Export Plug-In . SVG Version: 6.00 Build 0)  -->
<svg version="1.1" id="Layer_1" xmlns="http://www.w3.org/2000/svg" xmlns:xlink="http://www.w3.org/1999/xlink" x="0px" y="0px"
	 viewBox="0 0 100 100" style="enable-background:new 0 0 100 100;" xml:space="preserve">
<style type="text/css">
	.st0{fill:#D40101;}
	.st1{fill:#FFFFFF;}
</style>
<circle class="st0" cx="50" cy="50" r="50"/>
<g>
	<g>
		<g>
			<path class="st1" d="M63.3,14H21.8v72h56.3V28.9L63.3,14z M76,83.9H24V16.1h38.4L76,29.8L76,83.9L76,83.9z"/>
		</g>
	</g>
	<g>
		<g>
			<polygon class="st1" points="63.9,28.3 63.9,20.1 61.8,20.1 61.8,30.4 72.1,30.4 72.1,28.3 			"/>
		</g>
	</g>
	<g>
		<g>
			<rect x="30" y="56.2" class="st1" width="39.9" height="2.1"/>
		</g>
	</g>
	<g>
		<g>
			<rect x="30" y="62.6" class="st1" width="39.9" height="2.1"/>
		</g>
	</g>
	<g>
		<g>
			<rect x="30" y="69" class="st1" width="15.7" height="2.1"/>
		</g>
	</g>
	<g>
		<g>
			<rect x="47.9" y="69" class="st1" width="2.1" height="2.1"/>
		</g>
	</g>
	<g>
		<g>
			<rect x="56.4" y="69" class="st1" width="2.1" height="2.1"/>
		</g>
	</g>
	<g>
		<g>
			<rect x="52.1" y="69" class="st1" width="2.1" height="2.1"/>
		</g>
	</g>
	<g>
		<g>
			<rect x="30" y="49.8" class="st1" width="39.9" height="2.1"/>
		</g>
	</g>
	<g>
		<g>
			<rect x="30" y="43.4" class="st1" width="39.9" height="2.1"/>
		</g>
	</g>
	<g>
		<g>
			<rect x="30" y="37" class="st1" width="39.9" height="2.1"/>
		</g>
	</g>
	<g>
		<g>
			<rect x="38.6" y="25.6" class="st1" width="2.1" height="2.1"/>
		</g>
	</g>
	<g>
		<g>
			<rect x="30" y="25.6" class="st1" width="2.1" height="2.1"/>
		</g>
	</g>
	<g>
		<g>
			<rect x="34.3" y="21.3" class="st1" width="2.1" height="2.1"/>
		</g>
	</g>
	<g>
		<g>
			<rect x="34.3" y="29.9" class="st1" width="2.1" height="2.1"/>
		</g>
	</g>
	<g>
		<g>
			<rect x="34.3" y="25.6" class="st1" width="2.1" height="2.1"/>
		</g>
	</g>
</g>
</svg>
