<?xml version="1.0" encoding="utf-8"?>
<!-- Generator: Adobe Illustrator 24.0.1, SVG Export Plug-In . SVG Version: 6.00 Build 0)  -->
<svg version="1.1" id="Layer_1" xmlns="http://www.w3.org/2000/svg" xmlns:xlink="http://www.w3.org/1999/xlink" x="0px" y="0px"
	 viewBox="0 0 100 100" style="enable-background:new 0 0 100 100;" xml:space="preserve">
<style type="text/css">
	.st0{fill:#D40101;}
	.st1{fill:#FFFFFF;}
</style>
<circle class="st0" cx="50" cy="50" r="50"/>
<path class="st1" d="M50,13.8c-20.8,0-37.8,13.8-37.8,30.9c0,15.2,13.4,28,31.6,30.4c1.2,0.3,2.9,0.8,3.3,1.9c0.4,1,0.2,2.4,0.1,3.4
	l-0.5,3.2c-0.1,1-0.8,3.8,3.3,2c4.1-1.7,21.8-12.9,29.7-22.1c5.4-6,8-12.1,8-18.9C87.8,27.6,70.8,13.8,50,13.8L50,13.8z M35.2,54.8
	h-7.5c-1.1,0-2-0.9-2-2V37.7c0-1.1,0.9-2,2-2c1.1,0,2,0.9,2,2v13.1h5.5c1.1,0,2,0.9,2,2C37.2,53.9,36.3,54.8,35.2,54.8z M43,52.8
	c0,1.1-0.9,2-2,2c-1.1,0-2-0.9-2-2V37.7c0-1.1,0.9-2,2-2c1.1,0,2,0.9,2,2L43,52.8z M61.1,52.8c0,0.9-0.5,1.6-1.4,1.9
	c-0.2,0.1-0.4,0.1-0.6,0.1c-0.7,0-1.2-0.3-1.6-0.8l-7.7-10.5v9.3c0,1.1-0.9,2-2,2c-1.1,0-2-0.9-2-2V37.7c0-0.9,0.5-1.6,1.4-1.9
	c0.2-0.1,0.4-0.1,0.6-0.1c0.6,0,1.2,0.3,1.6,0.8L57.1,47v-9.4c0-1.1,0.9-2,2-2c1.1,0,2,0.9,2,2V52.8z M73.2,43.2c1.1,0,2,0.9,2,2
	c0,1.1-0.9,2-2,2h-5.5v3.6h5.5c1.1,0,2,0.9,2,2c0,1.1-0.9,2-2,2h-7.5c-1.1,0-2-0.9-2-2V37.7c0-1.1,0.9-2,2-2h7.5c1.1,0,2,0.9,2,2
	c0,1.1-0.9,2-2,2h-5.5v3.6H73.2z"/>
</svg>
