<?xml version="1.0" encoding="utf-8"?>
<!-- Generator: Adobe Illustrator 24.0.1, SVG Export Plug-In . SVG Version: 6.00 Build 0)  -->
<svg version="1.1" id="Layer_1" xmlns="http://www.w3.org/2000/svg" xmlns:xlink="http://www.w3.org/1999/xlink" x="0px" y="0px"
	 viewBox="0 0 100 100" style="enable-background:new 0 0 100 100;" xml:space="preserve">
<style type="text/css">
	.st0{fill:#D40101;}
	.st1{fill:#FFFFFF;}
</style>
<circle class="st0" cx="50" cy="50" r="50"/>
<g>
	<g>
		<g>
			<path class="st1" d="M82,23H18c-4.6,0-8.4,3.8-8.4,8.4v37.1c0,4.6,3.8,8.4,8.4,8.4H82c4.6,0,8.4-3.8,8.4-8.4V31.5
				C90.5,26.8,86.7,23,82,23z M87.1,68.5c0,2.8-2.3,5.1-5.1,5.1H18c-2.8,0-5.1-2.3-5.1-5.1V31.5c0-2.8,2.3-5.1,5.1-5.1H82
				c2.8,0,5.1,2.3,5.1,5.1L87.1,68.5L87.1,68.5z"/>
		</g>
	</g>
	<g>
		<g>
			<path class="st1" d="M88.8,33.1H11.2c-0.9,0-1.7,0.8-1.7,1.7v10.1c0,0.9,0.8,1.7,1.7,1.7h77.6c0.9,0,1.7-0.8,1.7-1.7V34.8
				C90.5,33.9,89.7,33.1,88.8,33.1z M87.1,43.3H12.9v-6.7h74.2L87.1,43.3L87.1,43.3z"/>
		</g>
	</g>
	<g>
		<g>
			<path class="st1" d="M41.6,56.7H21.3c-0.9,0-1.7,0.8-1.7,1.7c0,0.9,0.8,1.7,1.7,1.7h20.2c0.9,0,1.7-0.8,1.7-1.7
				S42.5,56.7,41.6,56.7z"/>
		</g>
	</g>
	<g>
		<g>
			<path class="st1" d="M41.6,63.5H21.3c-0.9,0-1.7,0.8-1.7,1.7c0,0.9,0.8,1.7,1.7,1.7h20.2c0.9,0,1.7-0.8,1.7-1.7
				C43.3,64.2,42.5,63.5,41.6,63.5z"/>
		</g>
	</g>
	<g>
		<g>
			<path class="st1" d="M75.3,53.4h-3.4c-2.8,0-5.1,2.3-5.1,5.1v3.4c0,2.8,2.3,5.1,5.1,5.1h3.4c2.8,0,5.1-2.3,5.1-5.1v-3.4
				C80.4,55.6,78.1,53.4,75.3,53.4z M77,61.8c0,0.9-0.8,1.7-1.7,1.7h-3.4c-0.9,0-1.7-0.8-1.7-1.7v-3.4c0-0.9,0.8-1.7,1.7-1.7h3.4
				c0.9,0,1.7,0.8,1.7,1.7V61.8z"/>
		</g>
	</g>
</g>
</svg>
