<?xml version="1.0" encoding="utf-8"?>
<!-- Generator: Adobe Illustrator 24.0.1, SVG Export Plug-In . SVG Version: 6.00 Build 0)  -->
<svg version="1.1" id="Layer_1" xmlns="http://www.w3.org/2000/svg" xmlns:xlink="http://www.w3.org/1999/xlink" x="0px" y="0px"
	 viewBox="0 0 100 100" style="enable-background:new 0 0 100 100;" xml:space="preserve">
<style type="text/css">
	.st0{fill:#D40101;}
	.st1{fill:#FFFFFF;}
</style>
<circle class="st0" cx="50" cy="50" r="50"/>
<g>
	<path class="st1" d="M84.2,24.3c0-4.5-3.7-8.2-8.2-8.2H24c-4.5,0-8.2,3.7-8.2,8.2v35c0,0.6,0.1,1.2,0.2,1.7h0c0,0.1,0,0.1,0.1,0.2
		c0,0,0,0.1,0,0.1h0c0.9,3.5,4.1,6.2,7.9,6.2h16.5L27.8,80.4c-0.8,0.8-0.8,2.1,0,2.9c0.8,0.8,2.1,0.8,2.9,0l15.1-15.1
		c0.2-0.2,0.3-0.3,0.4-0.5h1.8v14.2c0,1.1,0.9,2.1,2.1,2.1c1.1,0,2.1-0.9,2.1-2.1V67.6h1.8c0.1,0.2,0.2,0.4,0.4,0.5l15.1,15.1
		c0.8,0.8,2.1,0.8,2.9,0c0.8-0.8,0.8-2.1,0-2.9L59.5,67.6H76c3.8,0,7-2.6,7.9-6.2h0c0,0,0-0.1,0-0.1c0-0.1,0-0.1,0.1-0.2h0
		c0.1-0.6,0.2-1.1,0.2-1.7L84.2,24.3L84.2,24.3z M18.6,24.3c0-3,2.5-5.5,5.5-5.5H76c3,0,5.5,2.5,5.5,5.5v34.4H18.6V24.3z M73.6,27.5
		l2.5,3.2L49.7,51.6l-10-10l-13.3,9.9L24,48.2l16.1-12l9.9,9.9L73.6,27.5z M73.6,27.5"/>
</g>
</svg>
