<?xml version="1.0" encoding="utf-8"?>
<!-- Generator: Adobe Illustrator 24.0.1, SVG Export Plug-In . SVG Version: 6.00 Build 0)  -->
<svg version="1.1" id="Layer_1" xmlns="http://www.w3.org/2000/svg" xmlns:xlink="http://www.w3.org/1999/xlink" x="0px" y="0px"
	 viewBox="0 0 100 100" style="enable-background:new 0 0 100 100;" xml:space="preserve">
<style type="text/css">
	.st0{fill:#D40101;}
	.st1{fill:#FFFFFF;}
</style>
<circle class="st0" cx="50" cy="50" r="50"/>
<g>
	<g>
		<path class="st1" d="M50,62.9c13.1,0,24-9.8,25.5-22.8c0.1-0.6-0.4-1.2-1-1.3c-0.6-0.1-1.2,0.4-1.3,1c-0.5,4.3-2.1,8.2-4.6,11.5
			c-0.9-1.3-2-2.3-3.5-2.9c-2.4-1-6.7-1.7-9-2c-0.1,0-0.2-0.1-0.2-0.3l0-3.2c0.2-0.2,0.4-0.3,0.7-0.5c1.7-1.5,2.8-3.6,3.1-5.9
			c0.6-0.1,1.1-0.4,1.5-0.8c0.5-0.5,0.8-1.2,0.8-1.9l0-1.8c0-0.8-0.3-1.5-0.9-2l0-4.4c0-4.3-3.5-7.9-7.9-7.9c0,0,0,0,0,0l-7,0
			c-1.7,0-3.2,1.1-3.8,2.7c-2.2,0-4,1.9-4,4.1l0,5.5c-0.5,0.5-0.9,1.2-0.9,2l0,1.8c0,1.4,1,2.5,2.3,2.7c0.3,2.3,1.4,4.4,3.1,5.8
			c0.2,0.2,0.4,0.4,0.7,0.5l0,3.2c0,0.1-0.1,0.3-0.2,0.3c-2.4,0.3-6.6,1-9,2.1c-1.3,0.6-2.4,1.5-3.2,2.6c-2.9-3.9-4.6-8.7-4.6-13.9
			c0-12.9,10.5-23.4,23.4-23.4c11.9,0,22,9,23.2,20.9c0.1,0.6,0.6,1.1,1.3,1c0.6-0.1,1.1-0.6,1-1.3c-1.4-13-12.4-22.9-25.5-22.9
			c-14.2,0-25.7,11.5-25.7,25.7C24.3,51.4,35.9,62.9,50,62.9L50,62.9z M48,60.5l0.7-3.2l2.1,0l0.8,3.2C50.4,60.6,49.2,60.6,48,60.5
			L48,60.5z M51.1,55.1l-2.6,0l-0.7-1.3l2-1l2,1L51.1,55.1z M45.9,44.3c1.2,0.5,2.5,0.7,3.8,0.7h0c0,0,0,0,0,0
			c1.3,0,2.6-0.3,3.8-0.8l0,1.9c0,0.5,0.1,0.9,0.4,1.3l-4.2,2.6l-4.2-2.6c0.2-0.4,0.4-0.8,0.4-1.3L45.9,44.3z M64.3,50.5
			c1.2,0.5,2.2,1.5,2.8,2.7c-3.4,3.7-8,6.2-13.1,7.1L53,56.4l0.9-1.7c0.2,0,0.4,0,0.5,0c1,0,2-0.4,2.7-1.2l3.6-4
			C62.1,49.8,63.4,50.1,64.3,50.5L64.3,50.5z M56.3,48.8c0.5,0.1,1.1,0.2,1.8,0.3L55.5,52c-0.4,0.4-1.1,0.6-1.6,0.3c0,0,0,0,0,0
			c0,0,0,0,0,0l-1.7-0.9L56.3,48.8z M42.4,22.9c0.9,0,1.8-0.6,2.1-1.5c0.2-0.7,0.9-1.2,1.7-1.2l7,0h0c3.1,0,5.6,2.5,5.6,5.6l0,3.9
			c-0.5,0.1-1.1,0.4-1.6,0.8c0,0,0,0,0,0l0-3.2c0-2-1.6-3.7-3.7-3.7l0,0c-1.4,0-2,0.6-3.5,0.6l-0.3,0c0,0,0,0,0,0
			c-1.6,0-2-0.5-3.5-0.6l0,0c-2,0-3.7,1.7-3.7,3.7l0,2.6c-0.6-0.2-1.1-0.3-1.6-0.3l0-5C40.7,23.7,41.4,22.9,42.4,22.9L42.4,22.9z
			 M42,35.6c0-0.6-0.5-1.1-1.1-1.1c0,0,0,0,0,0l-0.6,0c0,0,0,0,0,0c-0.2,0-0.5-0.2-0.5-0.4l0-1.8c0-0.1,0-0.2,0.1-0.3
			c0.9,0,2,0.2,2.3,0.5c0.9,0.9,2.4,0.2,2.4-1l0-4c0-0.8,0.6-1.4,1.4-1.4l0,0c1,0,1.7,0.6,3.5,0.6l0.3,0c1.9,0,2.6-0.6,3.5-0.6l0,0
			h0c0.4,0,0.7,0.1,1,0.4c0.3,0.3,0.4,0.6,0.4,1l0,4c0,1.6,2.9,1.7,3.7,1c0.3-0.3,0.7-0.4,1.1-0.5c0,0.1,0.1,0.1,0.1,0.2l0,1.8
			c0,0.6-0.9,0.4-1.1,0.5c-0.6,0-1.1,0.5-1.1,1.1c0,2.1-0.9,4-2.4,5.2c-1.5,1.3-3.3,2-5.3,2.1c-2,0-3.8-0.7-5.3-2
			C43,39.5,42.1,37.6,42,35.6L42,35.6z M43.3,48.8l4.2,2.6l-1.7,0.9c0,0,0,0,0,0c0,0,0,0,0,0c-0.5,0.3-1.2,0.1-1.6-0.3l-2.7-2.9
			C42.2,49,42.8,48.9,43.3,48.8L43.3,48.8z M35.3,50.7c0.9-0.4,2.2-0.8,3.5-1.1l3.6,3.9c0.7,0.8,1.7,1.2,2.7,1.2c0.2,0,0.4,0,0.6,0
			l0.9,1.7l-0.9,3.8c-5.1-0.9-9.6-3.6-13-7.2C33.3,52,34.2,51.2,35.3,50.7L35.3,50.7z"/>
		<path class="st1" d="M78,67.7l-17.7,7.8l0-0.1c0,0,0-0.1,0-0.1c-0.3-3.1-2.7-5.6-5.8-6c0,0,0,0,0,0l-11.7-1.4
			c-5.3-0.8-7.7-5.6-17.2-5.6h-0.7v-1.2c0-1.8-1.4-3.2-3.2-3.2h-3.4c-1.8,0-3.2,1.4-3.2,3.2v22c0,1.8,1.4,3.2,3.2,3.2h3.4
			c1.7,0,3.1-1.3,3.2-3c10.8,3.8,12.2,5.1,16,5.1h15.8c2.4,0,4.8-0.7,6.9-2l19.8-11.2c1.4-0.8,2.6-3.8,1-6.2
			C82.8,67,80.5,66.5,78,67.7L78,67.7z M82,73.3L62.3,84.4c0,0,0,0-0.1,0c-1.7,1.1-3.6,1.6-5.6,1.6H40.7c-3.2,0-4.1-1-16-5.2v-8.3
			c0-0.6-0.5-1.1-1.1-1.1s-1.1,0.5-1.1,1.1v10.6c0,0.5-0.4,0.9-0.9,0.9h-3.4c-0.5,0-0.9-0.4-0.9-0.9v-22c0-0.5,0.4-0.9,0.9-0.9h3.4
			c0.5,0,0.9,0.4,0.9,0.9v6c0,0.6,0.5,1.1,1.1,1.1s1.1-0.5,1.1-1.1v-2.5h0.7c9,0,10.7,4.7,16.9,5.6c0,0,0,0,0,0l11.7,1.4
			c2,0.3,3.6,1.9,3.8,3.9l0,0.6h-8.1c-1.9,0-3.8-0.1-5.6-0.4l-2-0.3c-0.6-0.1-1.2,0.3-1.3,1c-0.1,0.6,0.3,1.2,1,1.3l2,0.3
			c2,0.3,4,0.4,6,0.4h9.3c0.1,0,0.3,0,0.5-0.1c0.1,0,19.3-8.5,19.3-8.5c1.3-0.6,2.6-0.7,3.4,0.5C83,71.3,82.8,72.5,82,73.3L82,73.3z
			"/>
	</g>
</g>
</svg>
