<?xml version="1.0" encoding="utf-8"?>
<!-- Generator: Adobe Illustrator 24.0.1, SVG Export Plug-In . SVG Version: 6.00 Build 0)  -->
<svg version="1.1" id="Layer_1" xmlns="http://www.w3.org/2000/svg" xmlns:xlink="http://www.w3.org/1999/xlink" x="0px" y="0px"
	 viewBox="0 0 100 100" style="enable-background:new 0 0 100 100;" xml:space="preserve">
<style type="text/css">
	.st0{fill:#D40101;}
	.st1{fill:#FFFFFF;}
</style>
<circle class="st0" cx="50" cy="50" r="50"/>
<g>
	<path class="st1" d="M82.6,26.3H17.4c-4,0-7.3,3.2-7.3,7.2v29.3c0,2.2,1.5,4.7,2.6,5.7c0.9,0.8,2.9,1.6,4.7,1.6h65.2
		c4,0,7.3-3.3,7.3-7.3V33.5C89.9,29.5,86.6,26.3,82.6,26.3L82.6,26.3z M84.5,54.5c-4.3,1.5-8.1,5.1-9.9,10.1H25.4
		c-1.8-4.8-5.7-8.4-9.8-10v-13c4.2-1.6,8-5,9.8-10h49.2c1.8,5.3,5.5,8.6,9.9,10.1V54.5z M84.5,54.5"/>
	<path class="st1" d="M49.9,35.2c-7.2,0-13,5.8-13,13c0,7.2,5.8,12.9,13,12.9c7.2,0,12.9-5.8,12.9-12.9C62.9,41,57.1,35.2,49.9,35.2
		L49.9,35.2z M51,55.6V58h-2.3v-2.3c-1.6-0.1-3.2-0.5-4.1-1l0.7-2.8c1,0.5,2.4,1.1,4,1.1c1.4,0,2.3-0.5,2.3-1.5
		c0-0.9-0.8-1.5-2.5-2.1c-2.6-0.9-4.3-2.1-4.3-4.4c0-2.1,1.5-3.8,4-4.3v-2.3h2.4v2.1c1.6,0.1,2.7,0.4,3.4,0.8l-0.7,2.7
		c-0.6-0.3-1.7-0.8-3.4-0.8c-1.6,0-2.1,0.7-2.1,1.3c0,0.8,0.8,1.3,2.9,2.1c2.8,1,4,2.3,4,4.5C55.3,53.3,53.7,55.1,51,55.6L51,55.6z
		 M51,55.6"/>
</g>
</svg>
