<?xml version="1.0" encoding="utf-8"?>
<!-- Generator: Adobe Illustrator 24.0.1, SVG Export Plug-In . SVG Version: 6.00 Build 0)  -->
<svg version="1.1" id="Layer_1" xmlns="http://www.w3.org/2000/svg" xmlns:xlink="http://www.w3.org/1999/xlink" x="0px" y="0px"
	 viewBox="0 0 100 100" style="enable-background:new 0 0 100 100;" xml:space="preserve">
<style type="text/css">
	.st0{fill:#D40101;}
	.st1{fill:#FFFFFF;}
</style>
<circle class="st0" cx="50" cy="50" r="50"/>
<g>
	<path class="st1" d="M50,89.1c21.6,0,39.1-17.5,39.1-39.1S71.6,10.9,50,10.9S10.9,28.4,10.9,50C10.9,71.6,28.4,89.1,50,89.1
		L50,89.1z M50,13.5c20.1,0,36.5,16.3,36.5,36.5S70.1,86.5,50,86.5S13.5,70.1,13.5,50C13.5,29.9,29.9,13.5,50,13.5L50,13.5z
		 M50,13.5"/>
	<path class="st1" d="M50,82.6C68,82.6,82.6,68,82.6,50S68,17.4,50,17.4S17.4,32,17.4,50C17.4,68,32,82.6,50,82.6L50,82.6z M21,57.7
		l8-2.1c3.1-0.8,6.5-0.2,9,1.8c2.6,2,4.1,5,4.1,8.3v13.3C31.9,76.1,23.8,68,21,57.7L21,57.7z M44.8,79.5V65.6c0-4-1.9-7.9-5.1-10.3
		c-3.2-2.5-7.4-3.3-11.3-2.3l-7.9,2.1c-0.6-3.3-0.6-6.6-0.1-9.9c6.2-2.2,17.6-5.7,29.6-5.7s23.4,3.4,29.6,5.7
		c0.5,3.3,0.5,6.6-0.1,9.9l-7.9-2.1c-3.9-1-8.1-0.2-11.3,2.3c-3.2,2.5-5.1,6.3-5.1,10.3v13.9C51.8,80.1,48.2,80.1,44.8,79.5
		L44.8,79.5z M57.8,78.9V65.6c0-3.2,1.5-6.3,4.1-8.3c2.6-2,5.9-2.6,9-1.8l8,2.1C76.2,68,68.1,76.1,57.8,78.9L57.8,78.9z M50,20
		c13.6,0,25.4,9.1,28.9,22.2C69.6,39,59.9,37.2,50,37c-9.9,0.2-19.6,2-28.9,5.3C24.6,29.2,36.4,20.1,50,20L50,20z M50,20"/>
	<path class="st1" d="M59.1,50c0-5-4.1-9.1-9.1-9.1c-5,0-9.1,4.1-9.1,9.1c0,5,4.1,9.1,9.1,9.1C55,59.1,59.1,55,59.1,50L59.1,50z
		 M43.5,50c0-3.6,2.9-6.5,6.5-6.5c3.6,0,6.5,2.9,6.5,6.5c0,3.6-2.9,6.5-6.5,6.5C46.4,56.5,43.5,53.6,43.5,50L43.5,50z M43.5,50"/>
	<path class="st1" d="M53.9,50c0-2.2-1.8-3.9-3.9-3.9c-2.2,0-3.9,1.8-3.9,3.9c0,2.2,1.8,3.9,3.9,3.9C52.2,53.9,53.9,52.2,53.9,50
		L53.9,50z M48.7,50c0-0.7,0.6-1.3,1.3-1.3c0.7,0,1.3,0.6,1.3,1.3c0,0.7-0.6,1.3-1.3,1.3C49.3,51.3,48.7,50.7,48.7,50L48.7,50z
		 M48.7,50"/>
</g>
</svg>
