<?xml version="1.0" encoding="utf-8"?>
<!-- Generator: Adobe Illustrator 24.0.1, SVG Export Plug-In . SVG Version: 6.00 Build 0)  -->
<svg version="1.1" id="Layer_1" xmlns="http://www.w3.org/2000/svg" xmlns:xlink="http://www.w3.org/1999/xlink" x="0px" y="0px"
	 viewBox="0 0 100 100" style="enable-background:new 0 0 100 100;" xml:space="preserve">
<style type="text/css">
	.st0{fill:#D40101;}
	.st1{fill:#FFFFFF;}
</style>
<circle class="st0" cx="50" cy="50" r="50"/>
<g>
	<g>
		<path class="st1" d="M92.5,57.3l-9.3-18.6l-9.3,18.6h6.3C76.2,69.7,64.6,78.6,51,78.6c-16.9,0-30.6-13.7-30.6-30.6
			c0-16.9,13.7-30.6,30.6-30.6c13,0,24.1,8.2,28.5,19.6l3.1-6.1c-6.1-11.2-18-18.8-31.6-18.8c-19.8,0-35.9,16.1-35.9,35.9
			c0,19.8,16.1,35.9,35.9,35.9c16.6,0,30.5-11.3,34.7-26.6L92.5,57.3L92.5,57.3z"/>
		<path class="st1" d="M31.9,55.2h3.4l1-3.7h4.1l1.1,3.7H45l-4.4-14.3h-4.3L31.9,55.2z M37.6,46c0.2-0.8,0.4-1.9,0.7-2.8h0
			c0.2,0.8,0.5,1.9,0.7,2.8l0.9,3h-3.2L37.6,46z"/>
		<path class="st1" d="M53.9,43.4c1.6,0,2.5,0.3,3.3,0.6l0.7-2.6c-0.7-0.3-2.1-0.7-4-0.7c-4.7,0-8.2,2.7-8.2,7.5c0,2.1,0.7,4,2,5.2
			c1.3,1.3,3.2,1.9,5.8,1.9c1.9,0,3.8-0.5,4.8-0.8V47H53v2.5h2.2v3c-0.3,0.1-0.9,0.2-1.6,0.2c-2.7,0-4.5-1.7-4.5-4.7
			C49.1,44.9,51.2,43.4,53.9,43.4z"/>
		<polygon class="st1" points="69.8,43.5 69.8,40.9 60.9,40.9 60.9,55.2 70.1,55.2 70.1,52.5 64.2,52.5 64.2,49.1 69.4,49.1 
			69.4,46.5 64.2,46.5 64.2,43.5 		"/>
	</g>
</g>
</svg>
