<?xml version="1.0" encoding="utf-8"?>
<!-- Generator: Adobe Illustrator 24.0.1, SVG Export Plug-In . SVG Version: 6.00 Build 0)  -->
<svg version="1.1" id="Layer_1" xmlns="http://www.w3.org/2000/svg" xmlns:xlink="http://www.w3.org/1999/xlink" x="0px" y="0px"
	 viewBox="0 0 100 100" style="enable-background:new 0 0 100 100;" xml:space="preserve">
<style type="text/css">
	.st0{fill:#D6F6FF;}
	.st1{fill:#F2BDC7;}
	.st2{fill:#E298BB;}
	.st3{fill:#F2856D;}
	.st4{fill:#AEE1E5;}
	.st5{fill:#FFF254;}
	.st6{fill:#F7F2CD;}
	.st7{fill:#F4EDAE;}
	.st8{fill:#FFFFFF;}
	.st9{fill:#555555;}
	.st10{fill:#BDD9F2;}
	.st11{fill:#FFCCE7;}
	.st12{fill:#D99197;}
	.st13{fill:#E8E1FF;}
	.st14{fill:#F2AA80;}
	.st15{fill:#E8E8E8;}
	.st16{fill:#C69DDF;}
	.st17{fill:#F2C849;}
	.st18{fill:#3B5E8C;}
	.st19{fill:#F2DFCE;}
	.st20{fill:#F5DFFB;}
	.st21{fill:#EFB1D5;}
	.st22{fill:#B2DEFF;}
	.st23{opacity:0.5;fill:#BFE9F7;}
	.st24{fill:#33B8BF;}
	.st25{fill:#B8CC07;}
	.st26{fill:#D9662D;}
	.st27{fill:#333333;}
	.st28{fill:none;}
	.st29{fill:#F1C4C7;}
	.st30{fill:#F4E6B2;}
	.st31{fill:#CCB5DD;}
	.st32{fill:#F9E1A5;}
	.st33{fill:#A0E59C;}
	.st34{fill:#A68256;}
	.st35{fill:#BF2A2A;}
	.st36{fill:#E8E7E6;}
	.st37{fill:#F2F2F0;}
	.st38{fill:#B69BDD;}
	.st39{fill:#F20530;}
	.st40{fill:#F26363;}
	.st41{fill:#D1C8C7;}
	.st42{fill:#BF463B;}
	.st43{fill:#F2F2F2;}
	.st44{fill:#AFA5A5;}
</style>
<circle class="st2" cx="50" cy="50" r="50"/>
<path class="st5" d="M31.3,63.4l5.1,17.1h-5.7v-6.6H29v6.6h-4.9v-9c0-3.4,1.3-6.6,3.6-9.1l0.3-0.3l0.2,0.3c0.3,0.7,1,1.1,1.8,1.1
	c0.4,0,0.8,0,1.2-0.1L31.3,63.4z"/>
<polygon class="st5" points="34.6,68.6 33,63.1 33.3,63 33.5,63.1 36.5,66 "/>
<path class="st5" d="M39.9,70.9c-0.8,2.5-1.5,4.9-2.1,6.8l-0.3,0.8l-2.3-7.8l2.3-3.2l2.4,3.4L39.9,70.9z"/>
<path class="st5" d="M37.5,64.8l-2.5-2.5l0.4-0.2c0.1,0,0.1-0.1,0.2-0.1l0.1-0.1l0.1,0.1c1,0.6,2.3,0.6,3.3,0l0.1-0.1l0.1,0.1
	c0.1,0,0.1,0.1,0.2,0.1l0.4,0.2L37.5,64.8z"/>
<path class="st5" d="M38.7,66l3.1-3.1l0.5,0.2l-0.1,0.2c-0.4,1.4-0.9,3.1-1.5,4.9l-0.1,0.5L38.7,66z"/>
<path class="st5" d="M51,71.4v9h-4.9v-6.6h-1.7v6.6h-5.7l0.1-0.3c0.8-2.6,3.5-11.3,5.1-16.5l0.1-0.2l0.2,0c0.4,0,0.8,0.1,1.1,0.1
	c0.8,0,1.4-0.4,1.8-1.1l0.2-0.3l0.3,0.3C49.7,64.8,51,68,51,71.4z"/>
<path class="st6" d="M22.4,37.1v7.1h-1.3c-2,0-3.5-1.6-3.5-3.5c0-0.8,0.3-1.5,0.7-2.1c0.7-0.9,1.7-1.4,2.8-1.4H22.4z"/>
<path class="st6" d="M57.6,40.7c0,2-1.6,3.5-3.5,3.5h-1.4v-7.1H54c1.2,0,2.2,0.6,2.8,1.4C57.3,39.2,57.6,39.9,57.6,40.7z"/>
<path class="st7" d="M51,38.5v4.4c0,0.7-0.6,1.3-1.3,1.3H43c-0.7,0-1.3-0.6-1.3-1.3v-5.7h7.9C50.4,37.1,51,37.8,51,38.5z"/>
<path class="st6" d="M51,45.6v0.5c0,3.8-2.2,7.3-5.5,9l-0.1,0l-0.1,0c-2,0-4,0.5-5.8,1.6l-0.1,0.1l-0.1-0.1c-1-0.6-2.3-0.6-3.3,0
	l-0.1,0.1l-0.1-0.1c-1.8-1-3.8-1.6-5.8-1.6h-0.1l-0.1,0c-3.4-1.7-5.5-5.3-5.5-9v-0.5l0.3,0.1c0.3,0.1,0.7,0.2,1,0.2h6.6
	c1.7,0,3-1.4,3-3l0-4.3l0-2.1c0.5-0.9,1.4-1.5,2.4-1.5c1,0,2,0.6,2.4,1.5l0,0.1v6.3c0,1.7,1.4,3,3,3h6.6c0.3,0,0.7-0.1,1-0.2
	L51,45.6z"/>
<path class="st8" d="M33.4,37.1v5.7c0,0.7-0.6,1.3-1.3,1.3h-6.6c-0.1,0-0.1,0-0.2,0c-0.7-0.1-1.1-0.7-1.1-1.3v-4.4
	c0-0.8,0.6-1.4,1.3-1.4H33.4z"/>
<path class="st8" d="M51,38.5v4.4c0,0.7-0.6,1.3-1.3,1.3H43c-0.3,0-0.6-0.1-0.8-0.3c-0.3-0.3-0.5-0.6-0.5-1.1v-5.7h7.9
	c0.2,0,0.3,0,0.4,0.1C50.6,37.4,51,37.9,51,38.5z"/>
<path class="st23" d="M33.4,37.1l-5.1,7.1h-2.8c-0.1,0-0.1,0-0.2,0l5.1-7.1H33.4z"/>
<path class="st23" d="M50.1,37.2l-5,7h-2c-0.3,0-0.6-0.1-0.8-0.3l4.9-6.8h2.5C49.8,37.1,49.9,37.2,50.1,37.2z"/>
<path class="st9" d="M37.6,51.9c-1.9,0-3.4-1.5-3.5-3.3h-1.7c0.1,2.8,2.4,5,5.2,5c2.8,0,5.1-2.2,5.2-5h-1.7
	C41,50.5,39.4,51.9,37.6,51.9z"/>
<path class="st9" d="M58.1,37.4L58,37.3l0.1-0.1c0.8-2,1.2-4.1,1.2-6.2c0-1.9-0.3-3.8-1-5.5c-2.3-6.3-8.3-10.9-15.4-10.9H32.2
	c-7.1,0-13.2,4.5-15.4,10.9c-0.6,1.7-1,3.6-1,5.5c0,2.1,0.4,4.2,1.2,6.2l0.1,0.1L17,37.4c-0.3,0.4-0.5,0.8-0.7,1.2
	c-0.3,0.7-0.5,1.4-0.5,2.1c0,2.9,2.3,5.2,5.2,5.2h1.3v0.3c0,2.7,1,5.4,2.7,7.4c0.2,0.3,0.4,0.5,0.7,0.8c0.6,0.7,1.4,1.3,2.2,1.8
	l0.2,0.1L28,56.5c-0.1,0.2-0.1,0.5-0.1,0.7v2.7l-0.1,0.1c-1.5,1.2-2.7,2.7-3.6,4.4c-1.2,2.2-1.8,4.6-1.8,7.2v10.7h30.3V71.4
	c0-3-0.9-6-2.6-8.5c-0.8-1.1-1.7-2.2-2.8-3.1l-0.1-0.1v-2.7c0-0.2,0-0.5-0.1-0.7L47,56.3l0.2-0.1c0.6-0.4,1.2-0.9,1.8-1.4
	c0.4-0.4,0.8-0.8,1.1-1.2c1.7-2.1,2.7-4.7,2.7-7.4v-0.3H54c2.9,0,5.2-2.4,5.2-5.2c0-0.7-0.2-1.5-0.5-2.1
	C58.6,38.2,58.4,37.8,58.1,37.4z M43.2,16.3c1.2,0,2.5,0.2,3.7,0.5l0.1,0l0,0.1c0.9,2.9,1.4,6.3,1.7,9.9l0,0.4l-0.4-0.2
	c-0.7-0.3-1.5-0.5-2.3-0.5l-0.2,0l0-0.2c-0.4-3.6-1.4-6.9-2.8-9.8l-0.2-0.4L43.2,16.3z M40.8,16.3l0.1,0.1c1.6,2.9,2.8,6.4,3.2,10.2
	l0,0.2l-0.2,0c-0.5,0.1-1,0.3-1.5,0.5l-1,0.5l0-0.3c-0.6-4.1-2.2-7.8-4.8-10.9l-0.3-0.4H40.8z M29.3,16.6c1-0.2,2-0.3,3-0.3H34
	l0.1,0.1c3.2,3,5.2,7.3,5.8,12l0,0.2l-0.2,0c-0.7,0.2-1.4,0.3-2.1,0.3h-0.2l-0.2,0l0-0.2c-0.7-4.6-3.7-8.9-8-11.6l-0.5-0.3
	L29.3,16.6z M23,19.6c1-0.8,2.1-1.5,3.3-2l0.1,0l0.1,0c4.3,2,7.8,6.2,8.8,10.6l0.1,0.4L35,28.4c-0.5-0.1-0.9-0.3-1.2-0.5l-1.1-0.6
	c-0.3-0.2-0.7-0.3-1.1-0.4l-0.1,0l0-0.1c-2-3.1-5-5.5-8.3-6.9l-0.4-0.2L23,19.6z M19.5,23.6c0.5-0.8,1-1.6,1.6-2.3l0.1-0.1l0.1,0
	c2.8,0.9,5.4,2.6,7.4,5.1l0.3,0.3l-0.5,0.1c-0.9,0.1-1.8,0.4-2.5,0.8L26,27.6l-0.1-0.1c-1.8-1.6-4-2.8-6.2-3.5l-0.3-0.1L19.5,23.6z
	 M22.4,44.2h-1.3c-2,0-3.5-1.6-3.5-3.5c0-0.8,0.3-1.5,0.7-2.1c0.7-0.9,1.7-1.4,2.8-1.4h1.3V44.2z M22.5,32.6
	c-0.1,0.4-0.1,0.8-0.1,1.1v1.7h-1.3c-0.8,0-1.6,0.2-2.3,0.6l-0.3,0.1l-0.1-0.3c-0.6-1.6-0.9-3.3-0.9-4.9c0-0.1,0-0.3,0-0.4l0-0.5
	l0.3,0.1c1.7,0.5,3.3,1.3,4.5,2.3l0.1,0.1L22.5,32.6z M23.1,30.8l-0.2-0.2c-1.4-1-3-1.7-4.8-2.2l-0.2-0.1l0-0.2
	c0.2-0.8,0.4-1.6,0.7-2.4l0.1-0.2l0.2,0.1c2,0.5,3.9,1.5,5.6,2.9l0.2,0.2l-0.2,0.2c-0.5,0.5-0.9,1.1-1.2,1.7L23.1,30.8z M24.1,38.5
	c0-0.8,0.6-1.4,1.3-1.4h7.9v5.7c0,0.7-0.6,1.3-1.3,1.3h-6.6c-0.8,0-1.3-0.6-1.3-1.3V38.5z M30.7,80.5v-6.6H29v6.6h-4.9v-9
	c0-2.4,0.6-4.7,1.8-6.7c0.5-0.9,1.1-1.7,1.8-2.4l0.3-0.3l0.2,0.3c0.3,0.7,1,1.1,1.8,1.1c0,0,0,0,0,0c0.3,0,0.7,0,1.2-0.1l0.2,0
	l0.4,1.3l0.4,1.3l2,6.8l2.3,7.5H30.7z M36.6,62.3c0.1,0,0.1,0,0.2,0.1c0.1,0,0.2,0,0.2,0c0,0,0.1,0,0.1,0c0.1,0,0.2,0,0.3,0
	s0.2,0,0.3,0c0.1,0,0.3,0,0.4-0.1c0.1,0,0.1,0,0.2,0c0.3-0.1,0.5-0.2,0.7-0.3l0.1-0.1l0.1,0.1c0.1,0,0.1,0.1,0.2,0.1l0.4,0.2
	l-2.5,2.5l-2.5-2.5l0.4-0.2c0.1,0,0.1-0.1,0.2-0.1l0.1-0.1l0.1,0.1C36.2,62.1,36.4,62.2,36.6,62.3z M36.2,59.4
	c0-0.7,0.6-1.3,1.3-1.3c0.8,0,1.4,0.6,1.4,1.3c0,0.2-0.1,0.4-0.1,0.6c-0.2,0.5-0.7,0.8-1.2,0.8c-0.5,0-1-0.3-1.2-0.8
	C36.3,59.8,36.2,59.6,36.2,59.4z M40.4,58.4l-0.1-0.2l0.2-0.1c1.5-0.8,3.1-1.2,4.7-1.2h0.3v4.9h-0.3c-1,0-2-0.2-3-0.5
	c-0.6-0.2-1.1-0.4-1.7-0.7l-0.2-0.1l0.1-0.2c0-0.1,0.1-0.2,0.1-0.3c0-0.2,0.1-0.4,0.1-0.6C40.6,59.1,40.5,58.8,40.4,58.4z M41.8,63
	l0.5,0.1l0.1,0l-0.1,0.2l0,0c-0.1,0.4-0.3,0.9-0.4,1.4c-0.1,0.3-0.2,0.7-0.3,1c0,0.1-0.1,0.2-0.1,0.3c-0.2,0.7-0.4,1.4-0.7,2.2
	l-0.1,0.5l-1.9-2.7l0,0l0.3-0.3l1-1L41.8,63z M35.2,64.8l1.3,1.3l0,0l-1.8,2.5l-0.8-2.5l-0.4-1.3L33,63.1l0.4-0.1l0.1,0.1l0.8,0.8
	L35.2,64.8z M34.6,59.9c0,0.1,0,0.2,0.1,0.3l0.1,0.2l-0.2,0.1c-0.1,0.1-0.2,0.1-0.3,0.2c-1.4,0.7-2.9,1.1-4.4,1.1c0,0,0,0,0,0h-0.3
	v-4.9h0.3c1.6,0,3.2,0.4,4.7,1.2l0.2,0.1l-0.1,0.2c-0.1,0.3-0.2,0.6-0.2,0.9C34.5,59.5,34.5,59.7,34.6,59.9z M37.6,78.4l-1.7-5.5
	l-0.7-2.3l2.3-3.2l2.4,3.4l0,0.1c-0.2,0.7-0.4,1.4-0.6,2c-0.5,1.7-1,3.4-1.5,4.7L37.6,78.4z M47,62.4l0.1-0.2l0.1-0.1l0.3,0.3
	c0.7,0.8,1.3,1.6,1.8,2.4c1.2,2,1.8,4.3,1.8,6.7v9h-4.9v-6.6h-1.7v6.6h-5.7l0.1-0.3c0.4-1.3,1.3-4.1,2.3-7.2
	c0.6-1.8,1.1-3.8,1.7-5.6c0.3-0.9,0.5-1.8,0.8-2.6c0.1-0.4,0.2-0.8,0.3-1.1l0.1-0.2l0.2,0c0.4,0,0.8,0.1,1.1,0.1
	C46,63.5,46.7,63.1,47,62.4z M51,46.2c0,0.1,0,0.3,0,0.4c0,0.2,0,0.4-0.1,0.7c0,0.2,0,0.4-0.1,0.7c0,0.2-0.1,0.4-0.1,0.7
	c0,0.2-0.1,0.4-0.2,0.6c-0.1,0.2-0.1,0.3-0.2,0.5c0,0.1-0.1,0.3-0.2,0.4c0,0.1-0.1,0.2-0.1,0.3c-0.1,0.2-0.1,0.3-0.2,0.5
	c-0.3,0.6-0.7,1.2-1.2,1.8c-0.1,0.1-0.2,0.3-0.3,0.4c-0.2,0.2-0.4,0.5-0.7,0.7c-0.3,0.3-0.6,0.5-1,0.8c-0.1,0.1-0.2,0.1-0.3,0.2
	c-0.1,0.1-0.3,0.2-0.4,0.3c-0.2,0.1-0.4,0.2-0.6,0.3l-0.1,0l-0.1,0c-2,0-4,0.5-5.8,1.6l-0.1,0.1l-0.1-0.1c-1-0.6-2.3-0.6-3.3,0
	l-0.1,0.1l-0.1-0.1c-1.8-1-3.8-1.6-5.8-1.6h-0.1l-0.1,0c-0.4-0.2-0.8-0.5-1.2-0.7c0,0-0.1,0-0.1-0.1c-0.2-0.1-0.3-0.2-0.5-0.3
	c-0.2-0.1-0.3-0.3-0.5-0.4c-0.2-0.2-0.4-0.4-0.6-0.7c-0.1-0.1-0.2-0.3-0.3-0.4c-0.5-0.7-1-1.4-1.3-2.1C25,50.3,25,50.1,24.9,50
	c-0.1-0.1-0.1-0.2-0.1-0.3c-0.1-0.2-0.1-0.3-0.2-0.5c-0.1-0.2-0.1-0.4-0.2-0.6c0-0.2-0.1-0.4-0.1-0.7c0-0.2-0.1-0.4-0.1-0.7
	c0-0.2,0-0.5,0-0.7c0-0.1,0-0.3,0-0.4v-0.5l0.3,0.1c0.3,0.1,0.7,0.2,1,0.2h6.6c1.7,0,3-1.4,3-3l0-4.3l0-2.1c0.5-0.9,1.4-1.5,2.4-1.5
	c1,0,2,0.6,2.4,1.5l0,0.1v6.3c0,1.7,1.4,3,3,3h6.6c0.3,0,0.7-0.1,1-0.2l0.3-0.1V46.2z M51,42.9c0,0.7-0.6,1.3-1.3,1.3H43
	c-0.7,0-1.3-0.6-1.3-1.3v-5.7h7.9c0.8,0,1.3,0.6,1.3,1.4V42.9z M51,35.8l-0.3-0.1c-0.4-0.1-0.7-0.2-1-0.2h-8.3l-0.1-0.1
	c-0.1-0.2-0.2-0.3-0.3-0.5c-0.1-0.2-0.2-0.3-0.4-0.4c-0.3-0.3-0.5-0.5-0.9-0.6c0,0,0,0,0,0c-0.2-0.1-0.3-0.2-0.5-0.2
	c-0.2-0.1-0.3-0.1-0.5-0.2c-0.1,0-0.3-0.1-0.5-0.1c-0.2,0-0.4-0.1-0.7-0.1c-0.2,0-0.4,0-0.6,0c-0.2,0-0.4,0.1-0.6,0.1
	c-0.2,0-0.3,0.1-0.5,0.2c-0.2,0.1-0.3,0.1-0.5,0.2c0,0,0,0,0,0c-0.3,0.2-0.6,0.4-0.9,0.6c-0.1,0.1-0.3,0.3-0.4,0.4
	c-0.1,0.1-0.2,0.3-0.3,0.5l-0.1,0.1h-8.3c-0.3,0-0.7,0.1-1,0.2l-0.3,0.1v-2c0-3,2.4-5.4,5.4-5.4c0.8,0,1.7,0.2,2.4,0.6l1.1,0.6
	c2.8,1.4,6.3,1.4,9.1,0l1.1-0.6c0.7-0.4,1.6-0.6,2.4-0.6c3,0,5.4,2.4,5.4,5.4V35.8z M51.2,29.4L51,29.1c-0.1-0.2-0.3-0.3-0.5-0.5
	l-0.1-0.1l0-0.1c-0.1-3.7-0.6-7.2-1.4-10.4l-0.1-0.5l0.5,0.2c3,1.5,5.4,4,6.8,7.1l0.1,0.2l-0.2,0.1c-1.9,1-3.5,2.3-4.8,3.9
	L51.2,29.4z M54,44.2h-1.4v-7.1H54c1.2,0,2.2,0.6,2.8,1.4c0.4,0.6,0.7,1.3,0.7,2.1C57.6,42.6,56,44.2,54,44.2z M56.7,35.9l-0.1,0.3
	L56.4,36c-0.8-0.4-1.5-0.6-2.3-0.6h-1.4v-1.7c0-0.9-0.2-1.8-0.5-2.7l0-0.1l0.1-0.1c1.1-1.6,2.6-3,4.5-4l0.3-0.2L57,27
	c0.4,1.3,0.6,2.6,0.6,3.9C57.6,32.6,57.3,34.3,56.7,35.9z"/>
<path class="st24" d="M38.9,59.4c0,0.2-0.1,0.4-0.1,0.6c-0.2,0.5-0.7,0.8-1.2,0.8c-0.5,0-1-0.3-1.2-0.8c-0.1-0.2-0.1-0.4-0.1-0.6
	c0-0.7,0.6-1.3,1.3-1.3C38.3,58,38.9,58.6,38.9,59.4z"/>
<path class="st24" d="M45.5,56.9v4.9h-0.3c-1,0-2-0.2-3-0.5c-0.6-0.2-1.1-0.4-1.7-0.7l-0.2-0.1l0.1-0.2c0-0.1,0.1-0.2,0.1-0.3
	c0-0.2,0.1-0.4,0.1-0.6c0-0.3,0-0.6-0.2-0.9l-0.1-0.2l0.2-0.1c1.5-0.8,3.1-1.2,4.7-1.2H45.5z"/>
<path class="st24" d="M34.7,60.3l0.1,0.2l-0.2,0.1c-0.1,0.1-0.2,0.1-0.3,0.2c-1.4,0.7-2.9,1.1-4.4,1.1c0,0,0,0,0,0h-0.3v-4.9h0.3
	c1.6,0,3.2,0.4,4.7,1.2l0.2,0.1l-0.1,0.2c-0.1,0.3-0.2,0.6-0.2,0.9c0,0.2,0,0.4,0.1,0.6C34.6,60,34.6,60.2,34.7,60.3z"/>
<path class="st24" d="M40,70.8l0,0.1c-0.2,0.7-0.4,1.4-0.6,2c-0.5,1.7-1,3.4-1.5,4.7l-0.3,0.8l-1.7-5.5l-0.7-2.3l2.3-3.2L40,70.8z"
	/>
<path class="st25" d="M42.3,63.1l-0.1,0.2c-0.4,1.4-0.9,3.1-1.5,4.9l-0.1,0.5L38.7,66l3.1-3.1L42.3,63.1z"/>
<polygon class="st25" points="36.5,66 34.6,68.6 33,63.1 33.3,63 33.5,63.1 "/>
<path class="st9" d="M36.6,62.3h1.8c-0.1,0-0.1,0-0.2,0c-0.1,0-0.3,0.1-0.4,0.1c-0.1,0-0.2,0-0.3,0s-0.2,0-0.3,0c0,0-0.1,0-0.1,0
	c-0.1,0-0.2,0-0.2,0C36.8,62.3,36.7,62.3,36.6,62.3z"/>
<path class="st6" d="M39.6,62c-0.1,0-0.1-0.1-0.2-0.1l-0.1-0.1l-0.1,0.1c-0.2,0.1-0.5,0.3-0.7,0.3c-0.1,0-0.1,0-0.2,0
	c-0.1,0-0.3,0.1-0.4,0.1c-0.1,0-0.2,0-0.3,0c-0.1,0-0.2,0-0.3,0c0,0-0.1,0-0.1,0c-0.1,0-0.2,0-0.2,0c-0.1,0-0.1,0-0.2-0.1
	c-0.3-0.1-0.5-0.2-0.7-0.3l-0.1-0.1l-0.1,0.1c-0.1,0-0.1,0.1-0.2,0.1l-0.4,0.2l2.5,2.5l2.5-2.5L39.6,62z"/>
<path class="st6" d="M51,33.7v2l-0.3-0.1c-0.4-0.1-0.7-0.2-1-0.2h-8.3l-0.1-0.1c-0.8-1.3-2.2-2.1-3.7-2.1c-1.5,0-2.9,0.8-3.7,2.1
	l-0.1,0.1h-8.3c-0.3,0-0.7,0.1-1,0.2l-0.3,0.1v-2c0-3,2.4-5.4,5.4-5.4c0.8,0,1.7,0.2,2.4,0.6l1.1,0.6c2.8,1.4,6.3,1.4,9.1,0l1.1-0.6
	c0.7-0.4,1.6-0.6,2.4-0.6C48.6,28.4,51,30.8,51,33.7z"/>
<g>
	<polygon class="st26" points="76.7,58 73.7,76.1 77.5,76.1 80.5,58 	"/>
	<polygon class="st26" points="70.4,58 72.7,71.8 75,58 	"/>
	<polygon class="st26" points="64.9,58 67.9,76.1 71.7,76.1 68.7,58 	"/>
</g>
<path class="st9" d="M83.3,80.9l-1.9-3.7l-0.2-0.4l-0.1-0.2c-0.2-0.3-0.4-0.5-0.8-0.5h-1.2l0.3-2.1l2.8-17.1l0.1-0.6h-4.3l0.5-0.5
	c0.1-0.1,0.3-0.2,0.4-0.4c0.4-0.3,0.7-0.7,1-1c1.2-1.5,2-3.3,2.1-5.3c0-0.3,0-0.6,0-0.8c0-2.9-1.3-5.6-3.6-7.5l-0.3-0.2l2.3-1.5
	c0.3-0.2,0.5-0.6,0.3-0.9c-0.1-0.4-0.4-0.6-0.8-0.6h-4.9l-0.2-0.5L74.4,35l-0.9-2.3c-0.1-0.3-0.4-0.5-0.8-0.5
	c-0.3,0-0.7,0.2-0.8,0.5L71,35l-0.9,2.2l-0.2,0.5H65c-0.4,0-0.7,0.3-0.8,0.6c-0.1,0.4,0,0.8,0.4,0.9l2.3,1.5l-0.3,0.2
	c-2.3,1.8-3.6,4.6-3.6,7.5c0,0.3,0,0.6,0,0.8c0.2,2,0.9,3.8,2.2,5.3c0.3,0.4,0.6,0.7,1,1c0.1,0.1,0.3,0.2,0.4,0.4l0.5,0.5h-4.3
	l0.1,0.6L65.8,74l0.4,2.1H65c-0.3,0-0.6,0.2-0.8,0.5l-0.1,0.2l-0.2,0.4L62,80.9c-0.1,0.3-0.1,0.6,0,0.8c0.2,0.3,0.4,0.4,0.7,0.4
	h19.8c0.3,0,0.6-0.2,0.7-0.4C83.5,81.5,83.5,81.2,83.3,80.9z M69.3,47.5l3.4-2.8l3.4,2.8H69.3z M80.5,47.2l0,0.3h-2.7v-0.3
	c0-0.1,0-0.2,0-0.2L76.5,42l0.5-0.3l0.1,0.1C79,43,80.2,45,80.5,47.2z M70.5,39.3c0.3,0,0.7-0.2,0.8-0.5l0.7-1.7l0.7-1.9l0.8,1.9
	l0.7,1.7c0.1,0.3,0.4,0.5,0.8,0.5h2.6l-2.4,1.6c-0.3,0.2-0.5,0.6-0.4,0.9l0.8,3.1L73.2,43c-0.3-0.3-0.8-0.3-1.1,0l-2.3,1.9l0.9-3.1
	c0.1-0.4,0-0.7-0.4-0.9l-2.4-1.6H70.5z M64.8,47.2c0.3-2.2,1.6-4.2,3.5-5.5l0.1-0.1l0.5,0.3L67.5,47c0,0.1,0,0.2,0,0.2v0.3h-2.7
	L64.8,47.2z M80.5,58l-2.7,16l-0.4,2.1h-3.8L74,74l2.7-16H80.5z M72.7,71.8L70.4,58H75L72.7,71.8z M64.8,49.5l0-0.3h15.8l0,0.3
	c-0.3,2-1.3,3.8-2.8,5c-0.5,0.4-1,0.8-1.6,1c-1.1,0.5-2.2,0.8-3.5,0.8c-1.2,0-2.4-0.3-3.5-0.8c-0.6-0.3-1.1-0.6-1.6-1
	C66.2,53.3,65.1,51.5,64.8,49.5z M64.9,58h3.8l2.7,16l0.3,2.1h-3.8L67.6,74L64.9,58z M64.2,80.5l1.4-2.7h14.3l1.3,2.7H64.2z"/>
<g>
	<path class="st25" d="M80.6,47.5l0-0.3C80.2,45,79,43,77.1,41.8L77,41.7L76.5,42l1.4,5.1c0,0.1,0,0.1,0,0.2v0.3H80.6z"/>
	<polygon class="st25" points="69.3,47.5 76.1,47.5 72.7,44.8 	"/>
	<path class="st25" d="M68.3,41.8c-1.9,1.3-3.1,3.2-3.5,5.5l0,0.3h2.7v-0.3c0-0.1,0-0.1,0-0.2l1.4-5.1l-0.5-0.3L68.3,41.8z"/>
</g>
<polygon class="st25" points="81.2,80.5 64.2,80.5 65.5,77.8 79.9,77.8 "/>
<polygon class="st5" points="75,58 72.7,71.8 70.4,58 "/>
<path class="st24" d="M80.6,49.2l0,0.3c-0.6,3.9-3.9,6.8-7.8,6.8c-3.9,0-7.3-2.9-7.8-6.8l0-0.3H80.6z"/>
<path class="st5" d="M74.7,41.8l0.8,3.1L73.2,43c-0.3-0.3-0.8-0.3-1.1,0l-2.3,1.9l0.9-3.1c0.1-0.4,0-0.7-0.4-0.9l-2.4-1.6h2.6
	c0.3,0,0.7-0.2,0.8-0.5l1.4-3.5l1.4,3.5c0.1,0.3,0.4,0.5,0.8,0.5h2.6l-2.4,1.6C74.8,41.1,74.6,41.5,74.7,41.8z"/>
<g>
	<path class="st27" d="M57,27l-0.1-0.3l-0.3,0.2c-1.9,1-3.4,2.4-4.5,4L52.1,31l0,0.1c0.3,0.9,0.5,1.7,0.5,2.7v1.7H54
		c0.8,0,1.6,0.2,2.3,0.6l0.3,0.1l0.1-0.3c0.6-1.6,0.9-3.3,0.9-4.9C57.6,29.7,57.4,28.3,57,27z M56.2,24.9c-1.4-3.1-3.8-5.6-6.8-7.1
		l-0.5-0.2l0.1,0.5c0.8,3.2,1.2,6.7,1.4,10.4l0,0.1l0.1,0.1c0.2,0.2,0.3,0.3,0.5,0.5l0.2,0.2l0.2-0.2c1.3-1.6,2.9-2.9,4.8-3.9
		l0.2-0.1L56.2,24.9z M48.7,27c-0.2-3.6-0.8-7-1.7-9.9l0-0.1l-0.1,0c-1.2-0.3-2.4-0.5-3.7-0.5l-0.4,0l0.2,0.4
		c1.4,2.9,2.4,6.2,2.8,9.8l0,0.2l0.2,0c0.8,0,1.6,0.2,2.3,0.5l0.4,0.2L48.7,27z M44.1,26.6c-0.5-3.8-1.6-7.3-3.2-10.2l-0.1-0.1h-4.5
		l0.3,0.4c2.5,3,4.2,6.8,4.8,10.9l0,0.3l1-0.5c0.5-0.2,1-0.4,1.5-0.5l0.2,0L44.1,26.6z M35.3,28.1c-1-4.4-4.5-8.6-8.8-10.6l-0.1,0
		l-0.1,0c-1.2,0.5-2.3,1.2-3.3,2l-0.3,0.3L23,20c3.3,1.3,6.3,3.8,8.3,6.9l0,0.1l0.1,0c0.4,0.1,0.8,0.3,1.1,0.4l1.1,0.6
		c0.3,0.2,0.7,0.3,1.2,0.5l0.4,0.1L35.3,28.1z M28.9,26.3c-2-2.4-4.6-4.2-7.4-5.1l-0.1,0l-0.1,0.1c-0.6,0.7-1.2,1.5-1.6,2.3
		l-0.2,0.3l0.3,0.1c2.2,0.7,4.4,1.9,6.2,3.5l0.1,0.1l0.2-0.1c0.8-0.4,1.6-0.7,2.5-0.8l0.5-0.1L28.9,26.3z M24.4,28.4
		c-1.7-1.4-3.6-2.4-5.6-2.9l-0.2-0.1l-0.1,0.2c-0.3,0.8-0.6,1.6-0.7,2.4l0,0.2l0.2,0.1c1.8,0.5,3.5,1.2,4.8,2.2l0.2,0.2l0.1-0.3
		c0.3-0.6,0.7-1.2,1.2-1.7l0.2-0.2L24.4,28.4z M22.4,32.4c-1.3-1-2.8-1.8-4.5-2.3L17.6,30l0,0.5c0,0.1,0,0.3,0,0.4
		c0,1.7,0.3,3.3,0.9,4.9l0.1,0.3l0.3-0.1c0.8-0.4,1.5-0.6,2.3-0.6h1.3v-1.7c0-0.3,0-0.7,0.1-1.1l0-0.2L22.4,32.4z"/>
	<path class="st27" d="M39.9,28.5l-0.2,0c-0.7,0.2-1.4,0.3-2.1,0.3h-0.2l-0.2,0l0-0.2c-0.7-4.6-3.7-8.9-8-11.6l-0.5-0.3l0.6-0.1
		c1-0.2,2-0.3,3-0.3H34l0.1,0.1c3.2,3,5.2,7.3,5.8,12L39.9,28.5z"/>
</g>
</svg>
