<?xml version="1.0" encoding="utf-8"?>
<!-- Generator: Adobe Illustrator 24.0.1, SVG Export Plug-In . SVG Version: 6.00 Build 0)  -->
<svg version="1.1" id="Layer_1" xmlns="http://www.w3.org/2000/svg" xmlns:xlink="http://www.w3.org/1999/xlink" x="0px" y="0px"
	 viewBox="0 0 100 100" style="enable-background:new 0 0 100 100;" xml:space="preserve">
<style type="text/css">
	.st0{fill:#D6F6FF;}
	.st1{fill:#F2BDC7;}
	.st2{fill:#E298BB;}
	.st3{fill:#F2856D;}
	.st4{fill:#AEE1E5;}
	.st5{fill:#FFF254;}
	.st6{fill:#F7F2CD;}
	.st7{fill:#F4EDAE;}
	.st8{fill:#FFFFFF;}
	.st9{fill:#555555;}
	.st10{fill:#BDD9F2;}
	.st11{fill:#FFCCE7;}
	.st12{fill:#D99197;}
	.st13{fill:#E8E1FF;}
	.st14{fill:#F2AA80;}
	.st15{fill:#E8E8E8;}
	.st16{fill:#C69DDF;}
	.st17{fill:#F2C849;}
	.st18{fill:#3B5E8C;}
	.st19{fill:#F2DFCE;}
	.st20{fill:#F5DFFB;}
	.st21{fill:#EFB1D5;}
	.st22{fill:#B2DEFF;}
	.st23{opacity:0.5;fill:#BFE9F7;}
	.st24{fill:#33B8BF;}
	.st25{fill:#B8CC07;}
	.st26{fill:#D9662D;}
	.st27{fill:#333333;}
	.st28{fill:none;}
	.st29{fill:#F1C4C7;}
	.st30{fill:#F4E6B2;}
	.st31{fill:#CCB5DD;}
	.st32{fill:#F9E1A5;}
	.st33{fill:#A0E59C;}
	.st34{fill:#A68256;}
	.st35{fill:#BF2A2A;}
	.st36{fill:#E8E7E6;}
	.st37{fill:#F2F2F0;}
	.st38{fill:#B69BDD;}
	.st39{fill:#F20530;}
	.st40{fill:#F26363;}
	.st41{fill:#D1C8C7;}
	.st42{fill:#BF463B;}
	.st43{fill:#F2F2F2;}
	.st44{fill:#AFA5A5;}
</style>
<circle class="st3" cx="50" cy="50" r="50"/>
<path class="st40" d="M51.5,76.9c0,0.9-0.7,1.5-1.5,1.5s-1.5-0.7-1.5-1.5c0-0.8,0.7-1.5,1.5-1.5S51.5,76,51.5,76.9z"/>
<path class="st40" d="M51.5,67.7c0,0.8-0.7,1.5-1.5,1.5s-1.5-0.7-1.5-1.5c0-0.9,0.7-1.5,1.5-1.5S51.5,66.8,51.5,67.7z"/>
<path class="st40" d="M51.5,58.5c0,0.8-0.7,1.5-1.5,1.5s-1.5-0.7-1.5-1.5c0-0.8,0.7-1.5,1.5-1.5S51.5,57.6,51.5,58.5z"/>
<path class="st40" d="M51.5,49.2c0,0.8-0.7,1.5-1.5,1.5s-1.5-0.7-1.5-1.5s0.7-1.5,1.5-1.5S51.5,48.4,51.5,49.2z"/>
<path class="st40" d="M50,38.5c0.8,0,1.5,0.7,1.5,1.5c0,0.8-0.7,1.5-1.5,1.5s-1.5-0.7-1.5-1.5C48.5,39.2,49.2,38.5,50,38.5z"/>
<g>
	<path class="st9" d="M70.6,27.8c-0.2,0-0.4,0-0.6,0h-5.8l2.6-3.4c0.2-0.3,0.2-0.7,0-0.9l-4.6-6.2C62,17.1,61.8,17,61.5,17H38.5
		c0,0-0.1,0-0.1,0c-0.2,0-0.4,0.1-0.5,0.3l-4.6,6.2c-0.2,0.3-0.2,0.7,0,0.9l2.6,3.4H30c-0.1,0-0.2,0-0.3,0c-4.2,0.2-7.4,4-7.4,8.4
		v38.4c0,4.5,3.4,8.5,7.7,8.5h40c4.3,0,7.7-3.9,7.7-8.5V36.2C77.7,31.9,74.6,28.1,70.6,27.8z M61.4,18.9l3.8,5l-9.1,11.8L55.9,36
		l-4.8-2.4l0.5-0.7L61.4,18.9L61.4,18.9z M59.8,18.5l-9.8,14l-9.8-14H59.8z M34.8,23.9l3.8-5l0,0l9.8,13.9l0.5,0.7l-4.2,2.1L44.1,36
		L34.8,23.9z M45.4,81.5H30c-3.4,0-6.2-3.2-6.2-6.9V36.2c0-3.7,2.6-6.7,5.8-6.9c0.1,0,0.2,0,0.3,0h7l6.2,8.1
		c0.2,0.3,0.6,0.4,0.9,0.2l0.5-0.3l0.7-0.3v0.7V81.5z M53.1,81.5h-6.1V37.7v-1.5l3.1-1.5l3.1,1.5v1.5V81.5z M76.1,74.6
		c0,3.8-2.8,6.9-6.2,6.9H54.6V37.7V37l1.2,0.6c0.1,0,0.2,0.1,0.3,0.1c0.2,0,0.5-0.1,0.6-0.3l6.2-8.1h7c0.2,0,0.4,0,0.6,0
		c3.1,0.3,5.6,3.3,5.6,6.9V74.6z"/>
	<path class="st9" d="M50,38.5c-0.8,0-1.5,0.7-1.5,1.5c0,0.8,0.7,1.5,1.5,1.5s1.5-0.7,1.5-1.5C51.5,39.2,50.8,38.5,50,38.5z"/>
	<path class="st9" d="M50,66.1c-0.8,0-1.5,0.7-1.5,1.5c0,0.8,0.7,1.5,1.5,1.5s1.5-0.7,1.5-1.5C51.5,66.8,50.8,66.1,50,66.1z"/>
	<path class="st9" d="M50,47.7c-0.8,0-1.5,0.7-1.5,1.5s0.7,1.5,1.5,1.5s1.5-0.7,1.5-1.5S50.8,47.7,50,47.7z"/>
	<path class="st9" d="M50,56.9c-0.8,0-1.5,0.7-1.5,1.5c0,0.8,0.7,1.5,1.5,1.5s1.5-0.7,1.5-1.5C51.5,57.6,50.8,56.9,50,56.9z"/>
	<path class="st9" d="M50,75.4c-0.8,0-1.5,0.7-1.5,1.5c0,0.9,0.7,1.5,1.5,1.5s1.5-0.7,1.5-1.5C51.5,76,50.8,75.4,50,75.4z"/>
</g>
<polygon class="st41" points="38.6,18.9 48.4,32.9 48.9,33.6 44.7,35.6 44.1,36 34.8,23.9 38.6,18.9 "/>
<polygon class="st42" points="40.2,18.5 59.8,18.5 50,32.5 "/>
<polygon class="st41" points="51.1,33.6 51.6,32.9 61.4,18.9 61.4,18.9 65.2,23.9 56.1,35.7 55.9,36 "/>
<path class="st40" d="M50,34.7l-3.1,1.5v45.3h6.1V36.2L50,34.7z M50,78.4c-0.8,0-1.5-0.7-1.5-1.5c0-0.8,0.7-1.5,1.5-1.5
	s1.5,0.7,1.5,1.5C51.5,77.8,50.8,78.4,50,78.4z M50,69.2c-0.8,0-1.5-0.7-1.5-1.5c0-0.9,0.7-1.5,1.5-1.5s1.5,0.7,1.5,1.5
	C51.5,68.5,50.8,69.2,50,69.2z M50,60c-0.8,0-1.5-0.7-1.5-1.5c0-0.8,0.7-1.5,1.5-1.5s1.5,0.7,1.5,1.5C51.5,59.3,50.8,60,50,60z
	 M50,50.8c-0.8,0-1.5-0.7-1.5-1.5s0.7-1.5,1.5-1.5s1.5,0.7,1.5,1.5S50.8,50.8,50,50.8z M50,41.5c-0.8,0-1.5-0.7-1.5-1.5
	c0-0.9,0.7-1.5,1.5-1.5s1.5,0.7,1.5,1.5C51.5,40.9,50.8,41.5,50,41.5z"/>
<path class="st43" d="M76.1,36.2v38.4c0,3.8-2.8,6.9-6.2,6.9H54.6V37l1.2,0.6c0.3,0.2,0.7,0.1,0.9-0.2l6.2-8.1h7
	C73.3,29.3,76.1,32.4,76.1,36.2z"/>
<polygon class="st44" points="59.8,18.5 50,32.5 40.2,18.5 "/>
<path class="st43" d="M45.4,37v44.5H30c-3.4,0-6.2-3.2-6.2-6.9V36.2c0-3.8,2.8-6.9,6.2-6.9h7l6.2,8.1c0.2,0.3,0.6,0.4,0.9,0.2
	L45.4,37z"/>
</svg>
