<?xml version="1.0" encoding="utf-8"?>
<!-- Generator: Adobe Illustrator 24.0.1, SVG Export Plug-In . SVG Version: 6.00 Build 0)  -->
<svg version="1.1" id="Layer_1" xmlns="http://www.w3.org/2000/svg" xmlns:xlink="http://www.w3.org/1999/xlink" x="0px" y="0px"
	 viewBox="0 0 100 100" style="enable-background:new 0 0 100 100;" xml:space="preserve">
<style type="text/css">
	.st0{fill:#D6F6FF;}
	.st1{fill:#F2BDC7;}
	.st2{fill:#E298BB;}
	.st3{fill:#F2856D;}
	.st4{fill:#AEE1E5;}
	.st5{fill:#FFF254;}
	.st6{fill:#F7F2CD;}
	.st7{fill:#F4EDAE;}
	.st8{fill:#FFFFFF;}
	.st9{fill:#555555;}
	.st10{fill:#BDD9F2;}
	.st11{fill:#FFCCE7;}
	.st12{fill:#D99197;}
	.st13{fill:#E8E1FF;}
	.st14{fill:#F2AA80;}
	.st15{fill:#E8E8E8;}
	.st16{fill:#C69DDF;}
	.st17{fill:#F2C849;}
	.st18{fill:#3B5E8C;}
	.st19{fill:#F2DFCE;}
	.st20{fill:#F5DFFB;}
	.st21{fill:#EFB1D5;}
	.st22{fill:#B2DEFF;}
	.st23{opacity:0.5;fill:#BFE9F7;}
	.st24{fill:#33B8BF;}
	.st25{fill:#B8CC07;}
	.st26{fill:#D9662D;}
	.st27{fill:#333333;}
	.st28{fill:none;}
	.st29{fill:#F1C4C7;}
	.st30{fill:#F4E6B2;}
	.st31{fill:#CCB5DD;}
	.st32{fill:#F9E1A5;}
	.st33{fill:#A0E59C;}
	.st34{fill:#A68256;}
	.st35{fill:#BF2A2A;}
	.st36{fill:#E8E7E6;}
	.st37{fill:#F2F2F0;}
	.st38{fill:#B69BDD;}
	.st39{fill:#F20530;}
	.st40{fill:#F26363;}
	.st41{fill:#D1C8C7;}
	.st42{fill:#BF463B;}
	.st43{fill:#F2F2F2;}
	.st44{fill:#AFA5A5;}
</style>
<circle class="st4" cx="50" cy="50" r="50"/>
<path class="st28" d="M45.1,47.7c-0.6-0.1-1.2,0.3-1.3,0.9c-0.1,0.6,0.3,1.2,0.9,1.3c0.1,0,0.2,0,0.3,0c0.6,0.1,1.2-0.3,1.3-0.9
	c0.1-0.6-0.3-1.2-0.9-1.3C45.3,47.7,45.2,47.7,45.1,47.7z"/>
<path class="st29" d="M71.7,45.5c-0.3,14.5-12.4,26-26.8,25.7c-4.3,0-8.5-1-12.3-2.9l-0.2,0L32.2,68C32.1,68,32,68,32,68h-0.5
	l-0.6,0.2l-7.6,4.5l1.7-9.3c0-0.1,0-0.2,0-0.3v-0.1l0-0.1v-0.1c0,0,0,0,0-0.1l0-0.1c0-0.1-0.1-0.1-0.1-0.2l-0.3-0.4
	c-4.1-4.5-6.4-10.3-6.5-16.4C18.5,31,30.5,19.6,44.9,20C59.3,19.6,71.3,31,71.7,45.5z"/>
<path class="st28" d="M56.6,47.7c-0.6,0-1.1,0.5-1.1,1.1c0,0.6,0.5,1.1,1.1,1.1c0.6,0,1.1-0.5,1.1-1.1
	C57.8,48.2,57.2,47.7,56.6,47.7C56.6,47.7,56.6,47.7,56.6,47.7z"/>
<path class="st28" d="M33.7,47.7c-0.6,0-1.1,0.5-1.1,1.1c0,0.6,0.5,1.1,1.1,1.1c0.6,0,1.1-0.5,1.1-1.1
	C34.8,48.2,34.3,47.7,33.7,47.7C33.7,47.7,33.7,47.7,33.7,47.7z"/>
<path class="st28" d="M72.8,67.5c0-0.2,0-0.3,0-0.5v-0.4c0-0.2,0.1-0.3,0.2-0.5c0.1-0.1,0.1-0.3,0.3-0.4c0,0,0-0.1,0-0.1
	c2.7-2.8,4.3-6.5,4.3-10.5c0-4.4-1.9-8.6-5.2-11.5c0.4,1.7,0.6,3.4,0.6,5.2c-0.1,9.2-5,17.7-12.9,22.3c3,0.1,5.9-0.5,8.6-1.8h0.3
	h0.4c0.2,0,0.4,0,0.5,0h0.3l0.6,0.2c0,0,0.1,0,0.2,0l2.6,1.5l-0.6-3.2L72.8,67.5z"/>
<path class="st9" d="M79.2,66.3l0.4-0.5c3.1-3.7,4.8-8.4,4.8-13.3c-0.1-8.5-5.2-16.2-13-19.5l-0.4-0.2l-0.2-0.4
	c-0.5-0.9-1.1-1.9-1.8-2.7c-1.8-2.4-3.9-4.5-6.2-6.3c-5-3.7-11.2-5.8-17.6-5.8h-0.2C29.1,17.2,16,29.8,15.7,45.5
	c0,6.4,2.3,12.6,6.5,17.4l0.4,0.5l-2.1,11.2c-0.1,0.3,0,0.7,0.3,1c0.1,0.1,0.1,0.2,0.2,0.2c0.1,0.1,0.2,0.1,0.4,0.2
	c0.1,0,0.2,0.1,0.3,0.1c0.2,0,0.4-0.1,0.6-0.2l9.6-5.4l0.6,0.3c6.3,2.9,13.4,3.5,20,1.7l0.4-0.1l0.4,0.2c0.2,0.1,0.3,0.1,0.5,0.2
	c2.3,0.8,4.7,1.3,7.2,1.4c3.4,0.1,6.9-0.5,10.1-1.9l0.6-0.3l7.2,4.1c0.2,0.1,0.4,0.2,0.6,0.2c0.3,0,0.6-0.1,0.9-0.3
	c0.2-0.2,0.4-0.5,0.4-0.8c0-0.1,0-0.2,0-0.2L79.2,66.3z M44.9,71.1c-4.3,0-8.5-1-12.3-2.9l-0.2,0L32.2,68C32.1,68,32,68,32,68h-0.5
	l-0.6,0.2l-7.6,4.5l1.7-9.3c0-0.1,0-0.2,0-0.3v-0.1l0-0.1v-0.1c0,0,0,0,0-0.1l0-0.1c0-0.1-0.1-0.1-0.1-0.2l-0.3-0.4
	c-4.1-4.5-6.4-10.3-6.5-16.4C18.5,31,30.5,19.6,44.9,20c8.4-0.2,16,3.6,21,9.7c3.5,4.3,5.7,9.8,5.8,15.8
	C71.5,56.9,64,66.4,53.8,69.8C51,70.7,48,71.2,44.9,71.1z M77.4,65.3l-0.8,0.3l0,0.1V66l0,0.1l1.1,6.1l-5.4-2.7l-0.8-0.2l-0.3,0
	h-0.4c-2.1,1-4.5,1.7-6.8,1.9c-1,0.1-2,0.1-3,0.1l-4.7-0.2l4-2.3c6.8-3.9,11.5-10.5,13.1-18c0.4-1.8,0.6-3.6,0.6-5.5
	c0-1.8-0.2-3.7-0.6-5.5l-0.8-4l3.1,2.8c3.9,3.5,6.1,8.5,6.2,13.7c0,4.5-1.6,8.8-4.6,12.2L77.4,65.3z"/>
<path class="st30" d="M76.6,66.2l1.1,6.1l-5.4-2.7l-0.8-0.2l-0.3,0h-0.4c-2.1,1-4.5,1.7-6.8,1.9c-1,0.1-2,0.1-3,0.1l-4.7-0.2l4-2.3
	c6.8-3.9,11.5-10.5,13.1-18c0.4-1.8,0.6-3.6,0.6-5.5c0-1.8-0.2-3.7-0.6-5.5l-0.8-4l3.1,2.8c3.9,3.5,6.1,8.5,6.2,13.7
	c0,4.5-1.6,8.8-4.6,12.2l0.1,0.6l-0.8,0.3l0,0.1V66L76.6,66.2z"/>
<circle class="st8" cx="44.8" cy="45.7" r="2.5"/>
<circle class="st4" cx="57.3" cy="45.7" r="2.5"/>
<path class="st9" d="M42,48c0.6,0.7,1.5,1,2.4,1.1c0.9,0,1.8-0.3,2.5-1c0.7-0.6,1-1.5,1.1-2.4c0-1.9-1.5-3.5-3.4-3.5h0
	c0,0,0,0-0.1,0c-0.9,0-1.7,0.3-2.4,1c-0.7,0.6-1,1.5-1.1,2.4S41.4,47.4,42,48z M44.7,43.9c0.9,0,1.6,0.8,1.6,1.7
	c0,0.9-0.8,1.6-1.7,1.6c0,0,0,0,0,0l0,0c-0.4,0-0.9-0.2-1.2-0.5C43.1,46.4,43,46,43,45.5C43,44.6,43.8,43.9,44.7,43.9z"/>
<path class="st9" d="M57.2,49.1c1.9,0.1,3.5-1.5,3.5-3.4c0-1.9-1.5-3.5-3.4-3.5h0c0,0,0,0-0.1,0c-1.9,0-3.4,1.5-3.4,3.4
	C53.8,47.5,55.3,49.1,57.2,49.1z M55.8,44.6c0.3-0.4,0.7-0.6,1.1-0.7c0.1,0,0.3,0,0.4,0c0.4,0,0.8,0.1,1.2,0.3
	c0.4,0.3,0.6,0.7,0.7,1.1c0.1,0.9-0.5,1.8-1.4,1.9c-0.1,0-0.3,0-0.4,0c-0.1,0-0.1,0-0.2,0c-0.8,0-1.5-0.6-1.7-1.4
	C55.4,45.4,55.6,45,55.8,44.6z"/>
<path class="st31" d="M33.6,45.6c0,0.9-0.8,1.6-1.7,1.6h0c-0.5,0-0.9-0.2-1.2-0.5c-0.3-0.3-0.5-0.8-0.4-1.2c0-0.9,0.8-1.6,1.7-1.6
	C32.9,44,33.6,44.8,33.6,45.6z"/>
<path class="st9" d="M31.9,42.2L31.9,42.2c-2,0-3.5,1.5-3.5,3.4c0,1.9,1.5,3.5,3.4,3.5c0.9,0,1.8-0.3,2.5-0.9c0.7-0.6,1-1.5,1.1-2.4
	v-0.1C35.2,43.8,33.7,42.2,31.9,42.2z M31.9,48.2c-1.4,0-2.5-1.1-2.5-2.5c0-1.4,1.1-2.5,2.5-2.5c1.4,0,2.6,1.1,2.6,2.5
	C34.5,47.1,33.3,48.2,31.9,48.2z"/>
<path class="st9" d="M31.9,43.1c-1.4,0-2.5,1.1-2.5,2.5c0,1.4,1.1,2.5,2.5,2.5c1.4,0,2.6-1.1,2.6-2.5C34.5,44.3,33.3,43.1,31.9,43.1
	z M31.9,47.3L31.9,47.3c-0.5,0-0.9-0.2-1.2-0.5c-0.3-0.3-0.5-0.8-0.4-1.2c0-0.9,0.8-1.6,1.7-1.6c0.9,0,1.6,0.8,1.6,1.7
	C33.6,46.6,32.8,47.3,31.9,47.3z"/>
</svg>
