<?xml version="1.0" encoding="utf-8"?>
<!-- Generator: Adobe Illustrator 24.0.1, SVG Export Plug-In . SVG Version: 6.00 Build 0)  -->
<svg version="1.1" id="Layer_1" xmlns="http://www.w3.org/2000/svg" xmlns:xlink="http://www.w3.org/1999/xlink" x="0px" y="0px"
	 viewBox="0 0 100 100" style="enable-background:new 0 0 100 100;" xml:space="preserve">
<style type="text/css">
	.st0{fill:#D6F6FF;}
	.st1{fill:#F2BDC7;}
	.st2{fill:#E298BB;}
	.st3{fill:#F2856D;}
	.st4{fill:#AEE1E5;}
	.st5{fill:#FFF254;}
	.st6{fill:#F7F2CD;}
	.st7{fill:#F4EDAE;}
	.st8{fill:#FFFFFF;}
	.st9{fill:#555555;}
	.st10{fill:#BDD9F2;}
	.st11{fill:#FFCCE7;}
	.st12{fill:#D99197;}
	.st13{fill:#E8E1FF;}
	.st14{fill:#F2AA80;}
	.st15{fill:#E8E8E8;}
	.st16{fill:#C69DDF;}
	.st17{fill:#F2C849;}
	.st18{fill:#3B5E8C;}
	.st19{fill:#F2DFCE;}
	.st20{fill:#F5DFFB;}
	.st21{fill:#EFB1D5;}
	.st22{fill:#B2DEFF;}
	.st23{opacity:0.5;fill:#BFE9F7;}
	.st24{fill:#33B8BF;}
	.st25{fill:#B8CC07;}
	.st26{fill:#D9662D;}
	.st27{fill:#333333;}
	.st28{fill:none;}
	.st29{fill:#F1C4C7;}
	.st30{fill:#F4E6B2;}
	.st31{fill:#CCB5DD;}
	.st32{fill:#F9E1A5;}
	.st33{fill:#A0E59C;}
	.st34{fill:#A68256;}
	.st35{fill:#BF2A2A;}
	.st36{fill:#E8E7E6;}
	.st37{fill:#F2F2F0;}
	.st38{fill:#B69BDD;}
	.st39{fill:#F20530;}
	.st40{fill:#F26363;}
	.st41{fill:#D1C8C7;}
	.st42{fill:#BF463B;}
	.st43{fill:#F2F2F2;}
	.st44{fill:#AFA5A5;}
</style>
<circle class="st32" cx="50" cy="50" r="50"/>
<path class="st34" d="M59.7,44.1c1.1,1.3,1.6,2.8,1.5,4.5c-0.1,1.7-0.9,3.2-2.1,4.2l-8.5,7.4c-0.2,0.1-0.4,0.2-0.6,0.2
	s-0.4-0.1-0.6-0.2l-8.5-7.4c-0.1-0.1-0.2-0.2-0.3-0.3c-2.4-2.4-2.4-6.3,0-8.8c1.2-1.2,2.8-1.8,4.4-1.8c1.6,0,3.2,0.6,4.4,1.8
	l0.6,0.6l0.6-0.6c1.3-1.3,3.2-2,5.1-1.8l0.1,0C57.3,42.2,58.7,43,59.7,44.1z"/>
<path class="st34" d="M50,28.1C38,28.1,28.2,38,28.2,50S38,71.8,50,71.8c12,0,21.8-9.8,21.8-21.8C71.8,38,62,28.1,50,28.1z M50,68.3
	c-10.1,0-18.3-8.2-18.3-18.3S39.9,31.7,50,31.7S68.3,39.9,68.3,50C68.3,60.1,60.1,68.3,50,68.3z"/>
<path class="st35" d="M59.5,48.7c-0.1,1.1-0.6,2.1-1.5,2.8l-0.1,0L50,58.4l-7.9-6.9c-0.9-0.8-1.5-1.9-1.5-3.1
	c-0.1-1.2,0.3-2.3,1.1-3.3c0.7-0.8,1.8-1.4,2.9-1.5c0.2,0,0.3,0,0.5,0c1.2,0,2.3,0.5,3.2,1.3l1.2,1.2c0.3,0.3,0.9,0.3,1.2,0l1.2-1.2
	c1-1,2.3-1.4,3.7-1.3c1.2,0.1,2.3,0.7,3,1.7C59.3,46.3,59.6,47.5,59.5,48.7z"/>
<path class="st34" d="M22.9,36.5v6l-2.1,2.1c-0.2,0.2-0.3,0.4-0.3,0.6v25.4h-3.1V45.2c0-0.2-0.1-0.4-0.3-0.6L15,42.5v-6H22.9z"/>
<path class="st9" d="M50,30c-11,0-20,9-20,20s9,20,20,20s20-9,20-20C70,39,61,30,50,30z M50,68.3c-10.1,0-18.3-8.2-18.3-18.3
	S39.9,31.7,50,31.7S68.3,39.9,68.3,50C68.3,60.1,60.1,68.3,50,68.3z"/>
<path class="st9" d="M86.2,27.7c-0.1-0.1-0.3-0.1-0.4-0.1c-0.2,0-0.3,0.1-0.5,0.2c-5.4,3.9-8.7,10.2-8.7,17v10
	c0,0.5,0.4,0.9,0.8,0.9h2.7v13.5c0,1.8,1.5,3.2,3.2,3.2c1.8,0,3.2-1.5,3.2-3.2V28.5C86.7,28.2,86.5,27.9,86.2,27.7z M78.3,44.8
	c0-5.3,2.2-10.4,6.1-14l0.6-0.5v23.7h-6.7V44.8z M85,69.1c0,0.8-0.7,1.5-1.5,1.5c-0.9,0-1.5-0.7-1.5-1.5V55.6H85V69.1z"/>
<path class="st34" d="M85,55.6v13.5c0,0.8-0.7,1.5-1.5,1.5c-0.9,0-1.5-0.7-1.5-1.5V55.6H85z"/>
<path class="st36" d="M85,30.2v23.7h-6.7v-9.2c0-5.3,2.2-10.4,6.1-14L85,30.2z"/>
<path class="st9" d="M50,26.4C37,26.4,26.4,37,26.4,50S37,73.6,50,73.6S73.6,63,73.6,50C73.5,37,63,26.5,50,26.4z M50,71.8
	C38,71.8,28.2,62,28.2,50S38,28.1,50,28.1S71.8,38,71.8,50C71.8,62,62,71.8,50,71.8z"/>
<path class="st8" d="M50,31.7c-10.1,0-18.3,8.2-18.3,18.3S39.9,68.3,50,68.3c10.1,0,18.3-8.2,18.3-18.3C68.3,39.9,60.1,31.7,50,31.7
	z M61.2,48.6c-0.1,1.7-0.9,3.2-2.1,4.2l-8.5,7.4c-0.2,0.1-0.4,0.2-0.6,0.2s-0.4-0.1-0.6-0.2l-8.5-7.4c-0.1-0.1-0.2-0.2-0.3-0.3
	c-2.4-2.4-2.4-6.3,0-8.8c1.2-1.2,2.8-1.8,4.4-1.8c1.6,0,3.2,0.6,4.4,1.8l0.6,0.6l0.6-0.6c1.3-1.3,3.2-2,5.1-1.8l0.1,0
	c1.5,0.2,2.9,0.9,3.9,2.1C60.8,45.3,61.3,46.9,61.2,48.6z"/>
<path class="st9" d="M59.7,44.1c-1-1.1-2.4-1.9-3.9-2.1l-0.1,0c-1.9-0.2-3.7,0.4-5.1,1.8L50,44.4l-0.6-0.6C48.2,42.6,46.6,42,45,42
	c-1.6,0-3.2,0.6-4.4,1.8c-2.4,2.4-2.4,6.3,0,8.8c0.1,0.1,0.2,0.2,0.3,0.3l8.5,7.4c0.2,0.1,0.4,0.2,0.6,0.2s0.4-0.1,0.6-0.2l8.5-7.4
	c1.3-1.1,2-2.6,2.1-4.2C61.3,46.9,60.8,45.3,59.7,44.1z M59.5,48.7c-0.1,1.1-0.6,2.1-1.5,2.8l-0.1,0L50,58.4l-7.9-6.9
	c-0.9-0.8-1.5-1.9-1.5-3.1c-0.1-1.2,0.3-2.3,1.1-3.3c0.7-0.8,1.8-1.4,2.9-1.5c0.2,0,0.3,0,0.5,0c1.2,0,2.3,0.5,3.2,1.3l1.2,1.2
	c0.3,0.3,0.9,0.3,1.2,0l1.2-1.2c1-1,2.3-1.4,3.7-1.3c1.2,0.1,2.3,0.7,3,1.7C59.3,46.3,59.6,47.5,59.5,48.7z"/>
<path class="st9" d="M23.7,27.6c-0.5,0-0.9,0.4-0.9,0.8v4.8v1.5h-3.1v-1.5v-4.8c0-0.5-0.4-0.8-0.9-0.8c-0.5,0-0.8,0.4-0.8,0.8v4.8
	v1.5H15v-1.5v-4.8c0-0.5-0.4-0.8-0.8-0.8c-0.5,0-0.9,0.4-0.9,0.8v4.8v9.5c0,0.2,0.1,0.4,0.3,0.6l2.1,2.1v25.9c0,0.5,0.4,0.8,0.8,0.8
	h4.8c0.5,0,0.8-0.4,0.8-0.8V45.6l2.1-2.1c0.2-0.2,0.3-0.4,0.3-0.6v-9.5v-4.8C24.6,28,24.2,27.6,23.7,27.6z M22.9,42.5l-2.1,2.1
	c-0.2,0.2-0.3,0.4-0.3,0.6v25.4h-3.1V45.2c0-0.2-0.1-0.4-0.3-0.6L15,42.5v-6h7.9V42.5z"/>
</svg>
