<?xml version="1.0" encoding="utf-8"?>
<!-- Generator: Adobe Illustrator 24.0.1, SVG Export Plug-In . SVG Version: 6.00 Build 0)  -->
<svg version="1.1" id="Layer_1" xmlns="http://www.w3.org/2000/svg" xmlns:xlink="http://www.w3.org/1999/xlink" x="0px" y="0px"
	 viewBox="0 0 100 100" style="enable-background:new 0 0 100 100;" xml:space="preserve">
<style type="text/css">
	.st0{fill:#D6F6FF;}
	.st1{fill:#F2BDC7;}
	.st2{fill:#FFFFFF;}
	.st3{fill:#555555;}
	.st4{fill:#BDD9F2;}
	.st5{fill:#FFCCE7;}
	.st6{fill:#D99197;}
	.st7{fill:#E8E1FF;}
	.st8{fill:#F2AA80;}
	.st9{fill:#E8E8E8;}
	.st10{fill:#C69DDF;}
	.st11{fill:#F2C849;}
	.st12{fill:#3B5E8C;}
	.st13{fill:#F2DFCE;}
	.st14{fill:#F5DFFB;}
	.st15{fill:#EFB1D5;}
	.st16{fill:#B2DEFF;}
</style>
<circle class="st1" cx="50" cy="50" r="50"/>
<path class="st2" d="M33.6,18L17.2,33.6v43.3c0,0,0,6.3,4.9,6.3s47.6,0,47.6,0v-59c0,0,1-7.7-5.7-7.7s-27.6,0-27.6,0L33.6,18z"/>
<path class="st3" d="M70.7,49V23.2c0-4.4-3.4-7.8-7.8-7.8H34c-0.4,0-0.8,0.1-1.2,0.2c-0.2,0.1-0.6,0.4-0.9,0.6L17,30.6
	c-0.3,0.3-0.5,0.6-0.7,1.1c-0.1,0.3-0.2,0.7-0.2,1.1v44.1c0,4.3,3.5,7.8,7.8,7.8h30.9c-0.7-0.7-1.3-1.4-1.9-2.2H23.9
	c-3.1,0-5.7-2.5-5.7-5.7V34c0-0.6,0.4-1,1-1h7.3c4.2,0,7.8-3.6,7.8-7.8v-6.7c0-0.6,0.4-1,1-1H63c3.1,0,5.7,2.5,5.7,5.7V49
	C69.3,48.9,70,48.9,70.7,49z"/>
<circle class="st4" cx="65.9" cy="67.2" r="14"/>
<path class="st3" d="M65.9,82.2c-8.3,0-15-6.7-15-15s6.7-15,15-15s15,6.7,15,15S74.2,82.2,65.9,82.2z M65.9,54.2
	c-7.2,0-13,5.8-13,13c0,7.2,5.8,13,13,13c7.2,0,13-5.8,13-13C78.9,60,73.1,54.2,65.9,54.2z"/>
<path class="st3" d="M64.1,57.8c0.1-0.1,0-0.2,0-0.3c0-0.1,0.1-0.1,0.2-0.1c0.1,0,0.2-0.1,0.3-0.1c0.1,0,0.1,0.1,0.2,0.2
	c0.2,0.1,0.3-0.1,0.4,0c0.1,0.1,0.1,0.3,0.2,0.2c-0.1,0,0,0.1-0.1,0.2c0,0.1-0.1,0.2-0.1,0.3c0,0.2,0.2,0.4,0.4,0.3
	c0.2,0,0.4-0.2,0.6-0.1c0.2,0.1,0.1,0.4,0.1,0.5c0,0.3-0.1,0.5-0.1,0.8c0,0.3,0,0.5-0.1,0.8c-0.1,0.2-0.2,0.3-0.1,0.5
	c0.1,0.2,0.4,0,0.5-0.1c0.3-0.2,0.5-0.7,0.9-0.7c0.4,0,0.6,0.5,1,0.3c0.3-0.2,0.4-0.6,0.7-0.6c0.5-0.1,0.8,0.4,1,0.6
	c0.2,0.2,0.4,0.3,0.6,0.6s0.1,0.5,0.1,0.8c0,0.3,0,0.5,0.1,0.8c0.2,0.2,0.5,0.3,0.7,0.4c-0.1,0,0,0.2,0,0.2c0.1,0.1,0.2,0.2,0.2,0.4
	c0,0.2-0.3,0.6,0,0.8c-0.1,0.1-0.2,0.3-0.1,0.3c-0.1,0,0,0.2,0,0.3c0,0.1-0.2,0.2-0.3,0.2s-0.1,0.2-0.3,0.2s-0.2-0.2-0.2-0.2
	c-0.2-0.1-0.3,0-0.5,0c-0.2,0-0.4,0-0.6,0c-0.2,0-0.5,0.2-0.6-0.1c0,0.1-0.2,0.1-0.3,0.1c-0.2,0-0.4,0.1-0.6,0.2
	c-0.1,0.2-0.2,0.4-0.3,0.5c0,0-0.3,0.2-0.2,0.3c-0.1,0-0.2,0-0.3,0.1c-0.1,0.1,0,0.3,0,0.4c0,0.1,0.2,0.2,0.2,0.4
	c0,0.1,0,0.3,0.1,0.4c0.1,0.1,0.2,0.1,0.2,0.2c0.1,0.1,0,0.3,0,0.4c0,0.3,0.2,0.5,0.2,0.7c-0.1-0.3-0.3-0.5-0.5-0.8
	c0,0.1,0,0.2,0,0.2c-0.1,0-0.2-0.1-0.2-0.2c-0.1,0-0.2-0.1-0.2-0.2c0.1,0,0,0,0-0.1c0,0,0,0-0.1,0c0,0-0.1,0-0.1-0.1
	c0,0-0.1-0.2-0.2-0.2c0,0,0,0,0,0.1c0,0-0.1-0.1-0.1-0.1c0,0-0.1-0.1-0.2-0.2c0,0-0.1,0-0.2-0.1c-0.1,0.2-0.4,0-0.4,0.2
	c-0.1-0.1-0.6-0.3-0.6,0c-0.2,0-0.1-0.3-0.1-0.4c0-0.3,0-0.5,0.1-0.8c-0.1-0.1-0.6,0.1-0.5-0.2c-0.1,0.1-0.2,0.2-0.3,0.2
	c0,0-0.4,0.3-0.5,0.1c0.1,0.1-0.1,0.5,0.2,0.4c-0.2,0.2-0.1,0.6-0.2,0.8c0,0.2,0,0.3-0.1,0.5c-0.1,0.1-0.2,0.3-0.1,0.4
	c-0.1-0.1-0.2,0.2-0.2,0.2c0,0.1-0.1,0.1-0.1,0.2c0,0.1,0,0.2,0,0.3c0.1,0.2-0.2,0.5-0.3,0.6c-0.1,0.2-0.2,0.3-0.2,0.5
	c0,0-0.1,0.2,0,0.2c-0.3,0.3-0.1,0.8,0.1,1.1c-0.1,0,0.1,0.2,0.1,0.3c0.1,0,0.4,0,0.4-0.2c0,0,0.1,0,0.2,0c0,0,0.1,0.1,0.1,0.1
	c0.1,0.1,0,0.3,0,0.4c0,0.3,0.1,0.5,0.3,0.7c0,0,0-0.2-0.1-0.2c0.3-0.1,0.3,0.7,0.3,0.8c0,0.2,0,0.3,0.1,0.4c0,0.1,0.2,0.2,0.1,0.4
	c0,0.1-0.2,0.1-0.1,0.2c0.1,0,0.2,0,0.2-0.1c0.2,0.2,0.3,0.4,0.6,0.5c0.1,0,0.2,0.1,0.3,0c0,0,0.1-0.2,0-0.1
	c0.3-0.2,0.5,0.4,0.7,0.6c0.1,0.2,0.3,0.3,0.3,0.5c0,0.1-0.1,0.2-0.2,0.3c0,0.1-0.2,0.1-0.2,0.2c-0.1,0-0.2-0.2-0.3-0.2
	s-0.3,0.1-0.4,0.2c-0.1,0.1-0.3,0.2-0.3,0c0,0,0-0.3,0.1-0.2c0-0.2,0-0.3-0.2-0.5c-0.1-0.1-0.3-0.2-0.3-0.3c-0.2,0.3-0.4,0-0.5-0.2
	c-0.3-0.2-0.2,0.1-0.3,0.3c0,0,0-0.1,0-0.2c-0.1,0-0.2-0.1-0.2,0c0.1-0.1-0.1-0.2-0.2-0.3c0,0-0.1-0.1-0.1-0.1c0,0,0-0.2,0-0.4
	c0,0-0.1,0-0.1,0c0,0,0-0.1,0-0.1c0,0-0.1,0-0.1,0c0,0,0,0.1,0,0c-0.1-0.1,0-0.2,0-0.3c0,0.1-0.1,0-0.1-0.1c0,0.2-0.4-0.1-0.3-0.3
	c0,0,0,0-0.1,0c0,0,0,0,0-0.1c0,0-0.1,0-0.1,0c0-0.1-0.1-0.1-0.1-0.2c-0.1,0-0.1,0.2-0.2,0c-0.1-0.1,0.1-0.2,0.1-0.3
	c-0.1,0-0.2-0.1-0.2-0.1c0-0.1-0.2-0.1-0.2,0c-0.1-0.1,0-0.3-0.1-0.4c0,0-0.1,0-0.1,0c0-0.1,0.1-0.1,0-0.2c0,0,0,0,0,0
	c0,0-0.1,0.1-0.1,0c0,0-0.1,0,0,0.1c0,0,0-0.1,0-0.1c0,0,0,0.1,0,0.1c0.1,0,0,0.2,0,0.2c-0.2-0.1-0.5-0.4-0.3-0.6c0,0,0,0.1,0,0.1
	c0-0.1,0.1-0.6,0.2-0.5c0-0.1-0.1-0.4,0-0.3c0-0.2,0-0.4,0.1-0.5c0,0,0,0.1,0,0.1c0-0.1,0.1-0.1,0.2-0.1c0,0-0.1,0-0.1-0.1
	c0,0,0,0,0.1,0c0,0,0,0,0,0c0,0-0.1,0-0.1,0c0.1,0,0.1-0.1,0-0.1c0-0.1,0.1-0.1,0.1-0.1c0-0.1,0-0.2,0.1-0.2c0-0.2,0.1-0.3,0.2-0.5
	c0.1-0.2,0.1-0.3,0.2-0.5c0.1-0.2,0.2-0.3,0.3-0.4c0.1-0.1,0.2-0.3,0.3-0.4c0.1-0.1,0.2-0.2,0.3-0.4c0.2-0.3-0.1-0.8-0.2-1.1
	c-0.1-0.4-0.3-0.7-0.3-1.1c0-0.3-0.1-0.6-0.3-0.9c-0.2-0.3-0.5-0.5-0.7-0.8c-0.1-0.1-0.2-0.3-0.2-0.5c0-0.1,0-0.2,0-0.3
	c0,0,0.1-0.1,0.1-0.1c0.2,0,0.2,0.1,0.3,0c0.1-0.1,0.2-0.2,0.1-0.4c0-0.2-0.1-0.4,0-0.5c0.1-0.1,0.2-0.1,0.3-0.2
	c0.1-0.1,0.1-0.2,0-0.3c-0.1-0.1-0.2,0.1-0.3,0c-0.1,0-0.1-0.3-0.1-0.3c0-0.1-0.2-0.2,0-0.3c-0.1-0.1-0.1-0.2-0.2-0.3
	s-0.2-0.2-0.3-0.3c-0.2-0.2-0.5-0.4-0.5-0.6c-0.1-0.2,0-0.5-0.2-0.7c-0.1-0.1-0.5-0.2-0.3-0.4c0,0.1,0.2,0.2,0.3,0.1
	c0.2-0.1,0.1-0.3,0.1-0.5c0-0.2,0.1-0.4,0.1-0.6c0-0.2,0-0.4,0.2-0.5c0.2-0.2,0.3,0,0.5,0s0.4,0,0.6,0c0.2-0.1,0.2-0.3,0.3-0.4
	C63.8,57.8,64,57.9,64.1,57.8"/>
<path class="st3" d="M44.7,62.2c-0.5,0-1-0.1-1.5-0.4l-6.3-3.8l-6.3,3.8c-0.6,0.3-1.3,0.4-2,0.3c-0.8-0.2-1.4-0.6-1.8-1.2
	c-0.4-0.6-0.6-1.4-0.4-2.2l1.6-7.2l-5.5-4.8c-0.5-0.5-0.9-1.1-1-1.9c-0.1-0.8,0.1-1.5,0.6-2.1c0.5-0.6,1.2-1,1.9-1l7.3-0.7l2.9-6.8
	c0.3-0.7,0.8-1.2,1.5-1.5c1.5-0.6,3.1,0,3.8,1.5l2.9,6.8l7.3,0.7c1.1,0.1,2.1,0.9,2.5,2c0.4,1.1,0.1,2.3-0.8,3l-5.6,4.9l1.6,7.2
	c0.2,0.7,0,1.5-0.3,2.1C46.6,61.7,45.7,62.2,44.7,62.2z M38.2,55.7l6.4,3.8c0.1,0,0.1,0,0.2,0L43,51.4c-0.1-0.5,0.1-1,0.4-1.3
	l6.1-5.4c0,0,0-0.1,0-0.1c0,0,0,0,0,0c0,0-0.1-0.1-0.1-0.1l-8.1-0.7c-0.5,0-0.9-0.4-1.1-0.8L37,35.3c0-0.1-0.1-0.1-0.2-0.1
	c0,0-0.1,0-0.1,0.1l-3.2,7.5c-0.2,0.5-0.6,0.8-1.1,0.8l-8.1,0.7c-0.1,0-0.1,0.1-0.1,0.1l6.2,5.5c0.4,0.3,0.5,0.8,0.4,1.3l-1.8,8
	c0,0,0.1,0.1,0.1,0.1l7.1-4.2c0,0,0.1,0,0.1-0.1c0.2-0.1,0.5-0.2,0.7-0.2h0C37.6,55,38,55.3,38.2,55.7z"/>
<path class="st6" d="M50.9,44.1c-0.2-0.6-0.7-1-1.3-1l-8.1-0.7l-3.2-7.5c-0.3-0.8-1.2-1.1-2-0.8c-0.4,0.2-0.6,0.4-0.8,0.8l-3.2,7.5
	l-8.1,0.7c-0.8,0.1-1.4,0.8-1.3,1.6c0,0.4,0.2,0.7,0.5,1l6.1,5.4l-1.8,8c-0.2,0.8,0.4,1.6,1.2,1.8c0.3,0.1,0.7,0,1-0.1l7-4.2l7,4.2
	c0.7,0.4,1.6,0.2,2.1-0.5c0.2-0.3,0.3-0.7,0.2-1.1l-1.8-8l6.1-5.4C51,45.3,51.1,44.7,50.9,44.1z M37.1,56.4L37.1,56.4z"/>
<rect x="41" y="21.8" class="st3" width="23.5" height="1.8"/>
<rect x="41" y="26.7" class="st3" width="23.5" height="1.8"/>
</svg>
