<?xml version="1.0" encoding="utf-8"?>
<!-- Generator: Adobe Illustrator 24.0.1, SVG Export Plug-In . SVG Version: 6.00 Build 0)  -->
<svg version="1.1" id="Layer_1" xmlns="http://www.w3.org/2000/svg" xmlns:xlink="http://www.w3.org/1999/xlink" x="0px" y="0px"
	 viewBox="0 0 100 100" style="enable-background:new 0 0 100 100;" xml:space="preserve">
<style type="text/css">
	.st0{fill:#D6F6FF;}
	.st1{fill:#F2BDC7;}
	.st2{fill:#FFFFFF;}
	.st3{fill:#555555;}
	.st4{fill:#BDD9F2;}
	.st5{fill:#FFCCE7;}
	.st6{fill:#D99197;}
	.st7{fill:#E8E1FF;}
	.st8{fill:#F2AA80;}
	.st9{fill:#E8E8E8;}
	.st10{fill:#C69DDF;}
	.st11{fill:#F2C849;}
	.st12{fill:#3B5E8C;}
	.st13{fill:#F2DFCE;}
	.st14{fill:#F5DFFB;}
	.st15{fill:#EFB1D5;}
	.st16{fill:#B2DEFF;}
</style>
<circle class="st0" cx="50" cy="50" r="50"/>
<path class="st5" d="M78.1,22.5H21.9c-2,1.1-3.3,3.3-3.3,5.7v8.1h62.7v-8.1C81.4,25.7,80,23.6,78.1,22.5z M79.5,35.4h-59v-7.2
	c0-2.6,2.1-4.7,4.7-4.7h49.6c2.6,0,4.7,2.1,4.7,4.7V35.4z"/>
<path class="st3" d="M78.1,22.5c-1-0.6-2.1-0.9-3.3-0.9H25.2c-1.2,0-2.3,0.3-3.3,0.9c-2,1.1-3.3,3.3-3.3,5.7v43.7
	c0,2.6,1.5,4.8,3.7,5.9c0.9,0.4,1.9,0.7,2.9,0.7h49.6c1,0,2-0.2,2.9-0.7c2.2-1.1,3.7-3.3,3.7-5.9V28.2C81.4,25.7,80,23.6,78.1,22.5z
	 M79.5,71.8c0,2.6-2.1,4.7-4.7,4.7H25.2c-2.6,0-4.7-2.1-4.7-4.7V37.3h59V71.8z M20.5,28.2c0-2.6,2.1-4.7,4.7-4.7h49.6
	c2.6,0,4.7,2.1,4.7,4.7v7.2h-59V28.2z"/>
<path class="st14" d="M79.5,37.3v34.5c0,2.6-2.1,4.7-4.7,4.7H25.2c-2.6,0-4.7-2.1-4.7-4.7V37.3H79.5z"/>
<path class="st15" d="M79.5,28.2v7.2h-59v-7.2c0-2.6,2.1-4.7,4.7-4.7h49.6C77.4,23.5,79.5,25.6,79.5,28.2z"/>
<path class="st3" d="M64,54.3c0-0.1,0-0.2,0-0.3c-0.1-0.3-0.4-0.6-0.8-0.6l-8.3-1.2l-3.7-7.5c-0.3-0.6-1.4-0.6-1.7,0l-3.7,7.5
	l-8.3,1.2c-0.4,0-0.7,0.3-0.8,0.6c-0.1,0.3,0,0.7,0.2,1l6,5.8l-1.4,8.3c-0.1,0.4,0.1,0.7,0.4,0.9c0.3,0.2,0.7,0.2,1,0.1l7.4-3.9
	l7.4,3.9c0.3,0.2,0.7,0.1,1-0.1c0.3-0.2,0.4-0.6,0.4-0.9l-1.4-8.3l6-5.8C63.9,54.8,64,54.6,64,54.3z M56,59.8
	c-0.2,0.2-0.3,0.5-0.3,0.8l1.2,6.9l-6.2-3.3c-0.3-0.1-0.6-0.1-0.9,0l-6.2,3.3l1.2-6.9c0-0.3,0-0.6-0.3-0.9l-5-4.8l6.9-1
	c0.3,0,0.6-0.2,0.7-0.5l3.1-6.3l3.1,6.3c0.1,0.3,0.4,0.5,0.7,0.5l6.9,1L56,59.8z"/>
<path class="st16" d="M55.7,60.6l1.2,6.9l-6.2-3.3c-0.3-0.1-0.6-0.1-0.9,0l-6.2,3.3l1.2-6.9c0-0.3,0-0.6-0.3-0.9l-5-4.8l6.9-1
	c0.3,0,0.6-0.2,0.7-0.5l3.1-6.3l3.1,6.3c0.1,0.3,0.4,0.5,0.7,0.5l6.9,1l-5,4.8C55.8,60,55.7,60.3,55.7,60.6z"/>
</svg>
