<?xml version="1.0" encoding="utf-8"?>
<!-- Generator: Adobe Illustrator 24.0.1, SVG Export Plug-In . SVG Version: 6.00 Build 0)  -->
<svg version="1.1" id="Layer_1" xmlns="http://www.w3.org/2000/svg" xmlns:xlink="http://www.w3.org/1999/xlink" x="0px" y="0px"
	 viewBox="0 0 100 100" style="enable-background:new 0 0 100 100;" xml:space="preserve">
<style type="text/css">
	.st0{fill:#D6F6FF;}
	.st1{fill:#F2BDC7;}
	.st2{fill:#FFFFFF;}
	.st3{fill:#555555;}
	.st4{fill:#BDD9F2;}
	.st5{fill:#FFCCE7;}
	.st6{fill:#D99197;}
	.st7{fill:#E8E1FF;}
	.st8{fill:#F2AA80;}
	.st9{fill:#E8E8E8;}
	.st10{fill:#C69DDF;}
	.st11{fill:#F2C849;}
	.st12{fill:#3B5E8C;}
	.st13{fill:#F2DFCE;}
	.st14{fill:#F5DFFB;}
	.st15{fill:#EFB1D5;}
	.st16{fill:#B2DEFF;}
</style>
<circle class="st8" cx="50" cy="50" r="50"/>
<path class="st11" d="M34.4,38.3c0-0.5,0.4-0.9,0.9-0.9h9.1c0.5,0,0.9,0.4,0.9,0.9c0,0.5-0.4,0.9-0.9,0.9h-9.1
	C34.8,39.2,34.4,38.8,34.4,38.3z"/>
<path class="st11" d="M34.4,33.6c0-0.5,0.4-0.9,0.9-0.9h9.1c0.5,0,0.9,0.4,0.9,0.9c0,0.5-0.4,0.9-0.9,0.9h-9.1
	C34.8,34.6,34.4,34.2,34.4,33.6z"/>
<g>
	<path class="st11" d="M25,54.5V24.5c0-0.2,0.1-0.3,0.3-0.3h2.5c0.2,0,0.3,0.2,0.3,0.3V52c0,0.1,0,0.2-0.1,0.2l-2.5,2.5
		c-0.1,0.1-0.1,0.1-0.2,0.1c0,0-0.1,0-0.1,0C25.1,54.7,25,54.6,25,54.5z"/>
	<path class="st11" d="M65.3,57.1c1.1,1.2,1.8,2.8,1.9,4.5c0,0.1,0,0.2-0.1,0.3S67,62,66.9,62H33.1c-0.2,0-0.3-0.2-0.3-0.3
		c0.1-1.7,0.8-3.3,1.9-4.5c0.4-0.4,0.8-0.8,1.3-1.1c0,0,0,0,0.1,0c1.4-0.4,3.6-0.4,6-0.1c2.5,0.3,5.1,0.8,6.8,1.2
		c0.4,0.1,0.7,0.2,1,0.2c0.2,0,0.4,0,0.5,0c0.3-0.1,0.6-0.1,1-0.2c1.6-0.4,4.1-0.9,6.5-1.2c2.4-0.3,4.8-0.4,6.3,0.1c0,0,0.1,0,0.1,0
		C64.5,56.3,65,56.7,65.3,57.1z"/>
	<path class="st11" d="M71.9,52.2c-0.1-0.1-0.1-0.1-0.1-0.2V24.5c0-0.2,0.2-0.3,0.3-0.3h2.5c0.2,0,0.3,0.2,0.3,0.3v29.9
		c0,0.1-0.1,0.3-0.2,0.3c0,0-0.1,0-0.1,0c-0.1,0-0.2,0-0.2-0.1l-1.3-1.3L71.9,52.2z"/>
</g>
<path class="st11" d="M76.1,59v4.1h-7c0-0.5-0.1-1-0.1-1.5c-0.1-1.6-0.6-3.2-1.4-4.5C67,56,66,55.1,65,54.4
	c-0.9-0.5-1.5-1.3-1.9-2.3c-0.1-0.7,0.1-1.3,0.6-1.8c0.3-0.4,0.8-0.7,1.3-0.7c0.6-0.1,1.2,0.1,1.6,0.5c1.5,1.1,3.6,3.1,3.6,3.1
	l2.9,2.8L76.1,59z"/>
<path class="st12" d="M32.3,80.2H15.8v0c0.5,0,0.9-0.4,0.9-0.9V74c0-0.2,0.1-0.3,0.3-0.3h14.1c0.2,0,0.3,0.1,0.3,0.3v5.3
	C31.4,79.8,31.8,80.2,32.3,80.2z"/>
<path class="st12" d="M84.3,80.2H67.7c0.5,0,0.9-0.4,0.9-0.9V74c0-0.2,0.2-0.3,0.3-0.3H83c0.2,0,0.3,0.1,0.3,0.3v5.3
	C83.3,79.8,83.8,80.2,84.3,80.2z"/>
<path class="st2" d="M49.1,24v30.9c0,0.1,0,0.2-0.1,0.3c0,0-0.1,0.1-0.2,0.1c0,0,0,0-0.1,0c-2.1-0.5-4.2-0.9-6.3-1.1
	c-1.2-0.1-2.4-0.2-3.5-0.3h-0.1c-0.1,0-0.2-0.1-0.3-0.2c-0.1-0.1-0.1-0.2,0-0.3c0.2-0.3,0.3-0.7,0.3-1.1c0.1-1.1-0.2-2.3-0.9-3.1
	c-0.6-0.8-1.5-1.3-2.5-1.5c-1.1-0.1-2.2,0.2-3,0.8c-0.5,0.4-1.1,0.9-1.7,1.4c-0.1,0.1-0.2,0.1-0.4,0c-0.1,0-0.2-0.2-0.2-0.3V24.1
	c0-0.1,0.1-0.3,0.2-0.3c0.5-0.2,1-0.4,1.5-0.6c7.3-2.8,13.3-1.2,16,0c0.5,0.2,0.9,0.4,1.2,0.6C49,23.8,49.1,23.9,49.1,24z"/>
<path class="st2" d="M70,24.1v25.6c0,0.1-0.1,0.2-0.2,0.3c-0.1,0.1-0.3,0-0.4,0c-0.6-0.5-1.2-1-1.7-1.4c-0.9-0.7-2-1-3-0.8
	c-1,0.1-1.9,0.7-2.5,1.5c-0.7,0.9-1.1,2-0.9,3.1c0,0.4,0.2,0.7,0.3,1.1c0.1,0.1,0,0.2,0,0.3c-0.1,0.1-0.2,0.2-0.3,0.2h-0.1
	c-1.3,0-2.6,0.1-4,0.3c-2,0.2-4,0.6-5.9,1.1c0,0-0.1,0-0.1,0c-0.1,0-0.1,0-0.2-0.1c-0.1-0.1-0.1-0.2-0.1-0.3V24
	c0-0.1,0.1-0.2,0.2-0.3c0.3-0.2,0.7-0.3,1.2-0.6c2.8-1.2,8.7-2.8,16,0c0.5,0.2,1,0.4,1.5,0.6C69.9,23.8,70,24,70,24.1z"/>
<path class="st3" d="M45.3,33.6c0,0.5-0.4,0.9-0.9,0.9h-9.1c-0.5,0-0.9-0.4-0.9-0.9c0-0.5,0.4-0.9,0.9-0.9h9.1
	C44.9,32.7,45.3,33.1,45.3,33.6z"/>
<path class="st3" d="M57.9,29.9h4.6c0.5,0,0.9-0.4,0.9-0.9c0-0.5-0.4-0.9-0.9-0.9h-4.6c-0.5,0-0.9,0.4-0.9,0.9
	C56.9,29.5,57.4,29.9,57.9,29.9z"/>
<path class="st3" d="M42.1,28.1h-4.6c-0.5,0-0.9,0.4-0.9,0.9c0,0.5,0.4,0.9,0.9,0.9h4.6c0.5,0,0.9-0.4,0.9-0.9
	C43.1,28.5,42.7,28.1,42.1,28.1z"/>
<path class="st3" d="M55.6,39.2h9.1c0.5,0,0.9-0.4,0.9-0.9c0-0.5-0.4-0.9-0.9-0.9h-9.1c-0.5,0-0.9,0.4-0.9,0.9
	C54.7,38.8,55.1,39.2,55.6,39.2z"/>
<path class="st3" d="M45.3,38.3c0,0.5-0.4,0.9-0.9,0.9h-9.1c-0.5,0-0.9-0.4-0.9-0.9c0-0.5,0.4-0.9,0.9-0.9h9.1
	C44.9,37.4,45.3,37.8,45.3,38.3z"/>
<path class="st3" d="M64.7,32.7h-9.1c-0.5,0-0.9,0.4-0.9,0.9c0,0.5,0.4,0.9,0.9,0.9h9.1c0.5,0,0.9-0.4,0.9-0.9
	C65.6,33.1,65.2,32.7,64.7,32.7z"/>
<path class="st3" d="M72.2,80.2c0.5,0,0.9-0.4,0.9-0.9V77c0-0.5-0.4-0.9-0.9-0.9s-0.9,0.4-0.9,0.9v2.3
	C71.2,79.8,71.7,80.2,72.2,80.2z"/>
<path class="st3" d="M27.8,80.2c0.5,0,0.9-0.4,0.9-0.9V77c0-0.5-0.4-0.9-0.9-0.9c-0.5,0-0.9,0.4-0.9,0.9v2.3
	C26.9,79.8,27.3,80.2,27.8,80.2z"/>
<path class="st3" d="M48.7,57.1c0.4,0.1,0.7,0.2,1,0.2c0.2,0,0.4,0,0.5,0c0.3-0.1,0.6-0.1,1-0.2H48.7z"/>
<path class="st3" d="M86,59.6c0.5-4.6-6.4-12.3-9.1-14.9c-0.1-0.1-0.1-0.2-0.1-0.3V23.3c0-0.5-0.4-0.9-0.9-0.9h-4.7c0,0-0.1,0-0.2,0
	c-10.4-5-18.6-1.4-20.8-0.2c-0.1,0-0.2,0-0.3,0c-2.3-1.2-10.4-4.8-20.8,0.2c0,0-0.1,0-0.2,0h-4.7c-0.5,0-0.9,0.4-0.9,0.9v21.1
	c0,0.1,0,0.2-0.1,0.3C20.4,47.3,13.4,55,14,59.6c0.3,2.2,0.8,4.3,1.3,6.4c0.4,1.6,0.9,3.7,1.2,5.5c0,0.1,0,0.2-0.1,0.3
	c-0.1,0.1-0.2,0.1-0.2,0.1h-0.4c-0.5,0-0.9,0.4-0.9,0.9v6.6c0,0.5,0.4,0.9,0.9,0.9c0,0,0,0,0,0c0.5,0,0.9-0.4,0.9-0.9V74
	c0-0.2,0.1-0.3,0.3-0.3h14.1c0.2,0,0.3,0.1,0.3,0.3v5.3c0,0.5,0.4,0.9,0.9,0.9s0.9-0.4,0.9-0.9v-6.6c0-0.2-0.1-0.4-0.2-0.6
	c-0.2-0.2-0.4-0.3-0.7-0.3h-2.1c-0.1,0-0.2-0.1-0.3-0.2c0-0.1,0-0.2,0-0.3c1.5-2.1,2.4-4.6,2.7-7.2c0-0.2,0.2-0.3,0.3-0.3h34.2
	c0.2,0,0.3,0.1,0.3,0.3c0.3,2.6,1.2,5,2.7,7.2c0.1,0.1,0.1,0.2,0,0.3c-0.1,0.1-0.2,0.2-0.3,0.2h-2.1c-0.5,0-0.9,0.4-0.9,0.9v6.6
	c0,0.5,0.4,0.9,0.9,0.9c0.5,0,0.9-0.4,0.9-0.9V74c0-0.2,0.2-0.3,0.3-0.3H83c0.2,0,0.3,0.1,0.3,0.3v5.3c0,0.5,0.4,0.9,0.9,0.9
	c0.1,0,0.2,0,0.3,0c0.3-0.1,0.6-0.5,0.6-0.9v-6.6c0-0.3-0.1-0.5-0.3-0.7c-0.2-0.2-0.4-0.3-0.6-0.3h-0.4c-0.1,0-0.2,0-0.3-0.1
	c-0.1-0.1-0.1-0.2-0.1-0.3c0.2-1.7,0.7-3.5,1.2-5.5C85.3,63.9,85.7,61.7,86,59.6z M71.8,24.5c0-0.2,0.2-0.3,0.3-0.3h2.5
	c0.2,0,0.3,0.2,0.3,0.3v29.9c0,0.1-0.1,0.3-0.2,0.3c0,0-0.1,0-0.1,0c-0.1,0-0.2,0-0.2-0.1l-1.3-1.3l-1.2-1.2
	c-0.1-0.1-0.1-0.1-0.1-0.2V24.5z M50.9,24c0-0.1,0.1-0.2,0.2-0.3c0.3-0.2,0.7-0.3,1.2-0.6c2.8-1.2,8.7-2.8,16,0
	c0.5,0.2,1,0.4,1.5,0.6c0.1,0,0.2,0.2,0.2,0.3v25.6c0,0.1-0.1,0.2-0.2,0.3c-0.1,0.1-0.3,0-0.4,0c-0.6-0.5-1.2-1-1.7-1.4
	c-0.9-0.7-2-1-3-0.8c-1,0.1-1.9,0.7-2.5,1.5c-0.7,0.9-1.1,2-0.9,3.1c0,0.4,0.2,0.7,0.3,1.1c0.1,0.1,0,0.2,0,0.3
	c-0.1,0.1-0.2,0.2-0.3,0.2h-0.1c-1.3,0-2.6,0.1-4,0.3c-2,0.2-4,0.6-5.9,1.1c0,0-0.1,0-0.1,0c-0.1,0-0.1,0-0.2-0.1
	c-0.1-0.1-0.1-0.2-0.1-0.3V24z M30,24.1c0-0.1,0.1-0.3,0.2-0.3c0.5-0.2,1-0.4,1.5-0.6c7.3-2.8,13.3-1.2,16,0
	c0.5,0.2,0.9,0.4,1.2,0.6c0.1,0,0.2,0.2,0.2,0.3v30.9c0,0.1,0,0.2-0.1,0.3c0,0-0.1,0.1-0.2,0.1c0,0,0,0-0.1,0
	c-2.1-0.5-4.2-0.9-6.3-1.1c-1.2-0.1-2.4-0.2-3.5-0.3h-0.1c-0.1,0-0.2-0.1-0.3-0.2c-0.1-0.1-0.1-0.2,0-0.3c0.2-0.3,0.3-0.7,0.3-1.1
	c0.1-1.1-0.2-2.3-0.9-3.1c-0.6-0.8-1.5-1.3-2.5-1.5c-1.1-0.1-2.2,0.2-3,0.8c-0.5,0.4-1.1,0.9-1.7,1.4c-0.1,0.1-0.2,0.1-0.4,0
	c-0.1,0-0.2-0.2-0.2-0.3V24.1z M25,24.5c0-0.2,0.1-0.3,0.3-0.3h2.5c0.2,0,0.3,0.2,0.3,0.3V52c0,0.1,0,0.2-0.1,0.2l-2.5,2.5
	c-0.1,0.1-0.1,0.1-0.2,0.1c0,0-0.1,0-0.1,0c-0.1-0.1-0.2-0.2-0.2-0.3V24.5z M32.4,57.1c-0.9,1.3-1.4,2.9-1.4,4.5c0,0.5,0,1-0.1,1.5
	c-0.5,5.2-2.9,7.9-3.7,8.6c-0.1,0.1-0.1,0.1-0.2,0.1h-8.3c-0.2,0-0.3-0.1-0.3-0.3c-0.3-2-0.7-4-1.3-6c-0.5-2-1-4.1-1.3-6.2
	c-0.3-3,4.1-8.7,6.8-11.6c0.1-0.1,0.2-0.1,0.4-0.1c0.1,0,0.2,0.2,0.2,0.3v9c0,0.1,0,0.2-0.1,0.2l-1.2,1.2c-0.2,0.2-0.3,0.5-0.3,0.7
	c0,0.2,0.1,0.5,0.3,0.6c0.2,0.2,0.4,0.3,0.6,0.3s0.5-0.1,0.7-0.3l0.6-0.7l2.8-2.8l3.1-3.1c0.7-0.6,2.4-2.1,3.7-3.1
	c0.5-0.4,1.1-0.6,1.6-0.5c0.5,0.1,1,0.3,1.3,0.7c0.4,0.5,0.6,1.1,0.6,1.7c-0.3,1.1-1,1.9-1.9,2.4C34,55.1,33,56,32.4,57.1z
	 M67.2,61.9C67.1,61.9,67,62,66.9,62H33.1c-0.2,0-0.3-0.2-0.3-0.3c0.1-1.7,0.8-3.3,1.9-4.5c0.4-0.4,0.8-0.8,1.3-1.1c0,0,0,0,0.1,0
	c1.4-0.4,3.6-0.4,6-0.1c2.5,0.3,5.1,0.8,6.8,1.2h2.5c1.6-0.4,4.1-0.9,6.5-1.2c2.4-0.3,4.8-0.4,6.3,0.1c0,0,0.1,0,0.1,0
	c0.5,0.3,0.9,0.7,1.2,1.1c1.1,1.2,1.8,2.8,1.9,4.5C67.2,61.7,67.2,61.8,67.2,61.9z M84.2,59.4c-0.3,2.1-0.7,4.1-1.3,6.2
	c-0.5,2-1,4-1.3,6c0,0.2-0.2,0.3-0.3,0.3H73c-0.1,0-0.2,0-0.2-0.1c-0.8-0.7-3.2-3.4-3.7-8.6c0-0.5-0.1-1-0.1-1.5
	c-0.1-1.6-0.6-3.2-1.4-4.5C67,56,66,55.1,65,54.4c-0.9-0.5-1.5-1.3-1.9-2.3c-0.1-0.7,0.1-1.3,0.6-1.8c0.3-0.4,0.8-0.7,1.3-0.7
	c0.6-0.1,1.2,0.1,1.6,0.5c1.5,1.1,3.6,3.1,3.6,3.1l2.9,2.8l3,3l0.7,0.7c0.4,0.4,1,0.4,1.4,0c0.3-0.4,0.3-1-0.1-1.3l-1.2-1.2
	c-0.1-0.1-0.1-0.1-0.1-0.2V48c0-0.1,0.1-0.3,0.2-0.3c0.1,0,0.3,0,0.4,0.1C80,50.6,84.5,56.3,84.2,59.4
	C84.2,59.3,84.2,59.3,84.2,59.4z"/>
<path class="st13" d="M84.2,59.3C84.2,59.3,84.2,59.3,84.2,59.3c-0.3,2.2-0.7,4.2-1.3,6.3c-0.5,2-1,4-1.3,6c0,0.2-0.2,0.3-0.3,0.3
	H73c-0.1,0-0.2,0-0.2-0.1c-0.9-0.8-3.7-3.9-3.8-10.1C69,58.7,67.4,56,65,54.4c-0.9-0.5-1.5-1.3-1.9-2.3c-0.1-0.7,0.1-1.3,0.6-1.8
	c0.3-0.4,0.8-0.7,1.3-0.7c0.6-0.1,1.2,0.1,1.6,0.5c1.5,1.1,3.6,3.1,3.6,3.1l6.6,6.5c0.4,0.4,1,0.4,1.4,0c0.3-0.4,0.3-1-0.1-1.3
	l-1.2-1.2c-0.1-0.1-0.1-0.1-0.1-0.2V48c0-0.1,0.1-0.3,0.2-0.3c0.1,0,0.3,0,0.4,0.1C80,50.6,84.5,56.3,84.2,59.3z"/>
<path class="st13" d="M36.9,52c-0.3,1.1-1,1.9-1.9,2.4c-2.4,1.6-4,4.3-4.1,7.2c0,6.2-2.9,9.3-3.8,10.1c-0.1,0.1-0.1,0.1-0.2,0.1
	h-8.3c-0.2,0-0.3-0.1-0.3-0.3c-0.3-2-0.7-4-1.2-6c-0.5-2-1-4.1-1.3-6.2c-0.3-3,4.1-8.7,6.8-11.6c0.1-0.1,0.2-0.1,0.4-0.1
	c0.1,0.1,0.2,0.2,0.2,0.3v8.9c0,0.1,0,0.2-0.1,0.2l-1.2,1.2c-0.2,0.2-0.3,0.5-0.3,0.7c0,0.2,0.1,0.5,0.3,0.6
	c0.2,0.2,0.4,0.2,0.7,0.3c0.2,0,0.5-0.1,0.6-0.3l6.6-6.5c0.7-0.6,2.4-2.1,3.7-3.1c0.4-0.4,1.1-0.6,1.6-0.5c0.5,0.1,1,0.3,1.3,0.7
	C36.8,50.8,37,51.4,36.9,52z"/>
</svg>
