<?xml version="1.0" encoding="utf-8"?>
<!-- Generator: Adobe Illustrator 24.0.1, SVG Export Plug-In . SVG Version: 6.00 Build 0)  -->
<svg version="1.1" id="Layer_1" xmlns="http://www.w3.org/2000/svg" xmlns:xlink="http://www.w3.org/1999/xlink" x="0px" y="0px"
	 viewBox="0 0 100 100" style="enable-background:new 0 0 100 100;" xml:space="preserve">
<style type="text/css">
	.st0{fill:#D6F6FF;}
	.st1{fill:#F2BDC7;}
	.st2{fill:#E298BB;}
	.st3{fill:#F2856D;}
	.st4{fill:#AEE1E5;}
	.st5{fill:#FFF254;}
	.st6{fill:#F7F2CD;}
	.st7{fill:#F4EDAE;}
	.st8{fill:#FFFFFF;}
	.st9{fill:#555555;}
	.st10{fill:#BDD9F2;}
	.st11{fill:#FFCCE7;}
	.st12{fill:#D99197;}
	.st13{fill:#E8E1FF;}
	.st14{fill:#F2AA80;}
	.st15{fill:#E8E8E8;}
	.st16{fill:#C69DDF;}
	.st17{fill:#DEFF88;}
	.st18{fill:#C1FFC7;}
	.st19{fill:#A18CE8;}
	.st20{fill:#F2C849;}
	.st21{fill:#3B5E8C;}
	.st22{fill:#F2DFCE;}
	.st23{fill:#F5DFFB;}
	.st24{fill:#EFB1D5;}
	.st25{fill:#B2DEFF;}
	.st26{opacity:0.5;fill:#BFE9F7;}
	.st27{fill:#33B8BF;}
	.st28{fill:#B8CC07;}
	.st29{fill:#D9662D;}
	.st30{fill:#333333;}
	.st31{fill:none;}
	.st32{fill:#F1C4C7;}
	.st33{fill:#F4E6B2;}
	.st34{fill:#CCB5DD;}
	.st35{fill:#F9E1A5;}
	.st36{fill:#A0E59C;}
	.st37{fill:#A68256;}
	.st38{fill:#BF2A2A;}
	.st39{fill:#E8E7E6;}
	.st40{fill:#F2F2F0;}
	.st41{fill:#B69BDD;}
	.st42{fill:#F20530;}
	.st43{fill:#F26363;}
	.st44{fill:#D1C8C7;}
	.st45{fill:#BF463B;}
	.st46{fill:#F2F2F2;}
	.st47{fill:#AFA5A5;}
	.st48{fill:#FF96A3;}
	.st49{fill:#9CFEFF;}
	.st50{fill:#75B27B;}
	.st51{fill:#FFC1D6;}
	.st52{fill:#DAFFDE;}
	.st53{fill:#BA94A1;}
</style>
<circle class="st17" cx="50" cy="50" r="50"/>
<path class="st8" d="M75.6,32v46.8c0,2-1.6,3.6-3.6,3.6H28c-2,0-3.6-1.6-3.6-3.6V20.9c0-2,1.6-3.6,3.6-3.6h32.9v8.8
	c0,3.3,2.7,5.9,5.9,5.9H75.6z"/>
<path class="st9" d="M67.8,72H32.2c-0.6,0-1.2,0.5-1.2,1.2c0,0.6,0.5,1.2,1.2,1.2h35.7c0.6,0,1.2-0.5,1.2-1.2
	C69,72.5,68.5,72,67.8,72z"/>
<path class="st19" d="M39.8,42.3c0,0.3,0,0.6-0.1,0.9c0,0.3-0.1,0.6-0.2,1c-0.1,0.3-0.2,0.6-0.4,0.9c-0.2,0.3-0.4,0.6-0.8,0.8
	c-0.3,0.2-0.7,0.4-1.1,0.5c-0.5,0.1-1,0.2-1.6,0.2c-0.3,0-0.7,0-1-0.1c-0.3-0.1-0.7-0.2-1-0.3c-0.3-0.1-0.6-0.3-0.8-0.5
	c-0.3-0.2-0.5-0.5-0.7-0.8c-0.2-0.3-0.3-0.6-0.4-1c-0.1-0.4-0.2-0.8-0.2-1.3v-1.1h2.5v0.6c0,0.3,0,0.6,0.1,0.8
	c0,0.3,0.1,0.5,0.2,0.7c0.1,0.2,0.3,0.3,0.5,0.4c0.2,0.1,0.5,0.2,0.8,0.2c0.4,0,0.6-0.1,0.8-0.2c0.2-0.1,0.3-0.3,0.4-0.5
	c0.1-0.2,0.1-0.4,0.2-0.7c0-0.2,0-0.5,0-0.7v-8.4h2.8V42.3z"/>
<path class="st19" d="M60.3,33.7c0.3,0,0.6,0,0.9,0c0.3,0,0.7,0,1,0.1c0.3,0,0.6,0.1,0.9,0.2c0.3,0.1,0.6,0.2,0.8,0.3
	c0.2,0.1,0.4,0.3,0.7,0.5s0.4,0.4,0.6,0.6c0.2,0.2,0.3,0.5,0.4,0.8c0.1,0.3,0.1,0.6,0.1,0.9c0,0.3,0,0.6-0.1,0.8
	c-0.1,0.3-0.2,0.5-0.3,0.7c-0.1,0.2-0.3,0.4-0.4,0.6c-0.2,0.2-0.3,0.3-0.6,0.5c0.3,0.1,0.5,0.3,0.8,0.5c0.2,0.2,0.4,0.4,0.6,0.7
	c0.2,0.3,0.3,0.5,0.4,0.8c0.1,0.3,0.1,0.6,0.1,0.9c0,0.3,0,0.6-0.1,0.9s-0.2,0.6-0.4,0.9c-0.2,0.3-0.4,0.6-0.6,0.8s-0.5,0.5-0.9,0.6
	c-0.3,0.2-0.7,0.3-1.1,0.4c-0.4,0.1-0.8,0.2-1.3,0.2h-6.2V33.7H60.3z M60.8,38.9c0.4,0,0.7,0,1-0.1c0.3-0.1,0.5-0.2,0.7-0.3
	c0.2-0.1,0.3-0.3,0.4-0.5c0.1-0.2,0.1-0.4,0.1-0.6c0-0.3-0.1-0.5-0.2-0.7c-0.1-0.2-0.3-0.3-0.5-0.4c-0.2-0.1-0.4-0.2-0.7-0.2
	s-0.5-0.1-0.8-0.1h-2.4v2.9H60.8z M61.6,44.1c0.3,0,0.6,0,0.8-0.1c0.2-0.1,0.4-0.2,0.6-0.4c0.2-0.2,0.3-0.3,0.4-0.5
	c0.1-0.2,0.1-0.4,0.1-0.7c0-0.3-0.1-0.5-0.2-0.7c-0.1-0.2-0.3-0.4-0.5-0.5c-0.2-0.1-0.4-0.2-0.7-0.3c-0.3-0.1-0.5-0.1-0.8-0.1h-2.8
	v3.3H61.6z"/>
<g>
	<path class="st19" d="M39.9,48.2v2.2H34V53h5.1v2.1H34v5.1h-2.6v-12H39.9z"/>
	<path class="st19" d="M44.5,48.2h2.8l4.5,12H49l-0.9-2.7h-4.5l-0.9,2.7h-2.7L44.5,48.2z M44.3,55.6h3.1l-1.5-4.4h0L44.3,55.6z"/>
	<path class="st19" d="M55.6,48.2v12H53v-12H55.6z"/>
	<path class="st19" d="M63.8,48.2c0.6,0,1.2,0.1,1.7,0.2c0.5,0.2,0.9,0.4,1.3,0.7c0.3,0.3,0.6,0.6,0.8,1.1c0.2,0.4,0.3,0.9,0.3,1.4
		c0,0.3,0,0.6-0.1,0.9c0,0.3-0.1,0.5-0.2,0.8c-0.1,0.2-0.2,0.4-0.4,0.6c-0.2,0.2-0.4,0.4-0.6,0.5c0.2,0.1,0.3,0.3,0.4,0.5
		c0.1,0.2,0.2,0.3,0.3,0.5s0.1,0.4,0.2,0.6c0,0.2,0.1,0.4,0.1,0.7c0,0.3,0,0.7,0,1c0,0.3,0,0.6,0.1,0.9s0.1,0.6,0.3,0.9
		c0.1,0.3,0.3,0.6,0.6,0.8h-2.8c-0.2-0.2-0.3-0.4-0.4-0.7c-0.1-0.2-0.1-0.5-0.2-0.8c0-0.3-0.1-0.5-0.1-0.8c0-0.3,0-0.6-0.1-0.9
		c0-0.2-0.1-0.4-0.1-0.6c0-0.2-0.1-0.4-0.2-0.5c-0.1-0.2-0.2-0.3-0.4-0.4s-0.4-0.1-0.6-0.1h-3.1v4.8H58v-12H63.8z M63.2,53.4
		c0.3,0,0.5,0,0.8-0.1c0.3-0.1,0.5-0.1,0.7-0.3c0.2-0.1,0.4-0.3,0.5-0.5c0.1-0.2,0.2-0.4,0.2-0.7c0-0.2,0-0.4-0.1-0.6
		c-0.1-0.2-0.2-0.3-0.3-0.5c-0.1-0.1-0.3-0.2-0.5-0.3c-0.2-0.1-0.4-0.1-0.7-0.1h-3.1v3H63.2z"/>
</g>
<path class="st48" d="M52,35.2C52,35.2,52,35.2,52,35.2c-1.2-1.1-2.7-1.6-4.2-1.6l0,0c0,0,0,0,0,0c-1.5,0-3,0.6-4.2,1.6
	c0,0,0,0-0.1,0.1c-1.4,1.2-2.1,2.9-2.2,4.8l0,0l0,0.1h0c0,1.8,0.8,3.5,2.2,4.8l0,0c0,0,0,0,0,0c1.1,1,2.5,1.5,4,1.6
	c0.1,0,0.1,0,0.2,0c0,0,0,0,0,0c0,0,0,0,0,0l0.1,0c0,0,0.1,0,0.1,0c1.5,0,2.9-0.6,4-1.6c0,0,0,0,0.1-0.1l0,0c1.4-1.2,2.2-3,2.2-4.8
	C54.2,38.2,53.4,36.5,52,35.2z M49.8,43.8c-0.4,1.1-1.1,1.8-1.7,2v-2.3C48.7,43.5,49.2,43.6,49.8,43.8z M51.1,39.7
	c0-1.1-0.2-2.2-0.5-3.1c0.4-0.2,0.8-0.4,1.1-0.7c1.1,1,1.7,2.4,1.8,3.8H51.1z M50.5,39.7h-2.4v-2.4c0.7,0,1.3-0.2,2-0.4
	C50.3,37.7,50.4,38.7,50.5,39.7z M50.4,36c-0.2-0.6-0.5-1.1-0.9-1.5c0.6,0.2,1.2,0.5,1.7,0.9C51,35.7,50.7,35.9,50.4,36z M48.1,36.6
	v-2.3c0.7,0.2,1.3,0.9,1.7,2C49.2,36.5,48.7,36.6,48.1,36.6z M51.8,44.2c-0.4-0.3-0.7-0.5-1.1-0.7c0.3-0.9,0.5-2,0.5-3.1h2.4
	C53.4,41.8,52.8,43.2,51.8,44.2z M51.3,44.6c-0.5,0.4-1.1,0.7-1.8,0.9c0.3-0.4,0.6-0.9,0.9-1.5C50.7,44.2,51,44.4,51.3,44.6z
	 M48.1,42.8v-2.4h2.4c0,1-0.2,2-0.4,2.8C49.4,43,48.7,42.8,48.1,42.8z M45.7,36.3c0.4-1.1,1.1-1.8,1.7-2v2.3
	C46.8,36.6,46.2,36.5,45.7,36.3z M44.2,35.5c0.5-0.4,1.1-0.7,1.7-0.9c-0.3,0.4-0.6,0.9-0.9,1.5C44.8,35.9,44.5,35.7,44.2,35.5z
	 M47.4,37.3v2.4H45c0-1,0.2-2,0.4-2.8C46.1,37.1,46.7,37.3,47.4,37.3z M45,40.4h2.4v2.4c-0.7,0-1.3,0.2-2,0.4
	C45.2,42.3,45,41.4,45,40.4z M45.1,44.1c0.2,0.6,0.5,1.1,0.9,1.5c-0.6-0.2-1.2-0.5-1.7-0.9C44.5,44.4,44.8,44.2,45.1,44.1z M42,39.7
	c0.1-1.5,0.7-2.8,1.8-3.8c0.4,0.3,0.7,0.5,1.1,0.7c-0.3,0.9-0.5,2-0.5,3.1H42z M42,40.4h2.4c0,1.1,0.2,2.2,0.5,3.1
	c-0.4,0.2-0.8,0.4-1.1,0.7C42.7,43.2,42,41.8,42,40.4z M47.4,43.4v2.3c-0.7-0.2-1.3-0.9-1.7-2C46.2,43.6,46.8,43.5,47.4,43.4z"/>
<path class="st9" d="M77.9,30.6L77.9,30.6c0-0.1-0.1-0.2-0.1-0.3c0,0,0,0,0-0.1c-0.1-0.1-0.1-0.2-0.2-0.3L64.9,17.3l-2-2
	c-0.1-0.1-0.2-0.1-0.3-0.2c0,0,0,0-0.1,0c-0.1,0-0.2-0.1-0.3-0.1h0c-0.1,0-0.1,0-0.2,0H28c-3.3,0-5.9,2.7-5.9,5.9v57.8
	c0,3.3,2.6,5.9,5.9,5.9h44c3.3,0,5.9-2.7,5.9-5.9V30.8C77.9,30.7,77.9,30.7,77.9,30.6z M74,29.6h-7.1c-2,0-3.6-1.6-3.6-3.6v-7.1
	L74,29.6z M75.6,78.7c0,2-1.6,3.6-3.6,3.6H28c-2,0-3.6-1.6-3.6-3.6V20.9c0-2,1.6-3.6,3.6-3.6h32.9v8.8c0,3.3,2.7,5.9,5.9,5.9h8.8
	V78.7z"/>
<path class="st8" d="M74,29.6h-7.1c-2,0-3.6-1.6-3.6-3.6v-7.1L74,29.6z"/>
<rect x="31.4" y="62.7" class="st48" width="37.1" height="7.4"/>
<g>
	<path class="st49" d="M32.7,66.5c0-0.2,0-0.3,0-0.5s0.1-0.3,0.1-0.5c0.1-0.1,0.1-0.3,0.2-0.4c0.1-0.1,0.2-0.2,0.3-0.3
		c0.1-0.1,0.3-0.2,0.4-0.2c0.2,0,0.3-0.1,0.5-0.1c0.2,0,0.4,0,0.5,0.1c0.2,0,0.3,0.1,0.4,0.2c0.1,0.1,0.2,0.2,0.3,0.3
		c0.1,0.1,0.2,0.3,0.2,0.4c0.1,0.1,0.1,0.3,0.1,0.5c0,0.2,0,0.3,0,0.5s0,0.3,0,0.5c0,0.2-0.1,0.3-0.1,0.5c-0.1,0.1-0.1,0.3-0.2,0.4
		s-0.2,0.2-0.3,0.3c-0.1,0.1-0.3,0.2-0.4,0.2c-0.2,0-0.3,0.1-0.5,0.1c-0.2,0-0.4,0-0.5-0.1c-0.2,0-0.3-0.1-0.4-0.2
		c-0.1-0.1-0.2-0.2-0.3-0.3s-0.2-0.2-0.2-0.4c-0.1-0.1-0.1-0.3-0.1-0.5S32.7,66.7,32.7,66.5z M33.2,66.5c0,0.1,0,0.2,0,0.4
		c0,0.1,0.1,0.2,0.1,0.3c0,0.1,0.1,0.2,0.2,0.3c0.1,0.1,0.1,0.2,0.2,0.2c0.1,0.1,0.2,0.1,0.3,0.2s0.2,0.1,0.4,0.1
		c0.1,0,0.3,0,0.4-0.1c0.1,0,0.2-0.1,0.3-0.2c0.1-0.1,0.2-0.2,0.2-0.2c0.1-0.1,0.1-0.2,0.2-0.3s0.1-0.2,0.1-0.3c0-0.1,0-0.2,0-0.4
		s0-0.2,0-0.4c0-0.1-0.1-0.2-0.1-0.3s-0.1-0.2-0.2-0.3c-0.1-0.1-0.1-0.2-0.2-0.2s-0.2-0.1-0.3-0.2c-0.1,0-0.3-0.1-0.4-0.1
		c-0.1,0-0.3,0-0.4,0.1s-0.2,0.1-0.3,0.2s-0.2,0.2-0.2,0.2c-0.1,0.1-0.1,0.2-0.2,0.3c0,0.1-0.1,0.2-0.1,0.3
		C33.2,66.3,33.2,66.4,33.2,66.5z"/>
	<path class="st49" d="M42.2,68.3l-1.8-3v3h-0.5v-3.7h0.6l1.8,3v-3h0.5v3.7H42.2z"/>
	<path class="st49" d="M47.3,64.7v3.2h1.9v0.4h-2.4v-3.7H47.3z"/>
	<path class="st49" d="M53.4,64.7v3.7h-0.5v-3.7H53.4z"/>
	<path class="st49" d="M59.7,68.3l-1.8-3v3h-0.5v-3.7H58l1.8,3v-3h0.5v3.7H59.7z"/>
	<path class="st49" d="M66.8,64.7v0.4h-2v1.1h1.9v0.4h-1.9v1.2h2v0.4h-2.5v-3.7H66.8z"/>
</g>
</svg>
