<?xml version="1.0" encoding="utf-8"?>
<!-- Generator: Adobe Illustrator 24.0.1, SVG Export Plug-In . SVG Version: 6.00 Build 0)  -->
<svg version="1.1" id="Layer_1" xmlns="http://www.w3.org/2000/svg" xmlns:xlink="http://www.w3.org/1999/xlink" x="0px" y="0px"
	 viewBox="0 0 100 100" style="enable-background:new 0 0 100 100;" xml:space="preserve">
<style type="text/css">
	.st0{fill:#D6F6FF;}
	.st1{fill:#F2BDC7;}
	.st2{fill:#FFFFFF;}
	.st3{fill:#555555;}
	.st4{fill:#BDD9F2;}
	.st5{fill:#FFCCE7;}
	.st6{fill:#D99197;}
	.st7{fill:#E8E1FF;}
	.st8{fill:#F2AA80;}
	.st9{fill:#E8E8E8;}
	.st10{fill:#C69DDF;}
	.st11{fill:#F2C849;}
	.st12{fill:#3B5E8C;}
	.st13{fill:#F2DFCE;}
	.st14{fill:#F5DFFB;}
	.st15{fill:#EFB1D5;}
	.st16{fill:#B2DEFF;}
</style>
<circle class="st7" cx="50" cy="50" r="50"/>
<path class="st2" d="M29.2,16.4h31.7L77,31v48.3c0,0,0.2,4.1-4.1,4.1c-4.3,0-46.6,0-46.6,0s-3.4-1-3.4-6s0-57.7,0-57.7
	S23.9,16.4,29.2,16.4z"/>
<path class="st3" d="M77.9,30.6c0-0.1-0.1-0.2-0.1-0.3c0,0,0,0,0-0.1c-0.1-0.1-0.1-0.2-0.2-0.2L62.9,15.3c-0.1-0.1-0.2-0.1-0.2-0.2
	c0,0,0,0-0.1,0c-0.1,0-0.2-0.1-0.3-0.1c0,0,0,0,0,0c-0.1,0-0.1,0-0.2,0H28c-3.3,0-5.9,2.6-5.9,5.9v57.9c0,3.3,2.6,5.9,5.9,5.9h44
	c3.3,0,5.9-2.6,5.9-5.9V30.8C77.9,30.7,77.9,30.7,77.9,30.6C77.9,30.6,77.9,30.6,77.9,30.6z M63.2,18.9L74,29.7h-7.1
	c-2,0-3.6-1.6-3.6-3.6V18.9z M75.6,78.7c0,2-1.6,3.6-3.6,3.6H28c-2,0-3.6-1.6-3.6-3.6V20.9c0-2,1.6-3.6,3.6-3.6h32.9v8.8
	c0,3.3,2.7,5.9,5.9,5.9h8.8C75.6,32,75.6,78.7,75.6,78.7z"/>
<path class="st3" d="M67.8,72H32.2c-0.6,0-1.2,0.5-1.2,1.2c0,0.6,0.5,1.2,1.2,1.2h35.7c0.6,0,1.2-0.5,1.2-1.2
	C69,72.5,68.5,72,67.8,72z"/>
<path class="st9" d="M66.9,69H33.1c-2.8,0-5-2.2-5-5V39.1c0-2.8,2.2-5,5-5h33.7c2.8,0,5,2.2,5,5V64C71.9,66.7,69.6,69,66.9,69z"/>
<g>
	<g>
		<path class="st10" d="M39.8,47.3c0,0.3,0,0.6-0.1,0.9c0,0.3-0.1,0.6-0.2,1c-0.1,0.3-0.2,0.6-0.4,0.9c-0.2,0.3-0.4,0.6-0.8,0.8
			c-0.3,0.2-0.7,0.4-1.1,0.5c-0.5,0.1-1,0.2-1.6,0.2c-0.3,0-0.7,0-1-0.1c-0.3-0.1-0.7-0.2-1-0.3c-0.3-0.1-0.6-0.3-0.8-0.5
			c-0.3-0.2-0.5-0.5-0.7-0.8c-0.2-0.3-0.3-0.6-0.4-1c-0.1-0.4-0.2-0.8-0.2-1.3v-1.1h2.5v0.6c0,0.3,0,0.6,0.1,0.8
			c0,0.3,0.1,0.5,0.2,0.7c0.1,0.2,0.3,0.3,0.5,0.4c0.2,0.1,0.5,0.2,0.8,0.2c0.4,0,0.6-0.1,0.8-0.2c0.2-0.1,0.3-0.3,0.4-0.5
			c0.1-0.2,0.1-0.4,0.2-0.7s0-0.5,0-0.7v-8.4h2.8V47.3z"/>
		<path class="st10" d="M41.5,45c0-0.6,0.1-1.1,0.2-1.7c0.1-0.5,0.3-1.1,0.5-1.6c0.2-0.5,0.5-0.9,0.9-1.3c0.3-0.4,0.8-0.8,1.2-1.1
			c0.5-0.3,1-0.5,1.6-0.7c0.6-0.2,1.2-0.2,1.9-0.2c0.7,0,1.3,0.1,1.9,0.2c0.6,0.2,1.1,0.4,1.6,0.7c0.5,0.3,0.9,0.7,1.2,1.1
			s0.6,0.9,0.9,1.3c0.2,0.5,0.4,1,0.5,1.6C54,43.9,54,44.5,54,45s-0.1,1.1-0.2,1.7c-0.1,0.5-0.3,1.1-0.5,1.5
			c-0.2,0.5-0.5,0.9-0.9,1.3s-0.8,0.8-1.2,1.1c-0.5,0.3-1,0.5-1.6,0.7c-0.6,0.2-1.2,0.2-1.9,0.2c-0.7,0-1.3-0.1-1.9-0.2
			c-0.6-0.2-1.1-0.4-1.6-0.7c-0.5-0.3-0.9-0.6-1.2-1.1c-0.3-0.4-0.6-0.9-0.9-1.3c-0.2-0.5-0.4-1-0.5-1.5
			C41.5,46.2,41.5,45.6,41.5,45z M44.2,45c0,0.3,0,0.7,0.1,1c0.1,0.3,0.1,0.7,0.3,1c0.1,0.3,0.3,0.6,0.5,0.9
			c0.2,0.3,0.4,0.5,0.7,0.7c0.3,0.2,0.6,0.3,0.9,0.5c0.3,0.1,0.7,0.2,1.1,0.2c0.4,0,0.8-0.1,1.2-0.2c0.3-0.1,0.6-0.3,0.9-0.5
			c0.3-0.2,0.5-0.4,0.7-0.7c0.2-0.3,0.3-0.6,0.5-0.9c0.1-0.3,0.2-0.6,0.3-1c0.1-0.3,0.1-0.7,0.1-1c0-0.3,0-0.7-0.1-1
			c-0.1-0.3-0.1-0.7-0.3-1c-0.1-0.3-0.3-0.6-0.5-0.9c-0.2-0.3-0.4-0.5-0.7-0.7c-0.3-0.2-0.6-0.4-0.9-0.5c-0.3-0.1-0.7-0.2-1.2-0.2
			c-0.4,0-0.8,0.1-1.1,0.2c-0.3,0.1-0.6,0.3-0.9,0.5s-0.5,0.4-0.7,0.7c-0.2,0.3-0.3,0.6-0.5,0.9c-0.1,0.3-0.2,0.6-0.3,1
			C44.2,44.4,44.2,44.7,44.2,45z"/>
		<path class="st10" d="M60.3,38.7c0.3,0,0.6,0,0.9,0c0.3,0,0.7,0,1,0.1c0.3,0,0.6,0.1,0.9,0.2c0.3,0.1,0.6,0.2,0.8,0.3
			c0.2,0.1,0.4,0.3,0.7,0.5s0.4,0.4,0.6,0.6c0.2,0.2,0.3,0.5,0.4,0.8c0.1,0.3,0.1,0.6,0.1,0.9c0,0.3,0,0.6-0.1,0.8
			c-0.1,0.3-0.2,0.5-0.3,0.7c-0.1,0.2-0.3,0.4-0.4,0.6c-0.2,0.2-0.3,0.3-0.6,0.5c0.3,0.1,0.5,0.3,0.8,0.5c0.2,0.2,0.4,0.4,0.6,0.7
			c0.2,0.3,0.3,0.5,0.4,0.8c0.1,0.3,0.1,0.6,0.1,0.9c0,0.3,0,0.6-0.1,0.9s-0.2,0.6-0.4,0.9c-0.2,0.3-0.4,0.6-0.6,0.8
			s-0.5,0.5-0.9,0.6c-0.3,0.2-0.7,0.3-1.1,0.4c-0.4,0.1-0.8,0.2-1.3,0.2h-6.2V38.7H60.3z M60.8,43.9c0.4,0,0.7,0,1-0.1
			c0.3-0.1,0.5-0.2,0.7-0.3c0.2-0.1,0.3-0.3,0.4-0.5c0.1-0.2,0.1-0.4,0.1-0.6c0-0.3-0.1-0.5-0.2-0.7c-0.1-0.2-0.3-0.3-0.5-0.4
			c-0.2-0.1-0.4-0.2-0.7-0.2s-0.5-0.1-0.8-0.1h-2.4v2.9H60.8z M61.6,49.1c0.3,0,0.6,0,0.8-0.1c0.2-0.1,0.4-0.2,0.6-0.4
			c0.2-0.2,0.3-0.3,0.4-0.5c0.1-0.2,0.1-0.4,0.1-0.7c0-0.3-0.1-0.5-0.2-0.7c-0.1-0.2-0.3-0.4-0.5-0.5c-0.2-0.1-0.4-0.2-0.7-0.3
			c-0.3-0.1-0.5-0.1-0.8-0.1h-2.8v3.3H61.6z"/>
	</g>
	<g>
		<path class="st10" d="M39.9,53.2v2.2H34V58h5.1v2.1H34v5.1h-2.6v-12H39.9z"/>
		<path class="st10" d="M44.5,53.2h2.8l4.5,12H49l-0.9-2.7h-4.5l-0.9,2.7h-2.7L44.5,53.2z M44.3,60.6h3.1l-1.5-4.4h0L44.3,60.6z"/>
		<path class="st10" d="M55.6,53.2v12H53v-12H55.6z"/>
		<path class="st10" d="M63.8,53.2c0.6,0,1.2,0.1,1.7,0.2c0.5,0.2,0.9,0.4,1.3,0.7c0.3,0.3,0.6,0.6,0.8,1.1c0.2,0.4,0.3,0.9,0.3,1.4
			c0,0.3,0,0.6-0.1,0.9c0,0.3-0.1,0.5-0.2,0.8c-0.1,0.2-0.2,0.4-0.4,0.6c-0.2,0.2-0.4,0.4-0.6,0.5c0.2,0.1,0.3,0.3,0.4,0.5
			c0.1,0.2,0.2,0.3,0.3,0.5s0.1,0.4,0.2,0.6c0,0.2,0.1,0.4,0.1,0.7c0,0.3,0,0.7,0,1c0,0.3,0,0.6,0.1,0.9s0.1,0.6,0.3,0.9
			c0.1,0.3,0.3,0.6,0.6,0.8h-2.8c-0.2-0.2-0.3-0.4-0.4-0.7c-0.1-0.2-0.1-0.5-0.2-0.8c0-0.3-0.1-0.5-0.1-0.8c0-0.3,0-0.6-0.1-0.9
			c0-0.2-0.1-0.4-0.1-0.6c0-0.2-0.1-0.4-0.2-0.5c-0.1-0.2-0.2-0.3-0.4-0.4c-0.2-0.1-0.4-0.1-0.6-0.1h-3.1v4.8H58v-12H63.8z
			 M63.2,58.4c0.3,0,0.5,0,0.8-0.1c0.3-0.1,0.5-0.1,0.7-0.3c0.2-0.1,0.4-0.3,0.5-0.5c0.1-0.2,0.2-0.4,0.2-0.7c0-0.2,0-0.4-0.1-0.6
			c-0.1-0.2-0.2-0.3-0.3-0.5c-0.1-0.1-0.3-0.2-0.5-0.3c-0.2-0.1-0.4-0.1-0.7-0.1h-3.1v3H63.2z"/>
	</g>
</g>
</svg>
