<?xml version="1.0" encoding="utf-8"?>
<!-- Generator: Adobe Illustrator 24.0.1, SVG Export Plug-In . SVG Version: 6.00 Build 0)  -->
<svg version="1.1" id="Layer_1" xmlns="http://www.w3.org/2000/svg" xmlns:xlink="http://www.w3.org/1999/xlink" x="0px" y="0px"
	 viewBox="0 0 100 100" style="enable-background:new 0 0 100 100;" xml:space="preserve">
<style type="text/css">
	.st0{fill:#D6F6FF;}
	.st1{fill:#F2BDC7;}
	.st2{fill:#E298BB;}
	.st3{fill:#F2856D;}
	.st4{fill:#AEE1E5;}
	.st5{fill:#FFF254;}
	.st6{fill:#F7F2CD;}
	.st7{fill:#F4EDAE;}
	.st8{fill:#FFFFFF;}
	.st9{fill:#555555;}
	.st10{fill:#BDD9F2;}
	.st11{fill:#FFCCE7;}
	.st12{fill:#D99197;}
	.st13{fill:#E8E1FF;}
	.st14{fill:#F2AA80;}
	.st15{fill:#E8E8E8;}
	.st16{fill:#C69DDF;}
	.st17{fill:#DEFF88;}
	.st18{fill:#C1FFC7;}
	.st19{fill:#A18CE8;}
	.st20{fill:#F2C849;}
	.st21{fill:#3B5E8C;}
	.st22{fill:#F2DFCE;}
	.st23{fill:#F5DFFB;}
	.st24{fill:#EFB1D5;}
	.st25{fill:#B2DEFF;}
	.st26{opacity:0.5;fill:#BFE9F7;}
	.st27{fill:#33B8BF;}
	.st28{fill:#B8CC07;}
	.st29{fill:#D9662D;}
	.st30{fill:#333333;}
	.st31{fill:none;}
	.st32{fill:#F1C4C7;}
	.st33{fill:#F4E6B2;}
	.st34{fill:#CCB5DD;}
	.st35{fill:#F9E1A5;}
	.st36{fill:#A0E59C;}
	.st37{fill:#A68256;}
	.st38{fill:#BF2A2A;}
	.st39{fill:#E8E7E6;}
	.st40{fill:#F2F2F0;}
	.st41{fill:#B69BDD;}
	.st42{fill:#F20530;}
	.st43{fill:#F26363;}
	.st44{fill:#D1C8C7;}
	.st45{fill:#BF463B;}
	.st46{fill:#F2F2F2;}
	.st47{fill:#AFA5A5;}
	.st48{fill:#FF96A3;}
	.st49{fill:#9CFEFF;}
	.st50{fill:#75B27B;}
	.st51{fill:#FFC1D6;}
	.st52{fill:#DAFFDE;}
	.st53{fill:#BA94A1;}
</style>
<circle class="st18" cx="50" cy="50" r="50"/>
<g>
	<path class="st50" d="M67.8,28.2c-0.5,0-1.8-1.4-1.8-3.9s1.3-3.9,1.8-3.9c0.3,0,0.8,0.4,1.3,1.3l0.3,0.7H75l-0.4-1.5
		c-1-3.6-3.7-5.9-6.7-5.9c-4,0-7.2,4.1-7.2,9.3s3.2,9.3,7.2,9.3c1.5,0,2.7-1.2,2.7-2.7S69.3,28.2,67.8,28.2z"/>
	<path class="st50" d="M37.8,20.4c0.3,0,0.8,0.4,1.3,1.3l0.3,0.7H45l-0.4-1.5c-1-3.6-3.7-5.9-6.7-5.9c-4,0-7.2,4.1-7.2,9.3
		s3.2,9.3,7.2,9.3c1.5,0,2.7-1.2,2.7-2.7s-1.2-2.7-2.7-2.7c-0.5,0-1.8-1.4-1.8-3.9S37.3,20.4,37.8,20.4z"/>
</g>
<path class="st51" d="M72.5,71.7c-0.5,1.9-2.2,3.1-4.1,3.1H21.3c-1,0-1.9-0.4-2.5-1.1c-0.5-0.6-0.7-1.5-0.5-2.3L25,38.5h54.4
	L72.5,71.7z"/>
<g>
	<path class="st18" d="M32.4,64.3h-6c-0.6,0-1.1,0.4-1.2,1l-0.9,4.2c-0.1,0.4,0.2,0.8,0.5,0.8c0,0,0.1,0,0.1,0h6
		c0.6,0,1.1-0.4,1.2-1l0.9-4.2c0.1-0.4-0.2-0.8-0.5-0.8C32.5,64.3,32.4,64.3,32.4,64.3z"/>
	<path class="st18" d="M34.7,53.6h-6c-0.6,0-1.1,0.4-1.2,1l-0.9,4.2c-0.1,0.4,0.2,0.8,0.5,0.8c0,0,0.1,0,0.1,0h6
		c0.6,0,1.1-0.4,1.2-1l0.9-4.2c0.1-0.4-0.2-0.8-0.5-0.8C34.8,53.6,34.7,53.6,34.7,53.6z"/>
	<path class="st18" d="M44.2,64.3h-6c-0.6,0-1.1,0.4-1.2,1l-0.9,4.2c-0.1,0.4,0.2,0.8,0.5,0.8c0,0,0.1,0,0.1,0h6
		c0.6,0,1.1-0.4,1.2-1l0.9-4.2c0.1-0.4-0.2-0.8-0.5-0.8C44.3,64.3,44.3,64.3,44.2,64.3z"/>
	<path class="st18" d="M46.5,53.6h-6c-0.6,0-1.1,0.4-1.2,1l-0.9,4.2c-0.1,0.4,0.2,0.8,0.5,0.8c0,0,0.1,0,0.1,0h6
		c0.6,0,1.1-0.4,1.2-1l0.9-4.2c0.1-0.4-0.2-0.8-0.5-0.8C46.6,53.6,46.5,53.6,46.5,53.6z"/>
	<path class="st18" d="M48.5,48l0.9-4.2c0.1-0.4-0.2-0.8-0.5-0.8c0,0-0.1,0-0.1,0h-6c-0.6,0-1.1,0.4-1.2,1l-0.9,4.2
		c-0.1,0.4,0.2,0.8,0.5,0.8c0,0,0.1,0,0.1,0h6C47.9,49,48.4,48.6,48.5,48z"/>
	<path class="st18" d="M56,64.3h-6c-0.6,0-1.1,0.4-1.2,1l-0.9,4.2c-0.1,0.4,0.2,0.8,0.5,0.8c0,0,0.1,0,0.1,0h6c0.6,0,1.1-0.4,1.2-1
		l0.9-4.2c0.1-0.4-0.2-0.8-0.5-0.8C56.1,64.3,56.1,64.3,56,64.3z"/>
	<path class="st18" d="M58.3,53.6h-6c-0.6,0-1.1,0.4-1.2,1l-0.9,4.2c-0.1,0.4,0.2,0.8,0.5,0.8c0,0,0.1,0,0.1,0h6
		c0.6,0,1.1-0.4,1.2-1l0.9-4.2c0.1-0.4-0.2-0.8-0.5-0.8C58.4,53.6,58.3,53.6,58.3,53.6z"/>
	<path class="st18" d="M60.3,48l0.9-4.2c0.1-0.4-0.2-0.8-0.5-0.8c0,0-0.1,0-0.1,0h-6c-0.6,0-1.1,0.4-1.2,1l-0.9,4.2
		c-0.1,0.4,0.2,0.8,0.5,0.8c0,0,0.1,0,0.1,0h6C59.7,49,60.2,48.6,60.3,48z"/>
	<path class="st18" d="M67.8,64.3h-6c-0.6,0-1.1,0.4-1.2,1l-0.9,4.2c-0.1,0.4,0.2,0.8,0.5,0.8c0,0,0.1,0,0.1,0h6
		c0.6,0,1.1-0.4,1.2-1l0.9-4.2c0.1-0.4-0.2-0.8-0.5-0.8C67.9,64.3,67.9,64.3,67.8,64.3z"/>
	<path class="st18" d="M62.7,59.7h6c0.6,0,1.1-0.4,1.2-1l0.9-4.2c0.1-0.4-0.2-0.8-0.5-0.8c0,0-0.1,0-0.1,0h-6c-0.6,0-1.1,0.4-1.2,1
		L62,58.8c-0.1,0.4,0.2,0.8,0.5,0.8C62.6,59.7,62.6,59.7,62.7,59.7z"/>
	<path class="st18" d="M64.9,49h6c0.6,0,1.1-0.4,1.2-1l0.9-4.2c0.1-0.4-0.2-0.8-0.5-0.8c0,0-0.1,0-0.1,0h-6c-0.6,0-1.1,0.4-1.2,1
		l-0.9,4.2c-0.1,0.4,0.2,0.8,0.5,0.8C64.8,49,64.9,49,64.9,49z"/>
</g>
<path class="st52" d="M37.7,36.2c-0.6-0.1-1.1-0.3-1.6-0.7h4.7C39.9,36.2,38.8,36.4,37.7,36.2z"/>
<path class="st52" d="M67.7,36.2c-0.6-0.1-1.1-0.3-1.6-0.7h4.7C69.9,36.2,68.8,36.4,67.7,36.2z"/>
<path class="st9" d="M78.3,24.4H68c0,0.6,0.1,1.3,0.4,1.8c0.4,0,0.7,0,1.1,0c2.4,0.5,4,3.1,3.4,5.8c0,0.2-0.1,0.4-0.1,0.5
	c-0.3,1.1-0.9,2-1.8,2.7c-0.1,0.1-0.2,0.2-0.3,0.2c-0.9,0.7-2,0.9-3.1,0.7c-0.6-0.1-1.1-0.3-1.6-0.7c-0.1-0.1-0.2-0.1-0.2-0.2
	c-1.7-0.4-3.2-1.4-4.4-2.8c-1.8-2-2.9-4.9-2.9-8.2H38c0,0.6,0.1,1.3,0.4,1.8c0.4,0,0.7,0,1.1,0c2.4,0.5,4,3.1,3.4,5.8
	c0,0.2-0.1,0.4-0.1,0.5c-0.3,1.1-0.9,2-1.8,2.7c-0.1,0.1-0.2,0.2-0.3,0.2c-0.9,0.7-2,0.9-3.1,0.7c-0.6-0.1-1.1-0.3-1.6-0.7
	c-0.1-0.1-0.2-0.1-0.2-0.2c-1.7-0.4-3.2-1.4-4.3-2.8c-1.7-1.9-2.7-4.6-2.9-7.6c-0.9,0.5-1.7,1.3-2.3,2.2l-0.1,0.2
	c-0.8,0.8-1.3,1.7-1.5,2.8l-1.1,5.4l-7.4,36.2c-0.2,1.2,0,2.3,0.7,3.1c0.8,1,2.2,1.6,3.7,1.6H23h2.6v2.5c0,1.3,0.4,2.4,1.1,3.4
	c1,1.4,2.6,2.3,4.5,2.4h47.1c3.1-0.1,5.6-2.6,5.6-5.8V31.5v-1.4C83.9,27,81.4,24.4,78.3,24.4z M23,74.8h-1.7c-1,0-1.9-0.4-2.5-1.1
	c-0.5-0.6-0.7-1.5-0.5-2.3L25,38.5h54.4l-2,9.8l-4.8,23.3c-0.5,1.9-2.2,3.1-4.1,3.1H23z M81.9,78.9c0,2-1.6,3.7-3.6,3.7H31.1
	c-2,0-3.6-1.7-3.6-3.7v-2.5h40.3c1.6,0,3.2-0.6,4.5-1.6c1.2-0.9,2-2.1,2.3-3.4l7.3-35.8V78.9z"/>
<path class="st53" d="M74.5,71.4l7.3-35.8v43.3c0,2-1.6,3.7-3.6,3.7H31.1c-2,0-3.6-1.7-3.6-3.7v-2.5h40.3c1.6,0,3.2-0.6,4.5-1.6
	C73.5,73.9,74.3,72.7,74.5,71.4z"/>
</svg>
