<?xml version="1.0" encoding="utf-8"?>
<!-- Generator: Adobe Illustrator 24.0.1, SVG Export Plug-In . SVG Version: 6.00 Build 0)  -->
<svg version="1.1" id="Capa_1" xmlns="http://www.w3.org/2000/svg" xmlns:xlink="http://www.w3.org/1999/xlink" x="0px" y="0px"
	 viewBox="0 0 512 512" style="enable-background:new 0 0 512 512;" xml:space="preserve">
<style type="text/css">
	.st0{fill:#FCB1B1;}
	.st1{fill:#B2DBF9;}
	.st2{fill:#DDB7A0;}
	.st3{fill:#D6A889;}
	.st4{fill:#CC9675;}
	.st5{fill:#333333;}
	.st6{fill:#F4FBFF;}
	.st7{fill:#E4F6FF;}
	.st8{fill:#E28086;}
	.st9{fill:#8FDDC1;}
	.st10{fill:#FFE07D;}
</style>
<circle class="st0" cx="-307.3" cy="256" r="254.5"/>
<circle class="st1" cx="256" cy="256" r="254.5"/>
<g>
	<g>
		<path class="st2" d="M-227,108.3h-220c-10.8,0-19.6,8.8-19.6,19.6v290.3c0,10.8,8.8,19.6,19.6,19.6h220c10.8,0,19.6-8.8,19.6-19.6
			V128C-207.4,117.1-216.2,108.3-227,108.3L-227,108.3z"/>
	</g>
	<path class="st3" d="M-227,108.3h-46.4c10.8,0,19.6,8.8,19.6,19.6v290.3c0,10.8-8.8,19.6-19.6,19.6h46.4c10.8,0,19.6-8.8,19.6-19.6
		V128C-207.4,117.1-216.2,108.3-227,108.3L-227,108.3z"/>
	<path class="st4" d="M-207.4,128c0-10.8-8.8-19.6-19.6-19.6h-220c-10.8,0-19.6,8.8-19.6,19.6v52.7c0,7.7,3.4,15.1,9.2,20.2l9.6,8.3
		c6.1,5.3,14,8.2,22.1,8.2h177.4c8.1,0,15.9-2.9,22.1-8.2l9.6-8.3c5.9-5.1,9.2-12.4,9.2-20.2V128z"/>
	<path class="st5" d="M-248.3,220.6h-177.4c-8.9,0-17.5-3.2-24.2-9l-9.6-8.3c-6.6-5.7-10.4-13.9-10.4-22.6V128
		c0-12.6,10.3-22.9,22.9-22.9h220c12.6,0,22.9,10.3,22.9,22.9v52.7c0,8.7-3.8,17-10.4,22.6l-9.6,8.3
		C-230.8,217.4-239.4,220.6-248.3,220.6z M-447,111.6c-9,0-16.3,7.3-16.3,16.3v52.7c0,6.8,3,13.2,8.1,17.7l9.6,8.3
		c5.5,4.8,12.6,7.4,19.9,7.4h177.4c7.3,0,14.4-2.6,19.9-7.4l9.6-8.3c5.1-4.4,8.1-10.9,8.1-17.7V128c0-9-7.3-16.3-16.3-16.3H-447z"/>
	<g>
		<path class="st5" d="M-227,441.2h-220c-12.6,0-22.9-10.3-22.9-22.9V128c0-12.6,10.3-22.9,22.9-22.9h220
			c12.6,0,22.9,10.3,22.9,22.9v290.3C-204.1,430.9-214.4,441.2-227,441.2z M-447,111.6c-9,0-16.3,7.3-16.3,16.3v290.3
			c0,9,7.3,16.3,16.3,16.3h220c9,0,16.3-7.3,16.3-16.3V128c0-9-7.3-16.3-16.3-16.3v0H-447z"/>
	</g>
	<path class="st6" d="M-218.8,74.1h-168.7c-10.8,0-19.6,8.8-19.6,19.6V384c0,10.8,8.8,19.6,19.6,19.6h220c10.8,0,19.6-8.8,19.6-19.6
		V145c0-5.2-2.1-10.2-5.8-13.9l-51.3-51.3C-208.6,76.1-213.6,74.1-218.8,74.1L-218.8,74.1z"/>
	<g>
		<path class="st7" d="M-153.7,131.1l-40.6-40.6V384c0,10.8-8.8,19.6-19.6,19.6h46.4c10.8,0,19.6-8.8,19.6-19.6V145
			C-147.9,139.8-150,134.8-153.7,131.1L-153.7,131.1z"/>
	</g>
	<path class="st8" d="M-153.7,131.1l-51.3-51.3c-1.7-1.7-3.6-3-5.8-4v48.8c0,6.7,5.5,12.2,12.2,12.2h48.8
		C-150.6,134.7-152,132.8-153.7,131.1z"/>
	<path class="st5" d="M-149.7,140.1h-48.8c-8.5,0-15.5-6.9-15.5-15.5V75.8c0-1.1,0.6-2.2,1.5-2.8c0.9-0.6,2.1-0.7,3.1-0.2
		c2.5,1.1,4.8,2.7,6.7,4.7l51.3,51.3c1.9,1.9,3.5,4.2,4.7,6.7c0.5,1,0.4,2.2-0.2,3.1C-147.5,139.6-148.6,140.1-149.7,140.1z
		 M-207.4,82v42.7c0,4.9,4,8.9,8.9,8.9h42.7c0,0-0.1-0.1-0.1-0.1l-51.3-51.3C-207.3,82.1-207.4,82.1-207.4,82z"/>
	<circle class="st8" cx="-325.7" cy="164.4" r="48.2"/>
	<path class="st6" d="M-325.7,175.8c-15.3,0-28.3,10.2-32.4,24.2c8.6,7.8,19.9,12.6,32.4,12.6s23.9-4.8,32.4-12.6
		C-297.4,186-310.4,175.8-325.7,175.8L-325.7,175.8z"/>
	<circle class="st6" cx="-325.7" cy="163" r="17"/>
	<path class="st5" d="M-180.9,172.7h-68c-1.4,0-2.6-1.1-2.6-2.6s1.1-2.6,2.6-2.6h68c1.4,0,2.6,1.1,2.6,2.6S-179.5,172.7-180.9,172.7
		z"/>
	<path class="st5" d="M-180.9,196.7h-68c-1.4,0-2.6-1.1-2.6-2.6s1.1-2.6,2.6-2.6h68c1.4,0,2.6,1.1,2.6,2.6S-179.5,196.7-180.9,196.7
		z"/>
	<path class="st5" d="M-180.9,264.1h-199c-1.4,0-2.6-1.1-2.6-2.6s1.1-2.6,2.6-2.6h199c1.4,0,2.6,1.1,2.6,2.6
		S-179.5,264.1-180.9,264.1z"/>
	<path class="st5" d="M-180.9,289.6h-199c-1.4,0-2.6-1.1-2.6-2.6s1.1-2.6,2.6-2.6h199c1.4,0,2.6,1.1,2.6,2.6
		S-179.5,289.6-180.9,289.6z"/>
	<path class="st5" d="M-180.9,315.1h-199c-1.4,0-2.6-1.1-2.6-2.6c0-1.4,1.1-2.6,2.6-2.6h199c1.4,0,2.6,1.1,2.6,2.6
		C-178.4,313.9-179.5,315.1-180.9,315.1z"/>
	<path class="st5" d="M-277.6,340.6h-102.3c-1.4,0-2.6-1.1-2.6-2.6c0-1.4,1.1-2.6,2.6-2.6h102.3c1.4,0,2.6,1.1,2.6,2.6
		C-275,339.4-276.1,340.6-277.6,340.6z"/>
	<path class="st5" d="M-167.5,407h-220c-12.6,0-22.9-10.3-22.9-22.9V93.7c0-12.6,10.3-22.9,22.9-22.9h168.7c6.1,0,11.9,2.4,16.2,6.7
		l51.3,51.3c4.3,4.3,6.7,10.1,6.7,16.2V384C-144.6,396.7-154.9,407-167.5,407z M-387.6,77.4c-9,0-16.3,7.3-16.3,16.3V384
		c0,9,7.3,16.3,16.3,16.3h220c9,0,16.3-7.3,16.3-16.3V145c0-4.4-1.7-8.5-4.8-11.6l-51.3-51.3c-3.1-3.1-7.2-4.8-11.6-4.8H-387.6z"/>
	<path class="st5" d="M-325.7,215.9c-28.4,0-51.4-23.1-51.4-51.4s23.1-51.4,51.4-51.4c28.4,0,51.4,23.1,51.4,51.4
		S-297.3,215.9-325.7,215.9z M-325.7,119.6c-24.7,0-44.9,20.1-44.9,44.9s20.1,44.9,44.9,44.9c24.7,0,44.9-20.1,44.9-44.9
		S-301,119.6-325.7,119.6z"/>
</g>
<g>
	<g>
		<path class="st6" d="M388.7,445.9H123.3c-8.9,0-16.2-7.3-16.2-16.2V82.3c0-8.9,7.3-16.2,16.2-16.2h265.4c8.9,0,16.2,7.3,16.2,16.2
			v347.3C404.9,438.6,397.7,445.9,388.7,445.9L388.7,445.9z"/>
	</g>
	<path class="st7" d="M388.7,66.1h-48.4c8.9,0,16.2,7.3,16.2,16.2v347.3c0,8.9-7.3,16.2-16.2,16.2h48.4c8.9,0,16.2-7.3,16.2-16.2
		V82.3C404.9,73.4,397.7,66.1,388.7,66.1L388.7,66.1z"/>
	<path class="st9" d="M236.9,66.1H123.3c-8.9,0-16.2,7.3-16.2,16.2v347.3c0,8.9,7.3,16.2,16.2,16.2h113.6V66.1z"/>
	<path class="st5" d="M236.9,449.3H123.3c-10.8,0-19.6-8.8-19.6-19.6V82.3c0-10.8,8.8-19.6,19.6-19.6h113.6c1.9,0,3.4,1.5,3.4,3.4
		v379.7C240.3,447.8,238.8,449.3,236.9,449.3z M123.3,69.6c-7,0-12.8,5.7-12.8,12.8v347.3c0,7,5.7,12.8,12.8,12.8h110.2V69.6H123.3z
		"/>
	<circle class="st8" cx="172.1" cy="149.1" r="39.7"/>
	<path class="st6" d="M172.1,158.5c-12.7,0-23.3,8.4-26.8,20c7.1,6.4,16.4,10.4,26.8,10.4c10.3,0,19.7-3.9,26.8-10.4
		C195.4,166.9,184.7,158.5,172.1,158.5z"/>
	<circle class="st6" cx="172.1" cy="148" r="14.1"/>
	<path class="st10" d="M205.3,272.6h-66.4c-3.7,0-6.6-3-6.6-6.6v-16.4c0-3.7,3-6.6,6.6-6.6h66.4c3.7,0,6.6,3,6.6,6.6v16.4
		C211.9,269.6,208.9,272.6,205.3,272.6z"/>
	<path class="st10" d="M205.3,333.3h-66.4c-3.7,0-6.6-3-6.6-6.6v-16.4c0-3.7,3-6.6,6.6-6.6h66.4c3.7,0,6.6,3,6.6,6.6v16.4
		C211.9,330.4,208.9,333.3,205.3,333.3z"/>
	<path class="st10" d="M205.3,394.1h-66.4c-3.7,0-6.6-3-6.6-6.6v-16.4c0-3.7,3-6.6,6.6-6.6h66.4c3.7,0,6.6,3,6.6,6.6v16.4
		C211.9,391.1,208.9,394.1,205.3,394.1z"/>
	<path class="st5" d="M297.4,132c3.4,0,6.7,1,9.6,2.9c2.6,1.8,6.2,1.1,8-1.5c1.8-2.6,1.1-6.2-1.5-8c-4.7-3.2-10.3-4.9-16-4.9
		c-15.8,0-28.6,12.8-28.6,28.6s12.8,28.6,28.6,28.6c6.3,0,12-2.1,16.4-6c0.9-0.8,1.7-1.6,2.4-2.5c2-2.4,1.7-6-0.7-8.1
		c-2.4-2-6-1.7-8.1,0.7c-0.4,0.5-0.8,0.9-1.3,1.3c-2.3,2-5.2,3.1-8.7,3.1c-9.5,0-17.1-7.7-17.1-17.1C280.3,139.7,288,132,297.4,132z
		"/>
	<path class="st5" d="M354.5,177.7L354.5,177.7c2.9,0,5.5-1.9,6.4-4.6l14.9-45c1-3-0.6-6.2-3.6-7.2c-3-1-6.2,0.6-7.2,3.6l-10.6,31.8
		l-11.1-32c-1-3-4.3-4.6-7.3-3.5c-3,1-4.6,4.3-3.5,7.3l15.7,45.1C349.1,175.9,351.6,177.7,354.5,177.7L354.5,177.7z"/>
	<g>
		<path class="st5" d="M388.7,449.3H123.3c-10.8,0-19.6-8.8-19.6-19.6V82.3c0-10.8,8.8-19.6,19.6-19.6h265.4
			c10.8,0,19.6,8.8,19.6,19.6v347.3C408.4,440.5,399.5,449.3,388.7,449.3z M123.3,69.6c-7,0-12.8,5.7-12.8,12.8v347.3
			c0,7,5.7,12.8,12.8,12.8h265.4c7,0,12.8-5.7,12.8-12.8V82.3c0-7-5.7-12.8-12.8-12.8H123.3z"/>
	</g>
	<path class="st5" d="M172.1,192.3c-23.8,0-43.2-19.4-43.2-43.2s19.4-43.2,43.2-43.2s43.2,19.4,43.2,43.2S195.9,192.3,172.1,192.3z
		 M172.1,112.8c-20,0-36.3,16.3-36.3,36.3c0,20,16.3,36.3,36.3,36.3c20,0,36.3-16.3,36.3-36.3C208.3,129.1,192.1,112.8,172.1,112.8z
		"/>
	<path class="st5" d="M205.3,276h-66.4c-5.6,0-10.1-4.5-10.1-10.1v-16.4c0-5.6,4.5-10.1,10.1-10.1h66.4c5.6,0,10.1,4.5,10.1,10.1
		v16.4c0,2.7-1,5.2-3,7.1C210.5,275,208,276,205.3,276z M138.8,246.4c-1.8,0-3.2,1.4-3.2,3.2v16.4c0,1.8,1.4,3.2,3.2,3.2h66.4
		c0.9,0,1.7-0.3,2.3-0.9c0.6-0.6,0.9-1.4,0.9-2.3v-16.4c0-1.8-1.4-3.2-3.2-3.2H138.8z"/>
	<path class="st5" d="M205.3,336.8h-66.4c-5.6,0-10.1-4.5-10.1-10.1v-16.4c0-5.6,4.5-10.1,10.1-10.1h66.4c5.6,0,10.1,4.5,10.1,10.1
		v16.4c0,2.7-1,5.2-3,7.1C210.5,335.7,208,336.8,205.3,336.8z M138.8,307.1c-1.8,0-3.2,1.4-3.2,3.2v16.4c0,1.8,1.4,3.2,3.2,3.2h66.4
		c0.9,0,1.7-0.3,2.3-0.9c0.6-0.6,0.9-1.4,0.9-2.3v-16.4c0-1.8-1.4-3.2-3.2-3.2H138.8z"/>
	<path class="st5" d="M205.3,397.5h-66.4c-5.6,0-10.1-4.5-10.1-10.1v-16.4c0-5.6,4.5-10.1,10.1-10.1h66.4c5.6,0,10.1,4.5,10.1,10.1
		v16.4c0,2.7-1,5.2-3,7.1C210.5,396.5,208,397.5,205.3,397.5z M138.8,367.9c-1.8,0-3.2,1.4-3.2,3.2v16.4c0,1.8,1.4,3.2,3.2,3.2h66.4
		c0.9,0,1.7-0.3,2.3-0.9c0.6-0.6,0.9-1.4,0.9-2.3v-16.4c0-1.8-1.4-3.2-3.2-3.2H138.8z"/>
	<path class="st5" d="M376.1,224.5h-115c-1.9,0-3.4-1.5-3.4-3.4c0-1.9,1.5-3.4,3.4-3.4h115c1.9,0,3.4,1.5,3.4,3.4
		C379.6,223,378,224.5,376.1,224.5z"/>
	<path class="st5" d="M376.1,259.4h-115c-1.9,0-3.4-1.5-3.4-3.4c0-1.9,1.5-3.4,3.4-3.4h115c1.9,0,3.4,1.5,3.4,3.4
		C379.6,257.9,378,259.4,376.1,259.4z"/>
	<path class="st5" d="M326.3,294.3h-65.2c-1.9,0-3.4-1.5-3.4-3.4s1.5-3.4,3.4-3.4h65.2c1.9,0,3.4,1.5,3.4,3.4
		S328.2,294.3,326.3,294.3z"/>
	<path class="st5" d="M376.1,329.2h-115c-1.9,0-3.4-1.5-3.4-3.4c0-1.9,1.5-3.4,3.4-3.4h115c1.9,0,3.4,1.5,3.4,3.4
		C379.6,327.7,378,329.2,376.1,329.2z"/>
	<path class="st5" d="M376.1,364.1h-115c-1.9,0-3.4-1.5-3.4-3.4s1.5-3.4,3.4-3.4h115c1.9,0,3.4,1.5,3.4,3.4S378,364.1,376.1,364.1z"
		/>
	<path class="st5" d="M326.3,399h-65.2c-1.9,0-3.4-1.5-3.4-3.4c0-1.9,1.5-3.4,3.4-3.4h65.2c1.9,0,3.4,1.5,3.4,3.4
		C329.8,397.5,328.2,399,326.3,399z"/>
</g>
</svg>
