<?xml version="1.0" encoding="utf-8"?>
<!-- Generator: Adobe Illustrator 24.0.1, SVG Export Plug-In . SVG Version: 6.00 Build 0)  -->
<svg version="1.1" id="Layer_1" xmlns="http://www.w3.org/2000/svg" xmlns:xlink="http://www.w3.org/1999/xlink" x="0px" y="0px"
	 viewBox="0 0 1024 1024" style="enable-background:new 0 0 1024 1024;" xml:space="preserve">
<style type="text/css">
	.st0{fill:#EA2429;}
	.st1{fill:none;stroke:#010101;stroke-width:8.8169;stroke-miterlimit:10;}
	.st2{fill:#313030;}
	.st3{fill:none;stroke:#010101;stroke-width:6.2188;stroke-miterlimit:10;}
	.st4{fill:none;stroke:#010101;stroke-width:5.44;stroke-miterlimit:10;}
	.st5{fill:#FFFFFF;}
	.st6{fill:#F4AA2B;}
	.st7{fill:none;stroke:#010101;stroke-width:11.7558;stroke-miterlimit:10;}
	.st8{fill:#010101;}
	.st9{clip-path:url(#SVGID_2_);fill:#FFFFFF;}
	.st10{clip-path:url(#SVGID_4_);fill:#FFFFFF;}
	.st11{fill:none;stroke:#010101;stroke-width:5.8779;stroke-miterlimit:10;}
	.st12{fill:none;stroke:#D9B2D3;stroke-width:11.7558;stroke-miterlimit:10;}
	.st13{fill:none;stroke:#010101;stroke-width:7.9881;stroke-miterlimit:10;}
	.st14{fill:none;stroke:#010101;stroke-width:11.9792;stroke-linecap:round;stroke-miterlimit:10;}
	.st15{fill:#E0E0E0;stroke:#000000;stroke-width:8.8169;stroke-miterlimit:10;}
	.st16{fill:#D40101;}
	.st17{opacity:0.18;}
	.st18{fill:#EF5768;}
</style>
<g>
	<g>
		<path class="st0" d="M375.4,570.6c0,0-122.3,107.6-218.7,133c34.8,8.1,77.9,27.8,92.3,56.5c16,32.1,51,38.1,117.2,24.8
			c66.2-13.3,73.5-7.7,129.9,38.6c56.3,46.3,98.1,35.3,145.3,20.5c16.4-1.8,39.1,8.8,45.5,21.1c-48.1-79.4-118.4-187.9-121.2-260
			C502.3,584.3,388.8,544,375.4,570.6"/>
		<path class="st1" d="M375.4,570.6c0,0-122.3,107.6-218.7,133c34.8,8.1,77.9,27.8,92.3,56.5c16,32.1,51,38.1,117.2,24.8
			c66.2-13.3,73.5-7.7,129.9,38.6c56.3,46.3,98.1,35.3,145.3,20.5c16.4-1.8,39.1,8.8,45.5,21.1c-48.1-79.4-118.4-187.9-121.2-260
			C502.3,584.3,388.8,544,375.4,570.6z"/>
	</g>
	<g>
		<path class="st2" d="M406.3,606.3c0,0-52.3,38.5-59,111.5c-0.5-7.8,8.6,143,74.4,130.6l40.5-226.3"/>
		<path class="st3" d="M406.3,606.3c0,0-52.3,38.5-59,111.5c-0.5-7.8,8.6,143,74.4,130.6l40.5-226.3"/>
	</g>
	<path class="st2" d="M755.9,608.4c0,0,52.3,38.5,59,111.5c0.5-7.8-8.6,143-74.4,130.6L700,624.2"/>
	<path class="st3" d="M755.9,608.4c0,0,52.3,38.5,59,111.5c0.5-7.8-8.6,143-74.4,130.6L700,624.2"/>
	<path class="st0" d="M573.3,688.8c0,0,166.4-34.9,175.6-41.9c9.2-6.9,34.7-18.8,13.9-46.4c-20.8-27.5-167.1,58.3-167.1,58.3
		L573.3,688.8z"/>
	<path class="st4" d="M573.3,688.8c0,0,166.4-34.9,175.6-41.9c9.2-6.9,34.7-18.8,13.9-46.4c-20.8-27.5-167.1,58.3-167.1,58.3
		L573.3,688.8z"/>
	<path class="st0" d="M521.8,641.1c0,0-35.1,214.7-32.5,227.2c2.6,12.4,59.4,84.5,93.8,87.8c34.4,3.2,72.1-85.6,74.7-100.2
		c2.7-14.6-80.5-220.1-80.5-220.1L521.8,641.1z"/>
	<path class="st4" d="M521.8,641.1c0,0-35.1,214.7-32.5,227.2c2.6,12.4,59.4,84.5,93.8,87.8c34.4,3.2,72.1-85.6,74.7-100.2
		c2.7-14.6-80.5-220.1-80.5-220.1L521.8,641.1z"/>
	<path class="st0" d="M533.8,608.4c0,0-7.7,38.9,16.7,47c24.4,8,57,7.8,57,7.8s35.6-28.8,16.2-50.7L533.8,608.4z"/>
	<path class="st4" d="M533.8,608.4c0,0-7.7,38.9,16.7,47c24.4,8,57,7.8,57,7.8s35.6-28.8,16.2-50.7L533.8,608.4z"/>
	<path class="st5" d="M588.4,822c0.1-16.5-12-31-28.9-33.2c-17.3-2.3-33.3,9.2-36.8,25.9l-0.1,0.6l-8.7,63.8l62.2,8.2
		c0.5,0.1,1,0.2,1.5,0.2c0.4,0,0.9,0.1,1.3,0.1l2.5,0.3l0.1-0.2c16.6,0.2,31.1-12,33.4-28.9C617.2,841.5,605.5,825.4,588.4,822
		 M574.3,865.8c-0.9,0.1-2.5,0.1-2.5,0.1c-0.9,0-2-0.2-3.6-0.4l-29.1-3.8l-1.1-0.1l0,0l-0.3,0l4.3-32.7c-0.1-0.8,0.2-1.6,0.3-2.5
		c0.1-0.8,0.2-1.6,0.4-2.4l0.2-0.5l0.1-0.3c0.1-0.2,0.1-0.3,0.2-0.5c2.3-5.1,7.7-8.3,13.6-7.6c7.1,0.9,12.1,7.5,11.2,14.6
		c0,0.4-1.3,9.6-1.3,9.6l11.3,1.5l0.6,0.2c5.5,2.1,8.3,8,7.6,14.1C585.3,861.3,580.3,865.3,574.3,865.8"/>
	<path class="st5" d="M415.4,873.9c0,0,45.1,19.3,85.9,13.6l-0.3,23.5c0,0-34.6,12.1-93.7-13.6L415.4,873.9z"/>
	<path class="st5" d="M726.7,874.6c0,0-45.6,18.2-86.2,11.5l-0.3,23.5c0,0,34.2,12.9,94-11.4L726.7,874.6z"/>
	<path class="st0" d="M301,361.3c33.5-138.2,124.5-222.8,279-215.1C788.1,166,840.2,325.7,833.1,422.9
		C833.1,422.9,431.2,376.8,301,361.3"/>
	<path class="st1" d="M301,361.3c33.5-138.2,124.5-222.8,279-215.1C788.1,166,840.2,325.7,833.1,422.9
		C833.1,422.9,431.2,376.8,301,361.3z"/>
	<path class="st0" d="M336,425.4c-3.6,38-25.2,67.1-48.3,64.9c-23.1-2.2-38.9-34.8-35.3-72.8c3.6-38,25.2-67.1,48.3-64.9
		C323.8,354.7,339.6,387.3,336,425.4"/>
	<path class="st1" d="M336,425.4c-3.6,38-25.2,67.1-48.3,64.9c-23.1-2.2-38.9-34.8-35.3-72.8c3.6-38,25.2-67.1,48.3-64.9
		C323.8,354.7,339.6,387.3,336,425.4z"/>
	<path class="st0" d="M866.1,487.9c-5.4,37.8-28.4,65.8-51.3,62.5c-23-3.3-37.2-36.6-31.8-74.4c5.4-37.8,28.4-65.8,51.3-62.5
		C857.3,416.8,871.5,450.1,866.1,487.9"/>
	<path class="st1" d="M866.1,487.9c-5.4,37.8-28.4,65.8-51.3,62.5c-23-3.3-37.2-36.6-31.8-74.4c5.4-37.8,28.4-65.8,51.3-62.5
		C857.3,416.8,871.5,450.1,866.1,487.9z"/>
	<path class="st6" d="M373.2,422.1c-0.8,52.1-25.3,93.9-54.7,93.4c-29.4-0.4-52.6-43-51.8-95.1c0.8-52,25.3-93.9,54.7-93.4
		C350.7,327.5,373.9,370,373.2,422.1"/>
	<path class="st1" d="M373.2,422.1c-0.8,52.1-25.3,93.9-54.7,93.4c-29.4-0.4-52.6-43-51.8-95.1c0.8-52,25.3-93.9,54.7-93.4
		C350.7,327.5,373.9,370,373.2,422.1z"/>
	<path class="st6" d="M849.4,493.9c-13.6,50.2-47.6,84.7-76.1,77.1c-28.4-7.7-40.4-54.7-26.8-104.9c13.6-50.3,47.6-84.7,76-77.1
		C851,396.7,863,443.7,849.4,493.9"/>
	<path class="st1" d="M849.4,493.9c-13.6,50.2-47.6,84.7-76.1,77.1c-28.4-7.7-40.4-54.7-26.8-104.9c13.6-50.3,47.6-84.7,76-77.1
		C851,396.7,863,443.7,849.4,493.9z"/>
	<path class="st5" d="M829.5,437.5c-12.5,132.2-138,228.4-280.2,214.9c-142.2-13.5-247.3-131.6-234.8-263.8
		c12.5-132.2,138-228.4,280.2-214.9C736.9,187.2,842,305.3,829.5,437.5"/>
	<path class="st7" d="M823.6,437.5c-12.5,132.2-138,228.4-280.2,214.9C401.2,638.9,296,520.8,308.6,388.6
		c12.5-132.2,138-228.4,280.2-214.9C731,187.2,836.2,305.3,823.6,437.5z"/>
	<path class="st5" d="M510,182.6c0,0,111.6-18.5,100.7-115.8c0,0,28.9,32.8,20.2,76.7c0,0,59.3-36.3,47.1-102.9
		c0,0,70.6,113.5-17.9,179.6"/>
	<path class="st8" d="M510,182.6c6.9-1.6,13.7-3.8,20.2-6.4c6.6-2.5,13-5.4,19.2-8.7c12.4-6.6,23.9-14.8,33.3-24.9
		c9.4-10,16.5-22,20.2-35c3.8-13,4.3-26.7,2.5-40.2l-2.2-16.7l11.3,12.7l0,0c2.6,3,4.5,5.8,6.5,8.9c1.9,3,3.7,6.1,5.3,9.3
		c3.2,6.4,5.9,13.1,7.8,20c3.9,13.8,4.6,28.7,1.7,42.9l-7.9-5.5c3.7-2.4,7.6-5.5,11.2-8.6c3.6-3.2,7-6.5,10.2-10.1
		c6.4-7.1,11.8-15.1,16-23.6c4.2-8.5,7-17.6,8.2-27c1.2-9.3,0.9-18.9-0.8-28.3l0,0l-4.4-28l13.9,24.3c4.4,7.7,7.9,15.2,11.1,23.1
		c3.2,7.8,5.9,15.9,8.1,24.1c4.4,16.3,6.8,33.3,6,50.3c-0.4,8.5-1.6,16.9-3.9,25.1c-2.3,8.2-5.5,16.1-9.7,23.4
		c-8.3,14.7-20.3,27-34,36.3c12.9-10.5,23.9-23.2,31-37.9c7.2-14.7,10.4-30.9,10.5-47.1c0-16.2-3.1-32.3-8-47.8
		c-2.5-7.7-5.5-15.3-8.8-22.7c-3.3-7.3-7.1-14.7-11.2-21.3l9.6-3.7l0,0c1.9,10.3,2.3,21,0.9,31.5c-1.4,10.5-4.5,20.7-9.2,30.2
		c-4.6,9.5-10.6,18.2-17.6,26c-3.5,3.9-7.2,7.6-11.1,11c-4,3.5-7.9,6.6-12.6,9.7l-10.3,6.6l2.4-12.1c2.5-12.6,1.9-25.7-1.6-38.1
		c-1.7-6.2-4.1-12.3-7-18c-1.5-2.9-3.1-5.7-4.8-8.4c-1.7-2.7-3.7-5.5-5.5-7.6l9.1-4c0.7,7.4,0.8,14.8,0.1,22.2
		c-0.7,7.4-2.3,14.8-4.7,21.8c-4.8,14.1-13.4,26.8-24,36.8c-10.6,10.1-23.1,17.8-36.3,23.6C537.8,176.4,524,180.6,510,182.6"/>
	<g>
		<defs>
			<path id="SVGID_1_" d="M458,331c-15.2,1-25.5,33.4-22.9,72.3c2.6,38.9,17.1,69.7,32.3,68.7c15.2-1,25.5-33.4,22.9-72.3
				c-2.4-36.3-15.1-65.4-29.2-68.4C460.1,331,459.1,331,458,331"/>
		</defs>
		<clipPath id="SVGID_2_">
			<use xlink:href="#SVGID_1_"  style="overflow:visible;"/>
		</clipPath>
		<path class="st9" d="M506.9,352.1c1.6,24.2-18.6,45.3-45.2,47.1c-26.6,1.8-49.5-16.4-51.1-40.6c-1.6-24.2,18.6-45.3,45.2-47.1
			C482.4,309.6,505.2,327.8,506.9,352.1"/>
		<path class="st9" d="M483.4,419.3c0.1,5.9-4,10.8-9.1,10.9c-5.2,0.1-9.5-4.6-9.6-10.5c-0.1-5.9,4-10.8,9.1-10.9
			C479,408.7,483.3,413.4,483.4,419.3"/>
	</g>
	<g>
		<defs>
			<path id="SVGID_3_" d="M683.5,315.5c-15.3,0.2-27.2,32-26.7,71c0.5,39,13.3,70.5,28.6,70.3c15.3-0.2,27.2-32,26.7-71
				c-0.5-37.2-12.1-67.5-26.4-70.1C684.9,315.5,684.2,315.5,683.5,315.5"/>
		</defs>
		<clipPath id="SVGID_4_">
			<use xlink:href="#SVGID_3_"  style="overflow:visible;"/>
		</clipPath>
		<path class="st10" d="M731.1,339.1c0.3,24.3-21,44.2-47.7,44.6c-26.6,0.4-48.5-19-48.8-43.3c-0.3-24.3,21-44.2,47.7-44.6
			C708.9,295.4,730.8,314.8,731.1,339.1"/>
		<path class="st10" d="M685.9,402.8c0.1,5.9-4.1,10.7-9.2,10.8c-5.2,0.1-9.4-4.7-9.5-10.6c-0.1-5.9,4.1-10.7,9.2-10.8
			C681.5,392.2,685.8,396.9,685.9,402.8"/>
	</g>
	<path class="st11" d="M547.9,499.7c0,0,16.5,33.5,38.9,13.3c17.6,8.9,28.6,5.6,34-15.7"/>
	<line class="st12" x1="718.9" y1="487.6" x2="747.2" y2="472.1"/>
	<line class="st12" x1="749.2" y1="491.5" x2="773.9" y2="475.1"/>
	<line class="st12" x1="386.8" y1="477.3" x2="407.6" y2="456.1"/>
	<line class="st12" x1="410.4" y1="474.6" x2="425.6" y2="455.7"/>
	<g>
		<path class="st6" d="M460.8,553.6c2.4,12.7-10.9,25.9-29.8,29.5c-18.9,3.6-36.1-3.9-38.5-16.6c-2.4-12.7,10.9-25.9,29.8-29.5
			C441.2,533.4,458.4,540.9,460.8,553.6"/>
		<path class="st13" d="M460.8,553.6c2.4,12.7-10.9,25.9-29.8,29.5c-18.9,3.6-36.1-3.9-38.5-16.6c-2.4-12.7,10.9-25.9,29.8-29.5
			C441.2,533.4,458.4,540.9,460.8,553.6z"/>
		<path class="st14" d="M331.9,507.2c0,0,26.5,45.3,73.6,55.9"/>
		<path class="st6" d="M410.1,574c0,0,11.5-11.3-1.3-19.1"/>
		<path class="st8" d="M410.1,574c1-1.6,1.9-3.3,2.6-5c0.7-1.7,1.1-3.4,1.1-5.1c0-1.7-0.5-3.3-1.4-4.8c-0.9-1.5-2.2-2.8-3.6-4.2
			c1.8,0.6,3.6,1.7,4.9,3.2c1.4,1.5,2.2,3.7,2.2,5.8c0,2.1-0.7,4.1-1.8,5.8C413.1,571.4,411.7,572.9,410.1,574"/>
	</g>
	<g>
		<path class="st15" d="M457.6,939.1l-0.8-0.5c-33-20.5-66.9-46.6-68.2-84.7l-7.2-205.1L572.8,588l194.5,47.3l7.2,205.1
			c1.4,40.3-33.2,69.5-59.3,88l-0.6,0.4l-127,81.7L457.6,939.1z"/>
		<path class="st16" d="M415,668.1c0,0.1,0,0.1,0,0.2l6.5,184.6c0.9,26.2,28.3,46.5,54.9,63l110.1,60.4l108-69.4
			c24.1-17,48.2-39.1,47.3-65.3l-6.5-184.6c0-0.1,0-0.1,0-0.2l-161.3-39.3L415,668.1z"/>
		<path class="st17" d="M574.3,617.6L586.9,976l107.5-69.2c24.1-17,48.2-39.1,47.3-65.3l-6.5-184.6c0-0.1,0-0.1,0-0.2L574.3,617.6z"
			/>
		<path class="st5" d="M644.3,766.7l-0.9-25.3c-1.1-30.2-30.7-53.7-66-52.5l-1.2,0c-35.3,1.2-63.2,26.8-62.2,57l0.9,25.3l-8.8,0.3
			l3.7,104.3l145.4-5.1l-3.7-104.3L644.3,766.7z M597.9,849.4l-32.5,1.1L579,820c-8.2-0.4-14.9-6.1-15.1-13.3
			c-0.3-7.7,6.8-14.1,15.7-14.4c9-0.3,16.4,5.6,16.7,13.3c0.3,7.2-6,13.3-14.1,14.3L597.9,849.4z M627.9,767.3l-96.5,3.4l-0.9-25.3
			c-0.8-22.4,19.9-41.5,46.2-42.4l1.2,0c26.3-0.9,48.3,16.6,49.1,39L627.9,767.3z"/>
	</g>
	<g>
		<path class="st5" d="M735.5,658.9c0,0,5.4,84.6,52.3,72.7s33.9-143-44.6-139.9C719.6,591,708.1,651.9,735.5,658.9"/>
		<path class="st1" d="M735.5,658.9c0,0,5.4,84.6,52.3,72.7s33.9-143-44.6-139.9C719.6,591,708.1,651.9,735.5,658.9z"/>
	</g>
	<g>
		<path class="st5" d="M414.9,665.2c0,0-5.4,84.6-52.3,72.7S328.7,595,407.2,598C430.7,597.3,442.3,658.2,414.9,665.2"/>
		<path class="st1" d="M414.9,665.2c0,0-5.4,84.6-52.3,72.7S328.7,595,407.2,598C430.7,597.3,442.3,658.2,414.9,665.2z"/>
	</g>
	<path class="st8" d="M642.4,363.1c-1.7,37.8,9.8,72.1,28.1,73c25,1.3,34-26.2,35.6-64c1.7-37.8-11.3-70.9-29.6-72.9
		C658.3,297.2,644.1,325.3,642.4,363.1"/>
	<path class="st5" d="M666.1,345c3.3,15.6,12.4,23.9,20.7,21.2c11.4-3.7,13-20.1,9.7-35.7c-3.3-15.6-16.1-27.5-24.1-23.3
		C660.8,313,662.8,329.4,666.1,345"/>
	<path class="st5" d="M673.3,390c2.2,8.6-3.8,17.7-11.6,4.5c-6.4-10.8,1.8-17.2,8.2-10.6C671.7,385.7,672.8,387.8,673.3,390"/>
	<path class="st8" d="M438.2,362c-0.5,37.9,12.6,72,32,72.7c26.4,1,35-26.7,35.5-64.5c0.6-37.9-14.2-70.8-33.5-72.6
		C452.8,295.8,438.7,324.2,438.2,362"/>
	<path class="st5" d="M462.5,343.6c4,15.5,13.8,23.7,22.5,20.9c11.9-3.9,13.1-20.3,9.1-35.8c-4-15.5-17.9-27.3-26.2-23
		C455.9,311.7,458.5,328,462.5,343.6"/>
	<path class="st5" d="M471.6,388.6c2.6,8.6-3.4,17.7-12,4.7c-7.1-10.7,1.4-17.2,8.3-10.7C469.8,384.3,471,386.4,471.6,388.6"/>
	<g>
		<path class="st8" d="M441.4,458.9c-0.1,1.5-0.1,3-0.1,4.5c0,66.2,59.6,119.9,133,119.9c73.5,0,133-53.7,133-119.9
			c0-1.5-0.1-3-0.1-4.5H441.4z"/>
		<path class="st5" d="M448.8,469.6c-0.1,1.5-0.1-7.7-0.1-6.2c0,66.2,56.6,119.9,126.4,119.9c69.8,0,126.4-53.7,126.4-119.9
			c0-1.5-0.1,7.7-0.1,6.2H448.8z"/>
		<path class="st18" d="M451.3,487.8c11.8,54.6,62.7,95.6,123.7,95.6c61,0,111.9-41,123.7-95.6H451.3z"/>
	</g>
	<path class="st8" d="M511.5,304.5c-2.1-3.7-4.4-7.1-6.8-10.4c-2.3-3.3-4.9-6.5-7.5-9.4c-5.3-5.9-11.2-11-17.9-14.2
		c-3.3-1.7-6.9-2.9-10.5-3.6c-3.7-0.8-7.5-0.9-11.3-0.9c-7.8,0.3-15.7,2.2-23.9,4.5c6.4-5.6,14.3-9.6,23-11.4
		c4.4-0.8,8.9-1.1,13.5-0.5c4.5,0.6,9,2,13.1,4c8.3,4.1,14.8,10.7,19.5,18c2.4,3.7,4.3,7.6,5.8,11.6
		C510,296.1,511.3,300.2,511.5,304.5z"/>
	<path class="st8" d="M634.6,301.5c2.1-3.7,4.4-7.1,6.8-10.4c2.3-3.3,4.9-6.5,7.5-9.4c5.3-5.9,11.2-11,17.9-14.2
		c3.3-1.7,6.9-2.9,10.5-3.6c3.7-0.8,7.5-0.9,11.3-0.9c7.8,0.3,15.7,2.2,23.9,4.5c-6.4-5.6-14.3-9.6-23-11.4
		c-4.4-0.8-8.9-1.1-13.5-0.5c-4.5,0.6-9,2-13.1,4c-8.3,4.1-14.8,10.7-19.5,18c-2.4,3.7-4.3,7.6-5.8,11.6
		C636.1,293.1,634.8,297.2,634.6,301.5z"/>
</g>
</svg>
