<?xml version="1.0" encoding="utf-8"?>
<!-- Generator: Adobe Illustrator 24.0.1, SVG Export Plug-In . SVG Version: 6.00 Build 0)  -->
<svg version="1.1" id="Layer_1" xmlns="http://www.w3.org/2000/svg" xmlns:xlink="http://www.w3.org/1999/xlink" x="0px" y="0px"
	 viewBox="0 0 100 100" style="enable-background:new 0 0 100 100;" xml:space="preserve">
<style type="text/css">
	.st0{fill:#4A7AFF;}
	.st1{fill:#0053BF;}
	.st2{fill:#FFFFFF;}
	.st3{fill:#DCE1EB;}
	.st4{fill:#65A2D9;}
	.st5{fill:#3A7CA5;}
	.st6{fill:#D1D1D1;}
	.st7{fill:#D22215;}
	.st8{fill:#A81411;}
	.st9{fill:#6C27B3;}
	.st10{fill:#501A96;}
	.st11{fill:#4376B1;}
	.st12{fill:#336699;}
	.st13{fill:#6DC02D;}
	.st14{fill:#559B18;}
	.st15{fill:#6FC32E;}
</style>
<g>
	<path class="st0" d="M100,50c0,27.6-22.4,50-50,50S0,77.6,0,50S22.4,0,50,0S100,22.4,100,50z"/>
	<path class="st1" d="M52.2,99.9C78.8,98.8,100,76.9,100,50c0-0.2,0-0.4,0-0.6L65.3,14.7L28.2,53.5l20.6,20.6L39.3,87L52.2,99.9z"/>
	<path class="st2" d="M65.3,14.7V26c0,0-13-1.9-13,6.5v8.4H64l-1.5,12.8H52.3V87h-13V53.7l-11.1-0.2V40.9h10.9v-9.6
		c0,0-0.7-14.3,13.4-17C58.4,13.2,65.3,14.7,65.3,14.7z"/>
	<path class="st3" d="M65.3,26V14.7c0,0-6.9-1.5-12.8-0.4c-0.9,0.2-1.8,0.4-2.6,0.7V87h2.4V53.7h10.3L64,40.9H52.3c0,0,0,0,0-8.4
		S65.3,26,65.3,26z"/>
</g>
</svg>
