<?xml version="1.0" encoding="utf-8"?>
<!-- Generator: Adobe Illustrator 24.0.1, SVG Export Plug-In . SVG Version: 6.00 Build 0)  -->
<svg version="1.1" id="Layer_1" xmlns="http://www.w3.org/2000/svg" xmlns:xlink="http://www.w3.org/1999/xlink" x="0px" y="0px"
	 viewBox="0 0 100 100" style="enable-background:new 0 0 100 100;" xml:space="preserve">
<style type="text/css">
	.st0{fill:#4A7AFF;}
	.st1{fill:#0053BF;}
	.st2{fill:#FFFFFF;}
	.st3{fill:#DCE1EB;}
	.st4{fill:#65A2D9;}
	.st5{fill:#3A7CA5;}
	.st6{fill:#D1D1D1;}
	.st7{fill:#B7130F;}
	.st8{fill:#870A0A;}
	.st9{fill:#6C27B3;}
	.st10{fill:#501A96;}
	.st11{fill:#4376B1;}
	.st12{fill:#336699;}
	.st13{fill:#6DC02D;}
	.st14{fill:#559B18;}
	.st15{fill:#6FC32E;}
</style>
<g>
	<circle class="st7" cx="50" cy="50" r="50"/>
	<path class="st8" d="M75.2,33.3c-1.5,0.5-3.1,0.9-4.6,1.2c-11.1,2.4-25.9-4-32.3,6.4c-5.3,8.3-7,18.7-13.1,26.1l32.4,32.4
		c21.6-3.3,38.6-20.3,41.9-41.9L75.2,33.3z"/>
	<path class="st2" d="M66.7,29.8H33.3c-6.6,0-11.9,5.3-11.9,11.9v16.7c0,6.6,5.3,11.9,11.9,11.9h33.5c6.6,0,11.9-5.3,11.9-11.9V41.6
		C78.6,35.1,73.3,29.8,66.7,29.8L66.7,29.8z M58.7,50.8L43,58.3c-0.4,0.2-0.9-0.1-0.9-0.6V42.3c0-0.5,0.5-0.8,0.9-0.6l15.6,7.9
		C59.2,49.9,59.2,50.6,58.7,50.8L58.7,50.8z"/>
	<path class="st6" d="M66.7,29.8H49.7v15.4l9,4.6c0.5,0.2,0.5,0.9,0,1.1l-9,4.3v15.1h17.1c6.6,0,11.9-5.3,11.9-11.9V41.6
		C78.6,35.1,73.3,29.8,66.7,29.8z"/>
</g>
</svg>
