<?xml version="1.0" encoding="utf-8"?>
<!-- Generator: Adobe Illustrator 24.0.1, SVG Export Plug-In . SVG Version: 6.00 Build 0)  -->
<svg version="1.1" id="Layer_1" xmlns="http://www.w3.org/2000/svg" xmlns:xlink="http://www.w3.org/1999/xlink" x="0px" y="0px"
	 viewBox="0 0 100 100" style="enable-background:new 0 0 100 100;" xml:space="preserve">
<style type="text/css">
	.st0{fill:#4A7AFF;}
	.st1{fill:#0053BF;}
	.st2{fill:#FFFFFF;}
	.st3{fill:#DCE1EB;}
	.st4{fill:#65A2D9;}
	.st5{fill:#3A7CA5;}
	.st6{fill:#D1D1D1;}
	.st7{fill:#D22215;}
	.st8{fill:#A81411;}
	.st9{fill:#6C27B3;}
	.st10{fill:#501A96;}
	.st11{fill:#4376B1;}
	.st12{fill:#336699;}
	.st13{fill:#6DC02D;}
	.st14{fill:#559B18;}
	.st15{fill:#6FC32E;}
</style>
<g>
	<circle class="st9" cx="50" cy="50" r="50"/>
	<path class="st10" d="M73.2,26c-6,0.8-12.2,0.7-18.5,0.1c-8.8-0.7-21.5-4.7-26.3,3.4c-7.6,12.9-3.8,29.5-2.1,44.2l26.3,26.3
		c25.5-1.4,45.9-21.8,47.2-47.2L73.2,26z"/>
	<g>
		<path class="st2" d="M61.6,21.4H38.4c-9.4,0-17.1,7.6-17.1,17.1v23.1c0,9.4,7.6,17.1,17.1,17.1h23.1c9.4,0,17.1-7.6,17.1-17.1
			V38.4C78.6,29,71,21.4,61.6,21.4L61.6,21.4z M72.9,61.6c0,6.2-5.1,11.3-11.3,11.3H38.4c-6.2,0-11.3-5.1-11.3-11.3V38.4
			c0-6.2,5.1-11.3,11.3-11.3h23.1c6.2,0,11.3,5.1,11.3,11.3L72.9,61.6L72.9,61.6z"/>
		<path class="st2" d="M50,35.2c-8.2,0-14.8,6.6-14.8,14.8c0,8.2,6.6,14.8,14.8,14.8S64.8,58.2,64.8,50S58.2,35.2,50,35.2L50,35.2z
			 M50,59c-5,0-9-4-9-9s4.1-9,9-9s9,4,9,9C59,55,55,59,50,59L50,59z"/>
	</g>
	<g>
		<path class="st6" d="M68.4,35.3c0,2-1.6,3.5-3.5,3.5c-2,0-3.5-1.6-3.5-3.5c0-2,1.6-3.5,3.5-3.5C66.8,31.8,68.4,33.3,68.4,35.3
			L68.4,35.3z"/>
		<path class="st6" d="M61.6,21.4H49.9v5.8h11.7c6.2,0,11.3,5.1,11.3,11.3v23.1c0,6.2-5.1,11.3-11.3,11.3H49.9v5.8h11.7
			c9.4,0,17.1-7.6,17.1-17.1V38.4C78.6,29,71,21.4,61.6,21.4z"/>
		<path class="st6" d="M50,35.2c0,0-0.1,0-0.1,0V41c0,0,0.1,0,0.1,0c5,0,9,4,9,9c0,5-4,9-9,9c0,0-0.1,0-0.1,0v5.8c0,0,0.1,0,0.1,0
			c8.2,0,14.8-6.6,14.8-14.8C64.8,41.8,58.2,35.2,50,35.2z"/>
	</g>
</g>
</svg>
