<?xml version="1.0" encoding="utf-8"?>
<!-- Generator: Adobe Illustrator 24.0.1, SVG Export Plug-In . SVG Version: 6.00 Build 0)  -->
<svg version="1.1" id="Layer_1" xmlns="http://www.w3.org/2000/svg" xmlns:xlink="http://www.w3.org/1999/xlink" x="0px" y="0px"
	 viewBox="0 0 512 512" style="enable-background:new 0 0 512 512;" xml:space="preserve">
<style type="text/css">
	.st0{fill:#D40101;}
</style>
<path class="st0" d="M212.9,210.1l-9.7,21.1h19.3L212.9,210.1z"/>
<path class="st0" d="M165,95V8.8L78.8,95H165z"/>
<path class="st0" d="M427.6,0H195.2v110.1c0,8.3-6.8,15.1-15.1,15.1H70v371.7c0,8.3,6.8,15.1,15.1,15.1h342.5
	c8.3,0,15.1-6.8,15.1-15.1V15.1C442.6,6.8,435.9,0,427.6,0z M300.4,215.3c-8.3,0-15.1-6.8-15.1-15.1c0-8.3,6.8-15.1,15.1-15.1H311
	v-10.6c0-8.3,6.8-15.1,15.1-15.1s15.1,6.8,15.1,15.1v10.6h10.6c8.3,0,15.1,6.8,15.1,15.1c0,8.3-6.8,15.1-15.1,15.1h-10.6v10.6
	c0,8.3-6.8,15.1-15.1,15.1s-15.1-6.8-15.1-15.1v-10.6H300.4z M147.1,281.2l52.1-113.6l0,0c1.5-3.2,4-5.9,7.4-7.4
	c7.6-3.5,16.5-0.2,20,7.4l52.1,113.6c3.5,7.6,0.2,16.5-7.4,20c-2,0.9-4.2,1.4-6.3,1.4c-5.7,0-11.2-3.3-13.7-8.8l-14.9-32.5h-47
	l-14.9,32.5c-2.5,5.5-8,8.8-13.7,8.8c-2.1,0-4.2-0.4-6.3-1.4C147,297.8,143.6,288.8,147.1,281.2z M160.8,332.5h191
	c8.3,0,15.1,6.8,15.1,15.1s-6.8,15.1-15.1,15.1h-191c-8.3,0-15.1-6.8-15.1-15.1S152.5,332.5,160.8,332.5z M160.8,378.6h125.9
	c8.3,0,15.1,6.8,15.1,15.1s-6.8,15.1-15.1,15.1H160.8c-8.3,0-15.1-6.8-15.1-15.1S152.5,378.6,160.8,378.6z"/>
</svg>
