<?xml version="1.0" encoding="utf-8"?>
<!-- Generator: Adobe Illustrator 24.0.1, SVG Export Plug-In . SVG Version: 6.00 Build 0)  -->
<svg version="1.1" id="Capa_1" xmlns="http://www.w3.org/2000/svg" xmlns:xlink="http://www.w3.org/1999/xlink" x="0px" y="0px"
	 viewBox="0 0 512 512" style="enable-background:new 0 0 512 512;" xml:space="preserve">
<style type="text/css">
	.st0{fill:#FFFFFF;}
	.st1{fill:#ECEAEC;}
	.st2{fill:#DAD8DB;}
	.st3{fill:#FF8086;}
	.st4{fill:#E5646E;}
</style>
<circle class="st0" cx="256" cy="256" r="256"/>
<g>
	<g>
		<path class="st1" d="M352.4,372.5H87.3c-10,0-18.1-4.1-18.1-14.1v-241c0-10,8.1-18.1,18.1-18.1h265.1c10,0,18.1,8.1,18.1,18.1v241
			C370.5,368.4,362.4,372.5,352.4,372.5z"/>
		<path class="st2" d="M87.3,147.6H69.2v210.8c0,10,8.1,18.1,18.1,18.1h265.1c10,0,18.1-8.1,18.1-18.1H93.3c-3.3,0-6-2.7-6-6
			L87.3,147.6L87.3,147.6z"/>
		<path class="st3" d="M352.4,99.4H87.3c-10,0-18.1,8.1-18.1,18.1v30.1h301.2v-30.1C370.5,107.5,362.4,99.4,352.4,99.4z"/>
		<path class="st1" d="M111.4,123.5c-6.7,0-12-5.4-12-12V87.3c0-6.7,5.4-12,12-12s12,5.4,12,12v24.1
			C123.5,118.1,118.1,123.5,111.4,123.5z"/>
		<path class="st2" d="M111.4,123.5c-6.7,0-12-5.4-12-12v-12h24.1v12C123.5,118.1,118.1,123.5,111.4,123.5z"/>
		<path class="st1" d="M328.3,123.5c-6.7,0-12-5.4-12-12V87.3c0-6.7,5.4-12,12-12s12,5.4,12,12v24.1
			C340.3,118.1,334.9,123.5,328.3,123.5z"/>
		<path class="st2" d="M328.3,123.5c-6.7,0-12-5.4-12-12v-12h24.1v12C340.3,118.1,334.9,123.5,328.3,123.5z"/>
		<path class="st4" d="M87.3,117.4V99.4c-10,0-18.1,8.1-18.1,18.1v30.1h301.2v-18.1H99.4C92.7,129.5,87.3,124.1,87.3,117.4z"/>
		<circle class="st3" cx="358.4" cy="352.4" r="84.3"/>
		<path class="st4" d="M370.5,424.7c-46.6,0-84.3-37.8-84.3-84.3c0-20.2,7.1-38.8,19-53.3c-18.9,15.5-31,39-31,65.3
			c0,46.6,37.8,84.3,84.3,84.3c26.4,0,49.9-12.1,65.3-31C409.2,417.5,390.7,424.7,370.5,424.7L370.5,424.7z"/>
	</g>
	<g>
		<path d="M250,370.8H87.3c-6.9,0-12.4-5.6-12.4-12.4V153.2h289.9V244c0,3.1,2.5,5.6,5.6,5.6s5.6-2.5,5.6-5.6V117.4
			c0-13.1-10.6-23.7-23.7-23.7H346v-6.4c0-9.8-7.9-17.7-17.7-17.7c-9.8,0-17.7,7.9-17.7,17.7v6.4h-163c-3.1,0-5.6,2.5-5.6,5.6
			c0,3.1,2.5,5.6,5.6,5.6h163v6.4c0,9.8,7.9,17.7,17.7,17.7s17.7-7.9,17.7-17.7V105h6.4c6.9,0,12.4,5.6,12.4,12.4v24.5H74.9v-24.5
			c0-6.9,5.6-12.4,12.4-12.4h6.4v6.4c0,9.8,7.9,17.7,17.7,17.7s17.7-7.9,17.7-17.7V87.3c0-9.8-7.9-17.7-17.7-17.7
			s-17.7,7.9-17.7,17.7v6.4h-6.4c-13.1,0-23.7,10.6-23.7,23.7v241c0,13.1,10.6,23.7,23.7,23.7H250c3.1,0,5.6-2.5,5.6-5.6
			C255.6,373.4,253.1,370.8,250,370.8L250,370.8z M328.3,117.8c-3.5,0-6.4-2.9-6.4-6.4V87.3c0-3.5,2.9-6.4,6.4-6.4
			c3.5,0,6.4,2.9,6.4,6.4v24.1C334.7,115,331.8,117.8,328.3,117.8z M105,87.3c0-3.5,2.9-6.4,6.4-6.4s6.4,2.9,6.4,6.4v24.1
			c0,3.5-2.9,6.4-6.4,6.4c-3.5,0-6.4-2.9-6.4-6.4V87.3z"/>
		<path d="M358.4,262.4c-49.6,0-90,40.4-90,90s40.4,90,90,90s90-40.4,90-90S408,262.4,358.4,262.4L358.4,262.4z M358.4,431.1
			c-43.4,0-78.7-35.3-78.7-78.7s35.3-78.7,78.7-78.7s78.7,35.3,78.7,78.7S401.8,431.1,358.4,431.1z"/>
		<path d="M277.1,286.1V202c0-3.1-2.5-5.6-5.6-5.6h-23.9c-3.1,0-5.6,2.5-5.6,5.6s2.5,5.6,5.6,5.6h18.3v78.5c0,3.1,2.5,5.6,5.6,5.6
			C274.6,291.8,277.1,289.2,277.1,286.1z"/>
		<path d="M227.2,230.4c0-18.9-15.4-34.3-34.3-34.3c-16.3,0-30.5,11.6-33.6,27.6c-0.6,3.1,1.4,6,4.4,6.6c3.1,0.6,6-1.4,6.6-4.4
			c2.1-10.7,11.6-18.5,22.5-18.5c12.7,0,23,10.3,23,23s-10.3,23-23,23c-3.1,0-5.6,2.5-5.6,5.6c0,3.1,2.5,5.6,5.6,5.6
			c12.7,0,23,10.3,23,23s-10.3,23-23,23c-11.4,0-21.2-8.5-22.8-19.8c-0.1-1.1-0.2-2.1-0.2-3.2c0-3.1-2.5-5.6-5.6-5.6
			s-5.6,2.5-5.6,5.6c0,1.6,0.1,3.2,0.3,4.8c2.3,16.8,16.9,29.5,33.9,29.5c18.9,0,34.3-15.4,34.3-34.3c0-11.9-6.1-22.5-15.4-28.6
			C221.1,252.9,227.2,242.3,227.2,230.4L227.2,230.4z"/>
		<path d="M328.3,322.3c10.8-10.8,26.3-14.8,40.6-11.1l-6.8,1.1c-3.1,0.5-5.2,3.4-4.7,6.5c0.4,2.8,2.8,4.7,5.6,4.7
			c0.3,0,0.6,0,0.9-0.1l27.1-4.3c2-0.3,3.7-1.7,4.4-3.7s0.3-4.1-1.1-5.6l-18.3-20.5c-2.1-2.3-5.6-2.5-8-0.5c-2.3,2.1-2.5,5.6-0.5,8
			l2.9,3.3c-17.7-4.1-36.8,0.9-50.2,14.3c-15,15-19.8,37.5-12.1,57.4c0.9,2.2,3,3.6,5.3,3.6c0.7,0,1.4-0.1,2-0.4
			c2.9-1.1,4.4-4.4,3.2-7.3C312.7,351.9,316.5,334.2,328.3,322.3L328.3,322.3z"/>
		<path d="M401.3,329.9c-2.9,1.1-4.4,4.4-3.2,7.3c6,15.7,2.3,33.5-9.6,45.3c-10.8,10.8-26.3,14.8-40.6,11.1l6.8-1.1
			c3.1-0.5,5.2-3.4,4.7-6.5c-0.5-3.1-3.4-5.2-6.5-4.7l-27.1,4.3c-2,0.3-3.7,1.7-4.4,3.7c-0.7,1.9-0.3,4.1,1.1,5.6l18.3,20.5
			c1.1,1.3,2.7,1.9,4.2,1.9c1.3,0,2.7-0.5,3.7-1.4c2.3-2.1,2.5-5.6,0.5-8l-2.9-3.2c4,0.9,8.1,1.4,12.2,1.4c13.9,0,27.7-5.4,38-15.7
			c15-15,19.8-37.5,12.1-57.4C407.5,330.2,404.2,328.7,401.3,329.9z"/>
	</g>
</g>
</svg>
