<?xml version="1.0" encoding="utf-8"?>
<!-- Generator: Adobe Illustrator 24.0.1, SVG Export Plug-In . SVG Version: 6.00 Build 0)  -->
<svg version="1.1" id="_x36_968ac48-3a8f-41ea-a7fd-90e9ec00ee17"
	 xmlns="http://www.w3.org/2000/svg" xmlns:xlink="http://www.w3.org/1999/xlink" x="0px" y="0px" viewBox="0 0 939 807"
	 style="enable-background:new 0 0 939 807;" xml:space="preserve">
<style type="text/css">
	.st0{fill:#FCD2D2;}
	.st1{fill:url(#SVGID_1_);}
	.st2{fill:#FFC5D3;}
	.st3{fill:#3A3768;}
	.st4{fill:#BCF777;}
	.st5{fill:#E6E8EC;}
	.st6{fill:#5F5570;}
	.st7{opacity:0.15;enable-background:new    ;}
	.st8{fill:#BC8487;}
	.st9{opacity:0.1;enable-background:new    ;}
	.st10{opacity:0.1;stroke:#000000;stroke-miterlimit:10;enable-background:new    ;}
	.st11{fill:#433A59;}
	.st12{fill:#7B728F;}
	.st13{fill:#E5E8EF;}
	.st14{fill:#8F7080;}
	.st15{fill:#C3BBC8;}
	.st16{opacity:0.1;}
	.st17{fill:#FFD037;}
	.st18{fill:#A8A8A8;}
	.st19{opacity:0.2;enable-background:new    ;}
</style>
<title>businessman</title>
<path class="st0" d="M522.2,128.1c-47.9-1.7-93.5-17.1-137-34s-86.7-35.6-133.4-44.6c-30.1-5.8-64.4-6.6-88.6,9.5
	c-23.4,15.6-31,42.3-35,67.2c-3,18.7-4.8,38.4,3.5,55.9c5.8,12.1,16.1,22.4,23.2,34c24.8,40.5,7.3,90.4-19.6,129.9
	c-12.6,18.5-27.2,36.2-36.9,56s-14.2,42.4-5.7,62.5c8.4,20,28.5,34.9,50.2,45.5c44.2,21.4,96.2,27.5,146.9,31
	c112.3,7.7,225.2,4.4,337.9,1c41.7-1.2,83.5-2.5,124.5-8.9c22.8-3.6,46.3-9.3,62.8-23c21-17.4,26.2-46.9,12.1-68.7
	c-23.6-36.6-88.8-45.7-105.3-85c-9.1-21.6,0.3-45.7,13.4-65.8c28.3-43,75.7-80.8,78.2-130c1.7-33.8-21.1-67.6-56.3-83.6
	c-36.8-16.8-88-14.7-115.3,13C613.7,118.6,564.3,129.6,522.2,128.1z"/>
<ellipse class="st0" cx="427" cy="763.1" rx="304" ry="41.1"/>
<linearGradient id="SVGID_1_" gradientUnits="userSpaceOnUse" x1="522.5334" y1="856.9913" x2="522.5334" y2="92.4227" gradientTransform="matrix(1 0 0 1 -163.24 -89.2801)">
	<stop  offset="0" style="stop-color:#808080;stop-opacity:0.25"/>
	<stop  offset="0.54" style="stop-color:#808080;stop-opacity:0.12"/>
	<stop  offset="1" style="stop-color:#808080;stop-opacity:0.1"/>
</linearGradient>
<path class="st1" d="M502,212.4c0,0-9.4-18.6-8.1-24.1s-6.6-17.3-6.6-17.3l0.5-19.6c0,0-1.1,2-6.8,3.8c-0.5-0.6-1-1.3-1.5-1.8
	c-2.1-2.1-4.3-4.1-6.8-5.7l-10-21.6l-9.7-14.8c0,0-15.3-31-31-37.8l-2.5-4.8c0.2-0.1,0.2-0.3,0.2-0.5l-2.5-4.9
	c-0.1-0.2-0.3-0.3-0.5-0.2l-2.4-4.7c-0.9-6.1-3.3-11.9-7-16.9c-0.3-0.3-0.5-0.7-0.8-1l3.9-0.1c3.4-0.1,7.3-0.4,9.6-3
	c0.8-1,1.4-2.1,1.8-3.3c0.3-1,0.5-1.9,0.6-2.9c0-0.2,0-0.3,0-0.4c0-0.3,0-0.7,0-1s0-0.5,0-0.8s0-0.4,0-0.6s-0.1-0.7-0.2-1
	c0-0.1,0-0.3-0.1-0.4c-0.1-0.4-0.2-0.8-0.3-1.2c0-0.1-0.1-0.2-0.1-0.2c-0.1-0.4-0.3-0.8-0.5-1.2c0-0.1-0.1-0.1-0.1-0.2
	c-0.2-0.4-0.4-0.8-0.6-1.1l-0.1-0.1l0,0c-0.1-0.2-0.2-0.3-0.3-0.4c-2.7-4.3-7.5-6.7-12-9c-4.2-2.2-8.6-4.2-13-6
	c-16.5-6.2-34.7-5.9-51,0.7c-1.6,0.6-3.1,1.4-4.5,2.4c-2,1.7-3.6,3.6-5,5.8l-7.8,11.4c-1.1,1.4-1.9,3-2.5,4.6
	c-1.5,5.4,3.1,10.9,2.6,16.5c-0.3,2.8-1.8,5.3-2,8.1c-0.4,3.6,1.3,7.1,2.9,10.3l11.1,22c-0.6,2.9-1.2,5.9-2,8.7l0,0
	c-5.1,5.3-6.8,8.2-7.3,9.7l-0.2,0.1l0,0c-1,0.7-1.9,1.5-2.6,2.5l-10.5,10.2c0,0-18.3,4.8-22.1,10.8c0,0-28.8-1.3-28.5,38.9
	c0,0-1.3,15.1-2,17.1s0,22.3,0,22.3l-0.3,41.2c0,0-1.1,21.8,0,29.6c1.1,7.8,2.4,37.4,2.4,37.4s6.9,28.9,4.3,39.1
	c-2.4,9.9,0,31.4,4,31.5c0.8,1.6,1.6,2.3,2.6,1.9c0.4-0.2,0.8-0.3,1.3-0.5v24.6c0,0-5,34.5,0.6,41c-3.7,5.2-8,14.2-9.1,16.5
	l-38.9-2.1l-5,1.4l0,0l-4.5,1.3l-2.8,63.3l1.1,0.1l-0.1,1.9l2.6,0.2l-3.6,63.7l53.9,4.4c-2.4,5.3-5.1,11-6.2,11.5
	c-2,1-6.4-2-7.4-0.8s-4.1,2.8-7.6,2s-5.9,3.3-5.9,3.3s0.5,0.5,1.3,1.3c-5.8-0.7-13.1,2.4-17.1,4.4c-1.8,0.9-2.9,1.6-2.9,1.6H216
	l5.8,36.8l4.1,2.8l1,29c0,0,16.3,50.2,23.7,49.9c1,0,1.9-0.5,2.5-1.3c4-4.6,1.2-20.5,1.2-20.5v-26.4c0,0,6.1-2.7,5.4-4.7
	s9.8-24,10.8-26c0.1,0,0.1-0.1,0.1-0.2c0-2.3,4.6-4.8,4.3-5.8c-0.3-1,11.2-7.3,12-12.8c0.8-5.5,8.4-2.5,8.4-2.5l9.7-11.1
	c0.3,13.5,0.8,23,1.8,25.4c4.6,11.5,6.4,29.6,6.4,29.6s-2.8,13.8,0,18.3c1.7,2.8,5.7,5.7,8.5,8.2c-2.9,8.8-2.5,27.4-2.5,27.4v10.7
	l21.4,6c0,0,0.7-5.3,1.7-5.3s14.6,10.4,14.6,10.4s52.2,0.7,65.5,0c5-0.3,6.4-2.4,5.6-5c-1.3-4.3-8.4-9.9-14.7-10.4
	c-10.2-0.7-23.1-11.4-23.1-11.4s1-2.3-4.4-5.7c-3.7-2.3-14.1-11.6-20.5-17.1c0.3-0.4,0.6-0.8,0.9-1.3c0,0-8.6-12-6.9-17.3
	c1.8-5.3-0.8-13-0.8-13s-4.8-14.8-4.8-22.3c0-4.8-0.7-31.9-1.2-51.1l4.5,0.4l0.1-1.9l2,0.2l18.9,1.7l-0.6-20.2
	c9.1-4,16.7-7.7,19.8-10.1c10.7-8,19.8-8.5,19.8-8.5s21.6-11.5,24.9-16.3s3-39.4,3-39.4l-1.8-74.2v-0.1c0,0-1.5-35.9-4.6-43.7
	c-1.1-2.9-3.9-12.5-6.9-23.4c1.7-0.2,3.5-0.1,5.2,0.2c0.1,2.7,0.2,4.5,0.2,5.1c0,4.3,6.1,7.9,6.1,7.9l-4.3-96v-65.3
	c13.3,4.2,45.5,5.6,45.5,5.6C507.6,233.5,502,212.4,502,212.4z M376.4,129.9L376.4,129.9c0.4-2.5,1-5,1.8-7.4L376.4,129.9z
	 M289,459.2c7.9,1.3,17,0.9,17.7-0.6c0.1-0.1,0.2-0.4,0.3-0.8c0.3,0.4,0.5,0.9,0.7,1.4l-0.8,14.5v0.3l-26-1.4
	C282.8,464.8,286.1,461,289,459.2z M375.6,532.2l-0.7-23.4c1.2-4.3,2.2-8.2,3.1-11.6c0.4,2.8,0.7,5.4,1,7.7
	C381.5,527.2,377.9,531.5,375.6,532.2z M449.6,180.7c-1.5,0.6-7.2-3-12.5-6.7c0-0.7,0-1.4,0.1-2c0.8-15.3-24.2-24.8-31.8-26.6
	c-1.9-0.5-3.6-1.1-5.4-2c-4.1-2-8-4.2-11.8-6.7l0.1-0.3c0,0-9.8-6.2-10-14c2.2-7.1,5.1-13.9,8.5-20.5c0.2-0.4,0.4-0.8,0.6-1.2
	c4.7-1.4,9-3.7,12.8-6.8c1.5,20,30.5,37.2,30.5,37.2l3.1,5l0.7,1.2c-1.6,0.9-2.3,1.7-1.8,2.1c2.2,1.8,7.5,11.7,9.7,15.9l0,0
	c0.6,1.1,1,1.9,1,1.9s4.7,12.9,7.4,23.6C450.4,180.6,450,180.6,449.6,180.7L449.6,180.7z"/>
<path class="st2" d="M460.9,128.8l-0.3,0.4l-1.2,1.6l-22.3,15.7l-4.7-7.8l-3-5c0,0-44.4-26.6-25.3-52.2s47.3,32.5,47.3,32.5
	L460.9,128.8z"/>
<path class="st3" d="M415.5,66L415.5,66c0.2-0.1,0.4,0,0.5,0.2l2.5,4.9c0.1,0.2,0,0.4-0.2,0.5l0,0c-0.2,0.1-0.4,0-0.5-0.2l-2.5-4.9
	C415.3,66.3,415.4,66.1,415.5,66z"/>
<path class="st3" d="M390.6,73L390.6,73c0.1-0.1,0.2,0,0.3,0.1l0.7,1.5c0.1,0.1,0,0.2-0.1,0.3l0,0c-0.1,0.1-0.2,0-0.3-0.1l-0.7-1.5
	C390.5,73.2,390.5,73.1,390.6,73z"/>
<path class="st3" d="M392.4,76.4L392.4,76.4c0.1-0.1,0.3,0,0.3,0.1l1.4,2.8c0.1,0.1,0,0.3-0.1,0.3l0,0c-0.1,0.1-0.3,0-0.3-0.1
	l-1.4-2.8C392.3,76.6,392.3,76.5,392.4,76.4z"/>
<path class="st3" d="M394.5,80.7L394.5,80.7c0.1-0.1,0.3,0,0.3,0.1l1.4,2.8c0.1,0.1,0,0.3-0.1,0.3l0,0c-0.1,0.1-0.3,0-0.3-0.1
	l-1.4-2.8C394.4,80.9,394.5,80.8,394.5,80.7z"/>
<path class="st3" d="M389.6,65.9l18.7-9.4c1.1-0.6,2.5-0.1,3,1l21.2,42.1c0.6,1.1,0.1,2.5-1,3l-18.7,9.4c-1.1,0.6-2.5,0.1-3-1
	l-21.2-42.1C388,67.8,388.5,66.5,389.6,65.9z"/>
<path class="st4" d="M406,59.2c-0.4,0.2-0.6,0.8-0.4,1.2l0,0l0.1,0.2c0.2,0.4,0.1,1-0.4,1.2l0,0l-9.6,4.8c-0.4,0.2-1,0.1-1.2-0.4
	l0,0l-0.1-0.2c-0.2-0.5-0.8-0.6-1.2-0.4l0,0l-1.9,0.9c-0.9,0.4-1.2,1.5-0.8,2.3l0,0l20.4,40.6c0.4,0.9,1.5,1.2,2.3,0.8l16.8-8.4
	c0.9-0.4,1.2-1.5,0.8-2.3l-20.5-40.6c-0.4-0.9-1.5-1.2-2.3-0.8l0,0L406,59.2z"/>
<path class="st5" d="M397.8,63.5l2.5-1.3c0.2-0.1,0.4,0,0.5,0.2l0,0c0.1,0.2,0,0.4-0.2,0.5l-2.5,1.3c-0.2,0.1-0.4,0-0.5-0.2l0,0
	C397.5,63.8,397.6,63.6,397.8,63.5z"/>
<circle class="st5" cx="401.6" cy="62" r="0.4"/>
<path class="st6" d="M420.4,214.8l-6.3,167.7c0,0,21-7,24.3-1.8s-3.5-84-3.5-84L420.4,214.8z"/>
<path class="st7" d="M420.4,214.8l-6.3,167.7c0,0,21-7,24.3-1.8s-3.5-84-3.5-84L420.4,214.8z"/>
<path class="st8" d="M421.4,767.6c-13,0.7-64.3,0-64.3,0s-13.3-10.3-14.3-10.3s-1.7,5.3-1.7,5.3l-21-6v-10.7c0,0-0.7-30.3,5.7-31.7
	s34.3,0,34.3,0c1-0.3,20,17.7,25.3,21s4.3,5.7,4.3,5.7s12.7,10.7,22.7,11.3c6.2,0.4,13.2,6,14.5,10.3
	C427.5,765.2,426.3,767.4,421.4,767.6z"/>
<path class="st9" d="M421.4,767.6c-13,0.7-64.3,0-64.3,0s-13.3-10.3-14.3-10.3s-1.7,5.3-1.7,5.3l-21-6v-10.5l19.7,7.1l15.7,9.3h71.3
	C427.5,765.2,426.3,767.4,421.4,767.6z"/>
<path class="st10" d="M363,752c0,0,16-15.3,26.7-11"/>
<path class="st8" d="M261.6,695.6c0.7,2-5.3,4.7-5.3,4.7v26.3c0,0,2.7,15.8-1.2,20.4c-0.6,0.8-1.5,1.2-2.5,1.3
	c-7.3,0.3-23.3-49.7-23.3-49.7l-1-28.9l-4-2.8l-5.7-36.7h10.3c0,0,1.1-0.7,2.8-1.6c5-2.5,15.5-7,21.2-2.8l19.3,43.6
	C272.4,669.5,261,693.6,261.6,695.6z"/>
<path class="st9" d="M255.1,747.1c-0.6,0.8-1.5,1.2-2.5,1.3c-7.3,0.3-23.3-49.7-23.3-49.7l-1-28.9l-4-2.8l-5.7-36.7h10.3
	c0,0,1.1-0.7,2.8-1.6l2.5,37.6l1.3,32.3C235.6,698.6,248.1,733.8,255.1,747.1z"/>
<path class="st11" d="M440.5,559.1c-3.3,4.8-24.5,16.3-24.5,16.3s-9,0.5-19.5,8.5c-5.4,4.1-24.3,12.3-41.3,19.3
	c-15.8,6.5-30,11.9-30,11.9l-16.3,19l-12.4,14.5c0,0-7.5-3-8.3,2.5c-0.8,5.5-12,11.8-11.8,12.8s-4.3,3.5-4.3,5.8
	s-16.8-16.3-16.5-27.5s-8.5-19-8.5-19s2.3-4,5.8-3.3s6.5-0.8,7.5-2s5.3,1.8,7.3,0.8s10-20.8,10-20.8L309,577l62-41.6l2.9-1.9
	c0,0,8.3,3.8,4.9-27.2c-0.7-6-1.7-13.3-3.4-22.2c-10.3-54.8,26.5-61,26.5-61l32.3,10.8l7.8,12v0.1l1.8,73.9
	C443.5,519.8,443.9,554.3,440.5,559.1z"/>
<path class="st9" d="M355,594.1c0,0,0.1,3.5,0.3,9.1c-15.8,6.5-30,11.9-30,11.9l-16.3,19c-0.3-15.8-0.2-36.2,0-57.2l62-41.6
	C363.4,563.7,355,594.1,355,594.1z"/>
<path class="st9" d="M441.9,445.8L441.9,445.8l-48.5,1c0,0-8.5,33.3-9.8,40.3c-0.3,1.7-2.2,9.1-4.9,19.2c-0.6-6-1.7-13.3-3.4-22.2
	c-10.3-54.8,26.5-61,26.5-61l32.3,10.8L441.9,445.8z"/>
<path class="st11" d="M314,355.1l-6.3,120c0,0-4.5,176.2,0,187.7s6.3,29.5,6.3,29.5s-2.8,13.8,0,18.3s11.5,9.5,11.3,12
	s26.8,16,40.8-5.5c0,0-8.5-12-6.8-17.3s-0.8-13-0.8-13s-4.8-14.8-4.8-22.3S352,594,352,594s27.3-100,28.5-107s9.8-40.3,9.8-40.3
	l51.5-1c0,0-1.5-35.8-4.5-43.5s-17.7-64.4-17.7-64.4L314,355.1z"/>
<polygon class="st12" points="228.1,472.7 223.6,474 223.4,478.4 357.5,480.1 357.5,478.4 "/>
<path class="st2" d="M386.1,104.7c-19.5,39.6-7.4,47.8-5.5,48.8c-4.1-1.9-57.8-27.1-50.8-33.5c4.6-4.2,8.5-22.3,10.8-35.3
	c1.4-7.8,2.2-13.7,2.2-13.7l56.3,10.3C393.9,90.1,389.5,97.8,386.1,104.7z"/>
<path class="st9" d="M460.5,129.2l-1.2,1.6L437,146.5l-4.7-7.8c6.9-4,27.5-11,27.5-11L460.5,129.2z"/>
<path class="st13" d="M481,165.3c-2,7-35.8,0-35.8,0l-3.5-5.5c0,0-0.3-0.7-0.9-1.8l0,0c-2.2-4.2-7.4-14.1-9.5-15.9
	c-2.8-2.3,29.5-13.3,29.5-13.3l9.9,21.5c2.4,1.6,4.7,3.5,6.7,5.7C480,158.7,482,162.1,481,165.3z"/>
<path class="st6" d="M425,168.5c0,0,20,15.8,23,14.6s51.5,31.6,51.5,31.6s5.5,21-17.3,22.3c0,0-48.3-2-50.3-9S425,168.5,425,168.5z"
	/>
<path class="st9" d="M370.5,136.8l-21.8,22.5l30.5,194l12-7c0,0,31,13.8,33.5,1s1.8-63,1.8-63l-4.1-90.8c0,0-14.3-31.8-14.3-32.8
	s-20.4-16.4-20.4-16.4l-9.7-7.5H370.5z"/>
<path class="st13" d="M370.5,133.8l-21.8,22.5l30.5,194l12-7c0,0,31,13.8,33.5,1s1.8-63,1.8-63l-4.1-90.8c0,0-14.3-31.8-14.3-32.8
	s-20.4-16.4-20.4-16.4l-9.7-7.5H370.5z"/>
<path class="st9" d="M371.9,137.1l-6,12.3l6,6.3c0,0,21.5,43.4,17.3,69.2l4.5,84.8l14.5,14.3l11.5-13.3l-5.5-77
	c0,0-14.8-63.5-30.3-83.3l-4.5-17.5L371.9,137.1z"/>
<path class="st8" d="M371.9,135.1l-6,12.3l6,6.3c0,0,21.5,43.4,17.3,69.2l4.5,84.8l14.5,14.3l11.5-13.3l-5.5-77
	c0,0-14.8-63.5-30.3-83.3l-4.5-17.5L371.9,135.1z"/>
<path class="st9" d="M399.4,81.3c-5.5,8.8-9.8,16.6-13.1,23.4c-3.5,1-7.2,1.6-10.9,1.6c-12.4,0-19.5-8.6-26.5-17.6
	c-1.6-2.1-6.9-1.6-8-4c1.4-7.8,2.2-13.7,2.2-13.7L399.4,81.3z"/>
<path class="st2" d="M413.6,66.9c0,21.2-17.2,38.3-38.3,38.3c-21.2,0-38.3-17.2-38.3-38.3s17.2-38.3,38.3-38.3
	c12.3,0,23.8,5.9,31,15.8C411,51,413.6,58.8,413.6,66.9z"/>
<path class="st9" d="M363,152.3l-31.5-38c0,0-2.9-1.2,6.9-11.5c0,0,36.1,28.1,38.3,32.9S363,152.3,363,152.3z"/>
<path class="st13" d="M362,150.3l-31.5-38c0,0-2.9-1.2,6.9-11.5c0,0,36.1,28.1,38.3,32.9C378,138.5,362,150.3,362,150.3z"/>
<path class="st6" d="M441.9,392.2c0,0-6-3.6-6-7.9s-3-64.3-3-64.3s-4.4-35.8-9-64.3l0,0c-2.7-16.8-5.5-31-7.4-33.8l-0.1-0.1
	c-5.3-6.8-4.3-39.8-37-88c0.4,0.3,11.7,8.2,20,12.2c1.7,0.8,3.4,1.5,5.3,2c7.5,1.8,32,11.3,31.3,26.5s1.8,50.3,1.8,50.3v71.7
	L441.9,392.2z"/>
<path class="st9" d="M481,165.3c-2,7-35.8,0-35.8,0l-3.5-5.5c0,0-0.3-0.7-0.9-1.8l0,0v-0.1c19.6,1.4,30.5-0.1,36.6-1.8
	C480,158.7,482,162.1,481,165.3z"/>
<path class="st6" d="M441.9,159.8c0,0,10.5,29,9,36.3s24.3,35.8,24.3,35.8l24.5-17c0,0-9.3-18.5-8-24s-6.5-17.3-6.5-17.3l0.5-19.5
	C485.5,154.1,481,162.5,441.9,159.8z"/>
<path class="st9" d="M406.4,44.4l-19,0.7c-1.9,0-3.7,0.2-5.5,0.7c-6.8,2.1-9.9,9.3-10.2,15.8s-4,13.8-11.3,14.3
	c-0.7,0.1-1.5,0-2.1-0.5c-0.5-0.5-0.8-1.1-0.9-1.8c-1-3.8-2.7-7.4-4.8-10.7c-3,0.5-5.2,3.4-6,6.4c-0.8,3-0.6,6.1-0.6,9.2
	c0,3.9-0.4,7.8-1.1,11.7c-12.9-16.8-9.8-40.8,7-53.8s40.8-9.8,53.8,7C406,43.8,406.1,44.1,406.4,44.4L406.4,44.4z"/>
<path class="st14" d="M380.9,44.8c1.8-0.5,3.6-0.7,5.5-0.7l23.1-0.9c3.4-0.1,7.2-0.4,9.4-2.9c0.8-1,1.4-2.1,1.8-3.3
	c1.2-3.9,0.7-8.1-1.5-11.6c-2.7-4.3-7.3-6.7-11.8-9c-4.2-2.2-8.4-4.2-12.8-6c-16.2-6.1-34.1-5.9-50.1,0.7c-1.6,0.6-3.1,1.4-4.5,2.4
	c-1.9,1.7-3.6,3.6-4.9,5.8l-7.5,11.5c-1,1.4-1.9,3-2.4,4.6c-1.4,5.4,3,10.9,2.5,16.4c-0.3,2.8-1.7,5.3-2,8.1
	c-0.4,3.6,1.3,7,2.9,10.3l13.3,26.9c2.2-6.3,3.2-12.9,3.2-19.5c0-3.1-0.3-6.2,0.6-9.2s3-5.8,6-6.4c2.1,3.3,3.7,6.9,4.8,10.7
	c0.1,0.7,0.4,1.3,0.9,1.8c0.6,0.4,1.3,0.6,2.1,0.5c7.3-0.6,11-7.8,11.3-14.3C371,54.1,374,46.9,380.9,44.8z"/>
<polygon class="st12" points="223.6,474 232.9,471.3 373.9,479 358.4,481 "/>
<polygon class="st9" points="223.6,474 232.9,471.3 373.9,479 358.4,481 "/>
<polygon class="st12" points="377.6,614 359,612.2 352.5,611.6 352.5,508.3 354.3,484.3 354.6,479 373.9,479 "/>
<polygon class="st9" points="372.5,610.3 357.8,608.7 352.5,608.1 352.5,510.1 354,487.4 354.3,482.3 369.5,482.3 "/>
<path class="st12" d="M271,474c0,0,9.3-20.3,13.1-20.9c3.8-0.6,11,0,11,0l-0.6,5.9c0,0-9.5,0.8-12.5,16.6L271,474z"/>
<path class="st9" d="M271,474c0,0,9.3-20.3,13.1-20.9c3.8-0.6,11,0,11,0l-0.6,5.9c0,0-9.5,0.8-12.5,16.6L271,474z"/>
<path class="st12" d="M306.9,450.9c0,0,24.9,12.4,21.6,26.9L315,477c0,0-6.5-21.6-11.6-22.8S306.9,450.9,306.9,450.9z"/>
<path class="st6" d="M399.4,255.1v0.7l-0.5,83.3c0,0-12.8,70-16.3,72.8s-80.3-4.8-80.3-4.8l-34.7-234.3c-0.3-40,28-38.8,28-38.8
	c3.8-6,21.8-10.8,21.8-10.8l10-9.8l0.3-0.4c0.7-1,1.5-1.8,2.5-2.5l0,0c2.1-1.2,3.4,0.4,4.1,1.9c0.3,0.7,0.6,1.5,0.8,2.3
	C375.5,144.5,399.4,255.1,399.4,255.1z"/>
<path class="st9" d="M398.4,256.1v0.7c-12.6-23-61-110.1-74.3-114.5l5.1-3.5c0,0,3.4-2-2.8-4c0,0-9.8,1.3-10-10.5l10.3-10.2l2.5-2.5
	l0,0l4.1,1.9c0.3,0.7,0.6,1.5,0.8,2.3C374.5,145.5,398.4,256.1,398.4,256.1z"/>
<path class="st11" d="M399.4,255.1v0.7c-12.6-23-61-110.1-74.3-114.5l5.1-3.5c0,0,3.4-2-2.8-4c0,0-9.8,1.3-10-10.5l10.3-10.2
	l2.5-2.5l0,0l4.1,1.9c0.3,0.7,0.6,1.5,0.8,2.3C375.5,144.5,399.4,255.1,399.4,255.1z"/>
<path class="st9" d="M417.4,222.9l-0.1-0.1c-5.3-6.8-4.3-39.8-37-88c0.4,0.3,11.7,8.2,20,12.2l-2.3,7.6l5,2.7L417.4,222.9z"/>
<path class="st11" d="M416.4,221.9l-0.1-0.1c-5.3-6.8-4.3-39.8-37-88c0.4,0.3,11.7,8.2,20,12.2l-2.3,7.6l5,2.7L416.4,221.9z"/>
<path class="st9" d="M377.9,126.1l-2,8.7c0,0,1.5,8.7,10.5,9.4l1.5-4.1C387.8,140.1,378,133.8,377.9,126.1z"/>
<path class="st13" d="M377.9,125.1l-2,8.7c0,0,1.5,8.7,10.5,9.4l1.5-4.1C387.8,139.1,378,132.8,377.9,125.1z"/>
<polygon class="st9" points="365,480.4 359,612.2 352.5,611.6 352.5,508.3 354.3,484.3 "/>
<polygon class="st12" points="224.9,531.3 220.9,602.6 357,614 363,480.4 "/>
<polygon class="st9" points="221.9,539 224.6,476 364,482.4 357.4,549 "/>
<polygon class="st12" points="220.9,537 223.6,474 363,480.4 356.4,547 "/>
<rect x="279.5" y="537.1" class="st15" width="16.8" height="19.5"/>
<path class="st2" d="M282,409.3l-2.5,6.8c0,0-5.3,37,1.3,41.5s25.8,4.8,26.8,2.5s8-27.8,8-27.8s6.3,18.8,9.5,17.3
	s-7.5-37.1-7.5-37.1L282,409.3z"/>
<path class="st9" d="M279.5,381.3v35.8c0,0,26.5,5,38-3.6c0,0-10.8-34.6-6.8-43.4S279.5,381.3,279.5,381.3z"/>
<path class="st13" d="M279.5,380.3v35.8c0,0,26.5,5,38-3.6c0,0-10.8-34.6-6.8-43.4S279.5,380.3,279.5,380.3z"/>
<path class="st9" d="M276.5,171.1l-7,3.8c0,0-1.3,15-2,17c-0.7,2,0,22.3,0,22.3l-0.3,41c0,0-1.1,21.8,0,29.5s2.3,37.3,2.3,37.3
	s6.8,28.8,4.3,39s0.3,33.3,4.5,31.3s43.4-10,45.4-11.5s1-15.5,0-17.3s-7-25.5-6.5-31s-1.8-53.8-1.8-53.8s3.8-51.5,5.3-63.5
	s-3-47.3-7-47.8S298,139.8,276.5,171.1z"/>
<path class="st6" d="M274.5,169.1l-7,3.8c0,0-1.3,15-2,17c-0.7,2,0,22.3,0,22.3l-0.3,41c0,0-1.1,21.8,0,29.5s2.3,37.3,2.3,37.3
	s6.8,28.8,4.3,39s0.3,33.3,4.5,31.3s43.4-10,45.4-11.5s1-15.5,0-17.3s-7-25.5-6.5-31s-1.8-53.8-1.8-53.8s3.8-51.5,5.3-63.5
	s-3-47.3-7-47.8S296,137.8,274.5,169.1z"/>
<g class="st16">
	<path d="M350.1,58.3c-3,0.5-5.2,3.4-6,6.4s-0.6,6.1-0.6,9.2c0,6.6-1.1,13.2-3.2,19.5l-13.4-26.9c-0.3-0.5-0.5-1.1-0.8-1.6
		c0.6,1.9,1.4,3.7,2.3,5.4l13.4,26.9c2.2-6.3,3.2-12.9,3.2-19.5c0-3.1-0.3-6.2,0.6-9.2s3-5.8,6-6.4c1,1.5,1.8,3.1,2.6,4.7
		C353.3,63.8,351.9,60.9,350.1,58.3z"/>
	<path d="M419.4,25.8c0.6,2.5,0.5,5-0.2,7.4c-0.3,1.2-1,2.3-1.8,3.3c-2.3,2.5-6,2.8-9.4,2.9l-23.1,0.9c-1.9,0-3.7,0.2-5.5,0.7
		c-6.8,2.1-9.9,9.3-10.2,15.8s-4,13.8-11.3,14.3c-0.7,0.1-1.5,0-2.1-0.5l0,0c0.2,0.7,0.5,1.3,0.6,2s0.4,1.3,0.9,1.8
		c0.6,0.4,1.3,0.6,2.1,0.5c7.3-0.6,11-7.8,11.3-14.3c0.3-6.6,3.4-13.7,10.2-15.8c1.8-0.5,3.7-0.7,5.5-0.7l23.1-0.9
		c3.4-0.1,7.2-0.4,9.4-2.9c0.8-1,1.4-2.1,1.8-3.3C421.8,33.3,421.3,29.2,419.4,25.8z"/>
</g>
<path class="st9" d="M381.8,436c0,0,8.7-4.5,12-4.3s33.3,38.4,33.3,38.4L381.8,436z"/>
<path class="st9" d="M293,177.9c0,0-15.8,6.8-15.4,11.4S293,177.9,293,177.9z"/>
<path class="st9" d="M285.3,200c0,0-16.6,21.2-12.9,21.9S285.3,200,285.3,200z"/>
<path class="st9" d="M340.9,231.8c0,0,1.5,47.5-10.7,53.5L340.9,231.8z"/>
<path class="st9" d="M277.5,358.6c0,0,11.7-6.7,14.4-5.3S277.5,358.6,277.5,358.6z"/>
<path class="st9" d="M279.5,367.8c0,0,7.4,0.5,10.9-1S279.5,367.8,279.5,367.8z"/>
<path class="st9" d="M456.3,192.9c0,0,9.2,26.4,14.5,26.4"/>
<path class="st9" d="M325.6,698c0,0,17.2-4.7,19.8,0C348,702.6,325.6,698,325.6,698z"/>
<path class="st9" d="M271,628.7c0,0-4.3,6.6,1.4,8.6C278,639.3,271,628.7,271,628.7z"/>
<path class="st9" d="M385.4,537.1c0,0,13,11.6,19.1,11.9S385.4,537.1,385.4,537.1z"/>
<path class="st4" d="M897.3,62.6c0,0-84.2-5.1-74.3,53.9c0,0-2,10.4,7.5,15.2c0,0,0.2-4.4,8.6-2.9c3,0.5,6.1,0.6,9.1,0.4
	c4.1-0.3,8-1.9,11.2-4.6l0,0c0,0,23.7-9.8,32.9-48.5c0,0,6.8-8.4,6.5-10.6l-14.1,6.1c0,0,4.9,10.3,1,18.8c0,0-0.5-18.4-3.2-18
	c-0.6,0.1-7.4,3.6-7.4,3.6s8.4,17.9,2,30.8c0,0,2.4-22-4.7-29.5l-10,5.8c0,0,9.8,18.4,3.2,33.5c0,0,1.7-23.1-5.3-32.1l-9.1,7.1
	c0,0,9.2,18.2,3.6,30.7c0,0-0.7-26.9-5.5-28.9c0,0-7.9,7-9.1,9.9c0,0,6.3,13.2,2.4,20.2c0,0-2.4-17.9-4.3-18c0,0-7.9,11.9-8.7,20
	c0,0,0.3-12.1,6.8-21.1c0,0-7.6,1.3-12.1,6.3c0,0,1.2-8.4,14-9.1c0,0,6.5-9,8.3-9.6c0,0-12.8-1.1-20.5,2.4c0,0,6.8-7.9,22.8-4.3
	l9-7.3c0,0-16.8-2.3-23.9,0.2c0,0,8.2-7,26.3-1.9l9.7-5.8c0,0-14.3-3.1-22.8-2c0,0,9-4.8,25.7,0.4l7-3.1c0,0-10.5-2.1-13.5-2.4
	s-3.2-1.2-3.2-1.2c6.6-1.1,13.5-0.3,19.7,2.2C882.8,69,897.7,63.5,897.3,62.6z"/>
<path class="st4" d="M730.3,51.3c0,0-38-2.3-33.6,24.4c0,0-0.9,4.7,3.4,6.8c0,0,0.1-2,3.9-1.3c1.4,0.2,2.8,0.3,4.1,0.2
	c1.8-0.1,3.6-0.9,5-2.1l0,0c0,0,10.7-4.4,14.8-21.9c0,0,3.1-3.8,3-4.8l-6.4,2.7c0,0,2.2,4.6,0.5,8.5c0,0-0.2-8.3-1.5-8.1
	c-0.3,0-3.3,1.6-3.3,1.6s3.8,8.1,0.9,13.9c0,0,1.1-9.9-2.1-13.3l-4.5,2.6c0,0,4.4,8.3,1.4,15.1c0,0,0.8-10.4-2.4-14.5l-4.1,3.2
	c0,0,4.1,8.2,1.6,13.8c0,0-0.3-12.1-2.5-13.1c0,0-3.6,3.2-4.1,4.5c0,0,2.8,6,1.1,9.1c0,0-1.1-8.1-2-8.1c0,0-3.6,5.4-3.9,9
	c0.2-3.4,1.2-6.7,3.1-9.5c-2.1,0.4-4,1.4-5.5,2.8c0,0,0.6-3.8,6.3-4.1c0,0,3-4.1,3.7-4.3c0,0-5.8-0.5-9.3,1.1c0,0,3.1-3.6,10.3-2
	l4-3.3c0,0-7.6-1-10.8,0.1c0,0,3.7-3.2,11.9-0.9l4.4-2.6c0,0-6.5-1.4-10.3-0.9c0,0,4.1-2.2,11.6,0.2l3.1-1.4c0,0-4.7-0.9-6.1-1.1
	s-1.5-0.5-1.5-0.5c3-0.5,6.1-0.1,8.9,1C723.5,54.2,730.3,51.7,730.3,51.3z"/>
<ellipse class="st0" cx="879.3" cy="725.7" rx="26.9" ry="4.5"/>
<ellipse class="st0" cx="59.7" cy="658" rx="26.9" ry="4.5"/>
<ellipse class="st0" cx="860.7" cy="637.6" rx="26.9" ry="4.5"/>
<ellipse class="st0" cx="163.9" cy="682.4" rx="26.9" ry="4.5"/>
<ellipse class="st0" cx="740.5" cy="686.3" rx="26.9" ry="4.5"/>
<ellipse class="st4" cx="820.5" cy="774.4" rx="40.2" ry="6.8"/>
<path class="st4" d="M837,763.3c1.8-1.5,3.2-3.5,3.8-5.8c0.5-2.3-0.5-5-2.7-5.9c-2.5-0.9-5.1,0.8-7.1,2.5s-4.3,3.7-6.9,3.3
	c2.7-2.5,4-6.2,3.3-9.8c-0.1-0.7-0.4-1.4-0.9-2c-1.4-1.5-3.8-0.8-5.5,0.3c-5.2,3.7-6.7,10.7-6.7,17.1c-0.5-2.3-0.1-4.7-0.1-7
	s-0.7-5-2.6-6.2c-1.2-0.7-2.6-1-4-1c-2.3-0.1-4.9,0.2-6.5,1.9c-2,2.1-1.5,5.7,0.3,8s4.3,3.8,6.8,5.4c1.9,1.2,3.6,2.7,4.8,4.6
	c0.2,0.3,0.3,0.5,0.4,0.8h14.7C831.3,767.9,834.3,765.8,837,763.3z"/>
<path class="st4" d="M165.3,570.5c0,0,5.5,7.2-2.5,18s-14.6,20-12,26.8c0,0,12.1-20.1,22-20.4S176.1,582.7,165.3,570.5z"/>
<path class="st9" d="M165.3,570.5c0.5,0.7,0.9,1.4,1.1,2.3c9.6,11.3,14.8,21.8,5.5,22.1c-8.6,0.2-18.9,15.6-21.4,19.5
	c0.1,0.3,0.2,0.6,0.3,0.9c0,0,12.1-20.1,22-20.4S176.1,582.7,165.3,570.5z"/>
<path class="st17" d="M175.4,579.7c0,2.5-0.3,4.6-0.6,4.6s-0.6-2-0.6-4.6s0.4-1.3,0.7-1.3S175.4,577.2,175.4,579.7z"/>
<path class="st17" d="M178.9,582.7c-2.2,1.2-4.2,1.9-4.3,1.6s1.5-1.5,3.7-2.8s1.4-0.3,1.5,0S181.1,581.5,178.9,582.7z"/>
<path class="st4" d="M136.3,570.5c0,0-5.5,7.2,2.5,18s14.6,20,12,26.8c0,0-12.1-20.1-22-20.4S125.3,582.7,136.3,570.5z"/>
<path class="st9" d="M136.3,570.5c-0.5,0.7-0.9,1.4-1.1,2.3c-9.6,11.3-14.7,21.8-5.5,22.1c8.6,0.2,19,15.6,21.4,19.5
	c-0.1,0.3-0.2,0.6-0.3,0.9c0,0-12.1-20.1-22-20.4S125.3,582.7,136.3,570.5z"/>
<path class="st17" d="M125.9,579.7c0,2.5,0.3,4.6,0.6,4.6s0.6-2,0.6-4.6s-0.4-1.3-0.7-1.3S125.9,577.2,125.9,579.7z"/>
<path class="st17" d="M122.6,582.7c2.2,1.2,4.1,1.9,4.3,1.6s-1.5-1.5-3.7-2.8s-1.3-0.3-1.5,0S120.3,581.5,122.6,582.7z"/>
<path class="st18" d="M127.8,614.4c0,0,15.4-0.5,20-3.8s23.6-7.2,24.8-1.9s23.1,26.3,5.8,26.4s-40.3-2.7-44.9-5.5
	C128.9,626.8,127.8,614.4,127.8,614.4z"/>
<path class="st19" d="M178.6,633.3c-17.3,0.1-40.3-2.7-44.9-5.5c-3.5-2.1-4.9-9.8-5.4-13.4h-0.5c0,0,1,12.4,5.6,15.2
	c4.6,2.8,27.6,5.7,44.9,5.5c5,0,6.7-1.8,6.6-4.5C184.1,632.2,182.3,633.2,178.6,633.3z"/>
</svg>
