<?xml version="1.0" encoding="utf-8"?>
<!-- Generator: Adobe Illustrator 24.0.1, SVG Export Plug-In . SVG Version: 6.00 Build 0)  -->
<svg version="1.1" id="Layer_1" xmlns="http://www.w3.org/2000/svg" xmlns:xlink="http://www.w3.org/1999/xlink" x="0px" y="0px"
	 viewBox="0 0 100 100" style="enable-background:new 0 0 100 100;" xml:space="preserve">
<style type="text/css">
	.st0{fill:#DD2A27;}
	.st1{fill:none;}
	.st2{fill:#FFFFFF;}
</style>
<circle class="st0" cx="50" cy="50" r="50"/>
<path class="st1" d="M43.5,37.5c-0.6-0.4-1.3-0.5-1.9-0.2c-0.6,0.3-1,0.9-1,1.6v22c0,0.7,0.4,1.3,1,1.6c0.3,0.1,0.5,0.2,0.8,0.2
	c0.4,0,0.8-0.1,1.1-0.3l15.1-11c0.5-0.3,0.7-0.9,0.7-1.5s-0.3-1.1-0.7-1.5L43.5,37.5z"/>
<path class="st2" d="M81.9,34.4c0-0.3-0.1-0.5-0.2-0.7c0-0.1-0.1-0.2-0.1-0.3c-0.8-2.5-3.2-4.3-6-4.3H76c0,0-11.2-1.7-26.1-1.8
	c-14.8,0-26,1.7-26,1.7h0.4c-2.8,0-5.1,1.8-6,4.3c0,0.1-0.1,0.2-0.1,0.3c-0.1,0.2-0.1,0.5-0.2,0.7c-0.3,3-1,8.8-1,15.7
	c0.1,6.9,0.7,12.7,1.1,15.7c0,0.3,0.1,0.5,0.2,0.7c0,0.1,0.1,0.2,0.1,0.3c0.8,2.5,3.2,4.3,6,4.3H24c0,0,11.2,1.7,26.1,1.8
	c14.8-0.1,26-1.8,26-1.8h-0.4c2.8,0,5.1-1.8,6-4.3c0-0.1,0.1-0.2,0.1-0.3c0.1-0.2,0.1-0.5,0.2-0.7c0.3-3,1-8.8,1-15.7
	S82.3,37.3,81.9,34.4z M59.8,51.4l-13.3,9.7c-0.3,0.2-0.6,0.3-0.9,0.3c-0.2,0-0.5-0.1-0.7-0.2c-0.5-0.3-0.9-0.8-0.9-1.4V40.4
	c0-0.6,0.3-1.2,0.9-1.4c0.5-0.3,1.2-0.2,1.7,0.1l13.3,9.7c0.4,0.3,0.7,0.8,0.7,1.3C60.4,50.6,60.2,51.1,59.8,51.4z"/>
</svg>
