<?xml version="1.0" encoding="utf-8"?>
<!-- Generator: Adobe Illustrator 24.0.1, SVG Export Plug-In . SVG Version: 6.00 Build 0)  -->
<svg version="1.1" id="Layer_1" xmlns="http://www.w3.org/2000/svg" xmlns:xlink="http://www.w3.org/1999/xlink" x="0px" y="0px"
	 viewBox="0 0 100 100" style="enable-background:new 0 0 100 100;" xml:space="preserve">
<style type="text/css">
	.st0{fill:#4A66A0;}
	.st1{fill:#4F3903;}
	.st2{fill:#F93DD1;}
	.st3{fill:#FFFFFF;}
	.st4{fill:#4CAF50;}
	.st5{fill:none;}
	.st6{fill:#DD2A27;}
</style>
<circle class="st4" cx="50" cy="50" r="50"/>
<g>
	<path class="st4" d="M40.7,35.2c-1.1,0-2.1,0.9-2.1,2.1v15.7c0,1.1,0.9,2.1,2,2.1c1.1,0,2.1-0.9,2.1-2.1V37.2
		C42.7,36.1,41.8,35.2,40.7,35.2z"/>
	<path class="st4" d="M34.7,50.8H29V37.2c0-1.1-0.9-2.1-2.1-2.1c-1.1,0-2.1,0.9-2.1,2.1v15.7c0,1.1,0.9,2.1,2.1,2.1h7.8
		c1.1,0,2.1-0.9,2.1-2.1C36.7,51.7,35.8,50.8,34.7,50.8z"/>
	<path class="st4" d="M59.4,35.2c-1.1,0-2.1,0.9-2.1,2.1v9.7l-8-10.9c-0.4-0.5-1-0.8-1.6-0.8c-0.2,0-0.4,0-0.6,0.1
		c-0.8,0.3-1.4,1.1-1.4,2v15.7c0,1.1,0.9,2.1,2,2.1c1.1,0,2.1-0.9,2.1-2.1v-9.6l8,10.9c0.4,0.5,1,0.8,1.7,0.8c0.2,0,0.4,0,0.6-0.1
		c0.8-0.3,1.4-1.1,1.4-2V37.2C61.4,36.1,60.5,35.2,59.4,35.2z"/>
	<path class="st4" d="M74,39.3c1.1,0,2.1-0.9,2.1-2.1c0-1.1-0.9-2.1-2-2.1h-7.8c-1.1,0-2.1,0.9-2.1,2.1v15.7c0,1.1,0.9,2.1,2,2.1H74
		c1.1,0,2.1-0.9,2.1-2.1c0-1.1-0.9-2.1-2.1-2.1h-5.7v-3.7H74c1.1,0,2.1-0.9,2.1-2.1c0-1.1-0.9-2.1-2.1-2.1h-5.7v-3.7H74z"/>
	<path class="st3" d="M50,12.5c-21.6,0-39.1,14.3-39.1,32c0,15.8,13.9,29,32.7,31.5c1.3,0.3,3,0.8,3.5,1.9c0.4,1,0.3,2.5,0.1,3.5
		l-0.5,3.3c-0.1,1-0.8,3.9,3.4,2.1c4.2-1.8,22.6-13.4,30.8-22.9c5.6-6.2,8.3-12.5,8.3-19.6C89.1,26.8,71.6,12.5,50,12.5z M34.7,54.9
		h-7.8c-1.1,0-2.1-0.9-2.1-2.1V37.2c0-1.1,0.9-2.1,2.1-2.1c1.1,0,2.1,0.9,2.1,2.1v13.6h5.7c1.1,0,2.1,0.9,2.1,2.1
		C36.7,54,35.8,54.9,34.7,54.9z M42.7,52.9c0,1.1-0.9,2.1-2.1,2.1c-1.1,0-2-0.9-2-2.1V37.2c0-1.1,0.9-2.1,2.1-2.1c1.1,0,2,0.9,2,2.1
		V52.9z M61.4,52.9c0,0.9-0.6,1.7-1.4,2c-0.2,0.1-0.4,0.1-0.6,0.1c-0.7,0-1.3-0.3-1.7-0.8l-8-10.9v9.6c0,1.1-0.9,2.1-2.1,2.1
		c-1.1,0-2-0.9-2-2.1V37.2c0-0.9,0.6-1.7,1.4-2c0.2-0.1,0.4-0.1,0.6-0.1c0.6,0,1.2,0.3,1.6,0.8l8,10.9v-9.7c0-1.1,0.9-2.1,2.1-2.1
		c1.1,0,2.1,0.9,2.1,2.1V52.9z M74,43c1.1,0,2.1,0.9,2.1,2.1c0,1.1-0.9,2.1-2.1,2.1h-5.7v3.7H74c1.1,0,2.1,0.9,2.1,2.1
		c0,1.1-0.9,2.1-2.1,2.1h-7.8c-1.1,0-2-0.9-2-2.1V37.2c0-1.1,0.9-2.1,2.1-2.1H74c1.1,0,2,0.9,2,2.1c0,1.1-0.9,2.1-2.1,2.1h-5.7V43
		H74z"/>
</g>
</svg>
