<?xml version="1.0" encoding="utf-8"?>
<!-- Generator: Adobe Illustrator 24.0.1, SVG Export Plug-In . SVG Version: 6.00 Build 0)  -->
<svg version="1.1" id="Layer_1" xmlns="http://www.w3.org/2000/svg" xmlns:xlink="http://www.w3.org/1999/xlink" x="0px" y="0px"
	 viewBox="0 0 100 100" style="enable-background:new 0 0 100 100;" xml:space="preserve">
<style type="text/css">
	.st0{fill:#4A7AFF;}
	.st1{fill:#0053BF;}
	.st2{fill:#FFFFFF;}
	.st3{fill:#DCE1EB;}
	.st4{fill:#65A2D9;}
	.st5{fill:#3A7CA5;}
	.st6{fill:#D1D1D1;}
	.st7{fill:#B7130F;}
	.st8{fill:#870A0A;}
	.st9{fill:#6C27B3;}
	.st10{fill:#501A96;}
	.st11{fill:#4376B1;}
	.st12{fill:#336699;}
	.st13{fill:#6DC02D;}
	.st14{fill:#559B18;}
	.st15{fill:#6FC32E;}
	.st16{fill:#9B8579;}
	.st17{clip-path:url(#SVGID_2_);fill:#897164;}
	.st18{fill:none;}
	.st19{fill:#DC4E41;}
	.st20{fill:#B72C25;}
</style>
<circle class="st16" cx="50" cy="50" r="50"/>
<g>
	<defs>
		<circle id="SVGID_1_" cx="50" cy="50" r="50"/>
	</defs>
	<clipPath id="SVGID_2_">
		<use xlink:href="#SVGID_1_"  style="overflow:visible;"/>
	</clipPath>
	<polygon class="st17" points="35.3,45.2 54.9,25.6 74.6,23.9 106.1,56.1 106.1,102.3 63.5,107.8 25.2,76.1 23.9,60.9 29,51.5 	"/>
</g>
<g>
	<g>
		<g>
			<path class="st2" d="M75.4,24.6c-5.4-5.4-14.1-5.4-19.5,0L44.4,36.1c-5.6,5.6-5.1,14.4,0,19.5c0.8,0.8,1.8,1.5,2.8,2.1l2.1-2.1
				c1.4-1.4,0.9-3,0.9-4.2c-0.3-0.2-0.6-0.4-0.9-0.7c-2.6-2.6-2.7-7,0-9.7c0.4-0.4,11.3-11.3,11.5-11.5c2.7-2.7,7.1-2.7,9.7,0
				c2.7,2.7,2.7,7.1,0,9.7l-7.6,7.6c0.2,1.2,1.5,4.1,0.9,8.9c0,0,0.1-0.1,0.1-0.1l11.5-11.5C80.8,38.7,80.8,30,75.4,24.6z"/>
		</g>
	</g>
	<g>
		<g>
			<path class="st2" d="M56.5,43.5c-0.8-0.8-1.8-1.5-2.8-2.1l-2.1,2.1c-1.4,1.4-0.9,3-0.9,4.2c0.3,0.2,0.6,0.4,0.9,0.7
				c2.6,2.6,2.7,7,0,9.7c-0.4,0.4-12.2,12.2-12.4,12.4c-2.7,2.7-7.1,2.7-9.7,0c-2.7-2.7-2.7-7.1,0-9.7l8.5-8.5
				c-0.2-1.2-1.5-4.1-0.9-8.9c0,0-0.1,0.1-0.1,0.1L24.6,55.9c-5.4,5.4-5.4,14.1,0,19.5c5.4,5.4,14.1,5.4,19.5,0L56.5,63
				C62,57.5,61.7,48.6,56.5,43.5z"/>
		</g>
	</g>
</g>
<g>
	<path class="st18" d="M44.4,36.1c-5.6,5.6-5.1,14.4,0,19.5c0.8,0.8,1.8,1.5,2.8,2.1l2.1-2.1c1.4-1.4,0.9-3,0.9-4.2
		c-0.3-0.2-0.6-0.4-0.9-0.7c-2.6-2.6-2.7-7,0-9.7c0.2-0.2,2.9-2.9,5.7-5.7v-9.7L44.4,36.1z"/>
	<path class="st18" d="M55.9,24.6l-1,1l1.8-1.7C56.4,24.1,56.1,24.4,55.9,24.6z"/>
	<path class="st6" d="M60.8,29.5c2.7-2.7,7.1-2.7,9.7,0c2.7,2.7,2.7,7.1,0,9.7l-7.6,7.6c0.2,1.2,1.5,4.1,0.9,8.9
		c0,0,0.1-0.1,0.1-0.1l11.5-11.5c5.4-5.4,5.4-14.1,0-19.5c-5.1-5.1-13.3-5.4-18.7-0.7l-1.8,1.7v9.7C57.7,32.5,60.6,29.6,60.8,29.5z"
		/>
	<path class="st18" d="M53.8,41.4l-2.1,2.1c-1.4,1.4-0.9,3-0.9,4.2c0.3,0.2,0.6,0.4,0.9,0.7c2.6,2.6,2.7,7,0,9.7
		c-0.4,0.4-12.2,12.2-12.4,12.4c-2.7,2.7-7.1,2.7-9.7,0c-2.7-2.7-2.7-7.1,0-9.7l8.5-8.5c-0.2-1.2-1.5-4.1-0.9-8.9
		c0,0-0.1,0.1-0.1,0.1L24.6,55.9c-5.4,5.4-5.4,14.1,0,19.5c5.4,5.4,14.1,5.4,19.5,0l10.8-10.8V42.1C54.5,41.8,54.2,41.6,53.8,41.4z"
		/>
	<path class="st6" d="M56.5,43.5c-0.5-0.5-1.1-1-1.6-1.4v22.5l1.6-1.6C62,57.5,61.7,48.6,56.5,43.5z"/>
</g>
</svg>
