<?xml version="1.0" encoding="utf-8"?>
<!-- Generator: Adobe Illustrator 24.0.1, SVG Export Plug-In . SVG Version: 6.00 Build 0)  -->
<svg version="1.1" id="Layer_1" xmlns="http://www.w3.org/2000/svg" xmlns:xlink="http://www.w3.org/1999/xlink" x="0px" y="0px"
	 viewBox="0 0 100 100" style="enable-background:new 0 0 100 100;" xml:space="preserve">
<style type="text/css">
	.st0{fill:#4A66A0;}
	.st1{fill:#4F3903;}
	.st2{fill:#F93DD1;}
	.st3{fill:#FFFFFF;}
	.st4{fill:#4CAF50;}
	.st5{fill:none;}
	.st6{fill:#DD2A27;}
</style>
<circle class="st2" cx="50" cy="50" r="50"/>
<g>
	<path class="st3" d="M46.6,49.6c1.8,1.2,4.9,1.2,6.7,0c0,0,0,0,0,0L84,29.2c-1-2.9-3.8-5-7-5H23c-3.2,0-6,2.1-7,5L46.6,49.6
		C46.6,49.6,46.6,49.6,46.6,49.6L46.6,49.6z M46.6,49.6"/>
	<path class="st3" d="M55.6,53C55.6,53,55.6,53,55.6,53c-1.6,1-3.6,1.6-5.6,1.6c-2,0-4-0.5-5.6-1.6h0L15.6,33.8v34.5
		c0,4.1,3.3,7.4,7.4,7.4h54c4.1,0,7.4-3.3,7.4-7.4V33.8L55.6,53z M55.6,53"/>
</g>
</svg>
