<?xml version="1.0" encoding="utf-8"?>
<!-- Generator: Adobe Illustrator 24.0.1, SVG Export Plug-In . SVG Version: 6.00 Build 0)  -->
<svg version="1.1" id="Layer_1" xmlns="http://www.w3.org/2000/svg" xmlns:xlink="http://www.w3.org/1999/xlink" x="0px" y="0px"
	 viewBox="0 0 100 100" style="enable-background:new 0 0 100 100;" xml:space="preserve">
<style type="text/css">
	.st0{fill:#4A66A0;}
	.st1{fill:#4F3903;}
	.st2{fill:#F93DD1;}
	.st3{fill:#FFFFFF;}
	.st4{fill:#4CAF50;}
	.st5{fill:none;}
	.st6{fill:#DD2A27;}
</style>
<circle class="st1" cx="50" cy="50" r="50"/>
<path class="st3" d="M80.2,19.8H19.8v24v36.4h60.4V43.8V19.8z M71.9,26.8l1.3,0v1.3V37L63,37l0-10.2L71.9,26.8z M41.4,43.8
	c1.9-2.7,5.1-4.4,8.6-4.4c3.5,0,6.7,1.8,8.6,4.4c2.6,3.6,3,8.9-0.9,14C49,64.5,39.4,58.3,39.4,50C39.4,47.7,40.1,45.5,41.4,43.8z
	 M74.3,74.3H25.7V43.8h9c-2.1,5.2-1.7,11.6,3,17.8c0.3,0.4,0.7,0.8,1.1,1.1c13.3,9.3,27.7-0.1,27.7-12.7c0-2.2-0.4-4.3-1.2-6.2h9
	V74.3z"/>
</svg>
