<?xml version="1.0" encoding="utf-8"?>
<!-- Generator: Adobe Illustrator 24.0.1, SVG Export Plug-In . SVG Version: 6.00 Build 0)  -->
<svg version="1.1" id="Layer_1" xmlns="http://www.w3.org/2000/svg" xmlns:xlink="http://www.w3.org/1999/xlink" x="0px" y="0px"
	 viewBox="0 0 100 100" style="enable-background:new 0 0 100 100;" xml:space="preserve">
<style type="text/css">
	.st0{fill:#4A7AFF;}
	.st1{fill:#0053BF;}
	.st2{fill:#FFFFFF;}
	.st3{fill:#DCE1EB;}
	.st4{fill:#65A2D9;}
	.st5{fill:#3A7CA5;}
	.st6{fill:#D1D1D1;}
	.st7{fill:#B7130F;}
	.st8{fill:#870A0A;}
	.st9{fill:#6C27B3;}
	.st10{fill:#501A96;}
	.st11{fill:#4376B1;}
	.st12{fill:#336699;}
	.st13{fill:#6DC02D;}
	.st14{fill:#559B18;}
	.st15{fill:#6FC32E;}
	.st16{fill:#9B8579;}
	.st17{clip-path:url(#SVGID_2_);fill:#897164;}
	.st18{fill:none;}
	.st19{fill:#DC4E41;}
	.st20{fill:#B72C25;}
</style>
<g>
	<circle class="st11" cx="50" cy="50" r="50"/>
	<path class="st12" d="M99.8,45.6L77.1,22.9c-13.9,1.8-28.4,1.5-42.2,1.9c-5.7,0-11.4,2.7-10.4,9.1c2,12.8,3,25.3,0.7,38.4
		c-0.4,1.7-1.2,3.3-2.2,4.9l22.7,22.7c1.4,0.1,2.9,0.2,4.4,0.2c27.6,0,50-22.4,50-50C100,48.5,99.9,47.1,99.8,45.6z"/>
	<path class="st2" d="M73.4,21.4H26.6c-2.9,0-5.2,2.3-5.2,5.2v46.9c0,2.9,2.3,5.2,5.2,5.2h46.9c2.9,0,5.2-2.3,5.2-5.2V26.6
		C78.6,23.7,76.3,21.4,73.4,21.4L73.4,21.4z M39.1,70.8c0,0.8-0.7,1.5-1.5,1.5h-6.4c-0.8,0-1.5-0.7-1.5-1.5V43.9
		c0-0.8,0.7-1.5,1.5-1.5h6.4c0.8,0,1.5,0.7,1.5,1.5L39.1,70.8L39.1,70.8z M34.4,39.9c-3.4,0-6.1-2.7-6.1-6.1c0-3.4,2.7-6.1,6.1-6.1
		c3.4,0,6.1,2.7,6.1,6.1C40.5,37.1,37.7,39.9,34.4,39.9L34.4,39.9z M72.6,70.9c0,0.8-0.6,1.4-1.4,1.4h-6.9c-0.8,0-1.4-0.6-1.4-1.4
		V58.3c0-1.9,0.6-8.2-4.9-8.2c-4.2,0-5.1,4.4-5.3,6.3v14.5c0,0.8-0.6,1.4-1.4,1.4h-6.7c-0.8,0-1.4-0.6-1.4-1.4V43.8
		c0-0.8,0.6-1.4,1.4-1.4h6.7c0.8,0,1.4,0.6,1.4,1.4v2.3c1.6-2.4,3.9-4.2,8.9-4.2c11,0,11,10.3,11,16L72.6,70.9L72.6,70.9L72.6,70.9z
		"/>
	<path class="st6" d="M73.4,21.4H49.9v21h1.5c0.8,0,1.4,0.6,1.4,1.4v2.3c1.6-2.4,3.9-4.2,8.9-4.2c11,0,11,10.3,11,16v13
		c0,0.8-0.6,1.4-1.4,1.4h-6.9c-0.8,0-1.4-0.6-1.4-1.4V58.3c0-1.9,0.6-8.2-4.9-8.2c-4.2,0-5.1,4.4-5.3,6.3v14.5
		c0,0.8-0.6,1.4-1.4,1.4h-1.5v6.3h23.6c2.9,0,5.2-2.3,5.2-5.2V26.6C78.6,23.7,76.3,21.4,73.4,21.4z"/>
</g>
</svg>
