<?xml version="1.0" encoding="utf-8"?>
<!-- Generator: Adobe Illustrator 24.0.1, SVG Export Plug-In . SVG Version: 6.00 Build 0)  -->
<svg version="1.1" id="Layer_1" xmlns="http://www.w3.org/2000/svg" xmlns:xlink="http://www.w3.org/1999/xlink" x="0px" y="0px"
	 viewBox="0 0 250 250" style="enable-background:new 0 0 250 250;" xml:space="preserve">
<style type="text/css">
	.st0{opacity:0.25;clip-path:url(#XMLID_2_);}
	.st1{opacity:0.25;clip-path:url(#XMLID_3_);}
	.st2{fill:#B92028;stroke:#000000;stroke-width:2.1266;stroke-miterlimit:10;}
	.st3{fill:#FFFFFF;}
	.st4{opacity:0.25;clip-path:url(#XMLID_4_);}
	.st5{opacity:0.25;clip-path:url(#XMLID_5_);}
	.st6{fill:#F3A92B;stroke:#000000;stroke-width:2.1266;stroke-miterlimit:10;}
	.st7{opacity:0.15;clip-path:url(#XMLID_6_);}
	.st8{fill:#F3A92B;stroke:#000000;stroke-width:2.0068;stroke-miterlimit:10;}
	.st9{fill:none;stroke:#000000;stroke-width:3.0102;stroke-linecap:round;stroke-miterlimit:10;}
	.st10{opacity:0.25;clip-path:url(#XMLID_7_);}
	.st11{opacity:0.15;clip-path:url(#XMLID_8_);fill:#EC2227;}
	.st12{fill:#F3A92B;}
	.st13{fill:#EF5768;stroke:#000000;stroke-width:1.6912;stroke-miterlimit:10;}
	.st14{fill:#30302F;stroke:#000000;stroke-width:2.1266;stroke-miterlimit:10;}
	.st15{fill:#FFFFFF;stroke:#000000;stroke-width:2.1266;stroke-miterlimit:10;}
	.st16{fill:none;stroke:#000000;stroke-width:1.4177;stroke-miterlimit:10;}
	.st17{fill:#F49CB2;}
</style>
<g>
	<g>
		<defs>
			<path id="XMLID_50_" d="M99,213.8c0,0-23.4,13.9-36.2-8C58,196.3,44.7,178,39,188.1c4.3-9.2,24.5-8,42.8-3.5
				c10.6,2.6,18.6-0.7,23.4-10.6c4.8,1.1,7.2,6.7,5,18.8C107.9,204.7,99,213.8,99,213.8z"/>
		</defs>
		<use xlink:href="#XMLID_50_"  style="overflow:visible;fill:#EA2229;"/>
		<clipPath id="XMLID_2_">
			<use xlink:href="#XMLID_50_"  style="overflow:visible;"/>
		</clipPath>
		<path class="st0" d="M37.3,194.2c0,0,6.4-13.8,36.2-0.5c26.9,12.1,29.6-6.4,34.4-12.9c4.1,6.4-10,47.7-10,47.7L67.4,228
			L37.3,194.2z"/>
		<use xlink:href="#XMLID_50_"  style="overflow:visible;fill:none;stroke:#000000;stroke-width:1.6312;stroke-miterlimit:10;"/>
	</g>
	<g>
		<defs>
			<path id="XMLID_49_" d="M133.3,202.7l-8.8,36.6c0,0-21,2.4-36.4-16.5c5.8-9.9,27.9-54.6,27.9-54.6l23.6-0.5c0,0,8.3,44.2,13.2,64
				c-2.3,5.7-14.1,8.4-18,7.6L133.3,202.7z"/>
		</defs>
		<use xlink:href="#XMLID_49_"  style="overflow:visible;fill:#30302F;"/>
		<clipPath id="XMLID_3_">
			<use xlink:href="#XMLID_49_"  style="overflow:visible;"/>
		</clipPath>
		<path class="st1" d="M84.5,225.6c0,0,17.4,7.8,22.3,7.4l4.6-15.9c0,0-11-10.3-2.1-26.9c6.7,2.5,12.4,1.8,12.4,1.8l5.3-14.2
			l42.9,14.2l1.1,50.3l-52.1,12.8l-39.7-3.2L84.5,225.6z"/>
		<use xlink:href="#XMLID_49_"  style="overflow:visible;fill:none;stroke:#000000;stroke-width:2.1266;stroke-miterlimit:10;"/>
	</g>
	<path class="st2" d="M132,191.8l-24-17.5l-0.5,6.9C107.5,181.2,112.6,183.6,132,191.8z"/>
	<path class="st3" d="M143.5,220.3c0,0,2,0.9,5.2-1.5l1.4,8.3c0,0-1.3,2.8-6.8,1.1L143.5,220.3z"/>
	<path class="st3" d="M97.6,212.6c0,0,6,7.8,17.2,7.8l-3.5,8.5c0,0-12.2-1.1-17.5-9L97.6,212.6z"/>
	<g>
		<defs>
			<path id="XMLID_48_" d="M131.6,191.7c0,0-7.7,28.2-8.7,33c0.9,4.8,10.3,12.9,12.3,12.5c3.9-0.7,12.1-10.6,12.3-12.8
				c-0.7-5.8-7.3-32.8-7.3-32.8H131.6z"/>
		</defs>
		<use xlink:href="#XMLID_48_"  style="overflow:visible;fill:#EA2229;"/>
		<clipPath id="XMLID_4_">
			<use xlink:href="#XMLID_48_"  style="overflow:visible;"/>
		</clipPath>
		<path class="st4" d="M134.8,242.9c0,0-0.2-5.3-0.2-9.1s0.3-48.5,0.3-48.5l-9-2.1l-12.6,47C113.4,230.1,130.2,249.6,134.8,242.9z"
			/>
		<use xlink:href="#XMLID_48_"  style="overflow:visible;fill:none;stroke:#000000;stroke-width:1.9085;stroke-miterlimit:10;"/>
	</g>
	<g>
		<defs>
			<path id="XMLID_47_" d="M146.7,181c0,0-2.8,9.6-6.4,11.6c-4-0.4-5.3-0.2-7.3-0.5c-0.7-1.1-4.5-5.6-6.8-10.8
				C131.9,181.2,146.7,181,146.7,181z"/>
		</defs>
		<use xlink:href="#XMLID_47_"  style="overflow:visible;fill:#EA2229;"/>
		<clipPath id="XMLID_5_">
			<use xlink:href="#XMLID_47_"  style="overflow:visible;"/>
		</clipPath>
		<path class="st5" d="M135,203.2c0,0-0.7-22,0.7-26.6l-19-2.1l3.4,27.3C120.1,201.8,131.5,206.6,135,203.2z"/>
		<use xlink:href="#XMLID_47_"  style="overflow:visible;fill:none;stroke:#000000;stroke-width:2.1266;stroke-miterlimit:10;"/>
	</g>
	<g>
		<path class="st3" d="M138.8,217.9c-0.1-2.6-2.2-4.7-4.8-4.9c-2.7-0.2-5.1,1.8-5.5,4.4l0,0.1l-0.7,10l9.8,0.7c0.1,0,0.2,0,0.2,0
			c0.1,0,0.1,0,0.2,0l0.4,0l0,0c2.6-0.1,4.7-2.2,4.9-4.8C143.4,220.6,141.5,218.2,138.8,217.9z M137,224.9c-0.1,0-0.4,0-0.4,0
			c-0.1,0-0.3,0-0.6,0l-4.6-0.3l-0.2,0l0,0h0l0.4-5.1c0-0.1,0-0.3,0-0.4c0-0.1,0-0.3,0-0.4l0-0.1l0,0c0,0,0,0,0-0.1
			c0.3-0.8,1.1-1.4,2-1.3c1.1,0.1,2,1.1,1.9,2.2c0,0.1-0.1,1.5-0.1,1.5l1.8,0.1l0.1,0c0.9,0.3,1.4,1.2,1.3,2.1
			C138.7,224.1,137.9,224.7,137,224.9z"/>
	</g>
	<g>
		<path class="st6" d="M183.1,157.6c0,0,23.1-6.5,27.1-30.2c4.1-23.8-9-32.5-9-32.5L183.1,157.6z"/>
		<g>
			<defs>
				<path id="XMLID_46_" d="M207.1,117.8c-5.3,41.4-43.2,70.7-84.6,65.4c-41.4-5.3-76.4-46.9-71-88.3c5.3-41.4,38.3-70.3,89.1-63.2
					C181.8,37.4,212.4,76.4,207.1,117.8z"/>
			</defs>
			<use xlink:href="#XMLID_46_"  style="overflow:visible;fill:#FFFFFF;"/>
			<clipPath id="XMLID_6_">
				<use xlink:href="#XMLID_46_"  style="overflow:visible;"/>
			</clipPath>
			<path class="st7" d="M127.9,191.3c0,0-41.4-13.7-46.7-46.4c6.1-5.6,23.7-37.8,0.2-59.7c0-20.1,38.1-48.3,73-40.9
				c18.5,10.8,15.2,8,20.5,16.4c8.5,4.8,26.3,5.4,30.9-1.4c0.2-12.1-61.7-47-61.7-47L58,13.4l-40.4,97L44,165l63.6,30.1L127.9,191.3
				z"/>
			<use xlink:href="#XMLID_46_"  style="overflow:visible;fill:none;stroke:#000000;stroke-width:2.8354;stroke-miterlimit:10;"/>
		</g>
		<path class="st8" d="M104.2,166.3c-0.5,3.8-5.5,6.4-11.2,5.6c-5.7-0.7-9.9-4.4-9.4-8.3c0.5-3.8,5.5-6.4,11.2-5.6
			C100.5,158.8,104.7,162.5,104.2,166.3z"/>
		<path class="st9" d="M71.8,141.2c0,0,3.3,15.4,15.8,22.8"/>
		<g>
			<defs>
				<path id="XMLID_45_" d="M85.7,117.5c-1.4,16.9-11,30-21.5,29.1c-10.5-0.8-17.9-15.3-16.5-32.2c1.4-16.9,11-30,21.5-29.1
					C79.6,86.2,87,100.6,85.7,117.5z"/>
			</defs>
			<use xlink:href="#XMLID_45_"  style="overflow:visible;fill:#F3A92B;"/>
			<clipPath id="XMLID_7_">
				<use xlink:href="#XMLID_45_"  style="overflow:visible;"/>
			</clipPath>
			<path class="st10" d="M45,127.1c0,0,6.9,14.4,20.7,12.4c13.7-1.9,17.9-32.1,9.5-39.9c0,0,6.6-15,17.3-24.4L57.8,61.9
				C57.8,61.9,36.7,113.2,45,127.1z"/>
			<use xlink:href="#XMLID_45_"  style="overflow:visible;fill:none;stroke:#000000;stroke-width:2.1266;stroke-miterlimit:10;"/>
		</g>
		<g>
			<defs>
				<path id="XMLID_44_" d="M55.4,100.1c-4.5,2.5-8,8.3-8.9,15.4c-1.3,10.1,3.3,19,10.3,19.9c7,0.9,13.7-6.6,14.9-16.6
					c0.8-6.5-0.8-12.6-3.9-16.2c0,0,5.4-35.2,34.1-49.7c28.7-14.5,58-14.4,81.9,2c0,0-12.3-26.3-56.1-26
					C83.9,28.9,54.4,65.6,55.4,100.1z"/>
			</defs>
			<use xlink:href="#XMLID_44_"  style="overflow:visible;fill:#EC2227;"/>
			<clipPath id="XMLID_8_">
				<use xlink:href="#XMLID_44_"  style="overflow:visible;"/>
			</clipPath>
			<path class="st11" d="M39.1,128.7c0,0,14.3,9.3,19.5,0.8c5.1-8.4,4.6-20,0.9-27.9C60.5,82.8,95.7,3,178.6,50.1
				c5.2-6.4-15.7-32.7-15.7-32.7S83.8,14.3,61.1,36C38.4,57.8,39.1,128.7,39.1,128.7z"/>
			<use xlink:href="#XMLID_44_"  style="overflow:visible;fill:none;stroke:#000000;stroke-width:2.1266;stroke-miterlimit:10;"/>
		</g>
		<g>
			<path class="st3" d="M63.8,114.9c0.6-2.5-0.8-5.1-3.3-6c-2.6-0.9-5.4,0.3-6.5,2.7l0,0.1l-3.4,9.4l9.2,3.3c0.1,0,0.1,0.1,0.2,0.1
				c0.1,0,0.1,0,0.2,0.1l0.4,0.1l0,0c2.5,0.6,5.1-0.8,6-3.3C67.5,118.8,66.3,116,63.8,114.9z M60.2,121.1c-0.1,0-0.4-0.1-0.4-0.1
				c-0.1,0-0.3-0.1-0.5-0.2l-4.3-1.6l-0.2-0.1l0,0l0,0l1.7-4.8c0-0.1,0.1-0.2,0.1-0.4c0-0.1,0.1-0.2,0.2-0.3l0-0.1l0,0
				c0,0,0,0,0-0.1c0.5-0.7,1.5-1,2.3-0.7c1.1,0.4,1.6,1.5,1.2,2.6c0,0.1-0.5,1.4-0.5,1.4l1.7,0.6l0.1,0c0.8,0.5,1,1.5,0.7,2.4
				C62,120.8,61.1,121.2,60.2,121.1z"/>
		</g>
		<g>
			<path class="st12" d="M87.9,167.4c0,0,4.3-2.1,1.4-5.6"/>
			<path d="M87.9,167.4c0.9-0.7,1.7-1.5,2-2.5c0.2-0.5,0.2-1,0-1.5c-0.1-0.5-0.4-1-0.6-1.5c0.2,0.2,0.4,0.4,0.6,0.6
				c0.2,0.2,0.4,0.5,0.5,0.8c0.3,0.6,0.3,1.2,0.1,1.8c-0.2,0.6-0.6,1.1-1,1.5C89,167,88.5,167.3,87.9,167.4z"/>
		</g>
		<g>
			<path class="st3" d="M140.2,43.7c0,0,32.5-0.5,33.6-28.6c0,0,6.8,10.6,2.4,22.7c0,0,18.4-7.8,17.8-27.2c0,0,14.5,38.1-16.7,51.6"
				/>
			<path d="M140.2,43.7c2-0.2,4-0.5,6-0.9c2-0.4,3.9-1,5.8-1.6c3.8-1.3,7.4-3.2,10.5-5.7c1.6-1.2,3-2.6,4.2-4.1
				c1.2-1.5,2.3-3.2,3.1-4.9c0.8-1.8,1.4-3.6,1.8-5.5c0.4-1.9,0.6-3.8,0.7-5.8v0l0.4-4.8l2.4,4c1.1,1.9,1.9,3.7,2.6,5.7
				c0.7,2,1.1,4,1.3,6c0.2,1,0.2,2.1,0.2,3.1c0,1,0,2.1-0.2,3.1c-0.2,2.1-0.7,4.1-1.4,6.1l-2-1.9c1.1-0.5,2.4-1.2,3.5-2
				c1.2-0.7,2.3-1.6,3.3-2.4c2.1-1.8,4-3.8,5.5-6c0.8-1.1,1.4-2.3,2.1-3.5c0.3-0.6,0.5-1.3,0.8-1.9c0.3-0.6,0.5-1.3,0.6-1.9
				c0.8-2.6,1-5.3,1-8.1l0.1-8l2.8,7.5l0,0c0.9,2.5,1.5,5,2,7.5c0.5,2.5,0.8,5.1,1,7.6c0.3,5.1,0,10.3-1.3,15.3
				c-1.3,5-3.7,9.7-7.3,13.4c-3.4,3.8-7.9,6.5-12.6,8.3c2.2-1.1,4.4-2.3,6.4-3.9c1-0.7,1.9-1.6,2.9-2.4c0.5-0.4,0.9-0.9,1.3-1.3
				c0.2-0.2,0.4-0.4,0.6-0.7l0.6-0.7c1.6-1.9,2.9-4,3.9-6.2c1-2.2,1.9-4.5,2.3-6.9c1-4.8,1.1-9.8,0.6-14.6c-0.3-2.4-0.7-4.9-1.3-7.3
				c-0.6-2.4-1.2-4.8-2.1-7v0l2.9-0.6c0,3-0.2,6.1-1.1,9c-0.2,0.7-0.4,1.5-0.7,2.2c-0.3,0.7-0.6,1.4-0.9,2.1
				c-0.7,1.3-1.4,2.7-2.3,3.9c-1.7,2.5-3.8,4.7-6.1,6.6c-1.2,0.9-2.4,1.8-3.6,2.7c-1.3,0.8-2.5,1.5-4,2.2l-3,1.4l1-3.3
				c0.6-1.8,1.1-3.5,1.2-5.4c0.1-0.9,0.1-1.8,0.2-2.8c-0.1-0.9-0.1-1.8-0.2-2.8c-0.2-1.8-0.6-3.7-1.2-5.4c-0.6-1.7-1.4-3.5-2.2-5
				l2.8-0.8l0,0c-0.3,4.2-1.2,8.5-3.2,12.3c-2,3.8-4.9,7.1-8.4,9.4c-3.5,2.4-7.3,4-11.3,5.1C148.4,43.1,144.3,43.7,140.2,43.7z"/>
		</g>
	</g>
	<path class="st13" d="M140.8,175c0,0-23-7.4-9.6-22.3c4.6,2.1,17,5,27.3,1.4C159.6,158.6,160.3,175,140.8,175z"/>
	<g>
		<path class="st14" d="M107.3,189.1c0,0,1.2,23.8,7.6,26.2c3.1,1.2,11.2-7.1,11.2-7.1l-7.6-18.1"/>
		<path class="st14" d="M116.9,203.4l13.5-13.5c0,0-0.7,3.8,2.1,8.5c2.8,4.7,5.4,7.1,5.4,7.1s-19.8,9.9-22.4,9.9s-4.7-5.9-4.7-5.9"
			/>
	</g>
	<path class="st14" d="M144.3,201.3c0,0,6.6,12,8.7,13.2c2.1,1.2,10.2-1.7,10.4-5.9c0.2-4.3-7.8-13.2-7.8-13.2L144.3,201.3z"/>
	<path class="st15" d="M145.9,174c0,0,4.1-8.4,7.2-8.3c3.1,0.1,7.3,4.7,7,12.5c-0.4,7.8-0.7,21.4-4.4,25.3s-9.5,5.4-11.9-0.6
		S143.1,179.7,145.9,174z"/>
	<path class="st15" d="M129.4,199.9c0,0-2.6-6.9,0.9-16.3c3.5-9.5,9.7-19.1,14.6-19.6s5,9.7,4,19.4s-6.6,22-11.3,22.4
		C133.6,206.1,130.4,203.2,129.4,199.9z"/>
	<path d="M101.8,134.9c0,0,21.3,3.2,30.5,3.2l-3.2,1.4l2.1,1.8c0,0-22-0.4-31.5-2.5l3.5-1.8L101.8,134.9z"/>
	<path d="M164.9,141.6c0,0,20.6,0,27.3-1.4l-3.2-1.1l3.5-2.5c0,0-19.8,1.8-28.4,1.8l2.1,1.8L164.9,141.6z"/>
	<path class="st16" d="M100.8,115.1c0,0,5-11.3,15.9-11c11,0.4,17.4,12.4,17.4,12.4"/>
	<path class="st16" d="M167.8,118.6c0,0,6.4-10.3,16.7-9.6s11.7,9.6,11.7,9.6"/>
	<ellipse class="st17" cx="96.2" cy="144.1" rx="10.6" ry="2.8"/>
	<ellipse class="st17" cx="195.4" cy="145.2" rx="10.6" ry="2.8"/>
</g>
</svg>
